<svg xmlns="http://www.w3.org/2000/svg" xmlns:xlink="http://www.w3.org/1999/xlink" viewBox="0 0 1526 478"><defs><style>.cls-1{mask:url(#mask);filter:url(#luminosity-noclip-2);}.cls-2{mix-blend-mode:multiply;fill:url(#Безымянный_градиент_2);}.cls-12,.cls-3{fill:none;}.cls-4{clip-path:url(#clip-path);}.cls-5,.cls-9{fill:#fff;}.cls-6{fill:#001e50;}.cls-7{mask:url(#mask-2);}.cls-8{opacity:0.48;fill:url(#linear-gradient);}.cls-9{font-size:123.51px;font-family:MyriadPro-Regular, Myriad Pro;}.cls-10{letter-spacing:0em;}.cls-11{letter-spacing:-0.01em;}.cls-12{stroke:#ffb200;stroke-miterlimit:10;stroke-width:3px;}.cls-13{fill:#efad6c;}.cls-14{fill:#201d40;}.cls-15{fill:#2c2858;}.cls-16{fill:#ffb200;}.cls-17{fill:#e69a06;}.cls-18{fill:#95a6db;}.cls-19{fill:#768fdb;}.cls-20{fill:#494c7f;}.cls-21{fill:#063d76;}.cls-22{filter:url(#luminosity-noclip);}</style><filter id="luminosity-noclip" x="-89" y="-8431" width="1117.99" height="32766" filterUnits="userSpaceOnUse" color-interpolation-filters="sRGB"><feFlood flood-color="#fff" result="bg"/><feBlend in="SourceGraphic" in2="bg"/></filter><mask id="mask" x="-89" y="-8431" width="1117.99" height="32766" maskUnits="userSpaceOnUse"><g class="cls-22"/></mask><linearGradient id="Безымянный_градиент_2" x1="1006.22" y1="101.98" x2="-97.42" y2="295.1" gradientUnits="userSpaceOnUse"><stop offset="0" stop-color="#333"/><stop offset="0.21" stop-color="#363636"/><stop offset="0.35" stop-color="#3f3f3f"/><stop offset="0.48" stop-color="#4f4f4f"/><stop offset="0.59" stop-color="#656565"/><stop offset="0.7" stop-color="#818181"/><stop offset="0.8" stop-color="#a4a4a4"/><stop offset="0.9" stop-color="#cdcdcd"/><stop offset="0.99" stop-color="#fcfcfc"/><stop offset="1" stop-color="#fff"/></linearGradient><clipPath id="clip-path"><rect class="cls-3" width="1526" height="478"/></clipPath><filter id="luminosity-noclip-2" x="-89" y="19.91" width="1117.99" height="438.17" filterUnits="userSpaceOnUse" color-interpolation-filters="sRGB"><feFlood flood-color="#fff" result="bg"/><feBlend in="SourceGraphic" in2="bg"/></filter><mask id="mask-2" x="-89" y="19.91" width="1117.99" height="438.17" maskUnits="userSpaceOnUse"><g class="cls-1"><path class="cls-2" d="M-89,19.91H1029S879.05,55.45,818,235.11c-.72,2.1-1.45,4.19-2.19,6.25C769,371.58,645.07,458.09,506.71,458.09H-89Z"/></g></mask><linearGradient id="linear-gradient" x1="-89" y1="239" x2="1028.99" y2="239" gradientUnits="userSpaceOnUse"><stop offset="0" stop-color="#ffb200"/><stop offset="0.55" stop-color="#fdb000"/><stop offset="0.79" stop-color="#f6a902"/><stop offset="0.97" stop-color="#e99d05"/><stop offset="1" stop-color="#e69a06"/></linearGradient></defs><g id="Layer_1" data-name="Layer 1"><g class="cls-4"><rect class="cls-5" x="-88.94" y="-4.43" width="1703.88" height="486.86"/><path class="cls-6" d="M1614.88,32.82V-4.43H-89V482.43H602.91c110,0,211.16-61.51,260.78-159.74a275.17,275.17,0,0,0,18-44.74C933.08,107.79,1073.78,62,1211.06,56.19S1614.88,32.82,1614.88,32.82Z"/><g class="cls-7"><path class="cls-8" d="M-89,19.91H1029S879.05,55.45,818,235.11c-.72,2.1-1.45,4.19-2.19,6.25C769,371.58,645.07,458.09,506.71,458.09H-89Z"/></g></g></g><g id="Layer_2" data-name="Layer 2"><text class="cls-9" transform="translate(121.09 254.55)"><tspan class="cls-10">A</tspan><tspan x="75.22" y="0">bout </tspan><tspan class="cls-11" x="348.42" y="0">U</tspan><tspan x="427.59" y="0">s</tspan></text><line class="cls-12" x1="124.17" y1="277.45" x2="592.65" y2="277.45"/><polygon id="v-2" class="cls-13" points="1154.64 174.88 1154.65 174.88 1162.64 174.91 1164.45 193.78 1155.12 198.71 1145.17 193.84 1146.78 174.91 1154.64 174.88"/><ellipse class="cls-13" cx="1150.16" cy="159.55" rx="18.83" ry="23.97" transform="translate(23.06 438.76) rotate(-21.81)"/><path d="M1163.45,156.59a1.81,1.81,0,1,0,.45-2.52A1.8,1.8,0,0,0,1163.45,156.59Z"/><path d="M1149.9,162.12a2,2,0,1,0,3.21-2.24,2,2,0,1,0-3.21,2.24Z"/><path d="M1160.7,159.47c2.44,1.93,5.5,4.26,5.5,4.26a4.75,4.75,0,0,1-3.41,4.22c1.25-1.13,2.34-2.63,1-4.37S1160.7,159.47,1160.7,159.47Z"/><path d="M1146.34,160.94a.76.76,0,0,1-.21,0,.89.89,0,0,1-.67-1.08c.31-1.33,1.64-3.83,4.39-3.85a.92.92,0,0,1,.91.9.9.9,0,0,1-.9.91c-2,0-2.64,2.43-2.65,2.46A.9.9,0,0,1,1146.34,160.94Z"/><path d="M1161.55,152.76a.75.75,0,0,1-.65-1.13,3.76,3.76,0,0,1,2.32-1.66,3.89,3.89,0,0,1,3.14,1,.75.75,0,0,1,.11,1.05.74.74,0,0,1-1,.12,2.5,2.5,0,0,0-1.93-.69,2.18,2.18,0,0,0-1.29.94A.75.75,0,0,1,1161.55,152.76Z"/><path d="M1126,157.36c-4.16-11.84,6-18.65,6-18.65s-2.72-.25-3-4.06a10.08,10.08,0,0,0,6.33-.14c13.51-4.89,22.81-4.83,22.81,1,0,2.06,8.92.65,8.17,14.49,0-1-3.13-6.66-6.15-7.23s-.29,3.46-6.58,4.32-11-.67-14.91,2.91c-3,3.13-3.79,19-3.33,20C1134.18,167.74,1127.79,162.57,1126,157.36Z"/><path d="M1169.5,159.47s.58,7.22-.46,9.45c-1.08-2.9-3.41.17-5.59.46-5.27.7-14.79-1.06-15.73,6.85-6.45,2-12.49-11.76-12.49-11.76-.37,15.42,10.91,24.17,27.15,21.6C1173.07,184.39,1174.06,169.49,1169.5,159.47Z"/><path class="cls-13" d="M1158.39,174.25a13.76,13.76,0,0,1-3.26-1.27.62.62,0,0,1-.25-.82.61.61,0,0,1,.82-.24c2.5,1.33,4.73,1.71,6.65,1.12a6.29,6.29,0,0,0,3.47-2.74.6.6,0,1,1,1.06.56,7.36,7.36,0,0,1-4.16,3.33A8.12,8.12,0,0,1,1158.39,174.25Z"/><path class="cls-13" d="M1135.08,164.57c2.72,1.53,3.91,4.57,2.66,6.79s-4.46,2.78-7.18,1.26-3.9-4.56-2.65-6.79S1132.37,163.05,1135.08,164.57Z"/><path d="M1134.67,171.23a.83.83,0,0,0,.21-.24,3.08,3.08,0,0,0-.33-3.76,3.29,3.29,0,0,0-3.74-.69.68.68,0,1,0,.62,1.22,1.93,1.93,0,0,1,2.14.42,1.74,1.74,0,0,1,.11,2.17.68.68,0,0,0,.27.92A.69.69,0,0,0,1134.67,171.23Z"/><path d="M1163.89,427c1.7-4.62,5.34-5.14,5.34-5.14,7.06,9.75,24.42,3.77,23.84,17-26.39-.17-37.36,0-37.36,0a97.23,97.23,0,0,1,1.17-13l1.37.25Z"/><path d="M1124.4,427.24c1.7-4.62,5.34-5.13,5.34-5.13,7.07,9.75,24.42,3.77,23.85,17-26.4-.17-37.36,0-37.36,0a95.91,95.91,0,0,1,1.16-13l1.38.25Z"/><path class="cls-14" d="M1181.44,273s4.29,62.5,2.55,76.39-7.91,31.71-7.21,77.67c-8.6,2.15-21.07,0-21.07,0s-1.84-52,7.25-75.18c-3.7-22.55-15.57-74.19-15.57-74.19Z"/><path class="cls-15" d="M1165.16,274.7s-8.65,70.16-12.89,83.47-12.49,24.56-20.16,69.83c-8.84.44-17.08,0-17.08,0s1.2-57.42,15-70.48c.46-22.87-2.23-82.37-2.23-82.37Z"/><g id="v"><path id="h-5" class="cls-16" d="M1125.27,195.07s15-5.26,20-2.85c15.57,7.5,19.14,0,19.14,0,5,.43,20,2.85,20,2.85,0,16.77,1.12,33.61.81,46.3-.21,11,1.9,41.14,1.9,41.14s-16.57,4.34-32.25,4.45c-15.67-.1-31.62-4.28-31.62-4.28s.84-30.47,1.53-41.79C1124.6,228.2,1125.27,211.8,1125.27,195.07Z"/></g><g id="c"><g id="c-2" data-name="c"><path class="cls-17" d="M1211.16,220c-6.2-14.8-24.61-24.21-26.71-24.93l-4.27,19A111.79,111.79,0,0,1,1195.44,225c-1.09,5.29-.91,10.48-4,17.17,0,0,2.66-3.67,5.94-1.49s9.06-2.2,9.06-2.2S1215.9,231.3,1211.16,220Z"/></g></g><g id="c-3" data-name="c"><g id="c-4" data-name="c"><g id="c-5" data-name="c"><path id="c-6" data-name="c" class="cls-18" d="M1207.71,257.4a1.65,1.65,0,0,0,.32.06h.35a1.67,1.67,0,0,0,1.43-1.17L1226.34,203a1.23,1.23,0,0,0,.07-.32,1.47,1.47,0,0,0,0-.21.57.57,0,0,0,0-.13.43.43,0,0,0,0-.11,1.67,1.67,0,0,0-1.15-1.33,1.55,1.55,0,0,0-.31-.07h-42l-16.68,56.65h41.47Z"/><path id="c-7" data-name="c" class="cls-19" d="M1183.32,200.88a1.67,1.67,0,0,0-2.1,1.1l-16.44,53.18,0,.13a1.68,1.68,0,0,0,1.1,2.1h0a1.68,1.68,0,0,0,2.1-1.11l16.47-53.3A1.67,1.67,0,0,0,1183.32,200.88Z"/></g></g><path id="c-8" data-name="c" class="cls-13" d="M1214.77,234.7a1.48,1.48,0,0,1,.5-.21l-.06-.08c-1-1.56-1-3.43.16-4.17a1.46,1.46,0,0,1,.59-.25,2.52,2.52,0,0,1,.77-2.8,1.94,1.94,0,0,1,1.08-.3,2.49,2.49,0,0,1,.82-2.92,2.94,2.94,0,0,1,3.2,4.83,2,2,0,0,1-.93.33c.75,1.46.6,3.05-.42,3.72a1.81,1.81,0,0,1-.59.25,2.51,2.51,0,0,1-.77,2.79,1.86,1.86,0,0,1-1,.3,2.14,2.14,0,0,1-.65,2.59,2.48,2.48,0,0,1-2.7-4.08Z"/><path class="cls-13" d="M1163.59,231.33l3.8-2.2a7.17,7.17,0,0,1,7.14-5.51l-1.7,5.51s3,2.33,10.11-1.65c7-1.57,4,3.5,6.29,3.87,3.4.54-2.48,7.22-9.42,8.24-9,1.32-10.06-.51-10.06-.51l-5.08,1.77Z"/><path id="c-9" data-name="c" class="cls-17" d="M1128.48,237.08c12.68-.88,34.32-7.15,34.32-7.15,3.46,5.31,2.5,12.37,2.5,12.37-19.7,17.27-49.34,22.85-58.44,18.69-8.3-3.79-2.44-54.34,18.41-65.92h0C1132.42,207.16,1128.48,237.08,1128.48,237.08Z"/></g><path d="M1332.89,422.3c-7.07,9.42-24.42,3.64-23.85,16.39,26.4-.16,37.36,0,37.36,0a89.53,89.53,0,0,0-1.16-12.6Z"/><path d="M1372.38,422.54c-7.07,9.43-24.42,3.65-23.85,16.4,26.39-.17,37.36,0,37.36,0a89.53,89.53,0,0,0-1.16-12.6Z"/><path class="cls-14" d="M1320.67,278.38s-4.28,60.42-2.54,73.85,7.9,30.66,7.21,75.09c8.6,2.08,21.06,0,21.06,0s1.85-50.24-7.24-72.68c3.7-21.8,15.56-71.72,15.56-71.72Z"/><path class="cls-15" d="M1337,280s8.65,67.83,12.89,80.69,12.49,23.74,20.16,67.51c8.84.43,19.38-1.75,19.38-1.75s-3.5-53.77-17.27-66.39c-.46-22.1,2.23-79.63,2.23-79.63Z"/><path class="cls-13" d="M1372.2,169.07c-4.69,11.71-16,18.23-25.16,14.55s-12.86-16.17-8.17-27.89,16-18.24,25.15-14.55S1376.89,157.35,1372.2,169.07Z"/><path d="M1342.87,159.57a1.72,1.72,0,1,1-.43-2.4A1.72,1.72,0,0,1,1342.87,159.57Z"/><path d="M1355.78,164.84a1.86,1.86,0,1,1-.46-2.59A1.86,1.86,0,0,1,1355.78,164.84Z"/><path d="M1345.49,162.32c-2.33,1.84-5.25,4.06-5.25,4.06a4.53,4.53,0,0,0,3.26,4c-1.19-1.08-2.24-2.51-1-4.17S1345.49,162.32,1345.49,162.32Z"/><path d="M1359.18,163.72a.86.86,0,0,1-.84-.66c0-.09-.6-2.33-2.52-2.34a.86.86,0,0,1,0-1.72c2.62,0,3.89,2.4,4.19,3.66a.87.87,0,0,1-.64,1Z"/><path d="M1344.67,155.93a.72.72,0,0,1-.61-.35,2.06,2.06,0,0,0-1.25-.9,2.33,2.33,0,0,0-1.82.65.72.72,0,0,1-1-.11.73.73,0,0,1,.12-1,3.67,3.67,0,0,1,3-.94,3.48,3.48,0,0,1,2.21,1.58.72.72,0,0,1-.25,1A.82.82,0,0,1,1344.67,155.93Z"/><path d="M1368.93,170.29c-3.4-10.91.89-16.7.89-16.7-2.91-.58-4,.42-4,.42a6.44,6.44,0,0,1-.36-5.59c-6-2.35-9,1.55-14.44,2.86-7.44,1.8-16.62-1.17-17.49-10.24a1.55,1.55,0,0,1,2.42-1.43,6.83,6.83,0,0,0,4,1.18,7.33,7.33,0,0,1-1.63-4.19,1.55,1.55,0,0,1,2.55-1.21c1.55,1.29,4.42,2.51,9.53,1.55,3.41-.64,11.2-6.09,16-5,4,.87,7.11,4.25,8.47,9.08a12.47,12.47,0,0,1,10.73,11.75c1,10.54-11.25,18.63-11.25,18.63Z"/><path class="cls-13" d="M1367.6,168.47c-2.59,1.46-3.71,4.36-2.51,6.48s4.26,2.64,6.84,1.17,3.71-4.36,2.51-6.47S1370.18,167,1367.6,168.47Z"/><path d="M1368,174.81a.59.59,0,0,1-.19-.22,2.93,2.93,0,0,1,.29-3.59,3.13,3.13,0,0,1,3.56-.67.65.65,0,1,1-.58,1.16,1.85,1.85,0,0,0-2,.41,1.66,1.66,0,0,0-.1,2.07.64.64,0,0,1-.25.88A.66.66,0,0,1,1368,174.81Z"/><path class="cls-5" d="M1340.77,174.15a.55.55,0,0,1,.59-.82,46.62,46.62,0,0,0,5.12.8,48.19,48.19,0,0,0,5.18.12.55.55,0,0,1,.43.91,6.86,6.86,0,0,1-11.32-1Z"/><path class="cls-14" d="M1328.39,189.51s.44-1.19-37.54-.89l-10.18,12c10.53,8.45,45.83,10,45.83,10Z"/><polygon class="cls-18" points="1342.19 188.53 1354.17 187.41 1365.76 190.64 1352.7 204.08 1342.19 188.53"/><path class="cls-13" d="M1346.34,194.7c4.88,4,5.88,6.78,16.25,1.42l1.56-16-16.89-1.33Z"/><path class="cls-18" d="M1368.83,197.06h0l-3.55-1.4.48-5-9.85,7.91-2.78.44-2.66-.93-8.28-9.53-.43,5-3.13.63h0L1327.34,196,1326,258.7,1321.53,280c15,5,31.76,6.23,48.23,3.95l-.55-21.41,11.71-61.28Z"/><polygon class="cls-15" points="1350.96 205.33 1343.89 253.2 1347.81 258.64 1352.91 254.72 1354.65 205.72 1350.96 205.33"/><polygon class="cls-15" points="1350.54 199.68 1353.13 198.99 1355.76 200.14 1354.65 205.82 1350.94 205.49 1350.54 199.68"/><path class="cls-15" d="M1342,188.93l-1.77,57.83L1332.6,284s-12.11-1.22-19.55-8.29l9.54-28,3.25-58.57Z"/><polygon class="cls-20" points="1342.02 188.93 1340.26 245.98 1331.45 202.26 1342.02 188.93"/><path class="cls-15" d="M1366.66,192.63l-15.72,93.75s20.86,2.56,29.44-3.08l-4.65-30.82,5.68-52.32Z"/><polygon class="cls-20" points="1366.66 192.63 1357.48 247.58 1373.93 206.12 1366.66 192.63"/><path class="cls-13" d="M1262.8,137.5c.84,2.92,1.09,6.08,4.8,7.65,0,0-.55,9.71-.14,17.67l9-10.13A53.27,53.27,0,0,1,1276,140c.13-.9.3-1.79.44-2.69.39-2.17,1-4.4-.3-7-5.12-10.15-3.4-13.49-4.1-14-1.15-.51-3.85,1.53-2.32,6.52,1.47,4.83,1.11,7.2,1.11,7.2s-3.87-.73-5.25.62C1265,131.23,1261.82,134.08,1262.8,137.5Z"/><path class="cls-14" d="M1264.88,151.18c5.24-1.75,8-2.53,12.06-2.53,9.62,28.67,16.48,39.47,13.62,47.7-2.39,6.86-9.93,6.31-13.62,1.17C1272.07,190.74,1267.76,165,1264.88,151.18Z"/><polygon class="cls-14" points="1381.41 200.16 1411.72 247.58 1447.72 267.9 1436.62 278.95 1400.51 263.12 1375.72 228.15 1381.41 200.16"/><path class="cls-5" d="M1353.13,199s-4.46,4.51-8.56,5.66L1339.79,192l2.4-3.43Z"/><path class="cls-5" d="M1353.13,199a21.45,21.45,0,0,0,7.42,7.09l7-11.63-1.75-3.81Z"/><g id="с"><path id="с-2" data-name="с" class="cls-18" d="M1386.12,334H1121.49c-6.22,0-11.26-3.39-11.26-7.58h0c0-4.18,5-7.58,11.26-7.58h264.63c6.22,0,11.26,3.4,11.26,7.58h0C1397.38,330.59,1392.34,334,1386.12,334Z"/><path class="cls-18" d="M1220.67,440.76h0a3.57,3.57,0,0,1-3-5.52l69.87-107.08,6,3.91-69.87,107.07A3.57,3.57,0,0,1,1220.67,440.76Z"/><path class="cls-18" d="M1286.94,440.76h0a3.57,3.57,0,0,0,3-5.52l-69.87-107.08-6,3.91L1284,439.14A3.57,3.57,0,0,0,1286.94,440.76Z"/></g><g id="с-3" data-name="с"><path id="с-4" data-name="с" class="cls-19" d="M1396.65,439.07h0a3.43,3.43,0,0,1-3.42-3.43V375h6.84v60.6A3.43,3.43,0,0,1,1396.65,439.07Z"/><path id="с-5" data-name="с" class="cls-19" d="M1420.66,439.07h0a3.44,3.44,0,0,1-3.43-3.43V375h6.85v60.6A3.43,3.43,0,0,1,1420.66,439.07Z"/><path id="с-6" data-name="с" class="cls-19" d="M1452.15,439.07h0a3.43,3.43,0,0,1-3.42-3.43V375h6.84v60.6A3.43,3.43,0,0,1,1452.15,439.07Z"/><path id="с-7" data-name="с" class="cls-19" d="M1476.15,439.07h0a3.43,3.43,0,0,1-3.42-3.43V375h6.85v60.6A3.44,3.44,0,0,1,1476.15,439.07Z"/><path id="с-8" data-name="с" class="cls-18" d="M1438.31,285.09v72.12a1.49,1.49,0,0,1-1.49,1.49H1392.1a8.17,8.17,0,0,0-8.17,8.17h0a8.17,8.17,0,0,0,8.17,8.17h54.38a8.16,8.16,0,0,0,8.16-8.17V285.09a8.16,8.16,0,0,0-8.16-8.17h0A8.17,8.17,0,0,0,1438.31,285.09Z"/><rect id="с-9" data-name="с" class="cls-18" x="1446.48" y="276.92" width="35.36" height="83.1"/><path id="с-10" data-name="с" class="cls-19" d="M1473.66,285.09v72.12a1.49,1.49,0,0,1-1.48,1.49h-44.72a8.17,8.17,0,0,0-8.17,8.17h0a8.17,8.17,0,0,0,8.17,8.17h54.37a8.17,8.17,0,0,0,8.17-8.17V285.09a8.17,8.17,0,0,0-8.17-8.17h0A8.17,8.17,0,0,0,1473.66,285.09Z"/></g><g id="с-11" data-name="с"><path id="с-12" data-name="с" class="cls-19" d="M1107.61,439.07h0a3.43,3.43,0,0,0,3.42-3.43V375h-6.84v60.6A3.43,3.43,0,0,0,1107.61,439.07Z"/><path id="с-13" data-name="с" class="cls-19" d="M1083.6,439.07h0a3.43,3.43,0,0,0,3.42-3.43V375h-6.84v60.6A3.43,3.43,0,0,0,1083.6,439.07Z"/><path id="с-14" data-name="с" class="cls-19" d="M1052.11,439.07h0a3.43,3.43,0,0,0,3.42-3.43V375h-6.84v60.6A3.43,3.43,0,0,0,1052.11,439.07Z"/><path id="с-15" data-name="с" class="cls-19" d="M1028.1,439.07h0a3.44,3.44,0,0,0,3.43-3.43V375h-6.85v60.6A3.43,3.43,0,0,0,1028.1,439.07Z"/><path id="с-16" data-name="с" class="cls-18" d="M1066,285.09v72.12a1.49,1.49,0,0,0,1.49,1.49h44.72a8.17,8.17,0,0,1,8.17,8.17h0a8.17,8.17,0,0,1-8.17,8.17h-54.38a8.17,8.17,0,0,1-8.17-8.17V285.09a8.17,8.17,0,0,1,8.17-8.17h0A8.17,8.17,0,0,1,1066,285.09Z"/><rect id="с-17" data-name="с" class="cls-18" x="1022.43" y="276.92" width="35.36" height="83.1" transform="translate(2080.21 636.94) rotate(180)"/><path id="с-18" data-name="с" class="cls-19" d="M1030.6,285.09v72.12a1.49,1.49,0,0,0,1.48,1.49h44.72a8.17,8.17,0,0,1,8.17,8.17h0a8.17,8.17,0,0,1-8.17,8.17h-54.37a8.17,8.17,0,0,1-8.17-8.17V285.09a8.17,8.17,0,0,1,8.17-8.17h0A8.17,8.17,0,0,1,1030.6,285.09Z"/></g><path d="M1420.11,257.53c-7.55-2.73-19.2-8.68-11.46-19.55s7.55-6.13,4.77-19.34,6.6-23.6,15.55-21,11.24,9.88,22.22,8,20.1,8.43,16,17.34-5.89,13.18-2,18.11,21.27,10.24,14,22-10.59,11.08-8.06,17.13-3.3,12.94-13.39,12-19.23-4.76-22.93-16S1420.11,257.53,1420.11,257.53Z"/><path class="cls-13" d="M1393.42,429.11l-6,1.78L1383,426.3c.21-.32,0-3.39-.69-6.67l11.14-1.85C1393.86,421.17,1393.42,425.68,1393.42,429.11Z"/><path d="M1387.5,429.82a6.1,6.1,0,0,0-4.45-4.14c-5.89,7.86-20.35,3-19.87,13.66,22-.14,31.13,0,31.13,0a75.17,75.17,0,0,0-1-10.5l-1.14.2Z"/><path class="cls-13" d="M1353.77,430.22l-6.21.42-3.57-3.8c.28-.26,1-5,1-8.32l10.46.46A97,97,0,0,1,1353.77,430.22Z"/><path d="M1348.23,429.82a6.1,6.1,0,0,0-4.45-4.14c-5.88,7.86-20.35,3-19.87,13.66,22-.14,31.14,0,31.14,0a76.72,76.72,0,0,0-1-10.5l-1.15.2Z"/><path class="cls-16" d="M1416.54,326.42c-16.94,2.28-64.68,20-67.34,23.17-5.5,6.61-2.6,42.58-5.21,72.26l13.87.82c6.65-24.17,6.12-34.6,9.13-62.33,0,0,54.53,4.09,74.24-9.22C1461.55,337.41,1430.25,323.17,1416.54,326.42Z"/><path class="cls-13" d="M1394.46,291.18c4,.68,5.55,3.89,6.51,9.81-15.26,9-37.92,9.63-37.92,9.63l-7.23-3.57S1374,300.5,1394.46,291.18Z"/><path class="cls-13" d="M1436.18,274.26c-6.68,9.7-32.26,30.57-36.49,31.23l-5.13-14.36s25-27,29.52-31.81C1431.93,251,1447.11,258.44,1436.18,274.26Z"/><path class="cls-16" d="M1408.05,272.71c5.35-5.77,12.33-18.79,21.4-17.86s9.73,10.55,7,15.74-12.18,18-12.18,18Z"/><path class="cls-13" d="M1409.69,297.12c3.85,1.32,6,13.44,5,14.37-16.49,6.53-50.79-.54-50.79-.54l-1.83-6.21S1388,303.15,1409.69,297.12Z"/><path class="cls-21" d="M1464,336.6c-3.78-19.45-5.4-26.35-7-35.5-3.87-22.63,7.51-38.53-12-49.38L1430.76,254c-11.5,12.1-18.58,23.08-19.19,30.67-.83,9.78,8.88,15.1,8.88,15.1l-3.91,26.64s-.92,2.17,15.12,5.2S1464,336.6,1464,336.6Z"/><path class="cls-13" d="M1452.26,277c-6.68,9.82-35.21,34.76-39.5,35l-3.07-14.88s25.92-30.38,30.47-35.21C1448,253.53,1463.19,261,1452.26,277Z"/><path class="cls-16" d="M1425,277.09c5-7.25,15-20.62,24.11-19.7s9.73,10.56,7,15.74-12.18,18-12.18,18Z"/><path class="cls-13" d="M1362,304.74c-5.24-1.29-16.65-5.12-21.24,6.89,1.15,2.2,5.38-3.24,7.19-3.74,2.88-.8,5.35.71,7.53,2.79,3.12,3,8.35.27,8.35.27Z"/><path class="cls-21" d="M1358,318.7h-49.27v-6.62h55.89A6.62,6.62,0,0,1,1358,318.7Z"/><path class="cls-21" d="M1283.34,277.13l25.34,41.57,5.86-3.08-28.42-47.42h0A6.62,6.62,0,0,0,1283.34,277.13Z"/><path class="cls-13" d="M1451.49,233.19c-2.4,10-10.71,16.59-18.57,14.71s-12.29-11.52-9.89-21.53,10.71-16.59,18.57-14.71S1453.89,223.18,1451.49,233.19Z"/><path class="cls-13" d="M1447.68,238.46l-13.06,8.09s-1.16,5.78-1.74,7.65c-1.19,3.86,3.38,5.55,7.25,3.15a11.3,11.3,0,0,0,4.85-5.63Z"/><path d="M1422.13,222.55c3.71.32,11.75-.33,14.68-3.8,2.1,7.06,11,13.78,18.33,16.93.3-7.24.24-20.57-12.74-26.11C1432.2,205.22,1422.13,222.55,1422.13,222.55Z"/><path d="M1426.71,229a1.4,1.4,0,1,1-.63-1.88A1.4,1.4,0,0,1,1426.71,229Z"/><path d="M1437.75,231.72a1.52,1.52,0,1,1-.68-2A1.52,1.52,0,0,1,1437.75,231.72Z"/><path d="M1439.43,230.46a.49.49,0,0,1-.24-.25,4.07,4.07,0,0,0-2.84-2,.53.53,0,1,1,.15-1,5,5,0,0,1,3.65,2.57.53.53,0,0,1-.72.69Z"/><path d="M1423.65,227a.45.45,0,0,1-.14-.1.53.53,0,0,1,0-.75,3.72,3.72,0,0,1,3.69-.9.53.53,0,1,1-.34,1,2.66,2.66,0,0,0-2.61.66A.52.52,0,0,1,1423.65,227Z"/><path d="M1427.62,232.06a14.24,14.24,0,0,1-2.19,2.07.55.55,0,0,0-.18.74c.59,1.06,2.33,1.93,3.39,2.38a.15.15,0,0,0,.16-.25,7.21,7.21,0,0,1-1.73-2,.67.67,0,0,1,0-.6c.22-.43.66-1.32,1-2.06A.25.25,0,0,0,1427.62,232.06Z"/><path class="cls-13" d="M1447.71,233.25c-1.91,1.49-2.47,4-1.26,5.52s3.75,1.63,5.66.14,2.47-4,1.26-5.52S1449.62,231.76,1447.71,233.25Z"/><path d="M1448.8,238.32a.49.49,0,0,1-.19-.16,2.41,2.41,0,0,1-.19-2.93,2.56,2.56,0,0,1,2.8-1,.53.53,0,0,1-.33,1,1.52,1.52,0,0,0-1.61.57,1.37,1.37,0,0,0,.17,1.68.53.53,0,0,1-.1.74A.55.55,0,0,1,1448.8,238.32Z"/><path class="cls-16" d="M1435.5,329.51c-16.94,2.28-64.75,17.77-67.41,21-5.5,6.62,6.74,34.93,10.65,71.37h16.36c-.17-26,1.9-49.86-6.09-58.32,0,0,45.82-3.06,68.67-3.06C1469.32,360.47,1475.77,321.12,1435.5,329.51Z"/><path class="cls-5" d="M1426.9,240.48a.43.43,0,0,1,.4-.69,30,30,0,0,0,8.11,0,.43.43,0,0,1,.4.69,5.39,5.39,0,0,1-8.91,0Z"/><path class="cls-13" d="M1101.49,301.52c-3.23,2.16-2.34,13.89-1.12,14.49,16.83,2.05,45.25-11.89,45.25-11.89l1.11-6.23S1123,301.86,1101.49,301.52Z"/><path class="cls-13" d="M1064.52,281.18c6,9.62,32.34,34.49,36.43,34.86l3.48-14.1s-23.63-30-27.8-34.75C1069.44,258.89,1054.67,265.49,1064.52,281.18Z"/><path d="M1078.91,229.78c.72-9.85-2.12-18.55-10-23s-17.93-.08-17.93-.08h0s-8.44-3-16.09,5.42-1.86,15.84-5,22c-1.85,3.64-11.28,4.39-8.84,16.24.7,3.42,4.81,5.72,8.29,5.95,6.12.4,11.82-2,14.3.4,8.17,7.79,26.28,5,28.82-2.16.78-2.21,17.08,2.07,15.45-13C1087.12,233.94,1078.26,238.58,1078.91,229.78Z"/><polygon class="cls-13" points="1063.98 261.61 1051.05 259.23 1046.19 265.68 1056.5 286.81 1071.66 273.94 1063.98 261.61"/><path class="cls-21" d="M1080.75,312.57c-.22-4,6.27-20.53,2.85-28.85-2.49-6.68-6.65-17.91-11.75-19.78-2.4-.88-4.87-1.5-7.87-2.33,0,0,1.69,8.43-1.83,8.71-6.78.55-11.1-11.09-11.1-11.09-3.66-.35-20.43,5.16-20.42,6.53,0,10.79,8.8,26.52,11.67,38.19,1.12,12.59-3.27,27.66-3.29,29.09,0,0,27,7.59,43-1.22C1082.32,330.6,1081.05,318.12,1080.75,312.57Z"/><path class="cls-21" d="M1043.07,320.1s-6,15-7.41,24.49,6.75,15.52,6.75,15.52h68.16s7.29-11.83,5.19-20-6.93-9.47-6.93-9.47Z"/><path class="cls-13" d="M1111.48,330.22c-8.7-1.23-34,8.58-44.73,29.89h30.13Z"/><path class="cls-13" d="M1101.94,338.06a24.54,24.54,0,0,0,3-4.33,7.52,7.52,0,0,1,12.12-1.42c12.56,13.85,39.34,45.42,45.31,49.35,1.69,1.11,11.53,6.78,20.88,5.66,0,0,4.62,1.76,1.55,5.42-1.59,1.89-25.37,3.84-25.37,3.84l-1.85-7c-13.84-10.24-31.07-9.51-45.68-28.24C1103.9,351.05,1101.94,338.06,1101.94,338.06Z"/><path d="M1164.29,400.61l9.57,6.21,1.31-1.57-7.76-7.24c4.41-3.47,14.62-.57,14.62-.57,3.35-2.16,9.87-9.17,10.54-12.92-2.14-2.67-9.27,2.82-9.27,2.82.26,1.19-2,5.31-3.79,6-7.79,1.68-15.55-.53-21.89-3.75C1157.62,389.6,1152.33,397.62,1164.29,400.61Z"/><path class="cls-13" d="M1101.8,339.94a4.5,4.5,0,0,0-3.3,3.72c-.68,4.83-4.2,14.62.56,24.87,11.69,25.17,18.59,41.75,19.82,48.25-3.05,5.72,9.12,21.34,9.3,22.36l8.77-2.74s-5-7.48-6.84-10.41c-4.31-7-5-15.53-5.72-22.17-3-28.32,2.15-46.2-18.34-62.81A4.78,4.78,0,0,0,1101.8,339.94Z"/><path d="M1114.51,428.76l.87,11.37,2,.1,1-10.56c5.44,1.39,9.32,11.27,9.32,11.27,3.75,1.35,13.28,2.29,16.67.55.82-3.33-7.87-5.67-7.87-5.67-.78.93-5.43,1.64-7.07.64-6.06-5.18-9.36-12.69-10.64-19.68C1118.88,416.78,1109.64,417.43,1114.51,428.76Z"/><path class="cls-13" d="M1060.71,251.05l-10.5-1.57.84,9.75s2,4.41,4.34,4.71l8.59-2.33Z"/><path class="cls-13" d="M1040.49,237c2.71,11.33,12.12,18.78,21,16.65s13.91-13,11.2-24.36-12.12-18.77-21-16.65S1037.78,225.63,1040.49,237Z"/><path d="M1068.53,232.22a1.59,1.59,0,1,0,.71-2.14A1.59,1.59,0,0,0,1068.53,232.22Z"/><path d="M1056,235.3a1.72,1.72,0,1,0,.77-2.31A1.72,1.72,0,0,0,1056,235.3Z"/><path d="M1054.13,233.87a.59.59,0,0,0,.28-.28,4.55,4.55,0,0,1,3.22-2.23.6.6,0,0,0,.5-.68.58.58,0,0,0-.67-.5,5.68,5.68,0,0,0-4.14,2.91.6.6,0,0,0,.3.79A.57.57,0,0,0,1054.13,233.87Z"/><path d="M1072,229.91a.91.91,0,0,0,.16-.11.6.6,0,0,0,0-.85,4.19,4.19,0,0,0-4.17-1,.59.59,0,0,0-.37.76.6.6,0,0,0,.76.37,3,3,0,0,1,2.94.74A.6.6,0,0,0,1072,229.91Z"/><path class="cls-13" d="M1067.51,235.68A16,16,0,0,0,1070,238a.64.64,0,0,1,.21.84c-.68,1.2-2.64,2.18-3.85,2.69a.17.17,0,0,1-.17-.28,8.09,8.09,0,0,0,1.95-2.28.74.74,0,0,0,0-.68c-.25-.5-.74-1.5-1.08-2.33A.28.28,0,0,1,1067.51,235.68Z"/><path class="cls-13" d="M1044.77,237c2.16,1.68,2.8,4.47,1.42,6.24s-4.24,1.84-6.4.16-2.8-4.48-1.42-6.25S1042.61,235.34,1044.77,237Z"/><path d="M1043.54,242.76a.6.6,0,0,0,.21-.18,2.71,2.71,0,0,0,.21-3.32,2.89,2.89,0,0,0-3.16-1.08.6.6,0,0,0,.38,1.14,1.71,1.71,0,0,1,1.81.64,1.52,1.52,0,0,1-.2,1.9.61.61,0,0,0,.12.84A.6.6,0,0,0,1043.54,242.76Z"/><path class="cls-5" d="M1057.68,244.7a.48.48,0,0,1,.43-.76,33.83,33.83,0,0,0,9,0,.48.48,0,0,1,.44.76,5.95,5.95,0,0,1-9.86,0Z"/><path d="M1040.27,236c10.62-1.42,25.47-12.23,26.69-17.78-2-6.67-13-10-19.17-6.93S1035.78,227.56,1040.27,236Z"/><path class="cls-5" d="M1139.58,316.23h0a2.7,2.7,0,0,1-1.72-3.4l16.38-50.19a2.69,2.69,0,0,1,3.4-1.72h0a2.69,2.69,0,0,1,1.72,3.39L1143,314.5A2.69,2.69,0,0,1,1139.58,316.23Z"/><path class="cls-13" d="M1148.28,298.24l3.34-10.23s2.9,5.88,0,11.47-5.65,5.83-5.65,5.83Z"/><path class="cls-13" d="M1143.51,295.5c-.84-2-2.83-6.95-.84-6.93S1145,291,1145,291Z"/><path class="cls-13" d="M979.37,265.61c4.5-4.55,1.55-9.21,1.55-9.21,2.47-.53,15.52,19.23,21.14,31.79,9.81-9.89,27.1-23.24,31.78-24,0,0,6.31-1.7,8.57,5.93,2,6.81-5.86,11.63-5.86,11.63s-33.75,23.82-38.74,21.71C990,300.14,983,271.78,979.37,265.61Z"/><path class="cls-13" d="M972.32,265.05c2.76.17,6.16-1.19,7.22,1.27l5.44-2.65.33-3.27c-4.67-7.49-16.06-9.61-17.18-9.71-2.93-.26-4.29-.56-4.52-.17s-1,3,3.3,3.51c5.33.64,1.79,4.91-9,.85-2.71-1-7.81.3-6,2.28C954,259.34,959.79,264.28,972.32,265.05Z"/></g></svg>