<svg xmlns="http://www.w3.org/2000/svg" xmlns:xlink="http://www.w3.org/1999/xlink" viewBox="0 0 394.55 468.95"><defs><style>.cls-1{isolation:isolate;}.cls-2{fill:url(#linear-gradient);}.cls-3{fill:url(#linear-gradient-2);}.cls-4{fill:#001e50;}.cls-5{fill:#063d76;}.cls-6{fill:#d8dee8;}.cls-7{fill:url(#linear-gradient-3);}.cls-35,.cls-8{fill:#f4f7fa;}.cls-47,.cls-8{opacity:0.7;}.cls-34,.cls-36,.cls-8{mix-blend-mode:soft-light;}.cls-36,.cls-9{fill:#fff;}.cls-10{fill:url(#linear-gradient-4);}.cls-11{fill:url(#linear-gradient-5);}.cls-12{fill:url(#linear-gradient-6);}.cls-13{fill:url(#linear-gradient-7);}.cls-14{fill:url(#linear-gradient-8);}.cls-15{fill:url(#linear-gradient-9);}.cls-16{fill:url(#linear-gradient-10);}.cls-17{fill:url(#linear-gradient-11);}.cls-18{fill:url(#linear-gradient-12);}.cls-19{fill:url(#linear-gradient-13);}.cls-20{fill:url(#linear-gradient-14);}.cls-21{fill:url(#linear-gradient-15);}.cls-22{fill:url(#linear-gradient-16);}.cls-23{fill:url(#linear-gradient-17);}.cls-24{fill:url(#linear-gradient-18);}.cls-25{fill:url(#linear-gradient-19);}.cls-26{fill:url(#linear-gradient-20);}.cls-27{fill:url(#linear-gradient-21);}.cls-28{fill:url(#linear-gradient-22);}.cls-29{fill:url(#linear-gradient-23);}.cls-30{fill:url(#linear-gradient-24);}.cls-31{fill:url(#linear-gradient-25);}.cls-32{fill:url(#linear-gradient-26);}.cls-33{fill:url(#linear-gradient-27);}.cls-34{opacity:0.3;}.cls-36{opacity:0.4;}.cls-37{fill:url(#linear-gradient-28);}.cls-38{fill:url(#linear-gradient-29);}.cls-39{fill:#bfc8d6;}.cls-40{fill:url(#linear-gradient-30);}.cls-41{fill:url(#linear-gradient-31);}.cls-42{fill:url(#linear-gradient-32);}.cls-43{fill:url(#linear-gradient-33);}.cls-44{fill:url(#linear-gradient-34);}.cls-45{fill:url(#linear-gradient-35);}.cls-46{opacity:0.5;fill:url(#linear-gradient-36);}.cls-46,.cls-47{mix-blend-mode:multiply;}.cls-48{fill:url(#linear-gradient-37);}.cls-49{fill:url(#linear-gradient-38);}.cls-50{fill:url(#linear-gradient-39);}.cls-51{fill:url(#linear-gradient-40);}.cls-52{fill:#1a2e35;}.cls-53{fill:#000405;}.cls-54{fill:#dd8669;}.cls-55{fill:#2b454e;}.cls-56{fill:#d268cc;}.cls-57{fill:#d18807;}.cls-58{opacity:0.35;}.cls-59{fill:#375a64;}.cls-60{fill:#c66150;}.cls-61{fill:#fafafa;}.cls-62{fill:#ffaaa8;}.cls-63{fill:#ffb200;}</style><linearGradient id="linear-gradient" x1="21.19" y1="74.08" x2="46.3" y2="96.36" gradientUnits="userSpaceOnUse"><stop offset="0" stop-color="#40447e"/><stop offset="1" stop-color="#3c3b6b"/></linearGradient><linearGradient id="linear-gradient-2" x1="49.33" y1="96.77" x2="229.66" y2="96.77" xlink:href="#linear-gradient"/><linearGradient id="linear-gradient-3" x1="212.06" y1="175.96" x2="122.92" y2="187.49" gradientUnits="userSpaceOnUse"><stop offset="0" stop-color="#311944"/><stop offset="1" stop-color="#893976"/></linearGradient><linearGradient id="linear-gradient-4" x1="179.1" y1="414.18" x2="185.76" y2="436.73" xlink:href="#linear-gradient-3"/><linearGradient id="linear-gradient-5" x1="188.67" y1="411.36" x2="195.33" y2="433.9" xlink:href="#linear-gradient-3"/><linearGradient id="linear-gradient-6" x1="231.15" y1="398.8" x2="237.81" y2="421.35" xlink:href="#linear-gradient-3"/><linearGradient id="linear-gradient-7" x1="169.95" y1="416.89" x2="176.61" y2="439.43" xlink:href="#linear-gradient-3"/><linearGradient id="linear-gradient-8" x1="125.42" y1="430.04" x2="132.08" y2="452.58" xlink:href="#linear-gradient-3"/><linearGradient id="linear-gradient-9" x1="160.37" y1="419.72" x2="167.03" y2="442.26" xlink:href="#linear-gradient-3"/><linearGradient id="linear-gradient-10" x1="105.73" y1="435.86" x2="112.39" y2="458.4" xlink:href="#linear-gradient-3"/><linearGradient id="linear-gradient-11" x1="135.43" y1="427.09" x2="142.09" y2="449.63" xlink:href="#linear-gradient-3"/><linearGradient id="linear-gradient-12" x1="212.47" y1="404.32" x2="219.13" y2="426.87" xlink:href="#linear-gradient-3"/><linearGradient id="linear-gradient-13" x1="222.02" y1="401.5" x2="228.68" y2="424.04" xlink:href="#linear-gradient-3"/><linearGradient id="linear-gradient-14" x1="240.74" y1="395.97" x2="247.4" y2="418.51" xlink:href="#linear-gradient-3"/><linearGradient id="linear-gradient-15" x1="115.82" y1="432.88" x2="122.48" y2="455.42" xlink:href="#linear-gradient-3"/><linearGradient id="linear-gradient-16" x1="203.18" y1="253.09" x2="39.24" y2="438.54" xlink:href="#linear-gradient"/><linearGradient id="linear-gradient-17" x1="184.62" y1="236.68" x2="20.68" y2="422.14" xlink:href="#linear-gradient"/><linearGradient id="linear-gradient-18" x1="234.47" y1="280.75" x2="70.54" y2="466.21" xlink:href="#linear-gradient"/><linearGradient id="linear-gradient-19" x1="220.92" y1="268.78" x2="56.99" y2="454.23" xlink:href="#linear-gradient"/><linearGradient id="linear-gradient-20" x1="170.99" y1="224.63" x2="7.05" y2="410.09" xlink:href="#linear-gradient"/><linearGradient id="linear-gradient-21" x1="239.5" y1="285.19" x2="75.56" y2="470.65" xlink:href="#linear-gradient"/><linearGradient id="linear-gradient-22" x1="208.03" y1="257.37" x2="44.09" y2="442.83" xlink:href="#linear-gradient"/><linearGradient id="linear-gradient-23" x1="152.44" y1="208.24" x2="-11.5" y2="393.69" xlink:href="#linear-gradient"/><linearGradient id="linear-gradient-24" x1="269.28" y1="311.52" x2="105.35" y2="496.98" xlink:href="#linear-gradient"/><linearGradient id="linear-gradient-25" x1="251.65" y1="295.94" x2="87.71" y2="481.39" xlink:href="#linear-gradient"/><linearGradient id="linear-gradient-26" x1="216.46" y1="264.83" x2="52.53" y2="450.28" xlink:href="#linear-gradient"/><linearGradient id="linear-gradient-27" x1="189.07" y1="240.61" x2="25.13" y2="426.07" xlink:href="#linear-gradient"/><linearGradient id="linear-gradient-28" x1="141.02" y1="121.03" x2="292.34" y2="121.03" gradientUnits="userSpaceOnUse"><stop offset="0" stop-color="#aa80f9"/><stop offset="1" stop-color="#6165d7"/></linearGradient><linearGradient id="linear-gradient-29" x1="71.49" y1="120.96" x2="219.32" y2="120.96" xlink:href="#linear-gradient"/><linearGradient id="linear-gradient-30" x1="193.02" y1="6.05" x2="194.94" y2="232.28" gradientUnits="userSpaceOnUse"><stop offset="0.49" stop-color="#ebeff2"/><stop offset="1" stop-color="#fff"/></linearGradient><linearGradient id="linear-gradient-31" x1="192.38" y1="7.68" x2="194.26" y2="229.3" xlink:href="#linear-gradient-30"/><linearGradient id="linear-gradient-32" x1="194.54" y1="5.34" x2="196.48" y2="235.39" xlink:href="#linear-gradient-30"/><linearGradient id="linear-gradient-33" x1="132.69" y1="3.23" x2="134.54" y2="221.96" xlink:href="#linear-gradient-30"/><linearGradient id="linear-gradient-34" x1="132.33" y1="7.28" x2="134.09" y2="215.62" xlink:href="#linear-gradient-30"/><linearGradient id="linear-gradient-35" x1="133.62" y1="2.7" x2="135.5" y2="224.96" xlink:href="#linear-gradient-30"/><linearGradient id="linear-gradient-36" x1="74.64" y1="64.23" x2="217.2" y2="64.23" xlink:href="#linear-gradient-30"/><linearGradient id="linear-gradient-37" x1="136.06" y1="218.93" x2="150.62" y2="218.93" gradientTransform="translate(308.08 15.62) rotate(72.23)" xlink:href="#linear-gradient-28"/><linearGradient id="linear-gradient-38" x1="101.78" y1="169.76" x2="184.9" y2="169.76" xlink:href="#linear-gradient-28"/><linearGradient id="linear-gradient-39" x1="113.81" y1="184.16" x2="172.87" y2="184.16" xlink:href="#linear-gradient-28"/><linearGradient id="linear-gradient-40" x1="125.92" y1="198.72" x2="160.76" y2="198.72" xlink:href="#linear-gradient-28"/></defs><g class="cls-1"><g id="Layer_2" data-name="Layer 2"><g id="Layer_2-2" data-name="Layer 2"><path class="cls-2" d="M40.21,85.59,59.1,84.32l1,20.06H29L35.73,89A5.86,5.86,0,0,1,40.21,85.59Z"/><path class="cls-3" d="M56.3,86.76a4.35,4.35,0,0,1,4.16-2.6l155.85,6.25a5.88,5.88,0,0,1,4.93,3.1l8.42,15.87L49.33,102.72Z"/><path class="cls-4" d="M0,115V416.14a14.39,14.39,0,0,0,11.06,14l32.63,7.75L79.42,192,44.72,96.56l-32.16,4.13A14.39,14.39,0,0,0,0,115Z"/><path class="cls-5" d="M34.58,109.1V425.17c0,7.28,6.18,13,15.27,16.67l194-14.07c4.72-4.65,9.8-10.1,9.8-16.67V117.62a12.53,12.53,0,0,0-12-12.52l-194-8.52A12.52,12.52,0,0,0,34.58,109.1Z"/><path class="cls-6" d="M19.87,422.14V111.78c0-5.38,4.05-10.83,9.09-13.19l-5.76.74a13.27,13.27,0,0,0-8.71,12.45V422.14A13.27,13.27,0,0,0,18.88,432l8.18,1.94A13.28,13.28,0,0,1,19.87,422.14Z"/><path class="cls-7" d="M64.44,141.63v85.48a11,11,0,0,0,11,11H218.67a11,11,0,0,0,11-11V148.29a11,11,0,0,0-10.48-11L75.93,130.66A11,11,0,0,0,64.44,141.63Z"/><path class="cls-6" d="M224.69,227.11V148.29a11,11,0,0,0-10.47-11L73.68,130.79a11,11,0,0,0-9.24,10.84v85.48a11,11,0,0,0,11,11H213.71A11,11,0,0,0,224.69,227.11Z"/><path class="cls-8" d="M173.81,149v5.16a4.15,4.15,0,0,0,4,4.14l33.72,1.23a4.14,4.14,0,0,0,4.29-4.14v-5.15a4.14,4.14,0,0,0-4-4.14l-33.72-1.24A4.15,4.15,0,0,0,173.81,149Z"/><path class="cls-9" d="M240.93,120.78c0,2.9-2,5.25-4.49,5.25s-4.48-2.35-4.48-5.25,2-5.26,4.48-5.26S240.93,117.88,240.93,120.78Z"/><path class="cls-10" d="M174.29,317.39l-.17-12.74a8,8,0,0,0-8.15-7.93l-34.74.46a8,8,0,0,0-7.94,8.15l.18,13.27a8,8,0,0,0,8.27,7.93l34.74-1A8,8,0,0,0,174.29,317.39Z"/><path class="cls-11" d="M122.78,266.61l.22,16.48a8,8,0,0,0,8.15,7.94l34.74-.46a8,8,0,0,0,7.94-8.15l-.22-16a8,8,0,0,0-8-7.93H130.82A8,8,0,0,0,122.78,266.61Z"/><path class="cls-12" d="M180.43,317a8.05,8.05,0,0,0,8.28,7.94l35.44-1a5.6,5.6,0,0,0,5.44-5.57c0-5.84.07-14.31.07-14.31a8,8,0,0,0-8.16-8l-33.29.44a8,8,0,0,0-7.94,8.15Z"/><path class="cls-13" d="M123.76,340.83l.18,13.25a8,8,0,0,0,8.39,7.93l34.73-1.51a8.06,8.06,0,0,0,7.7-8.15l-.17-12.72a8,8,0,0,0-8.28-7.93l-34.73,1A8,8,0,0,0,123.76,340.83Z"/><path class="cls-14" d="M64.44,320.17a8,8,0,0,0,8.27,8l36.8-1a8,8,0,0,0,7.82-8.14l-.18-13.61a8,8,0,0,0-8.15-7.94L70.55,298a6.18,6.18,0,0,0-6.09,6.16C64.45,310.68,64.44,320.17,64.44,320.17Z"/><path class="cls-15" d="M175.26,390.61l-.21-16a8,8,0,0,0-8.39-7.93l-34.73,1.51a8,8,0,0,0-7.69,8.15l.22,16.67a8.05,8.05,0,0,0,8.54,7.93l34.72-2.18A8,8,0,0,0,175.26,390.61Z"/><path class="cls-16" d="M118.1,377.08a8,8,0,0,0-8.4-7.92l-39.26,1.71a6.17,6.17,0,0,0-5.9,6.13c0,7.54-.1,19.67-.1,19.67a8,8,0,0,0,8.55,8l37.8-2.37a8.05,8.05,0,0,0,7.54-8.13Z"/><path class="cls-17" d="M116.85,283.18l-.22-16.79a8,8,0,0,0-8-7.93H72.48a8,8,0,0,0-8,8v17.26a8,8,0,0,0,8.15,8.05l36.33-.48A8,8,0,0,0,116.85,283.18Z"/><path class="cls-18" d="M181.19,373.84l.21,15.59a8,8,0,0,0,8.54,7.92l32.18-2a8.05,8.05,0,0,0,7.54-8v-15a8,8,0,0,0-8.4-8l-32.38,1.42A8,8,0,0,0,181.19,373.84Z"/><path class="cls-19" d="M229.66,338.17a8.05,8.05,0,0,0-8.28-8l-32.84.93a8,8,0,0,0-7.81,8.15l.16,12.39a8,8,0,0,0,8.4,7.92L224.21,358a5.59,5.59,0,0,0,5.35-5.55C229.6,346.63,229.66,338.17,229.66,338.17Z"/><path class="cls-20" d="M180,282.34a8,8,0,0,0,8.15,7.93l36-.47a5.61,5.61,0,0,0,5.53-5.59c0-6.87,0-17.71,0-17.71a8,8,0,0,0-8-8h-33.8a8,8,0,0,0-8,8.15Z"/><path class="cls-21" d="M117.62,341.25a8,8,0,0,0-8.27-7.93l-38.86,1.11a6.16,6.16,0,0,0-6,6.13c0,6.51-.06,16-.06,16a8,8,0,0,0,8.39,8L110.11,363a8,8,0,0,0,7.69-8.14Z"/><path class="cls-22" d="M177,317.59l-.16-12.74a8,8,0,0,0-8.15-7.94l-34.75.46a8,8,0,0,0-7.93,8.15l.17,13.27a8.06,8.06,0,0,0,8.27,7.94l34.74-1A8,8,0,0,0,177,317.59Z"/><path class="cls-23" d="M125.48,266.8l.22,16.49a8.06,8.06,0,0,0,8.15,7.94l34.74-.47a8,8,0,0,0,7.94-8.15l-.21-16a8.05,8.05,0,0,0-8-7.94H133.53A8,8,0,0,0,125.48,266.8Z"/><path class="cls-24" d="M183.14,317.17a8,8,0,0,0,8.27,7.93l35.45-1a5.6,5.6,0,0,0,5.44-5.57c0-5.84.06-14.3.06-14.3a8,8,0,0,0-8.15-8.05l-33.3.45a8,8,0,0,0-7.94,8.15Z"/><path class="cls-25" d="M126.47,341l.17,13.25a8,8,0,0,0,8.4,7.93l34.73-1.52a8,8,0,0,0,7.69-8.14l-.17-12.73a8,8,0,0,0-8.27-7.93l-34.74,1A8,8,0,0,0,126.47,341Z"/><path class="cls-26" d="M67.14,320.37a8,8,0,0,0,8.27,8l36.81-1.05a8,8,0,0,0,7.81-8.15l-.18-13.61a8,8,0,0,0-8.15-7.93l-38.45.51a6.17,6.17,0,0,0-6.09,6.15C67.15,310.88,67.14,320.37,67.14,320.37Z"/><path class="cls-27" d="M178,390.81l-.22-16a8,8,0,0,0-8.39-7.93l-34.73,1.52a8,8,0,0,0-7.69,8.14l.22,16.68a8,8,0,0,0,8.55,7.92l34.72-2.18A8.05,8.05,0,0,0,178,390.81Z"/><path class="cls-28" d="M120.8,377.28a8,8,0,0,0-8.39-7.93l-39.27,1.72a6.16,6.16,0,0,0-5.9,6.12c0,7.55-.1,19.67-.1,19.67a8,8,0,0,0,8.55,8l37.8-2.37a8,8,0,0,0,7.54-8.14Z"/><path class="cls-29" d="M119.55,283.37l-.22-16.78a8,8,0,0,0-8-7.94H75.18a8,8,0,0,0-8,8V284a8,8,0,0,0,8.15,8l36.33-.48A8,8,0,0,0,119.55,283.37Z"/><path class="cls-30" d="M183.89,374l.21,15.59a8.06,8.06,0,0,0,8.55,7.93l32.17-2a8.05,8.05,0,0,0,7.54-8v-15a8,8,0,0,0-8.4-8l-32.38,1.41A8,8,0,0,0,183.89,374Z"/><path class="cls-31" d="M232.36,338.36a8,8,0,0,0-8.27-8l-32.84.94a8,8,0,0,0-7.82,8.14l.17,12.39a8,8,0,0,0,8.39,7.93l34.92-1.53a5.6,5.6,0,0,0,5.36-5.55C232.31,346.82,232.36,338.36,232.36,338.36Z"/><path class="cls-32" d="M182.68,282.53a8,8,0,0,0,8.15,7.94l36-.48a5.58,5.58,0,0,0,5.52-5.58c0-6.87,0-17.72,0-17.72a8,8,0,0,0-8.05-8h-33.8a8,8,0,0,0-8,8.15Z"/><path class="cls-33" d="M120.33,341.45a8.06,8.06,0,0,0-8.28-7.94L73.2,334.62a6.18,6.18,0,0,0-6,6.14c0,6.51-.06,16-.06,16a8,8,0,0,0,8.4,8l37.27-1.63a8.05,8.05,0,0,0,7.7-8.14Z"/><g class="cls-34"><path class="cls-35" d="M224.31,258.65h-33.8a8,8,0,0,0-8,8.15l.21,15.73a8,8,0,0,0,8.15,7.94l36-.48a5.58,5.58,0,0,0,5.52-5.58c0-6.87,0-17.71,0-17.71A8,8,0,0,0,224.31,258.65Z"/><path class="cls-35" d="M224.21,296.17l-33.3.45a8,8,0,0,0-7.94,8.15l.17,12.4a8,8,0,0,0,8.27,7.93l35.45-1a5.6,5.6,0,0,0,5.44-5.57c0-5.84.06-14.3.06-14.3A8,8,0,0,0,224.21,296.17Z"/><path class="cls-35" d="M232.36,387.5v-15a8,8,0,0,0-8.4-8l-31.24,1.36c.48,2.09,1.09,4.38,1.9,7a124.65,124.65,0,0,0,10.24,23.95l20-1.26A8,8,0,0,0,232.36,387.5Z"/><path class="cls-35" d="M191.52,359.72H192l34.92-1.53a5.6,5.6,0,0,0,5.36-5.55c0-5.82.09-14.28.09-14.28a8,8,0,0,0-8.27-8l-32.84.94a8,8,0,0,0-5.6,2.49l.26.66C190.43,346.16,190.22,351.54,191.52,359.72Z"/><path class="cls-35" d="M168.68,296.91l-9.24.12c6,5.47,12.06,11.38,17.54,19.74l-.15-11.92A8,8,0,0,0,168.68,296.91Z"/><path class="cls-35" d="M176.53,282.61l-.21-16a8.05,8.05,0,0,0-8-7.94H133.53a7.93,7.93,0,0,0-2.55.42c.59,1.81,1.3,3.69,2.16,5.66,5.2,12,12.17,19.37,19.62,26.24l15.83-.21A8,8,0,0,0,176.53,282.61Z"/></g><path class="cls-36" d="M218.67,238.09a11,11,0,0,0,11-11V148.29a11,11,0,0,0-10.48-11L91.39,131.38c12.29,16,30.83,27.44,39.7,55,7.95,24.64,0,36.78-2.09,51.74Z"/><path class="cls-37" d="M222.81,124v.31a4.67,4.67,0,0,1-4.94,4.59L76.07,122.8a4.88,4.88,0,0,1-4.58-4.86v-.3A4.36,4.36,0,0,1,76,113.16L217.89,119A5.15,5.15,0,0,1,222.81,124Z"/><path class="cls-38" d="M219.32,123.86v.31a4.51,4.51,0,0,1-4.73,4.59L76,122.8a4.84,4.84,0,0,1-4.53-4.86v-.3A4.36,4.36,0,0,1,76,113.16l138.54,5.71A5,5,0,0,1,219.32,123.86Z"/><path class="cls-39" d="M220.22,4.08,216,111.91l-.23,6.11a10.7,10.7,0,0,1-11.3,10.43l-131-5.93a7.93,7.93,0,0,0,7.51-7.14S81.24,3.84,81.25,0l9.12,10.11L97.29,2.5l7.24,8,2.6-2.83,4.46-4.85,7.34,8.06,7.22-7.74,7.43,8.14L141,3.46l7.54,8.2L156,3.78l7.65,8.29,7.7-7.95,7.75,8.36,7.88-8,7.85,8.44,8.06-8.09,8,8.51Z"/><path class="cls-9" d="M221.42,4.08,217.2,111.91,217,118a10.68,10.68,0,0,1-11.29,10.43l-131-5.93a7.93,7.93,0,0,0,7.5-7.14S82.45,3.84,82.45,0l9.13,10.11L98.49,2.5l7.24,8,2.61-2.83,4.46-4.85,7.33,8.06,7.22-7.74,7.44,8.14,7.37-7.81,7.54,8.2,7.54-7.88,7.64,8.29,7.71-7.95,7.75,8.36,7.87-8,7.86,8.44,8.05-8.09,8,8.51Z"/><path class="cls-40" d="M202.45,69.69,184.91,69a2.06,2.06,0,0,0-2.14,2l-.24,8.15a2.37,2.37,0,0,0,2.22,2.44l17.49.62a2.09,2.09,0,0,0,2.17-2.06l.29-8A2.39,2.39,0,0,0,202.45,69.69Z"/><path class="cls-41" d="M201.87,85.6l-17.46-.66a2,2,0,0,0-2.11,2l-.25,8.43a2.37,2.37,0,0,0,2.23,2.44l17.41.65a2.06,2.06,0,0,0,2.15-2l.3-8.4A2.4,2.4,0,0,0,201.87,85.6Z"/><path class="cls-42" d="M205.6,46.81l.53-15a2.37,2.37,0,0,0-2.25-2.47l-17.74-.46A2.18,2.18,0,0,0,184,31l-.44,15a2.36,2.36,0,0,0,2.22,2.44l17.64.49A2.19,2.19,0,0,0,205.6,46.81Z"/><path class="cls-43" d="M166.41,68.26,99.94,65.62a1.88,1.88,0,0,0-1.9,2L98,76.31a2.28,2.28,0,0,0,2.07,2.32L166.3,81a2,2,0,0,0,2.07-2l.22-8.3A2.35,2.35,0,0,0,166.41,68.26Z"/><path class="cls-44" d="M166,84.25,99.8,81.77a1.85,1.85,0,0,0-1.87,1.93l-.06,8.67a2.29,2.29,0,0,0,2.07,2.32l66,2.47a2,2,0,0,0,2.05-2l.21-8.5A2.35,2.35,0,0,0,166,84.25Z"/><path class="cls-45" d="M169.23,45.84l.39-15.08a2.33,2.33,0,0,0-2.19-2.41l-67.18-1.73a2,2,0,0,0-1.94,2.05l-.1,15.1a2.24,2.24,0,0,0,2.06,2.31l66.84,1.86A2.09,2.09,0,0,0,169.23,45.84Z"/><path class="cls-46" d="M217.2,111.91,217,118a10.68,10.68,0,0,1-11.29,10.43l-131-5.93a7.93,7.93,0,0,0,7.5-7.14S82.45,3.84,82.45,0l9.13,10.11L98.49,2.5l7.24,8,2.61-2.83a53.82,53.82,0,0,1,13.81,19.52,74.45,74.45,0,0,1,4.17,13.17c.51,2.29,1,4.45,1.54,6.5C130,55.37,132.33,61.92,135,67c3.33,6.45,7.17,10.53,11.88,13.28a36,36,0,0,0,8.89,3.58,101.6,101.6,0,0,0,12.41,2.35c4,.57,8.4,1.11,13.25,1.79l.87.13a53,53,0,0,1,21.59,8.06A35.22,35.22,0,0,1,217.2,111.91Z"/><g class="cls-47"><circle class="cls-48" cx="143.34" cy="218.93" r="7.28" transform="translate(-108.89 288.62) rotate(-72.23)"/><path class="cls-49" d="M143.34,157.9a60.78,60.78,0,0,0-39.81,14.78,5,5,0,0,0-.3,7.27l.2.21a4.94,4.94,0,0,0,6.7.27,50.8,50.8,0,0,1,66.42,0,4.94,4.94,0,0,0,6.7-.27l.2-.21a5,5,0,0,0-.3-7.27A60.78,60.78,0,0,0,143.34,157.9Z"/><path class="cls-50" d="M143.34,174.85a43.9,43.9,0,0,0-27.73,9.83,4.93,4.93,0,0,0-.34,7.31l0,0a5,5,0,0,0,6.66.3,34.12,34.12,0,0,1,42.76,0,5,5,0,0,0,6.66-.3l0,0a4.93,4.93,0,0,0-.34-7.31A43.9,43.9,0,0,0,143.34,174.85Z"/><path class="cls-51" d="M127.39,204.12a5.32,5.32,0,0,0,6.69.61,17,17,0,0,1,18.52,0,5.32,5.32,0,0,0,6.69-.61l0,0a5,5,0,0,0-.72-7.59,27.09,27.09,0,0,0-30.5,0,5,5,0,0,0-.72,7.59Z"/></g><g id="Character"><g id="Character-2" data-name="Character"><g id="Bottom"><g id="Bottom-2" data-name="Bottom"><polygon class="cls-52" points="333.65 435.7 329.99 434.02 333.6 433.06 333.65 435.7"/><path class="cls-53" d="M297.36,442.09s43.18-18.39,43.71-15.65a3.8,3.8,0,0,1,0,1.65l.12-.15-.8,5.1a13.18,13.18,0,0,1-6.72,2.66c0-.25,0-1.77,0-2.63a22.35,22.35,0,0,0-3.8,1.9c-2.77,1.73-4.55,4.74-7.49,8.25-2.14,2.55-5.95,3.75-11.61,4.51-6.08.82-11.44-.27-13-1.8C296.54,444.7,297.14,442.45,297.36,442.09Z"/><path class="cls-54" d="M298.55,441.14c.42-.41,2-2,4-3.75,1.82-1.52,4-3.44,6.23-5a24.68,24.68,0,0,0,3.1-2.4c.75-.77,1.47-1.55,2.14-2.38a42.94,42.94,0,0,0,5.21-8.32c.68-1.39,1.91-4.44,1.56-10.11-.53-8.57-1.27-11.67-1.31-17.24l20.59,2.61c-.6,3.09-1.24,10-1.55,13.5-.48,5.34-1.32,5.85.9,11.18.65,1.57,1.62,3.07,1.71,4.76.13,2.73-2.15,5.09-4.7,6.43-2.12,1.11-4.55,1.59-6.6,2.78a20.75,20.75,0,0,0-5.38,5c-1.45,1.75-2.62,3.82-4.66,5.05a20,20,0,0,1-7,2.3,41.08,41.08,0,0,1-9.45.46C298.87,445.65,295.53,444.13,298.55,441.14Z"/><path class="cls-53" d="M315.41,432.76a8.54,8.54,0,0,0-6.7-.56c-3.18,2.37-5.82,4.48-7.68,6-2.26,1.79-4.24,3.42-4.15,5.47.13,3.21,13.39,4.15,20.8,1.1a9,9,0,0,0,5.24-4.32S321.82,435.92,315.41,432.76Zm25.2-11.57c-1.13-2.07-1.56-3.12-1.56-3.12-2.58,1.32-7.06,7.38-5,13.47a10,10,0,0,0,6.5-4.16A5.52,5.52,0,0,0,340.61,421.19Z"/><path class="cls-53" d="M365.62,432.34c-.15,2.08.07,8.29-.38,12.94-.42,4.21-1.68,10.77-.64,15.77s5.82,10.7,12.82,6.33c4.34-2.71,6.17-6.1,7-12.17.56-4.21-1.21-10.14-2.72-15.4-1.77-6.15-2.41-9.42-2.41-9.42Z"/><path class="cls-54" d="M380.78,401.71c0,5.71-.73,15.16-1,21.47a52.86,52.86,0,0,0,.55,10.2c.82,4.07,1.73,9.71,2.33,12.35.84,3.69,1.49,6-.14,10.06a4.56,4.56,0,0,1-.52.9c-2.19,3.3-7.54,5.63-9.21,5.16a3.18,3.18,0,0,1-3,.76,3.82,3.82,0,0,1-.56-.14c-.19-.06-.37-.13-.56-.21A5.2,5.2,0,0,1,366,459q-.13-.42-.24-.9a29.68,29.68,0,0,1-.31-10c.14-2.42.23-5.87.13-9.58s-3.71-23.15-5.1-34.82Z"/><path class="cls-53" d="M383.47,450.53c-4.09-1.73-16.5-2.23-18.6,2.68-.22,4.69,0,7.68,3.36,11.9,4.43,5.61,10.67.1,13.11-3.46S383.94,453.08,383.47,450.53Z"/><path class="cls-55" d="M366.94,261.33c5.68,8.75,10.89,18.06,11.53,38.09.85,26.41-2,49.87-1.75,53.08s1.69,8.43,4.18,24.21-.35,46.4-.35,46.4-1.84,3.63-8.3,4.44c-6,.75-8.8-1.82-8.8-1.82s-10.18-42.18-12.89-51.63-6.77-43.3-6.77-43.3l-1,18s2.22,8.67,1,22.65-5.45,41-5.45,41-2.66,2.72-9,2.59c-5.82-.13-8.8-3.09-8.8-3.09s-6.47-53-7.19-68.79-.93-55.14,3.3-78.68Z"/><path class="cls-52" d="M320.93,286.91c1,6.39,11.65,12.87,15.75,13.62l5.59,29.68.51,18.55,1-18L339.89,298S326.76,295.13,320.93,286.91Zm40.25,82.19c-1.39-8.21-2.89-26.84-3.8-35.14s-1.73-16.61-2.72-24.91c.29,8.35.69,16.69,1.33,25s2.05,27,3.42,35.29,3,16.47,4.56,24.69,3.26,16.41,5.07,24.6q-1.68-12.43-3.68-24.82C364,385.58,362.62,377.31,361.18,369.1Zm-40-46,.45-21.8c-.86,7.23-1.46,14.49-1.85,21.76s-.69,14.52-.38,21.86c.6,7.3,1.53,14.5,2.5,21.72s2.07,14.4,3.32,21.58q-.82-10.87-1.93-21.73l-1.09-10.85c-.36-3.61-.76-7.23-1-10.82S321,337.6,321,334,321.09,326.72,321.14,323.09Z"/></g></g></g><g id="Top"><g id="Arm"><g id="Arm-2" data-name="Arm"><path class="cls-54" d="M332.29,206.67c-5,.58-8.76.45-13.38,6.42-4.72,6.13-10.19,13.67-17.32,23.06l-16.27-9.07-7.59,11.24S295,251.26,301.52,254c4.88,2.05,6.22-.07,10.2-3.67,4.42-4,17.53-17.16,17.53-17.16Z"/><path class="cls-56" d="M332.84,206.31c-6.06.44-9.35,1.67-11.36,3.42s-20.17,26-20.17,26l-3.08-1.48s2.36,2.9.07,9.39-5.25,5.44-5.25,5.44a76.24,76.24,0,0,0,8.71,5.44c3.21,1.5,5,.66,8.66-2.46s19.47-18.79,19.47-18.79Z"/><path class="cls-57" d="M332.84,206.31c-6.06.44-9.35,1.67-11.36,3.42s-20.17,26-20.17,26l-3.08-1.48s2.36,2.9.07,9.39-5.25,5.44-5.25,5.44a76.24,76.24,0,0,0,8.71,5.44c3.21,1.5,5,.66,8.66-2.46s19.47-18.79,19.47-18.79Z"/><path class="cls-58" d="M301.31,235.76c2.78,1.17,5.88,4.49,6.28,6.14-.54-4.58-4.08-6.57-5.39-7.32Z"/></g><g id="Tablet"><path class="cls-59" d="M267.06,205.71h0l1.56-.9v0a1.52,1.52,0,0,1,1.4.12l13.63,6.73a5.42,5.42,0,0,1,2.66,3.67l4.57,32a1.39,1.39,0,0,1-.49,1.5h0l-1.61.91h0a1.51,1.51,0,0,1-1.41-.11L273.72,243a5.44,5.44,0,0,1-2.66-3.67c-.89-6.3-3.67-25.74-4.57-32C266.38,206.45,266.61,205.92,267.06,205.71Z"/><path class="cls-52" d="M283.47,213.71a5.29,5.29,0,0,1,1.25,2.53l4.58,32a1.47,1.47,0,0,1-.44,1.48l1.51-.86h0a1.4,1.4,0,0,0,.5-1.5l-4.58-32a5.17,5.17,0,0,0-1.14-2.39Z"/><path class="cls-55" d="M289.29,248.28l-4.57-32a5.44,5.44,0,0,0-2.66-3.67l-13.63-6.73c-1.27-.63-2.14,0-1.94,1.4.9,6.3,3.68,25.74,4.57,32a5.44,5.44,0,0,0,2.66,3.67l13.64,6.73C288.62,250.31,289.49,249.68,289.29,248.28Z"/><path class="cls-59" d="M283.48,222.53l-.86-6a1,1,0,0,0-.5-.68l-2.56-1.26c-.24-.12-.4,0-.36.26l.86,6a1,1,0,0,0,.49.68l2.57,1.26C283.35,222.91,283.52,222.79,283.48,222.53Z"/><path class="cls-52" d="M282.23,217.85a2.52,2.52,0,0,0-1.28-1.7c-.61-.3-1,0-.94.61a2.54,2.54,0,0,0,1.27,1.7C281.9,218.76,282.32,218.49,282.23,217.85Z"/><path class="cls-52" d="M282.62,220.87a2.54,2.54,0,0,0-1.27-1.7c-.62-.3-1,0-1,.61a2.6,2.6,0,0,0,1.28,1.7C282.29,221.78,282.72,221.51,282.62,220.87Z"/><path class="cls-54" d="M267.38,228.5c-.92-1.69-.79-1.88-.09-2.6a4.93,4.93,0,0,1,4.23-1.54,9.84,9.84,0,0,1,3.39.8c.66.45-.12,1.85-1.94,2-2.88.28-3,1.05-3,1.05a35.28,35.28,0,0,1,3.69-.19,26.16,26.16,0,0,1,4,1.13c1.16.33,1.21,1.88-.86,2.16L279,232c1.49.43,1.9,1.3.6,2.09a2.25,2.25,0,0,1-1.44.35s1.62.2,1.58.74c-.09,1.55-1.14,1.83-4.52,2.37-3.21.52-4.06,2.11-3.59,3.34,0,0-1.16-.88-2.18-1.79-.75-.66-1.36-1.38-.83-2.61,0,0-1.78-.19-1.76-1.3a5.75,5.75,0,0,1,.72-2.3,1.94,1.94,0,0,1-.75-1.94,3.15,3.15,0,0,1,.88-1.85Z"/><path class="cls-60" d="M276.87,231.34a10,10,0,0,0-1.94-.46,6.56,6.56,0,0,0-2,.37,24.25,24.25,0,0,0-3.66,1.41,23.46,23.46,0,0,0,3.82-.85,10,10,0,0,1,1.82-.48C275.54,231.31,276.22,231.38,276.87,231.34Z"/><path class="cls-60" d="M278.15,234.39a4.26,4.26,0,0,0-2.12-.33,11.28,11.28,0,0,0-2.1.39A20.14,20.14,0,0,0,270,236a38.84,38.84,0,0,0,4.1-1A11.07,11.07,0,0,1,278.15,234.39Z"/></g></g><path class="cls-61" d="M375,276.73c-3.53-11.87-5.82-18.74-5.77-22.46,0,0,4.15-18.52,4.82-22.9,1.73-11.4-.1-16.86-2.35-18.17a79.67,79.67,0,0,0-8.42-3.17c-7.83-2.59-19.18-3.34-26.56-3.54-2.78,0-3.63.09-3.63.09a67.29,67.29,0,0,0-10.33,8.66c-6.15,6.56-8.18,11.06-7.54,18.1a16.8,16.8,0,0,0,3.54,8.4c.31,3.41.65,13,.65,13-.25,3.76,0,3.69-2.26,12.69C322.36,285.64,362.41,286.19,375,276.73Z"/><g id="Head"><path d="M361.85,160.74a10,10,0,0,1,10.92,2.75c2.62,3.07,3.08,7.39,3.36,11.42.23,3.45.63,7,.55,10.44-.06,3,1.93,4.79,4,6.86,1.8,1.8,3.57,4.11,3.17,6.62-.26,1.66-1.46,3.15-1.34,4.83a6.73,6.73,0,0,0,1.82,3.48c1.46,1.85,2.87,4,2.62,6.37-.28,2.58-2.52,4.54-4.87,5.65-6,2.83-13,1.3-18.34-2.15s-8-10.13-8.1-16.24a51.59,51.59,0,0,1,1.62-12.09,84.09,84.09,0,0,1,2.2-8.71c.59-1.8,1.31-3.57,1.81-5.4a23.6,23.6,0,0,0,.21-11.51"/><path class="cls-9" d="M365.05,161.22a11.55,11.55,0,0,1,3.59,6.35,3.2,3.2,0,0,1-.09,2,2.41,2.41,0,0,1-2.58,1.2,4.93,4.93,0,0,1-2.59-1.52,10.06,10.06,0,0,1-2.77-5.82c-.12-1,.05-2.59,1-3.17C362.79,159.56,364.22,160.47,365.05,161.22Z"/><path d="M328,177.61c-4.74-5.9-2.47-14.59.37-17.49,5.69-5.81,10.88-5.77,19.7-5.12,6.71.49,14.67,4.52,15.85,11.42,6.18,3.22,3.87,11.82,2.17,15.44-3.57,7.59-8.58,13.49-8.72,17.55Z"/><path class="cls-54" d="M331.86,164.06c-1.55,1.11-4.17,4.31-4.05,10.34.13,1.83-.55,4-.69,7.45-.54,12.86,2.92,15.69,6.33,17.35,2,1,3.18,1.19,6.49,1.29l-.25,6s-5.12,3.73-2.12,14.16c16-9.93,20.53-14.33,20.55-14.35l.79-16.38c.08.07,2,1.89,5.3.27,3.58-1.75,5.19-7.61,3-10.42s-6.31-1.76-7.59.75c-2.16,4.22-4.34,2-3.46.11-2-1.06-2.59-3.09-2.5-5.26s.37-4-.15-6.15a7.34,7.34,0,0,0-3.78-4.75,9.78,9.78,0,0,0-8.26,0,2.86,2.86,0,0,1-1.59.38,3.32,3.32,0,0,1-1.38-.89C336.46,162.26,333.87,162.61,331.86,164.06Z"/><path class="cls-60" d="M343.66,188.47l-6,1.84a3,3,0,0,0,3.84,2.15A3.31,3.31,0,0,0,343.66,188.47Z"/><path class="cls-62" d="M340.08,192.55a2.83,2.83,0,0,1,2.93-2.69,3,3,0,0,1,.68.12,3.27,3.27,0,0,1-2.22,2.48A3,3,0,0,1,340.08,192.55Z"/><polygon class="cls-60" points="339.46 175.17 338.18 186.61 332.56 183.67 339.46 175.17"/><path class="cls-60" d="M339.94,200.49c4.13-.06,13-2,15.42-7.34,0,0-.49,3.89-5.67,6.71-4.09,2.23-9.81,2.49-9.81,2.49Z"/><path class="cls-52" d="M344,179a1.83,1.83,0,1,0,1.73-1.92A1.83,1.83,0,0,0,344,179Z"/><path class="cls-52" d="M330.39,178a1.83,1.83,0,1,0,1.46-2.13A1.83,1.83,0,0,0,330.39,178Z"/><path class="cls-52" d="M331.37,170.84a2.61,2.61,0,0,1,3.07,2l-5.12,1A2.61,2.61,0,0,1,331.37,170.84Z"/><path class="cls-52" d="M348.46,172.52a2.61,2.61,0,0,1,1.23,3.48L345,173.75A2.62,2.62,0,0,1,348.46,172.52Z"/></g><path class="cls-56" d="M356.93,205.37a41.09,41.09,0,0,1-2.1,7.3c-1.8,5-2.55,9.1-3.31,20s.52,47.78.73,68.38c8.13.34,20.78-2.17,27.11-8.46-.06-4.33-1.74-10-4.19-21.12s-5.42-12.18-4.56-18.07,6.17-29.45,1.87-41.67a46.22,46.22,0,0,1-7-1.71C357.82,207.85,356.93,205.37,356.93,205.37Z"/><path class="cls-63" d="M356.93,205.37a41.09,41.09,0,0,1-2.1,7.3c-1.8,5-2.55,9.1-3.31,20s.52,47.78.73,68.38c8.13.34,20.78-2.17,27.11-8.46-.06-4.33-1.74-10-4.19-21.12s-5.42-12.18-4.56-18.07,6.17-29.45,1.87-41.67a46.22,46.22,0,0,1-7-1.71C357.82,207.85,356.93,205.37,356.93,205.37Z"/><path class="cls-56" d="M339.64,204.07l-.34,1.09c-.13,3.13-6.79,7.85-11.61,15.05s-5.85,14.37-5.94,23.82A131.55,131.55,0,0,1,319.7,264c-2.53,12.19-5.35,24.19-6.09,31,0,0,.14-10.86.84-17.2.79-7.16,3.11-16,3.4-23,.24-5.6.24-11.58.24-11.58a19.59,19.59,0,0,1-2.83-17.31c3.05-10.19,17.56-19.6,17.56-19.6a23.86,23.86,0,0,1,2.79-.57A15.55,15.55,0,0,0,339.64,204.07Z"/><path class="cls-63" d="M339.64,204.07l-.34,1.09c-.13,3.13-6.79,7.85-11.61,15.05s-5.85,14.37-5.94,23.82A131.55,131.55,0,0,1,319.7,264c-2.53,12.19-5.35,24.19-6.09,31,0,0,.14-10.86.84-17.2.79-7.16,3.11-16,3.4-23,.24-5.6.24-11.58.24-11.58a19.59,19.59,0,0,1-2.83-17.31c3.05-10.19,17.56-19.6,17.56-19.6a23.86,23.86,0,0,1,2.79-.57A15.55,15.55,0,0,0,339.64,204.07Z"/><path class="cls-57" d="M358.3,201a15.68,15.68,0,0,0,4.66,8.2s-2.54,9.84-2.37,14.73,1,9.65-.39,9.57a36.29,36.29,0,0,1-5.35-1.5s3,4.89,2.67,6.36-6.11,18-6.11,18-1.3-19.45-.73-25.12,2-16,4.29-21.94C356.56,205.21,358.3,201,358.3,201Z"/><path class="cls-57" d="M321.24,252.45c-.05-5.47-2.33-19.26-2.59-22s3.72-5.06,3.72-5.06-2.36.5-3.1-.13,4.24-7.25,8.44-11.58,12.15-10.82,12.15-10.82l-.17,3.6a51.18,51.18,0,0,0-6.18,7.46C329.77,219.55,323,225.57,321.24,252.45Z"/><g id="Arm-3" data-name="Arm"><path class="cls-60" d="M347.31,233.18c-2.77-2.62-4.2-3.67-5.57-4.24s-6.09-3.22-7.94-3.92c-1.17-.44-1.89,1.43-.5,2.93,1.06,1.16,4,2.85,5.25,3.75s3.54,4.43,3.54,4.43Z"/><path class="cls-54" d="M386.32,223.56c-2.35-7.63-6.46-10.48-13.7-11.59-5,10.23-2.1,26.87-2.1,26.87L374.25,251s-14.46-5.45-16.36-7a97.58,97.58,0,0,1-8.22-8.72c-2.24-2.71-3.52-2.53-4.82-2.49-4.27.14-5.23.39-6.18.84a1.91,1.91,0,0,0-1,1.54c-1.13,0-2.79-.22-3.22,1.58a4.87,4.87,0,0,0-.24,1.46,1.18,1.18,0,0,0-.77.33c-1.05,1,.1,4.86,1,5.88a3.62,3.62,0,0,0,3,.89c1.15,0,.76-1.23.76-1.23l1.56.28c3.12,2.82,2.73,7.64,7.11,9.22a30.72,30.72,0,0,1,5.38,1.71c9.31,4.39,21.27,16.9,32,18.1,8.47.95,9.72-3,10-8.17C394.47,259.81,388.42,230.36,386.32,223.56Z"/><path class="cls-56" d="M372.48,211.75c4.08.88,7.81,1.32,10.76,4.84s3.65,6.63,5.49,14.9,3.59,16.72,4.94,25,1.33,13.33-1.39,15.86-7.65,1.89-10.16,1.33a39.38,39.38,0,0,1-7.08-3.05s2.56-3.24,1.83-10.24-4.25-10-4.25-10l1.41.47-4.72-13.64C367.37,231.62,368.72,216.37,372.48,211.75Z"/><path class="cls-57" d="M372.48,211.75c4.08.88,7.81,1.32,10.76,4.84s3.65,6.63,5.49,14.9,3.59,16.72,4.94,25,1.33,13.33-1.39,15.86-7.65,1.89-10.16,1.33a39.38,39.38,0,0,1-7.08-3.05s2.56-3.24,1.83-10.24-4.25-10-4.25-10l1.41.47-4.72-13.64C367.37,231.62,368.72,216.37,372.48,211.75Z"/><path class="cls-58" d="M373.23,248.52l.8,2.32c5,1.43,10,3,11.27,4.91C384,252.57,380.23,250.24,373.23,248.52Z"/><path class="cls-60" d="M337.67,235.16l5.09-.42-4.91-.26A1.91,1.91,0,0,0,337.67,235.16Z"/><path class="cls-60" d="M334.21,238.2l5.81-.08-5.74-.59A2.87,2.87,0,0,0,334.21,238.2Z"/><path class="cls-60" d="M338.74,243.29a2.21,2.21,0,0,1-.58-1.18,19.19,19.19,0,0,1-2-.37,5.27,5.27,0,0,1-.74-.31,2.12,2.12,0,0,1-.77-.62,1.87,1.87,0,0,0,.69.76,4.15,4.15,0,0,0,.82.4l.25.74a1.19,1.19,0,0,0-.62.16,1.52,1.52,0,0,0-.59.69,2,2,0,0,1,.66-.56,1.17,1.17,0,0,1,.78-.05,2.5,2.5,0,0,1,1.52,1.12l1.56.28A10.5,10.5,0,0,1,338.74,243.29Z"/></g></g></g></g></g></g></svg>