<svg xmlns="http://www.w3.org/2000/svg" viewBox="0 0 234.4 352.68"><defs><style>.cls-1,.cls-7{fill:#001e50;}.cls-2{fill:#fff;}.cls-3{fill:#b4dff7;}.cls-4{fill:#283039;}.cls-5{fill:#9aa1b0;}.cls-6,.cls-9{fill:none;}.cls-6{stroke:#9aa1b0;stroke-linecap:round;stroke-miterlimit:10;stroke-width:0.91px;opacity:0.44;}.cls-7{font-size:20px;font-family:Poppins-Medium, Poppins;font-weight:500;}.cls-8{fill:#ffb200;}.cls-10{fill:#786661;}.cls-11{fill:#988783;}.cls-12{fill:#0c0d0d;}.cls-13{fill:#90817e;}.cls-14{fill:#6e5e5a;}.cls-15{fill:#212120;}.cls-16{fill:#424343;}.cls-17{fill:#343535;}.cls-18{fill:#686969;}.cls-19{fill:#88d2dd;}.cls-20{fill:#ef4b4c;}.cls-21{fill:#cd2027;}.cls-22{fill:#0ea4b4;}.cls-23{fill:#71ccdf;}.cls-24{fill:#48453e;}.cls-25{fill:#2f3030;}.cls-26{fill:#888786;}.cls-27{fill:#a4dbe5;}</style></defs><g id="Layer_2" data-name="Layer 2"><g id="Layer_2-2" data-name="Layer 2"><rect class="cls-1" width="181.6" height="335.82" rx="12.2"/><rect class="cls-2" x="11.26" y="12.51" width="159.79" height="310.8" rx="5.9"/><path class="cls-3" d="M17.16,12.51H165.54a5.92,5.92,0,0,1,5.92,5.92v299a5.9,5.9,0,0,1-5.9,5.9H17.18a5.92,5.92,0,0,1-5.92-5.92v-299A5.9,5.9,0,0,1,17.16,12.51Z"/><path class="cls-4" d="M148,276H33.63a4.21,4.21,0,0,1-4.21-4.21h0a4.21,4.21,0,0,1,4.21-4.22H148a4.22,4.22,0,0,1,4.22,4.22h0A4.22,4.22,0,0,1,148,276Z"/><rect class="cls-5" x="72.48" y="301.9" width="58.96" height="40.31"/><path class="cls-2" d="M210.7,327.19c-1.21-3.27-2.19-6.66-3.92-9.69s-4.37-5.75-7.75-6.65a10.19,10.19,0,0,0-2-.29v0h-.47c-.19,0-.38,0-.57,0H149.14c-.3-4.57-.64-9.14-1-13.7-.56-6.2-1.24-12.49-3.62-18.24a30.25,30.25,0,0,0-3.21-4.94H50.16a30.25,30.25,0,0,1,3.21,4.94c2.38,5.75,3.07,12,3.63,18.24q1.05,11.57,1.61,23.17c.2,4.09.36,8.24,1.63,12.13s3.82,7.56,7.57,9.2c6.73,2.94,14.78-1.85,18.14-8.38,2.07-4,2.89-8.6,5.06-12.57a20.77,20.77,0,0,1,6.06-6.89c3.12-2.26,7.14-3.65,10.87-2.65,3.37.9,6,3.61,7.74,6.65s2.72,6.42,3.93,9.69c4.18,11.28,12.17,22.05,23.69,25.49h91.1C222.87,349.24,214.89,338.47,210.7,327.19Z"/><line class="cls-6" x1="132.78" y1="322.26" x2="196.95" y2="322.26"/><line class="cls-6" x1="143.67" y1="326.69" x2="200.97" y2="326.69"/><line class="cls-6" x1="154.19" y1="331.59" x2="202.6" y2="331.59"/><line class="cls-6" x1="161.8" y1="336.12" x2="204.83" y2="336.12"/><line class="cls-6" x1="147.14" y1="345.43" x2="175.41" y2="345.43"/><line class="cls-6" x1="62.31" y1="282.06" x2="135.67" y2="282.06"/><line class="cls-6" x1="63.38" y1="286.55" x2="127.84" y2="286.55"/><line class="cls-6" x1="64.67" y1="290.88" x2="127.84" y2="290.88"/><line class="cls-6" x1="65.46" y1="295.03" x2="125.46" y2="295.03"/><line class="cls-6" x1="66.35" y1="299.05" x2="119.05" y2="299.05"/><line class="cls-6" x1="68.13" y1="303.41" x2="109.1" y2="303.41"/><line class="cls-6" x1="78.73" y1="316.79" x2="96.26" y2="316.79"/><line class="cls-6" x1="80.65" y1="321.16" x2="100.03" y2="321.16"/><text class="cls-7" transform="translate(61.94 174.57)">Cable<tspan x="-37.38" y="24">Bill Payments</tspan></text><path class="cls-8" d="M126.88,247.59a12.12,12.12,0,0,1-12.12,12.12h-49a12.12,12.12,0,1,1,0-24.24h49A12.11,12.11,0,0,1,126.88,247.59Z"/><path class="cls-2" d="M76.55,242.28a.93.93,0,0,1,.94-.94h3.24c2.48,0,4,1.41,4,3.54v0c0,2.38-1.9,3.62-4.23,3.62H78.41v2.56a.93.93,0,0,1-1.86,0Zm4,4.57c1.4,0,2.28-.79,2.28-1.89v0c0-1.24-.89-1.89-2.28-1.89H78.41v3.81Z"/><path class="cls-2" d="M85.2,250.73,89.14,242a1.18,1.18,0,0,1,1.12-.76h.09a1.15,1.15,0,0,1,1.1.76l3.94,8.78a.73.73,0,0,1,.1.39.86.86,0,0,1-.87.89,1,1,0,0,1-.91-.65l-.86-2H87.7l-.89,2a.9.9,0,0,1-.87.59.85.85,0,0,1-.86-.86A1,1,0,0,1,85.2,250.73Zm6.93-3-1.86-4.28-1.86,4.28Z"/><path class="cls-2" d="M99.18,247.82l-3.64-5a1.08,1.08,0,0,1-.22-.65.9.9,0,0,1,.94-.89,1.06,1.06,0,0,1,.91.56l3,4.25,3-4.27a1.08,1.08,0,0,1,.89-.56.88.88,0,0,1,.91.91,1.08,1.08,0,0,1-.26.66l-3.62,5v3.32a.93.93,0,0,1-1.86,0Z"/><path class="cls-9" d="M61,134H56.75l-2.3,6.74c1.49-.33,3-.65,4.61-.94Z"/><path class="cls-9" d="M122.09,138.33,120.6,134H65.9l-1.67,4.92a204.81,204.81,0,0,1,30.83-2.23A209.36,209.36,0,0,1,122.09,138.33Z"/><path class="cls-9" d="M129.75,134h-4.28l1.75,5.12c1.55.26,3.07.52,4.56.81Z"/><path class="cls-10" d="M48.47,145.51a1.43,1.43,0,0,0,.08,1.11,1.41,1.41,0,0,0,.83.74l.33.11L54.32,134h-1.9Z"/><path class="cls-11" d="M49.71,147.47l.32.11a1.46,1.46,0,0,0,1.85-.91L56.22,134h-1.9Z"/><path class="cls-12" d="M48,145.35a2,2,0,0,0,.06,1.41.36.36,0,0,1,0,.09,2,2,0,0,0,.36.51,2,2,0,0,0,.77.48l.65.22a1.94,1.94,0,0,0,2.49-1.22l.37-1.08.1-.3,1-2.89.64-1.88,2.3-6.74H61l-2,5.8,0,.05a1.9,1.9,0,0,0,.09,1.48v0a2,2,0,0,0,1.13,1l.65.22a1.95,1.95,0,0,0,2.49-1.22l.31-.91.52-1.51L65.9,134h54.7l1.49,4.38.49,1.41.52,1.55a1.87,1.87,0,0,0,.2.4,2,2,0,0,0,.79.73,2,2,0,0,0,.87.2,1.94,1.94,0,0,0,.63-.11l.65-.22h0a2,2,0,0,0,1.12-1,2,2,0,0,0,.2-.71,2.12,2.12,0,0,0-.1-.79l-.25-.73L125.47,134h4.28l2,5.93.58,1.71.85,2.49.94,2.76a2,2,0,0,0,1.86,1.33,2,2,0,0,0,.63-.11l.65-.22a2,2,0,0,0,1.12-1,1.83,1.83,0,0,0,.2-.88,1.87,1.87,0,0,0-.1-.62L137.7,143l-.67-2L134.62,134h1.1a2,2,0,0,0,2-2V71.8a2,2,0,0,0-2-2H76.91a23.72,23.72,0,0,0-1.82-2.46,15.37,15.37,0,0,0-5-4c-.39-.18-.78-.34-1.18-.48a9.24,9.24,0,0,0-3.19-.49,10.06,10.06,0,0,0-5.79,1.76c-.39.25-.76.52-1.14.82a18.48,18.48,0,0,0-2.45,2.41,23.72,23.72,0,0,0-1.82,2.46h-4a2,2,0,0,0-2,2V132a2,2,0,0,0,2,2h1.38L49.13,142l-.76,2.23ZM49,132V71.8a1.45,1.45,0,0,1,1.46-1.45h85.22a1.45,1.45,0,0,1,1.45,1.45V132a1.45,1.45,0,0,1-1.45,1.46H50.5A1.46,1.46,0,0,1,49,132Zm6.13-62.14a23.6,23.6,0,0,1,1.6-2.12c1.9-2.24,5-4.89,8.94-4.78h0c3.94-.11,7,2.54,8.94,4.78a23.6,23.6,0,0,1,1.6,2.12ZM138,146.62a1.43,1.43,0,0,1-.84.74l-.32.11-.33.11a1.45,1.45,0,0,1-1.84-.91L130.29,134h3.8L138,145.51A1.42,1.42,0,0,1,138,146.62Zm-11-5.54a1.44,1.44,0,0,1-.84.73l-.33.11-.32.11a1.43,1.43,0,0,1-1.11-.07,1.46,1.46,0,0,1-.74-.84L121.14,134h3.8l2,6A1.5,1.5,0,0,1,126.92,141.08ZM62.19,142a1.45,1.45,0,0,1-1.12.07l-.32-.11-.32-.11a1.41,1.41,0,0,1-.84-.73,1.45,1.45,0,0,1-.07-1.12l2-6h3.8l-2.45,7.17A1.44,1.44,0,0,1,62.19,142Zm-7.87-8h1.9l-4.34,12.72a1.46,1.46,0,0,1-1.85.91l-.32-.11-.33-.11a1.41,1.41,0,0,1-.83-.74,1.43,1.43,0,0,1-.08-1.11l4-11.56Z"/><path class="cls-10" d="M63.47,134h-1.9l-2,6a1.45,1.45,0,0,0,.07,1.12,1.41,1.41,0,0,0,.84.73l.32.11Z"/><path class="cls-11" d="M65.37,134h-1.9l-2.72,8,.32.11a1.45,1.45,0,0,0,1.85-.91Z"/><path class="cls-10" d="M134.09,134h-1.9l4.61,13.52.32-.11a1.46,1.46,0,0,0,.91-1.85Z"/><path class="cls-11" d="M132.19,134h-1.9l4.34,12.72a1.45,1.45,0,0,0,1.84.91l.33-.11Z"/><path class="cls-10" d="M124.94,134H123l2.71,8,.33-.11a1.44,1.44,0,0,0,.84-.73A1.5,1.5,0,0,0,127,140Z"/><path class="cls-11" d="M123,134h-1.9l2.44,7.17a1.46,1.46,0,0,0,.74.84,1.43,1.43,0,0,0,1.11.07l.32-.11Z"/><path class="cls-13" d="M51.29,50.37c-.74-1-1.48-2.08-2.25-3.11a2.29,2.29,0,1,0-1.81.33,2.41,2.41,0,0,0,1.28-.06c.58,1.16,1.18,2.31,1.79,3.45,2.55,4.83,5.5,9.43,8.49,14,.38-.3.75-.57,1.14-.82C57.19,59.45,54.4,54.71,51.29,50.37Z"/><path class="cls-13" d="M71.85,60.6c2.1-3.32,4.35-6.58,6.29-10,1-1.71,1.93-3.43,2.85-5.18.6-1.15,1.19-2.3,1.75-3.47a2.34,2.34,0,1,0-.56-.28c-2,2.6-3.76,5.3-5.53,8-2.15,3.29-4,6.79-6,10.18l-1.75,3c.4.14.79.3,1.18.48C70.69,62.43,71.27,61.51,71.85,60.6Z"/><path class="cls-13" d="M65.72,62.94h0c-3.94-.11-7,2.54-8.94,4.78a23.6,23.6,0,0,0-1.6,2.12H76.26a23.6,23.6,0,0,0-1.6-2.12C72.76,65.48,69.66,62.83,65.72,62.94Z"/><path class="cls-10" d="M134.55,133.44a91.39,91.39,0,0,0-17.71-3.2,56.66,56.66,0,0,1-5.66-.84h-59a1,1,0,0,1-1.05-1.05V73.66a1,1,0,0,1,.47-.87c-.5-1.21-.82-2.05-1-2.44H50.5A1.45,1.45,0,0,0,49,71.8V132a1.46,1.46,0,0,0,1.46,1.46Z"/><path class="cls-14" d="M52.21,72.61h71.62a1,1,0,0,1,1,1v54.69a1,1,0,0,1-1,1.05H111.18a56.66,56.66,0,0,0,5.66.84,91.39,91.39,0,0,1,17.71,3.2h1.17a1.45,1.45,0,0,0,1.45-1.46V71.8a1.45,1.45,0,0,0-1.45-1.45H50.66c.15.39.47,1.23,1,2.44A1.07,1.07,0,0,1,52.21,72.61Zm77,56.84a2.61,2.61,0,1,1,2.57-2.61A2.59,2.59,0,0,1,129.18,129.45Zm0-8a2.22,2.22,0,1,1,2.21-2.22A2.21,2.21,0,0,1,129.18,121.47ZM131,76.67a5.42,5.42,0,1,1-5.5,5.42A5.47,5.47,0,0,1,131,76.67Zm0,12.69a5.42,5.42,0,1,1-5.5,5.42A5.47,5.47,0,0,1,131,89.36Z"/><path class="cls-15" d="M123.83,129.4a1,1,0,0,0,1-1.05V73.66a1,1,0,0,0-1-1H52.21a1.07,1.07,0,0,0-.58.18,1,1,0,0,0-.47.87v54.69a1,1,0,0,0,1.05,1.05h71.62Zm-69.77-1.26a1.25,1.25,0,0,1-1.26-1.25V75.13a1.25,1.25,0,0,1,1.26-1.26H122a1.25,1.25,0,0,1,1.26,1.26v51.76a1.25,1.25,0,0,1-1.26,1.25Z"/><path class="cls-16" d="M57.12,122.54h0s-4.32-21.53,0-44h0L52.8,75.13v51.76Z"/><path class="cls-16" d="M119.65,78.5h0s4.67,30.34-.91,44.64h0l4.51,3.75V75.13l-3.6,3.37Z"/><path class="cls-17" d="M57.12,78.5c.09,0,32.66-4.5,62.53,0h0l3.6-3.37A1.25,1.25,0,0,0,122,73.87H54.06a1.25,1.25,0,0,0-1.26,1.26l4.32,3.37Z"/><path class="cls-17" d="M122,128.14a1.25,1.25,0,0,0,1.26-1.25l-4.51-3.75s-37.64,4.3-61.62-.6h0l-4.32,4.35a1.25,1.25,0,0,0,1.26,1.25Z"/><path class="cls-18" d="M119.65,78.5h0c-29.87-4.5-62.44,0-62.53,0h0c-4.32,22.51,0,44,0,44h0c24,4.9,61.62.6,61.62.6h0C124.32,108.84,119.65,78.5,119.65,78.5ZM59.28,121s-4-23.22,0-41c0,0,30.35-4.2,58.19,0,0,0,4.34,26.29-.84,41.54h0a79.37,79.37,0,0,1-8.48.47C94.13,122.74,67,123.67,59.28,121Z"/><path class="cls-19" d="M108.14,122c-45.62.12-48.86-42-48.86-42-4,17.76,0,41,0,41C67,123.67,94.13,122.74,108.14,122Z"/><path class="cls-20" d="M129.18,124.23a2.61,2.61,0,1,0,2.57,2.61A2.59,2.59,0,0,0,129.18,124.23Zm0,4.43a1.82,1.82,0,1,1,1.79-1.82A1.82,1.82,0,0,1,129.18,128.66Z"/><ellipse class="cls-21" cx="129.18" cy="126.84" rx="1.79" ry="1.82"/><path class="cls-22" d="M131.39,119.25a2.22,2.22,0,1,0-2.21,2.22A2.21,2.21,0,0,0,131.39,119.25Zm-2.21,1.69a1.69,1.69,0,1,1,1.69-1.69A1.68,1.68,0,0,1,129.18,120.94Z"/><circle class="cls-23" cx="129.18" cy="119.25" r="1.69"/><path class="cls-24" d="M131,87.32a5.24,5.24,0,1,0-5.32-5.23A5.29,5.29,0,0,0,131,87.32Zm.57-9.6a4.4,4.4,0,0,1,3.8,3.79h-3.8Zm0,4.94h3.8a4.42,4.42,0,0,1-3.8,3.8Zm-1.15,3.8a4.42,4.42,0,0,1-3.79-3.8h3.79Zm0-8.74v3.79h-3.79A4.4,4.4,0,0,1,130.46,77.72Z"/><path class="cls-25" d="M131,87.5a5.42,5.42,0,1,0-5.5-5.41A5.47,5.47,0,0,0,131,87.5Zm0-10.65a5.24,5.24,0,1,1-5.32,5.24A5.29,5.29,0,0,1,131,76.85Z"/><path class="cls-26" d="M135.41,82.66h-3.8v3.8A4.42,4.42,0,0,0,135.41,82.66Z"/><path class="cls-26" d="M131.61,77.72v3.79h3.8A4.4,4.4,0,0,0,131.61,77.72Z"/><path class="cls-26" d="M130.46,77.72a4.4,4.4,0,0,0-3.79,3.79h3.79Z"/><path class="cls-26" d="M130.46,86.46v-3.8h-3.79A4.42,4.42,0,0,0,130.46,86.46Z"/><path class="cls-24" d="M131,100a5.24,5.24,0,1,0-5.32-5.23A5.29,5.29,0,0,0,131,100Zm.57-9.6a4.4,4.4,0,0,1,3.8,3.79h-3.8Zm0,4.94h3.8a4.41,4.41,0,0,1-3.8,3.8Zm-1.15,3.8a4.41,4.41,0,0,1-3.79-3.8h3.79Zm0-8.74V94.2h-3.79A4.4,4.4,0,0,1,130.46,90.41Z"/><path class="cls-25" d="M131,100.19a5.42,5.42,0,1,0-5.5-5.41A5.47,5.47,0,0,0,131,100.19Zm0-10.65a5.24,5.24,0,1,1-5.32,5.24A5.29,5.29,0,0,1,131,89.54Z"/><path class="cls-26" d="M135.41,95.35h-3.8v3.8A4.41,4.41,0,0,0,135.41,95.35Z"/><path class="cls-26" d="M131.61,90.41V94.2h3.8A4.4,4.4,0,0,0,131.61,90.41Z"/><path class="cls-26" d="M130.46,90.41a4.4,4.4,0,0,0-3.79,3.79h3.79Z"/><path class="cls-26" d="M130.46,99.15v-3.8h-3.79A4.41,4.41,0,0,0,130.46,99.15Z"/><path class="cls-27" d="M108.14,122a79.37,79.37,0,0,0,8.48-.47h0c5.18-15.25.84-41.54.84-41.54-27.84-4.2-58.19,0-58.19,0S62.52,122.16,108.14,122Z"/></g></g></svg>