<svg xmlns="http://www.w3.org/2000/svg" viewBox="0 0 1478.29 785.77"><defs><style>.cls-1{fill:#1c2948;}.cls-2{fill:#163560;}.cls-3{fill:#f1a34f;}.cls-4{fill:#b64c41;}.cls-5{fill:#dd7f30;}.cls-6{fill:#98bdf4;}.cls-7{fill:#ffb670;}.cls-11,.cls-16,.cls-18,.cls-21,.cls-8{opacity:0.2;}.cls-9{fill:#1a2e35;}.cls-10{fill:#ed883e;}.cls-11,.cls-12,.cls-22,.cls-28{fill:none;stroke-linecap:round;stroke-linejoin:round;}.cls-11,.cls-28{stroke:#000;}.cls-11,.cls-12,.cls-22{stroke-width:0.5px;}.cls-12{stroke:#1a2e35;}.cls-13{fill:#ffb200;}.cls-14{fill:#007cff;}.cls-15{fill:#d18807;}.cls-16,.cls-18,.cls-20,.cls-23,.cls-26,.cls-30{isolation:isolate;}.cls-17,.cls-19,.cls-27,.cls-28{opacity:0.3;}.cls-18,.cls-19,.cls-20,.cls-23,.cls-25,.cls-26,.cls-30,.cls-31{fill:#fff;}.cls-20,.cls-24,.cls-31{opacity:0.7;}.cls-22{stroke:#007cff;}.cls-23{opacity:0.6;}.cls-26,.cls-33{opacity:0.5;}.cls-28{stroke-width:0.25px;}.cls-29{fill:#02336d;}.cls-30{opacity:0.8;}.cls-32{fill:#e1e1e1;}.cls-34{fill:#001e50;}.cls-35{fill:#fe5652;}</style></defs><g id="Layer_2" data-name="Layer 2"><g id="Layer_2-2" data-name="Layer 2"><polygon class="cls-1" points="114.64 583.65 1398.67 583.65 1346.54 391.09 114.64 391.09 114.64 583.65"/><path class="cls-2" d="M699.51,202.59h0Z"/><path class="cls-2" d="M1068.3,347.77h0q-28.87-1.08-60-1.11s-115-99.8-248-133.77C897,246.67,1068.3,347.77,1068.3,347.77Z"/><path class="cls-3" d="M26.65,422.69V312.5s129.28-14.78,207.46-43.1c181-66.48,278.27-67.71,442.64-67.71,124.79,0,251.19,83.57,304.82,123.81a108.14,108.14,0,0,0,62.59,21.55c197.41,4.33,319.45,43.74,380.06,70.34A78.19,78.19,0,0,1,1470.9,489v37.1h0a7.39,7.39,0,0,1,7.39,7.39v61.56a7.39,7.39,0,0,1-7.39,7.39H1353.1a138,138,0,0,0,17.46-70.94c-1.84-73.48-61.85-133.31-135.33-134.94a138.51,138.51,0,0,0-124.15,205.88H386.26a138,138,0,0,0,17.46-70.94C401.88,458,341.87,398.21,268.39,396.58A138.52,138.52,0,0,0,144.24,602.46H115.3C15.14,602.46.94,500,0,449.8A26.65,26.65,0,0,1,26.65,422.69Z"/><path class="cls-2" d="M740.2,221.58c114.36,28.94,237,127.86,237,127.86l-324.56-6.95a33.35,33.35,0,0,1-29.55-19.32L573.32,215.84H693.67A190.05,190.05,0,0,1,740.2,221.58Z"/><path class="cls-2" d="M554.24,218.31,599.81,322.7a12.16,12.16,0,0,1-11.13,17c-46,0-166.71-1.69-236.21-19.1a22,22,0,0,1-9.88-37.1C370.83,256.42,432.24,218.31,554.24,218.31Z"/><path class="cls-4" d="M1462.46,453.62H1415s-77.54-72.38-202-92.9C1213,360.72,1442.94,386.05,1462.46,453.62Z"/><path class="cls-4" d="M26.65,422.69H39.2a18.2,18.2,0,0,0,16.46-10.38c7.25-15.36,23.19-44.52,47.64-65.24,9.46-8,3.8-23.49-8.61-23.49h-68Z"/><path class="cls-2" d="M649.2,373.14h63.08a6.31,6.31,0,0,0,6.31-6.31h0a6.3,6.3,0,0,0-6.31-6.31H649.2a6.3,6.3,0,0,0-6.31,6.31h0A6.31,6.31,0,0,0,649.2,373.14Z"/><path class="cls-2" d="M370.32,373.14H433.4a6.31,6.31,0,0,0,6.31-6.31h0a6.3,6.3,0,0,0-6.31-6.31H370.32a6.31,6.31,0,0,0-6.31,6.31h0A6.32,6.32,0,0,0,370.32,373.14Z"/><path class="cls-5" d="M423.73,414.07H992.47a30.16,30.16,0,0,1,25.77,45.83l-36.63,60.21a26.39,26.39,0,0,1-37.86,7.79C895.11,493.23,755,421.3,423.73,414.07Z"/><path class="cls-3" d="M631.29,148.82h29.18a9,9,0,0,1,8.5,6l17.19,47.79h-63.9V157.86A9,9,0,0,1,631.29,148.82Z"/><path class="cls-2" d="M622.26,201.83V169.14h12.51A20.42,20.42,0,0,1,654,182.7l6.83,19.13Z"/><circle cx="264.12" cy="535.76" r="120.48" transform="translate(-200.26 160.06) rotate(-24.78)"/><path class="cls-6" d="M264.12,461.12a74.65,74.65,0,1,1-74.65,74.64A74.64,74.64,0,0,1,264.12,461.12Zm-10.23,8.18A67.11,67.11,0,0,0,213.08,492L239,508a37.25,37.25,0,0,1,14.94-8.29Zm20.45,0v30.41a37.35,37.35,0,0,1,15,8.29l25.87-16A67.13,67.13,0,0,0,274.34,469.3Zm51.77,92.53a67.42,67.42,0,0,0-.14-52.45l-25.86,16a37.31,37.31,0,0,1,1.48,10.41,37.68,37.68,0,0,1-1.38,10.08Zm-51.77,40.4a67.11,67.11,0,0,0,41-23l-25.84-16a37.33,37.33,0,0,1-15.2,8.54Zm6.72-66.47a16.95,16.95,0,1,0-16.94,17A16.93,16.93,0,0,0,281.06,535.76Zm-27.17,66.47V571.82a37.39,37.39,0,0,1-15.2-8.54l-25.84,16A67.16,67.16,0,0,0,253.89,602.23ZM228,545.84a37.68,37.68,0,0,1-1.38-10.08,37.31,37.31,0,0,1,1.48-10.41l-25.86-16a67.42,67.42,0,0,0-.14,52.45Z"/><circle cx="1231.98" cy="535.94" r="120.48" transform="translate(-18.13 1028.11) rotate(-45)"/><path class="cls-6" d="M1232,461.29a74.65,74.65,0,1,1-74.64,74.65A74.65,74.65,0,0,1,1232,461.29Zm-10.22,8.19a67.08,67.08,0,0,0-40.82,22.72l25.87,16a37.45,37.45,0,0,1,15-8.28Zm20.45,0v30.41a37.45,37.45,0,0,1,15,8.28l25.87-16A67.08,67.08,0,0,0,1242.2,469.48ZM1294,562a67.44,67.44,0,0,0-.14-52.46l-25.86,16a37.43,37.43,0,0,1,.1,20.49ZM1242.2,602.4a67.15,67.15,0,0,0,41-23l-25.84-16a37.31,37.31,0,0,1-15.2,8.53Zm6.72-66.46a16.95,16.95,0,1,0-17,16.95A17,17,0,0,0,1248.92,535.94Zm-27.17,66.46V572a37.31,37.31,0,0,1-15.2-8.53l-25.84,16A67.15,67.15,0,0,0,1221.75,602.4ZM1195.88,546a37.43,37.43,0,0,1,.1-20.49l-25.86-16A67.44,67.44,0,0,0,1170,562Z"/><path class="cls-7" d="M852.2,130.08s-3.51-14.92,2.92-41.94c0,0-1.44-.59-1.44-.61.88-3.78,1.85-7.28,2.77-10.32a.68.68,0,0,0,0-.12L821.12,101.4c1.27,8.48-1,25.09-2.47,32.13,0,0-4,12.82,12.79,12.55C843.7,145.89,852.2,130.08,852.2,130.08Z"/><g class="cls-8"><path d="M840.12,107.53c-4.38,5-12,7.84-19,8,.1-.63.08-1.56.15-2.18.12-1,.11-2.46.17-3.48,0-1.26.08-2.62,0-3.92-.06-.52-.27-.44-.33-1l-.12-1.06,21.15-7.18C843.88,98,843.65,103.46,840.12,107.53Z"/></g><path class="cls-7" d="M868.74,55.63c5.07-22.7-14.66-43.61-38.2-38.15C806.64,23,798.08,56.56,799.71,78c1.82,23.76,28.45,38.78,48.69,23.85,13.46-9.92,15.27-23.46,20.34-46.17Z"/><path class="cls-9" d="M852.41,20s-20.25,18.83-40,9.1S836.24-.09,852.41,20Z"/><path class="cls-9" d="M846.82,25.65s5.49,4.49,5.41,10c0,3.3-1.44,15.49-2.54,24.67a5.35,5.35,0,0,0,8,5.29c4.72-2.7,9.87-5.5,11.88-6.06,1.2-.33,1.25-2.76,1.86-5.36,2.33-9.79,4.31-15.34-3-22.28-5-4.77-15.28-13.47-18.8-12.86C842.35,20.27,846.82,25.65,846.82,25.65Z"/><path class="cls-7" d="M875.08,72.14a22.69,22.69,0,0,1-12.44,12.23c-7.47,2.92-9.45-5.14-8.11-12.64,1.22-6.74,3.93-14.85,11.78-14.57S877.89,65.27,875.08,72.14Z"/><path class="cls-9" d="M835.87,60.65c-.21,2.37-1.63,4.17-3.18,4s-2.63-2.19-2.42-4.56,1.63-4.16,3.18-4S836.08,58.29,835.87,60.65Z"/><path class="cls-9" d="M812.93,59.1c-.21,2.37-1.63,4.17-3.18,4s-2.64-2.2-2.43-4.57,1.64-4.16,3.18-4S813.14,56.74,812.93,59.1Z"/><path class="cls-10" d="M819.76,56.26s-8.53,11.1-11.36,15.68c3,3.27,8.83,2.4,8.83,2.4Z"/><path class="cls-9" d="M837.63,49.78a1.13,1.13,0,0,1-1,.6,8.74,8.74,0,0,0-7.2,3.62,1.12,1.12,0,0,1-1.54.37,1.1,1.1,0,0,1-.36-1.52,11.16,11.16,0,0,1,9-4.69,1.1,1.1,0,0,1,1.14,1.08A1,1,0,0,1,837.63,49.78Z"/><path class="cls-11" d="M870.19,65a4.4,4.4,0,0,0-4.48-2,7.61,7.61,0,0,0-4.36,2.64,12.19,12.19,0,0,0-2.75,5.53"/><path class="cls-9" d="M806.19,50.59a1.12,1.12,0,0,1,.4-1.93,11,11,0,0,1,9.95,1.73,1.12,1.12,0,0,1,.12,1.58,1.1,1.1,0,0,1-1.55.12,8.59,8.59,0,0,0-7.9-1.28A1.09,1.09,0,0,1,806.19,50.59Z"/><path class="cls-9" d="M827.64,76a17.17,17.17,0,0,0-10.49,4,8.23,8.23,0,0,0-2.46,3.27c-1.29,3.78,12.55.92,18.24-1.26s4.42-4.31,1.25-5.52A19,19,0,0,0,827.64,76Z"/><path class="cls-12" d="M830.24,85.55C824.68,85.16,822,87,821,88.48"/><path class="cls-9" d="M873.09,33.79s9.88-.4,9.28-6.45-3.43-8.27-19-13.71-22-11.69-41.13-13.3S794.68,3.15,792.06,12s10.88,15.32,10.88,15.32l.61,6.45Z"/><path class="cls-9" d="M850.32,36.21s-11.7,8.26-31.86,9.07S786,46.89,788,44.27s15.53-10.48,15.53-10.48Z"/><polygon class="cls-13" points="802.43 34.45 873.1 38.02 873.1 33.79 803.14 29.41 802.43 34.45"/><path class="cls-14" d="M818.06,13.09a6.43,6.43,0,0,0,9.08-.37,15.85,15.85,0,0,1-9.44,14.5,15.88,15.88,0,0,1-9.44-14.5l.36.37a6.43,6.43,0,0,0,9.08-.37Z"/><path class="cls-13" d="M818.06,13.09a6.43,6.43,0,0,0,9.08-.37,15.85,15.85,0,0,1-9.44,14.5,15.88,15.88,0,0,1-9.44-14.5l.36.37a6.43,6.43,0,0,0,9.08-.37Z"/><path class="cls-13" d="M817.7,27.22V12.72a4.17,4.17,0,0,1-.36.37,6.43,6.43,0,0,1-9.08-.37A15.88,15.88,0,0,0,817.7,27.22Z"/><path class="cls-15" d="M865.21,131.23c2.91.58,36,5.48,36,5.48l-1.8,182.78s-29.74,7.54-77.69,8.28c-53.39.82-60.31.1-60.31.1L770.81,136l31.62-4.07L818,118.66l12.37,20.55L852,115.62Z"/><polygon class="cls-9" points="831.89 161.4 849.48 295.13 823.75 315.33 806.13 287.31 823.02 160.61 831.89 161.4"/><polygon class="cls-16" points="773.38 204.2 791.81 209.79 809.56 204.2 810.56 198.92 773.38 198.92 773.38 204.2"/><path class="cls-15" d="M771.53,136s-7.15.16-12,7.78c-7.13,11.15-28.11,83.6-28.11,83.6h38.83Z"/><path class="cls-7" d="M759.52,207.57s4.87-12,9.3-14,25.32-.36,28.76,6.81c1.84,3.84,8.69,29.39,8.69,29.39l70.51,23.28L878.61,240H920s-8.78,55.8-23.34,58.14c-16.85,2.71-25.06-2.39-42.78-12.35-15.29-8.59-57.55-39.92-57.55-39.92Z"/><polygon class="cls-9" points="758.44 176.6 820.64 268 815.59 270.54 755.08 259.68 697.83 173.24 700.59 168.44 758.44 176.6"/><path class="cls-17" d="M755.21,182.22c1.5,1,60.38,88.32,60.38,88.32l-60.38-10.86-57.38-86.44Z"/><polygon class="cls-16" points="839.6 204.2 858.03 209.79 875.78 204.2 876.78 198.92 839.6 198.92 839.6 204.2"/><path class="cls-14" d="M858.66,175.07a8.37,8.37,0,0,0,11.85-.47,20.73,20.73,0,0,1-12.32,18.92,20.72,20.72,0,0,1-12.33-18.92c.16.16.31.32.47.47a8.38,8.38,0,0,0,11.86-.47Z"/><path class="cls-13" d="M858.66,175.07a8.37,8.37,0,0,0,11.85-.47,20.73,20.73,0,0,1-12.32,18.92,20.72,20.72,0,0,1-12.33-18.92c.16.16.31.32.47.47a8.38,8.38,0,0,0,11.86-.47Z"/><path class="cls-18" d="M858.19,193.52V174.6l-.47.47a8.38,8.38,0,0,1-11.86-.47A20.72,20.72,0,0,0,858.19,193.52Z"/><path class="cls-14" d="M894.9,133.27s1,5.17-3.88,4.89-24.17-2-24.17-2l2-5.31S886.15,127.86,894.9,133.27Z"/><path class="cls-9" d="M894.9,133.27s1,5.17-3.88,4.89-24.17-2-24.17-2l2-5.31S886.15,127.86,894.9,133.27Z"/><path class="cls-14" d="M775.13,133.27s-1,5.17,3.88,4.89,24.16-2,24.16-2l-2-5.31S783.87,127.86,775.13,133.27Z"/><path class="cls-9" d="M775.13,133.27s-1,5.17,3.88,4.89,24.16-2,24.16-2l-2-5.31S783.87,127.86,775.13,133.27Z"/><path class="cls-15" d="M928.14,248.42s-2.3-85.14-9.87-98S898.42,136,898.42,136L865.21,243.18Z"/><path class="cls-9" d="M885,179.3l-1.52,16.26-1.61,16.25c-1.1,10.83-2.11,21.67-3.27,32.49l-.2-.25,24.87,2.15c8.3.69,16.59,1.46,24.88,2.22-8.31-.61-16.61-1.23-24.9-1.91l-24.89-2h-.23l0-.24c1.05-10.83,2.25-21.65,3.36-32.48l1.71-16.24Z"/><path class="cls-16" d="M865.21,131.23l-23.92,23.84-10-14.45s-11.65,11.48-13,11.88-15.88-20.6-15.88-20.6l14.32,26.33,13.57-13.5s11.17,16.87,10.77,16.67S865.21,131.23,865.21,131.23Z"/><polygon class="cls-9" points="839.3 152.19 831.89 161.4 823.02 160.61 820.64 150.71 831.32 140.62 839.3 152.19"/><polygon class="cls-19" points="815.59 270.54 820.64 268 758.44 176.6 755.21 182.22 815.59 270.54"/><path class="cls-14" d="M754.87,176.1s-8.41.09-4.89,9.23,26.5,35.17,33.49,49.72c3,6.33-2.07,16.8-2.07,16.8l-43.77-1.06s-.65-12.61-6.22-23.44-29.63-42-31.61-48,4.93-10.86,4.93-10.86Z"/><path class="cls-20" d="M754.87,176.1s-8.41.09-4.89,9.23,26.5,35.17,33.49,49.72c3,6.33-2.07,16.8-2.07,16.8l-43.77-1.06s-.65-12.61-6.22-23.44-29.63-42-31.61-48,4.93-10.86,4.93-10.86Z"/><path class="cls-7" d="M729.87,223.27s13.5-.59,17.27,2.65-1.41,5.88-1.41,5.88,5.93-2.46,7.69.57c2.11,3.63-3.33,6.36-3.33,6.36s4.95-1.76,6.38,1-4.38,6.52-4.38,6.52,3.82-.41,4,2-12.12,10.41-17.53,9.55-17.42-19.46-17.95-24.57.13-9.48,5.06-15.1l4.24,5.16Z"/><path class="cls-21" d="M745.91,232.15h0l-10.61,3.65c-.14.05-.33-.07-.41-.27s0-.41.1-.45l10.61-3.65c.14-.05.33.07.41.27S746,232.09,745.91,232.15Z"/><path class="cls-21" d="M750,239.22h0l-9.78,4.52a.35.35,0,0,1-.42-.24.37.37,0,0,1,.07-.47l9.79-4.51c.13-.07.32,0,.42.24A.35.35,0,0,1,750,239.22Z"/><path class="cls-21" d="M751.94,246.79l-7.14,3.62c-.14.07-.33,0-.42-.23s-.07-.41.06-.47l7.14-3.63a.36.36,0,0,1,.42.23C752.1,246.51,752.07,246.72,751.94,246.79Z"/><polygon class="cls-9" points="894.14 750.8 895.25 736.79 867.92 736.79 869.72 751.97 889.88 759.94 894.14 750.8"/><path class="cls-9" d="M868.59,751.69h7.27a5.19,5.19,0,0,1,4.14,2.16c4.19,5.73,7.34,3.56,11.9-1.82,2.9-.34,3.68,3,3.92,3.88l5.43,19.77a3.08,3.08,0,0,1-3,4H840.62c-9.16,0-11.06-9.23-7.29-10.08,17-3.75,29-8.74,34.23-13.68C868.53,755,867.53,754.37,868.59,751.69Z"/><path class="cls-22" d="M863.54,757.3a8.84,8.84,0,0,1,6.18,4"/><path class="cls-22" d="M859,760.7a8.85,8.85,0,0,1,6.17,4"/><path class="cls-22" d="M853.41,763.56a8.85,8.85,0,0,1,6.17,4"/><polygon class="cls-9" points="786.31 750.8 787.42 736.79 760.09 736.79 761.88 751.97 782.04 759.94 786.31 750.8"/><path class="cls-9" d="M760.76,751.69H768a5.2,5.2,0,0,1,4.14,2.16c4.19,5.73,7.34,3.56,11.9-1.82,2.9-.34,3.68,3,3.91,3.88l5.44,19.77a3.12,3.12,0,0,1-2.14,3.85,3,3,0,0,1-.9.11H732.79c-9.16,0-11.06-9.23-7.29-10.08,17-3.75,29-8.74,34.23-13.68C760.7,755,759.7,754.37,760.76,751.69Z"/><path class="cls-22" d="M755.71,757.3a8.8,8.8,0,0,1,6.17,4"/><path class="cls-22" d="M751.19,760.7a8.84,8.84,0,0,1,6.18,4"/><path class="cls-22" d="M745.57,763.56a8.84,8.84,0,0,1,6.18,4"/><path class="cls-9" d="M764,344.3a1.31,1.31,0,0,1,0-.28c.26-1.08.55-2.11.8-3.12a1.13,1.13,0,0,1,0-.26c.74-2.92,1.41-5.41,2-7.8H900.28v23.5c.42,25.37,1.28,67,2.59,107.69a47.41,47.41,0,0,0,.16,4.78,30.16,30.16,0,0,1,0,3.81c.48,14.36,1,28.29,1.66,41.23s1.28,25.18,2,35.3a9.05,9.05,0,0,0,.19,2.23c0,1.36.2,2.77.32,4.23,4.92,59.79,2,161.31,1,198.51L860,754s-12.25-147.74-20.87-209.12c-.14-1-.36-1.94-.55-2.87-4.73-24.29-10.17-70-14.77-112.91l-11.34,41.48c-25.9,99.38-18.79,283.55-18.79,283.55H746.58C720,601.85,749.56,410.66,764,344.3Z"/><polygon points="899.25 333.23 759.28 332.4 759.99 321.03 899.15 319.28 899.25 333.23"/><rect class="cls-9" x="813.76" y="317.89" width="24.9" height="15.34"/><rect class="cls-23" x="813.76" y="317.89" width="24.9" height="15.34"/><rect class="cls-9" x="864.44" y="319.28" width="9.02" height="15.3"/><rect class="cls-9" x="778.09" y="319.28" width="8.22" height="13.95"/><path class="cls-9" d="M881.36,337.73a11.69,11.69,0,0,0,0-1.45,12.14,12.14,0,1,0-24.24,1.45h3.36a8.74,8.74,0,0,1,17.47,0h3.41Z"/><g class="cls-24"><path class="cls-25" d="M881.36,337.73a11.69,11.69,0,0,0,0-1.45,12.14,12.14,0,1,0-24.24,1.45h3.36a8.74,8.74,0,0,1,17.47,0h3.41Z"/></g><path class="cls-9" d="M888.65,341.62,887.39,338a4.63,4.63,0,0,0-4.37-3.05h-7.9a4.36,4.36,0,0,0-4.37,3.05l-1.27,3.63a20.22,20.22,0,1,0,19.09,0Zm-9.56,31.27a13.54,13.54,0,1,1,13.54-13.54,13.54,13.54,0,0,1-13.54,13.54h0Z"/><path class="cls-26" d="M888.65,341.62,887.39,338a4.63,4.63,0,0,0-4.37-3.05h-7.9a4.36,4.36,0,0,0-4.37,3.05l-1.27,3.63a20.22,20.22,0,1,0,19.09,0Zm-9.56,31.27a13.54,13.54,0,1,1,13.54-13.54,13.54,13.54,0,0,1-13.54,13.54h0Z"/><path class="cls-9" d="M872.1,341.62,870.84,338a4.64,4.64,0,0,0-4.37-3.05h-7.91A4.62,4.62,0,0,0,854.2,338L853,341.62a20.22,20.22,0,1,0,19.09,0Zm-9.65,31.27A13.54,13.54,0,1,1,876,359.35a13.54,13.54,0,0,1-13.54,13.54Z"/><path class="cls-20" d="M872.1,341.62,870.84,338a4.64,4.64,0,0,0-4.37-3.05h-7.91A4.62,4.62,0,0,0,854.2,338L853,341.62a20.22,20.22,0,1,0,19.09,0Zm-9.65,31.27A13.54,13.54,0,1,1,876,359.35a13.54,13.54,0,0,1-13.54,13.54Z"/><rect class="cls-9" x="753.49" y="260.33" width="13.72" height="147.33" rx="2.29" transform="translate(10.84 -23.67) rotate(1.8)"/><rect class="cls-9" x="731.93" y="280" width="31.7" height="9.48" rx="1.58"/><g class="cls-27"><rect x="753.49" y="260.33" width="13.72" height="147.33" rx="2.29" transform="translate(10.84 -23.67) rotate(1.8)"/><rect x="731.93" y="280" width="31.7" height="9.48" rx="1.58"/></g><polygon class="cls-17" points="787.42 754.12 760.22 754.12 759.73 755.88 788.37 757.3 787.42 754.12"/><path class="cls-17" d="M895.25,754H868.06c0,1.16-.07,1.57-.5,1.85l28.63,1.4Z"/><path class="cls-7" d="M619.58,199.76c-.33.79-36,47.55-36,47.55l-28.92-42.63s-25.09,28-24.13,28.3,37.88,63.29,59.4,49.76S632.72,208,632.72,208Z"/><path class="cls-7" d="M654,173c-3,.44-6.52,9.72-6.52,9.72-.21-.86,6.46-16.76,4.49-18-1.38-.86-3.32-.49-4.8,1.84-1.13,1.79-7,14.42-7.17,15,0,0,3.94-10.5,5.54-15.58.71-2.26-.42-3.36-1-3.46-2.16-.38-4.48,4.23-4.48,4.23s.44-3.54-2.67-1.86-12.11,20.9-14.18,22.33l-6.14-6.93c-3.06,5.63-3.2,8.18-3.05,14.07s5.6,10.75,5.6,10.75a21.84,21.84,0,0,0,10,4.06c6.23.92,10-1.91,13.65-7.31,3-4.37,6.6-13.89,9.08-18.43C655.12,178.48,657,172.53,654,173Z"/><path class="cls-28" d="M639.66,167.3q-2.64,5.61-4.74,11.43"/><path class="cls-28" d="M646.25,186.33a29.16,29.16,0,0,0-15.11-6"/><path class="cls-28" d="M624.6,189.52a9.51,9.51,0,0,1,4,5,9.11,9.11,0,0,1-.26,6.34"/><path class="cls-16" d="M583.58,247.31s-4,7.51-2.88,14.19a14.19,14.19,0,0,1-2.2-8.54,20.64,20.64,0,0,1,2.58-9.34Z"/><path class="cls-14" d="M530.5,175.6s12.84,1,18.67,10.18c8.27,13,33.39,53.69,33.39,53.69l-38,25.65Z"/><path class="cls-29" d="M530.5,175.6s12.84,1,18.67,10.18c8.27,13,33.39,53.69,33.39,53.69l-38,25.65Z"/><polygon class="cls-14" points="601.7 145.03 639.51 219.94 690.8 192.44 650.74 121.02 601.7 145.03"/><polygon class="cls-30" points="601.7 145.03 639.51 219.94 690.8 192.44 650.74 121.02 601.7 145.03"/><rect class="cls-9" x="606.76" y="147.01" width="69.05" height="50.42" transform="translate(503.42 -477.32) rotate(62.98)"/><path class="cls-7" d="M617.1,180.29l8.16-13s3.23,1,2.39,5.71-2.25,11.43-2.25,11.43,5.81,9.57,3.68,14.83-3.4,6.1-3.4,6.1Z"/><path class="cls-7" d="M449.88,768c-2.68-3.31-11.69-150.68-10.4-163.76s-.13-52.88-.13-52.88h43.24s-1.93,46.68,0,64.58S466,770.16,466,770.16Z"/><polygon class="cls-14" points="448.65 767.81 443.74 698.46 475.17 698.46 466.89 768.3 448.65 767.81"/><polygon class="cls-31" points="448.65 767.81 443.74 698.46 475.17 698.46 466.89 768.3 448.65 767.81"/><path class="cls-9" d="M434.5,784.54h36.88s.8-1.66-.12-6.07c-.14-.69-.32-1.45-.56-2.27l0-.12c-.35-1.22-.74-2.73-1.17-4.35-1.68-6.61-3.67-15.24-3.67-15.24s-6.14-14.06-13.32-10.55c-6.3,3.08-4.8,11.89-4.8,11.89a17.76,17.76,0,0,1-5.39,9.74c-3,2.82-5.89,5-7.31,8.51a11.82,11.82,0,0,0-.62,2.11c0,.09,0,.18,0,.28A17.25,17.25,0,0,0,434.5,784.54Z"/><path class="cls-32" d="M471.26,778.47c.92,4.41.12,6.07.12,6.07H434.5a17.25,17.25,0,0,1-.15-6.07Z"/><path class="cls-25" d="M449.19,760.05a4.73,4.73,0,0,1,6.67.44c.5.52,1.27-.3.77-.82a5.79,5.79,0,0,0-8.21-.45c-.55.46.23,1.28.77.83Z"/><path class="cls-25" d="M448.15,763.73a4.72,4.72,0,0,1,6.66.45c.51.52,1.28-.3.77-.83a5.78,5.78,0,0,0-8.2-.44c-.55.46.23,1.28.77.82Z"/><path class="cls-25" d="M447.11,767.12a4.73,4.73,0,0,1,6.66.44c.5.53,1.27-.3.77-.82a5.78,5.78,0,0,0-8.2-.44c-.56.46.22,1.28.77.82Z"/><polygon class="cls-13" points="444.16 709.87 473.8 710.05 472.93 717.34 444.97 716.76 444.16 709.87"/><polygon class="cls-13" points="445.27 723.06 445.27 720.08 472.53 720.76 472.2 723.53 445.27 723.06"/><path class="cls-7" d="M540.31,523.39c0,2.31,23,63.86,23,63.86s1.44,52.36,5,73.5c1.93,11.3,10.06,39.19,17.06,62.74,6.09,20.51,11.28,37.74,11.28,37.74l24.3-4.55s-13.22-119.42-13.22-142.5-20-72.68-20-72.68Z"/><polygon class="cls-14" points="594.77 755.05 577.15 695.67 613.65 686.77 620.99 759.32 594.77 755.05"/><polygon class="cls-31" points="594.77 755.05 577.15 695.67 613.65 686.77 620.99 759.32 594.77 755.05"/><path class="cls-9" d="M597.39,785.77l15.08-.11s3-1.65,4.83-1.45,8,1.35,8,1.35l40-.3a32.19,32.19,0,0,0-1.2-4.51,20.59,20.59,0,0,0-1.92-4.15,11.28,11.28,0,0,0-9.59-5.67c-5.61-.31-23.34-12-23.34-12s-6.42-2.2-6.82-9c-.15-2.56-4-5.67-5.74-5.91-3.67-.5-5.69,1.84-6.19,5.52l-.59,4.28-8.46-1.26s-8.64-4.29-8.19-.06c.26,2.41,1.78,13.14,2.75,21.65.23,2,.44,3.87.63,5.51h0C597.1,783.26,597.39,785.77,597.39,785.77Z"/><path class="cls-32" d="M665.34,785.26l-40,.3s-6.22-1.14-8-1.35-4.83,1.45-4.83,1.45l-15.08.11s-.29-2.51-.7-6.17l67.45,1.15A32.19,32.19,0,0,1,665.34,785.26Z"/><path class="cls-25" d="M638.1,763.24a.53.53,0,0,0-.68,0A6.93,6.93,0,0,0,635,766c-.29.62.61,1.21.91.58a6.1,6.1,0,0,1,2.08-2.47.54.54,0,0,0,.08-.84Z"/><path class="cls-25" d="M634.91,761.38a.54.54,0,0,0-.69,0,6.93,6.93,0,0,0-2.38,2.79c-.29.62.61,1.21.91.58a6.18,6.18,0,0,1,2.08-2.47.54.54,0,0,0,.08-.84Z"/><path class="cls-25" d="M631.61,759.65a.55.55,0,0,0-.69-.06,6.83,6.83,0,0,0-2.37,2.79c-.3.62.6,1.21.9.58a6.22,6.22,0,0,1,2.08-2.46.54.54,0,0,0,.08-.85Z"/><polygon class="cls-13" points="580.06 706.12 614.63 696.64 615.41 704.2 582.52 713.76 580.06 706.12"/><polygon class="cls-13" points="583.08 716.33 615.66 706.65 615.94 709.38 584.1 719.67 583.08 716.33"/><path class="cls-9" d="M601.31,552.61C598.42,523,564.38,366,564.38,366l-48.46,1.58L439.26,371s-10.71,66.37-8.08,111l1.4,116.14,57.92,4L492.2,565c2.7-25,8.86-91.83,10.79-112.78.8-4.64,1.58-9.32,2.34-14,7.61,22.73,37.38,112.11,40.07,126.06,3.09,16,7.73,35.3,7.73,35.3l54.64-8.46S604.2,582.18,601.31,552.61Z"/><g class="cls-33"><path d="M544.51,389.51c4.5,15.84,16.54,28.56,31.4,33.19.8.25.46,1.59-.35,1.34-15.29-4.76-27.67-17.86-32.3-34.16a.65.65,0,1,1,1.25-.37Z"/><path d="M504.07,389.51q1.31,20.79,2.61,41.59a.65.65,0,1,0,1.29,0q-.69-10.67-1.33-21.36c3.19,2.63,6.93-.56,8-4.1,1.72-5.72,1.07-12.51-.27-18.23a.65.65,0,1,0-1.25.35A41.53,41.53,0,0,1,514.15,400a17.6,17.6,0,0,1-1.23,6.44c-1,2.15-3.61,4-5.68,2a.59.59,0,0,0-.69-.11c-.39-6.28-.79-12.58-1.19-18.86A.65.65,0,1,0,504.07,389.51Z"/><path d="M466,391.87c.18,18.37-13,33.75-30.12,35.2-.82.07-.81-1.3,0-1.37,16.4-1.39,29-16.25,28.84-33.83a.64.64,0,1,1,1.28,0Z"/></g><polygon class="cls-20" points="432.58 598.13 432.58 583.39 491.18 587.26 490.5 602.16 432.58 598.13"/><polygon class="cls-20" points="553.16 599.64 549.87 585.42 604.63 577.8 607.77 591.1 553.16 599.64"/><path class="cls-7" d="M401.13,212.6c-3.74,17.1-6.81,34.11-9.29,51.43-1.17,8.64-2.39,17.32-3.24,26.15-.43,4.39-1,8.85-1.15,13.36s-.5,9.08-.46,14.17c0,1.24.05,2.61.14,4.06.13.61.1,1.54.19,2.35l.13,1.27.2.91c.5,2.31.75,4.62,1.16,6.78.95,4.37,1.71,8.65,2.61,12.92q2.79,12.79,5.55,25.45,5.85,25.29,12.7,50.38L427,418.75q-2.1-25.77-5-51.49l-2.69-25.58c-.44-4.26-.83-8.47-1.2-12.65-.19-2.09-.37-4.07-.5-6-.05-.2-.12-.53-.14-.64l-.08-.35,0-.85c0-.73.08-1.49.19-2.41.33-3.53.94-7.58,1.57-11.58s1.34-8.16,2.11-12.27c1.55-8.24,3.11-16.59,4.77-24.94,3.27-16.64-3.85-24.88-.89-41.58Z"/><path class="cls-7" d="M424,416.22l-15-1.67a159.46,159.46,0,0,0-3,40.43c.54,8.82,14.75,18.75,14.75,18.75s5,10.44,7.77,7.21-4.79-17.63-5.09-21c-.9-10.38-1.89-20.85-1-22.25s1.07,13,5.49,16.1.92-14.84,2.47-20.95S427.53,416.9,424,416.22Z"/><path class="cls-16" d="M419.44,472.38a38.46,38.46,0,0,1-6.13-19.93c-.12-.55.88-.71.88-.19a37.72,37.72,0,0,0,6,19.54c.31.48-.41,1-.72.53Z"/><path class="cls-16" d="M411.48,456.19a23.5,23.5,0,0,0,3,10.17c.3.48-.54.84-.83.33a24.29,24.29,0,0,1-3.12-10.39c-.12-.55.86-.68.88-.19Z"/><path class="cls-14" d="M425.76,178.73s-24.45-2-29.25,26.64-12.65,77.34-12.65,77.34l47.38,4.11C433.63,285.07,425.76,178.73,425.76,178.73Z"/><path class="cls-29" d="M425.76,178.73s-24.45-2-29.25,26.64-12.65,77.34-12.65,77.34l47.38,4.11C433.63,285.07,425.76,178.73,425.76,178.73Z"/><path class="cls-14" d="M570.71,382.64,546.32,279,530.5,175.6l-35.21-.34-30.63-.75-38.9,4.22-13.25,49.78s10.88,73.08,11.21,76.87c.4,4.65,8,88.19,8,88.19C486.15,397.15,572.18,386.58,570.71,382.64Z"/><path class="cls-34" d="M570.71,382.64,546.32,279,530.5,175.6l-35.21-.34-30.63-.75-38.9,4.22-13.25,49.78s10.88,73.08,11.21,76.87c.4,4.65,8,88.19,8,88.19C486.15,397.15,572.18,386.58,570.71,382.64Z"/><path class="cls-11" d="M519.32,305.38a122.7,122.7,0,0,1-59.78,47.77"/><polygon class="cls-16" points="543.92 266.17 538.84 230.06 551.51 261.57 543.92 266.17"/><polygon class="cls-16" points="422.99 286.1 431.24 286.82 430.77 224.19 439.28 300.95 423.44 303.18 421.87 292.05 422.99 286.1"/><path class="cls-7" d="M459.91,175.12s2-14.15-6.31-38.67c0,0,1.28-.66,1.28-.69-1.14-3.43-2.34-6.59-3.45-9.33a.4.4,0,0,1,0-.1l34.88,19.51c-.45,8,3.07,23.2,5.05,29.6,0,0,7.38,14.09-8.21,15.28C471.73,191.6,459.91,175.12,459.91,175.12Z"/><path class="cls-21" d="M487.35,157l-19.74-3.56c2,6,7.73,13,21.36,13C489,166.39,487.32,159.65,487.35,157Z"/><path class="cls-9" d="M507.2,86.13c4.34,7.68,6.52,24.9-6.16,21.84S499.74,72.92,507.2,86.13Z"/><path class="cls-7" d="M450.42,109.83c3.23,21.44,4.61,33.6,16.49,43.59,17.86,15,43,3.12,46.28-18.92,2.93-19.83-2.84-51.55-24.72-58.06C466.91,70,447.19,88.4,450.42,109.83Z"/><path class="cls-9" d="M443.68,81.7c1.91-12.13,16.7-20,25.55-14.71,1.32.8-7.78,4.86-6.75,4.38l.89,17.56c-1.3-.17-3.68,1.54-4.63,5.63,0,0,5.18,22.54-3.34,32.93C431.14,118.8,428.14,88.11,443.68,81.7Z"/><path class="cls-7" d="M443.49,128.55a20.33,20.33,0,0,0,11.19,11c6.71,2.63,10.85-3.23,9.64-10-1.09-6.06-5.89-14.73-12.95-14.48S441,122.38,443.49,128.55Z"/><path class="cls-9" d="M481.82,113.33c.19,2.21,1.52,3.88,3,3.74s2.46-2,2.26-4.25-1.52-3.88-3-3.74S481.62,111.13,481.82,113.33Z"/><path class="cls-9" d="M503.49,111.85c.19,2.21,1.52,3.88,3,3.74s2.45-2,2.26-4.25-1.52-3.88-3-3.74S503.29,109.65,503.49,111.85Z"/><path class="cls-10" d="M496.34,111.25s8,10.34,10.58,14.61c-2.82,3-8.22,2.23-8.22,2.23Z"/><path class="cls-9" d="M484.16,100.31a1,1,0,0,0-.94.47,8.37,8.37,0,0,1-6.43,3.9,1.05,1.05,0,0,0-1.05,1,1,1,0,0,0,1,1,10.38,10.38,0,0,0,8.17-4.84,1,1,0,0,0-.28-1.43A1.07,1.07,0,0,0,484.16,100.31Z"/><path class="cls-9" d="M503.87,96.94a1,1,0,0,0-.55.23,1.06,1.06,0,0,0-.15,1.47,10.2,10.2,0,0,0,8.59,3.86,1,1,0,0,0,.91-1.16,1,1,0,0,0-1.13-.9,8,8,0,0,1-6.77-3.13A1,1,0,0,0,503.87,96.94Z"/><path class="cls-9" d="M522.1,75.53c-1-5.52-7-9.87-12.43-8.41a7.83,7.83,0,0,0-13.8-7.38c-.2-3.35-3.79-5.82-7.13-5.56s-6.23,2.67-7.93,5.57c-1,1.77-1.79,3.84-3.46,5-2.61,1.89-6.2.91-9.41.67A18.86,18.86,0,0,0,447.7,85.73c-3,.81-4.47,3.22-6.41,5.63L457.82,94c4.63-8.65,17.13-2,23.39.42a31.11,31.11,0,0,0,12.36,1.71c3.41-.13,5-2.63,5-6,5.24,2,11.38,2.16,16.31-.54S523.14,81.05,522.1,75.53Z"/><path class="cls-12" d="M444.67,82.17a20.28,20.28,0,0,0-10.27-3.75"/><path class="cls-12" d="M444.26,81.94a17.42,17.42,0,0,1-2.76-12.08"/><path class="cls-9" d="M496.69,142a8.36,8.36,0,0,0-.95-7.63,8.72,8.72,0,0,0-7.09-3.24,10.55,10.55,0,0,0-7.17,3.29,5,5,0,0,0-1.66,3.55,4.26,4.26,0,0,0,2.7,3.47,12,12,0,0,0,4.54.75,13.74,13.74,0,0,1,4.57.65,7.28,7.28,0,0,0,2.09.71S496.15,143.69,496.69,142Z"/><path class="cls-25" d="M483.71,132.6c.64.15,10.74,2.31,11.22,2.14s.35-.8.32-1a9.17,9.17,0,0,0-.83-.82l-.26-.19a9,9,0,0,0-5.51-1.73A10.06,10.06,0,0,0,483.71,132.6Z"/><path class="cls-35" d="M490.65,139.48c-3.78-1.8-10.44-.34-10.52-.33a4.74,4.74,0,0,0,2.39,2.26,12,12,0,0,0,4.54.75,13.74,13.74,0,0,1,4.57.65,7.28,7.28,0,0,0,2.09.71,4.61,4.61,0,0,0,1.25-.12A9,9,0,0,0,490.65,139.48Z"/><path class="cls-11" d="M447.89,122.16a4,4,0,0,1,4-1.76,6.81,6.81,0,0,1,3.92,2.38,10.71,10.71,0,0,1,2.47,5"/></g></g></svg>