<svg xmlns="http://www.w3.org/2000/svg" xmlns:xlink="http://www.w3.org/1999/xlink" viewBox="0 0 1526 478"><defs><style>.cls-1{mask:url(#mask);filter:url(#luminosity-noclip-2);}.cls-2,.cls-32{mix-blend-mode:multiply;}.cls-2{fill:url(#Безымянный_градиент_2);}.cls-10,.cls-3{fill:none;}.cls-4{isolation:isolate;}.cls-5{clip-path:url(#clip-path);}.cls-11,.cls-6{fill:#fff;}.cls-7{fill:#001e50;}.cls-8{mask:url(#mask-2);}.cls-9{opacity:0.48;fill:url(#linear-gradient);}.cls-10{stroke:#ffb200;stroke-miterlimit:10;stroke-width:3px;}.cls-11{font-size:123.51px;font-family:MyriadPro-Regular, Myriad Pro;}.cls-12{letter-spacing:-0.01em;}.cls-13{letter-spacing:0em;}.cls-14{letter-spacing:0em;}.cls-15{letter-spacing:0.01em;}.cls-16{letter-spacing:-0.01em;}.cls-17{fill:#d2e2ed;}.cls-18{fill:#e69a06;}.cls-19{fill:#8071f2;}.cls-20{fill:url(#linear-gradient-2);}.cls-21{fill:#0b2e4e;}.cls-22{fill:#fabb85;}.cls-23{fill:#2b3e75;}.cls-24{fill:#928eef;}.cls-25{fill:url(#linear-gradient-3);}.cls-26{fill:#c72e2e;}.cls-27{fill:#e2a77a;}.cls-28{fill:#f8b31f;}.cls-29{fill:#063d76;}.cls-30{fill:#e46e3d;}.cls-31,.cls-32{fill:#ffbc47;}.cls-32{opacity:0.5;}.cls-33{fill:#0b3b5e;}.cls-34{fill:#dd3b36;}.cls-35{filter:url(#luminosity-noclip);}</style><filter id="luminosity-noclip" x="-89" y="-8431" width="1117.99" height="32766" filterUnits="userSpaceOnUse" color-interpolation-filters="sRGB"><feFlood flood-color="#fff" result="bg"/><feBlend in="SourceGraphic" in2="bg"/></filter><mask id="mask" x="-89" y="-8431" width="1117.99" height="32766" maskUnits="userSpaceOnUse"><g class="cls-35"/></mask><linearGradient id="Безымянный_градиент_2" x1="1006.22" y1="101.98" x2="-97.42" y2="295.1" gradientUnits="userSpaceOnUse"><stop offset="0" stop-color="#333"/><stop offset="0.21" stop-color="#363636"/><stop offset="0.35" stop-color="#3f3f3f"/><stop offset="0.48" stop-color="#4f4f4f"/><stop offset="0.59" stop-color="#656565"/><stop offset="0.7" stop-color="#818181"/><stop offset="0.8" stop-color="#a4a4a4"/><stop offset="0.9" stop-color="#cdcdcd"/><stop offset="0.99" stop-color="#fcfcfc"/><stop offset="1" stop-color="#fff"/></linearGradient><clipPath id="clip-path"><rect id="SVGID" class="cls-3" width="1526" height="478"/></clipPath><filter id="luminosity-noclip-2" x="-89" y="19.91" width="1117.99" height="438.17" filterUnits="userSpaceOnUse" color-interpolation-filters="sRGB"><feFlood flood-color="#fff" result="bg"/><feBlend in="SourceGraphic" in2="bg"/></filter><mask id="mask-2" x="-89" y="19.91" width="1117.99" height="438.17" maskUnits="userSpaceOnUse"><g class="cls-1"><path class="cls-2" d="M-89,19.91H1029S879.05,55.45,818,235.11c-.72,2.1-1.45,4.19-2.19,6.25C769,371.58,645.07,458.09,506.71,458.09H-89Z"/></g></mask><linearGradient id="linear-gradient" x1="-89" y1="239" x2="1028.99" y2="239" gradientUnits="userSpaceOnUse"><stop offset="0" stop-color="#ffb200"/><stop offset="0.55" stop-color="#fdb000"/><stop offset="0.79" stop-color="#f6a902"/><stop offset="0.97" stop-color="#e99d05"/><stop offset="1" stop-color="#e69a06"/></linearGradient><linearGradient id="linear-gradient-2" x1="1288.27" y1="298.65" x2="1290.99" y2="478.72" gradientUnits="userSpaceOnUse"><stop offset="0" stop-color="#f06465"/><stop offset="1" stop-color="#f0423b"/></linearGradient><linearGradient id="linear-gradient-3" x1="1350.86" y1="297.7" x2="1353.59" y2="477.77" xlink:href="#linear-gradient-2"/></defs><g class="cls-4"><g id="Layer_2" data-name="Layer 2"><g class="cls-5"><rect class="cls-6" x="-88.94" y="-4.43" width="1703.88" height="486.86"/><path class="cls-7" d="M1614.88,32.82V-4.43H-89V482.43H602.91c110,0,211.16-61.51,260.78-159.74a275.17,275.17,0,0,0,18-44.74C933.08,107.79,1073.78,62,1211.06,56.19S1614.88,32.82,1614.88,32.82Z"/><g class="cls-8"><path class="cls-9" d="M-89,19.91H1029S879.05,55.45,818,235.11c-.72,2.1-1.45,4.19-2.19,6.25C769,371.58,645.07,458.09,506.71,458.09H-89Z"/></g></g><line class="cls-10" x1="114.01" y1="301.14" x2="663.01" y2="301.14"/><text class="cls-11" transform="translate(109.19 267.25)"><tspan class="cls-12">C</tspan><tspan class="cls-13" x="70.28" y="0">o</tspan><tspan class="cls-14" x="138.09" y="0">n</tspan><tspan class="cls-13" x="206.14" y="0">ta</tspan><tspan class="cls-15" x="306.55" y="0">c</tspan><tspan x="363.49" y="0">t </tspan><tspan class="cls-16" x="430.56" y="0">U</tspan><tspan x="509.73" y="0">s</tspan></text><path class="cls-17" d="M965.19,325.44c3.58,29.39,28.36,50.55,55.35,47.27s46-29.77,42.4-59.16-28.36-50.56-55.35-47.27S961.62,296.05,965.19,325.44Z"/><path class="cls-18" d="M1461,466.9l-2.73,3.38v0c-1.92,2.36-3.92,4.73-6,7-.15.15-.3.33-.44.47H1039.68c-.58-1.63-1.13-3.34-1.68-5.05-.43-1.42-.87-2.84-1.27-4.33-.14-.51-.29-1-.4-1.53Z"/><path class="cls-19" d="M1227.13,256.58a15.93,15.93,0,1,1,15.92,15.92A15.92,15.92,0,0,1,1227.13,256.58Z"/><path class="cls-20" d="M1260.57,309.06s-19.93,4-30.56,20.81-33.65,61.35-33.65,61.35l18.15,33.5,30.66-39.87L1259,459.53,1278.91,470l105.24-1.6s-13.05-125.9-15-137.62-13.93-27.2-62.58-24.55Z"/><path class="cls-21" d="M1231.66,246.52s-25.82,1.32-27.36-21c-1.47-21.26,22.5-21.63,22.5-21.63s.77-13,20.64-13.75a47,47,0,0,1,17-6.62c23.75-3.75,37.81,4.15,44.61,16.09,8.36,14.69-2.51,30.4-2.51,30.4s8.45,9.95,5.82,27.33c-4.14,27.43-22.38,33.82-22.38,33.82Z"/><path class="cls-22" d="M1231.08,246.47s4,38.92,27.42,41.8c0,0,4.43,10,2.88,20.35,0,0-6.55,20.36,13.8,22.35s31.18-24.55,31.18-24.55-22.12-.66-20.79-45.33l1.17-21.86s-27.48,7-46.5-10.21C1240.24,229,1240.94,242.47,1231.08,246.47Z"/><path class="cls-23" d="M1284.85,262.55a1.68,1.68,0,0,0-2.16.92,23.73,23.73,0,0,1-1.33,2.47,32.23,32.23,0,0,1-4.22,5.45c-4.71,5-10.52,7.91-17.67,7.91a1.64,1.64,0,0,0,0,3.28c8.14,0,14.75-3.36,20-8.93a35.59,35.59,0,0,0,4.62-6.07,24.85,24.85,0,0,0,1.54-2.87A1.63,1.63,0,0,0,1284.85,262.55Z"/><path class="cls-19" d="M1253.41,187.29c43.13,4.46,40.59,45.27,40.59,45.27l-.61,8.11-6.8-5.17s3.78-26-18.9-38.71c-5.81-3.25-13.34-5.63-23.12-6.49C1244.57,190.3,1249,186.83,1253.41,187.29Z"/><path class="cls-19" d="M1250.93,280.91c0-1.85,1.85-3.35,4.14-3.35s4.13,1.5,4.13,3.35-1.85,3.35-4.13,3.35S1250.93,282.76,1250.93,280.91Z"/><path class="cls-19" d="M1272.26,250.78a15.93,15.93,0,1,1,15.92,15.92A15.93,15.93,0,0,1,1272.26,250.78Z"/><path class="cls-24" d="M1279.12,250.78a9.86,9.86,0,1,1,9.86,9.86A9.86,9.86,0,0,1,1279.12,250.78Z"/><path class="cls-22" d="M1293.53,434.3s-14.63-11-19.8-8.7-20.8,14.61-16.89,18.9,15.38-5.41,15.38-5.41,2.16,10.34,9,11.35C1295.67,452.58,1293.53,434.3,1293.53,434.3Z"/><path class="cls-25" d="M1356.73,314.4s17,6.65,37.11,48.67,29.85,69,15.48,85.59c-4.1,4.73-15.58,7.15-29.89,8.21-35.86,2.64-89.53-3.35-89.53-3.35l-.22-26.09,79.17-8.63s-21.45-28.69-27.42-71.21Z"/><path class="cls-26" d="M1377.75,457c-7.3.73-14.65,1-22,1.21s-14.7.09-22-.15c-14.68-.54-29.36-1.25-44-2.79a1.73,1.73,0,0,1-1.55-1.69v0l-.36-26.09a1.88,1.88,0,0,1,1.65-1.88h0l19.78-2.27,19.8-2.06,39.61-4.1-1.17,2.68c-1.91-2.74-3.56-5.49-5.19-8.3s-3.13-5.68-4.55-8.58a172.33,172.33,0,0,1-7.61-17.81c-.58-1.5-1.1-3-1.58-4.57s-1-3.06-1.44-4.62l-1.3-4.65c-.46-1.55-.76-3.13-1.14-4.7s-.78-3.12-1-4.71l-.89-4.74c-.59-3.16-.87-6.37-1.32-9.54.67,3.14,1.2,6.3,2,9.41l1.13,4.67c.35,1.56.86,3.08,1.29,4.62s.84,3.08,1.38,4.58l1.53,4.54c.49,1.52,1.11,3,1.66,4.49s1.1,3,1.73,4.46a170.12,170.12,0,0,0,8.07,17.31c1.5,2.81,3.09,5.56,4.74,8.28s3.42,5.38,5.26,7.84a1.68,1.68,0,0,1-1.17,2.68L1329.47,425l-19.78,2.24-19.81,2.05,1.68-1.88.08,26.09-1.55-1.71c14.53,1.54,29.12,3,43.73,4,7.31.42,14.62.85,21.94,1.12S1370.41,457.14,1377.75,457Z"/><path class="cls-27" d="M1275.88,283.64a29.89,29.89,0,0,1-17.58,4.49c.09,0,.15.11.24.13a45.57,45.57,0,0,1,2,6.48C1268.71,291.26,1275.88,283.64,1275.88,283.64Z"/><path class="cls-23" d="M1327,469.5l-214.17-.08a16.62,16.62,0,0,1-13.12-7.72l-53.12-95.57c-2.13-3.83-.29-7,4.1-7l124.19-.08a15.26,15.26,0,0,1,11.94,6.91l49.46,86.34a8.64,8.64,0,0,0,6.61,3.93l77.74.53a6.82,6.82,0,0,1,6.68,6.42l.26,5.68A.57.57,0,0,1,1327,469.5Z"/><path class="cls-7" d="M1425.19,159.29h-66a22,22,0,0,0-22,22v20.88a22,22,0,0,0,22,22h5L1352.42,249,1384,224.15h41.23a22,22,0,0,0,22-22V181.28A22,22,0,0,0,1425.19,159.29Z"/><path class="cls-6" d="M1412.81,191.44a6.17,6.17,0,1,0,6.18-6.16A6.17,6.17,0,0,0,1412.81,191.44Z"/><path class="cls-6" d="M1386.48,191.44a6.17,6.17,0,1,0,6.18-6.16A6.18,6.18,0,0,0,1386.48,191.44Z"/><path class="cls-6" d="M1359.27,191.44a6.18,6.18,0,1,0,6.18-6.16A6.17,6.17,0,0,0,1359.27,191.44Z"/><path class="cls-28" d="M1086.31,108.06H1164a16.13,16.13,0,0,1,16.13,16.13v32.59A16.13,16.13,0,0,1,1164,172.91H1153.1l9.85,20.68a1.06,1.06,0,0,1-1.62,1.3l-27.95-22h-47.07a16.13,16.13,0,0,1-16.13-16.13V124.19A16.13,16.13,0,0,1,1086.31,108.06Z"/><path class="cls-6" d="M1125.69,128.07a2.22,2.22,0,0,1-2.22,2.21H1093a2.21,2.21,0,0,1-2.22-2.21h0a2.21,2.21,0,0,1,2.22-2.22h30.51a2.22,2.22,0,0,1,2.22,2.22Z"/><path class="cls-6" d="M1156.53,128.07a2.21,2.21,0,0,1-2.21,2.21h-20.58a2.21,2.21,0,0,1-2.21-2.21h0a2.21,2.21,0,0,1,2.21-2.22h20.58a2.21,2.21,0,0,1,2.21,2.22Z"/><path class="cls-6" d="M1110,140.48a2.21,2.21,0,0,0,2.21,2.22h42.15a2.22,2.22,0,0,0,2.22-2.22h0a2.22,2.22,0,0,0-2.22-2.22h-42.15a2.21,2.21,0,0,0-2.21,2.22Z"/><path class="cls-6" d="M1090.74,140.48a2.22,2.22,0,0,0,2.22,2.22h8.94a2.21,2.21,0,0,0,2.21-2.22h0a2.21,2.21,0,0,0-2.21-2.22H1093a2.22,2.22,0,0,0-2.22,2.22Z"/><path class="cls-6" d="M1125.69,152.89a2.22,2.22,0,0,1-2.22,2.22H1093a2.21,2.21,0,0,1-2.22-2.22h0a2.21,2.21,0,0,1,2.22-2.21h30.51a2.22,2.22,0,0,1,2.22,2.21Z"/><path class="cls-6" d="M1156.53,152.89a2.21,2.21,0,0,1-2.21,2.22h-20.58a2.21,2.21,0,0,1-2.21-2.22h0a2.21,2.21,0,0,1,2.21-2.21h20.58a2.21,2.21,0,0,1,2.21,2.21Z"/><path class="cls-29" d="M1310.44,115.07a34.05,34.05,0,1,1-34-34.07A34.06,34.06,0,0,1,1310.44,115.07Z"/><path class="cls-6" d="M1286.17,102l-14,17.79c-2.66-2.78-5.57-5.8-5.57-5.8a4.62,4.62,0,0,0-6.67,6.39l9.24,9.62a4.62,4.62,0,0,0,6.95-.32l17.32-21.94a4.62,4.62,0,0,0-7.24-5.74Z"/><path class="cls-30" d="M1412.75,264.7a10.35,10.35,0,0,1,3.16-.35h.21a10.25,10.25,0,0,1,3.15.35,20.09,20.09,0,0,1,2.19.74c0-.19,0-.36,0-.55V261a5.49,5.49,0,0,0-11,0v3.86c0,.19,0,.36,0,.55A21.65,21.65,0,0,1,1412.75,264.7Z"/><path class="cls-30" d="M1416.12,312.27h-9v.67c0,4.6,4,8.34,8.92,8.34s8.93-3.74,8.93-8.34v-.67Z"/><path class="cls-31" d="M1438.66,308.07c-1.72-1.84-5-6-5-6V282.47c0-7.48-3.5-15-14.42-17.77a10.25,10.25,0,0,0-3.15-.35h-.21a10.35,10.35,0,0,0-3.16.35c-10.91,2.81-14.42,10.29-14.42,17.77V302.1s-3.25,4.13-5,6-1.55,4.2,1.44,4.2h42.41C1440.21,312.27,1440.35,309.89,1438.66,308.07Z"/><path class="cls-32" d="M1433.69,302.1V282.47c0-6.56-2.71-13.13-10.76-16.54,1.65,1.53,7.37,7.35,7.37,14.24v14.56c0,3.25-2.43,8.35-11.19,8.35-.81,0-.76.76,0,.76h16Z"/><path class="cls-31" d="M1417.82,337.3a1.8,1.8,0,0,1-1.81,1.79h0a1.78,1.78,0,0,1-1.79-1.79v-8.86a1.79,1.79,0,0,1,1.79-1.8h0a1.81,1.81,0,0,1,1.81,1.8Z"/><path class="cls-31" d="M1434.57,330.8a1.82,1.82,0,0,1,0,2.56h0a1.82,1.82,0,0,1-2.55,0l-6.26-6.25a1.8,1.8,0,0,1,0-2.56h0a1.81,1.81,0,0,1,2.55,0Z"/><path class="cls-31" d="M1397.45,330.8a1.8,1.8,0,0,0,0,2.56h0a1.81,1.81,0,0,0,2.54,0l6.27-6.25a1.84,1.84,0,0,0,0-2.56h0a1.82,1.82,0,0,0-2.56,0Z"/><path class="cls-29" d="M1185.44,294.05V264a5.88,5.88,0,0,0-5.77-5.76l-50.35,0a5.79,5.79,0,0,0-5.77,5.76V294a5.78,5.78,0,0,0,5.76,5.78h50.34A5.76,5.76,0,0,0,1185.44,294.05Zm-5.76-32.71a2.61,2.61,0,0,1,.87.19c-2.88,2.38-16.78,12.68-26.13,19.54-9.41-6.94-23.45-17.41-26-19.55a2.68,2.68,0,0,1,.94-.2Zm-50.36,35.31c-.07,0-.13,0-.19,0l14.76-13.79a1,1,0,1,0-1.42-1.53l-15.23,14.21a2.48,2.48,0,0,1-.54-1.47V264.15c4.14,3.38,18,13.71,26.78,20.14.09.07.18.11.27.17a1.57,1.57,0,0,0,1.59-.17c8.77-6.43,22.78-16.74,27-20.16v29.92a2.56,2.56,0,0,1-.52,1.48l-15.23-14.24a1,1,0,0,0-1.49,0,1.06,1.06,0,0,0,0,1.48l14.78,13.8c-.07,0-.12,0-.21,0Z"/><ellipse class="cls-17" cx="1137.7" cy="415.17" rx="8.1" ry="10.21" transform="translate(71.05 988.74) rotate(-48.32)"/><path class="cls-21" d="M1099.68,461.7a16.62,16.62,0,0,0,13.12,7.72l214.17.08a.57.57,0,0,0,.57-.61l-.26-5.68a6.82,6.82,0,0,0-6.68-6.42l-77.74-.53h-146.2Z"/><path class="cls-33" d="M1327,469.5a.57.57,0,0,0,.57-.61l-.26-5.68a6.82,6.82,0,0,0-6.68-6.42l-77.74-.53v13.21Z"/><polygon class="cls-34" points="1237.96 394.23 1245.17 384.86 1241.38 362.88 1237.96 394.23"/><path class="cls-19" d="M1028,326.63a3.41,3.41,0,0,0-5.14,0c-1.2,1.19-2.41,2.38-3.58,3.6a.72.72,0,0,1-1,.18c-.78-.43-1.61-.76-2.36-1.22a37.32,37.32,0,0,1-9-8.2,20.8,20.8,0,0,1-3.23-5.17.73.73,0,0,1,.18-.94c1.21-1.17,2.39-2.36,3.56-3.55a3.42,3.42,0,0,0,0-5.27c-.93-.95-1.88-1.89-2.82-2.82l-2.91-2.91a3.42,3.42,0,0,0-5.16,0c-1.2,1.19-2.38,2.42-3.6,3.58a5.94,5.94,0,0,0-1.84,4,16.94,16.94,0,0,0,1.3,7.21,44.26,44.26,0,0,0,7.77,12.95,48,48,0,0,0,15.94,12.47,22.85,22.85,0,0,0,8.82,2.56,6.47,6.47,0,0,0,5.56-2.11c1-1.15,2.19-2.2,3.29-3.3a3.43,3.43,0,0,0,0-5.23Z"/></g></g></svg>