<svg xmlns="http://www.w3.org/2000/svg" viewBox="0 0 679 518.47"><defs><style>.cls-1,.cls-21,.cls-22,.cls-28,.cls-29,.cls-30,.cls-31{isolation:isolate;}.cls-15,.cls-2,.cls-21,.cls-31{fill:#fff;}.cls-2,.cls-28{opacity:0.2;}.cls-2{mix-blend-mode:screen;}.cls-3{fill:#c7d6f2;}.cls-4{fill:#001e50;}.cls-5{fill:#edf3ff;}.cls-6{fill:#d5e1fa;}.cls-7{fill:#2b263c;}.cls-8{fill:#ffc5c5;}.cls-9{fill:#fcafaf;}.cls-10{fill:#383838;}.cls-11{fill:#2b2b2b;}.cls-12{fill:#ffb200;}.cls-13{fill:#d12626;}.cls-14{fill:#063d76;}.cls-16{fill:#2e363a;}.cls-17{fill:#42c1f4;}.cls-18{opacity:0.08;}.cls-19{fill:#1f2123;}.cls-20{fill:#fbbf00;}.cls-21{opacity:0.25;}.cls-22{opacity:0.05;}.cls-23{fill:#fbc518;}.cls-24{fill:#ffdc6d;}.cls-25{fill:#f2c129;}.cls-26{fill:#f1b700;}.cls-27{fill:#dba600;}.cls-29{opacity:0.1;}.cls-30{opacity:0.15;}.cls-31{opacity:0.2;}.cls-32{fill:#ffecb1;}.cls-33{fill:#cc9805;}</style></defs><g class="cls-1"><g id="Layer_2" data-name="Layer 2"><g id="Layer_2-2" data-name="Layer 2"><ellipse class="cls-2" cx="339.5" cy="487.61" rx="339.5" ry="30.86"/><path class="cls-3" d="M374.53,163.65h1.06a6.32,6.32,0,0,0,6.33-6.33v-20a6.32,6.32,0,0,0-6.33-6.33h-1.06Z"/><path class="cls-3" d="M122.24,117.25h-1.06a6.32,6.32,0,0,0-6.33,6.33v20a6.32,6.32,0,0,0,6.33,6.33h1.06Z"/><path class="cls-3" d="M122.24,75.31h-1.06a6.32,6.32,0,0,0-6.33,6.33v20a6.32,6.32,0,0,0,6.33,6.33h1.06Z"/><path class="cls-4" d="M374.53,30.1V457.82a30.15,30.15,0,0,1-30,30.21H152.46a30.2,30.2,0,0,1-30.21-30.21V30.1A30.24,30.24,0,0,1,152.46,0H344.54A30.2,30.2,0,0,1,374.53,30.1Z"/><path class="cls-5" d="M344.54,9.79H266.86a7.23,7.23,0,0,0-6.56,4.84,12.88,12.88,0,0,1-23.82,0,7.24,7.24,0,0,0-6.56-4.84H152.35A20.25,20.25,0,0,0,132.1,30V457.77a20.46,20.46,0,0,0,20.25,20.47h192a20.42,20.42,0,0,0,20.36-20.36V30A20.26,20.26,0,0,0,344.54,9.79Z"/><rect class="cls-6" x="161.3" y="76.87" width="177.79" height="240" rx="82.67"/><path class="cls-7" d="M637.79,471c.36.15,11.88,16.76,3.79,21.13s-57,2.71-59.16-2c-1-2.12.32-4.54,2-6.56a18.92,18.92,0,0,1,8.43-5.59c10.13-3.43,38.45-12.38,44.55-7.62"/><path class="cls-8" d="M605.08,478.55c2.8,4.12,30.09,4.26,33-1,.82-1.51,1-3.85.9-6.43-.28-6.42-1.25-14.33-1.32-14.59l-21.22,1.75.34,9.47.09,2S602.27,474.43,605.08,478.55Z"/><path class="cls-9" d="M616.4,458.31l.34,9.47a22.84,22.84,0,0,1,3.08-.44,39.27,39.27,0,0,1,11.66.13,15.59,15.59,0,0,1,7.46,3.68c-.28-6.42-1.25-14.33-1.32-14.59Z"/><path class="cls-7" d="M541.31,470.73c.36.16,11.19,17.23,2.93,21.26s-57.08.39-59-4.4c-.88-2.16.51-4.53,2.31-6.48a18.91,18.91,0,0,1,8.65-5.24c10.26-3,38.93-10.8,44.82-5.79"/><path class="cls-8" d="M508.32,477c2.63,4.23,29.9,5.48,33,.37.88-1.47,1.18-3.8,1.16-6.39,0-6.42-.66-14.36-.73-14.63l-21.27.89-.05,9.47v2S505.69,472.75,508.32,477Z"/><path class="cls-9" d="M520.46,457.22l-.05,9.47a24.66,24.66,0,0,1,3.1-.31,39.45,39.45,0,0,1,11.64.6,15.8,15.8,0,0,1,7.31,4c0-6.42-.66-14.36-.73-14.63Z"/><path d="M651.26,82c.15,0-9.88,9-15.57,9.73l-5.09-3.9v8.54S611,101.12,605,100.53s-19.61.74-19.61.74l-2.84-8.68s-1.35,6.74-3.3,8.68-21.85,0-21.85,0S568.49,92,568.94,72.39s1.64-40.71,22.15-45,33.08,7.78,37.12,17.06,6.43,19.91,8.68,22.75S651.26,82,651.26,82Z"/><path class="cls-10" d="M514,460.77s28.31,6.39,35.1,0c7.57-7.11,50.35-135.29,59.07-175.52l.48-2.34a.84.84,0,0,0,0-.1v0c.16-.79.3-1.54.42-2.24L609.53,459s13.12,0,22.6-.45a52,52,0,0,0,9-.88s24.71-143.34,24.19-216.34c0-1.77,0-3.49-.08-5.18-.25-9.51-1-17.6-2.35-23.74,0,0-61.76-21.77-94.63,0-1-.45-5.24,18.28-11,45.64-12.71,60.82-32.73,164.31-40.86,195A65.25,65.25,0,0,1,514,460.77Z"/><path class="cls-11" d="M557.26,258c21.4-2.25,40-17.75,61.32-22.88,15.63-3.76,32.46-1.24,46.7,6.16-.08-11.77-.83-21.7-2.43-28.92,0,0-61.76-21.77-94.63,0C567.22,212,563,230.68,557.26,258Z"/><path class="cls-8" d="M473.9,122.85a4.23,4.23,0,0,0,.58,4.69c1.15,1.41,2.48,2.66,3.76,4s2.59,2.57,3.92,3.82a42.44,42.44,0,0,0,4.12,3.72c1.47,1.06,3.15,1.86,4.73,2.78,3.51,5.3,36.85,55.1,52.79,58,10.08,1.83,16.61-16.45,20.17-31.6A138.32,138.32,0,0,0,567.3,149l-24.69-11.5-2.5,11-3.43,20.92-31.27-35.07c-.05-.08-.1-.14-.14-.22a8.14,8.14,0,0,1-1.32-3.67c-.17-1.43-.33-2.85-.63-4.24-.5-2.39-.67-4.86-1.94-7s-1.3-4.7-3.41-6.31a10.83,10.83,0,0,1-1.41-2c-.27-.34-.68-.84-1-.81a1.64,1.64,0,0,0-1,.85,4.4,4.4,0,0,0,0,4.4,9.2,9.2,0,0,1,1.62,3.71c.07.45.07.94.1,1.41-2-.91-3.83-1.75-5.68-2.62-1.65-.75-3.29-1.51-4.95-2.25a11.41,11.41,0,0,1-2.27-.94c-1.43-1.08-2.76-2.3-4.11-3.5a2.22,2.22,0,0,1-.34-.67,4.64,4.64,0,0,0-2.95-2.72c-1.11-.3-1.75.32-1.58,1.45a2,2,0,0,1,0,1,6.37,6.37,0,0,0-.06,5A1.31,1.31,0,0,1,474,117a1.55,1.55,0,0,0-.52,1.76,11.57,11.57,0,0,1,.41,1.74C473.94,121.29,474.23,122.26,473.9,122.85Z"/><path class="cls-9" d="M540.11,148.49c10.49,3.3,18.15,10.32,23.86,19.73A138.32,138.32,0,0,0,567.3,149l-24.69-11.5Z"/><path class="cls-12" d="M565.88,153.8s-4.47,42.52-5.94,67.14c-.5,8.22-.52,13.91.33,14.52,3.38,2.41,38.52,1.38,48.64-15.25s52.51-3.38,55.64-4.82c2.56-1.18-11.31-49-18.26-68.41-1.6-4.47-2.84-7.41-3.42-8-3.13-2.9,28.42-.63,28.42-.63s2.9-17.92-3.6-28S642.39,96.86,625.53,94s-56.85,6.75-62.16,9.63c-12.69,4.06-23,37.19-23,39.6S565.88,153.8,565.88,153.8Z"/><path class="cls-13" d="M559.94,222h-.07a1.1,1.1,0,0,1-1-1.17c1.45-24.35,5.89-66.76,5.94-67.18a1.06,1.06,0,0,1,1.21-1,1.09,1.09,0,0,1,1,1.21c0,.42-4.48,42.78-5.93,67.08A1.11,1.11,0,0,1,559.94,222Z"/><path class="cls-13" d="M565.64,154.91a1,1,0,0,1-.24,0,1.1,1.1,0,0,1-.83-1.32l3.73-16.31a1.1,1.1,0,1,1,2.15.5l-3.73,16.3A1.11,1.11,0,0,1,565.64,154.91Z"/><path class="cls-12" d="M560,235.46c3.39,2.41,38.53,1.38,48.65-15.25s52.51-3.38,55.64-4.82c2.55-1.18-11.31-49-18.27-68.41l-5.64-4.31c1.24,4.87,2.51,9.82,2.21,14.84s-2.43,10.18-6.64,12.92c-4.57,3-10.82,2.68-15.07,6.09-5,4-5.55,11.77-10.42,15.9-6,5.05-15.11,2.42-22.56,4.75-7.69,2.4-12.56,9.65-18.15,15.45a60,60,0,0,1-10.08,8.32C559.2,229.16,559.19,234.85,560,235.46Z"/><path class="cls-13" d="M560.14,236.59a1.26,1.26,0,0,1-.75-.24c-.7-.5-1.66-1.19-.79-15.48a1.15,1.15,0,0,1,1.17-1,1.11,1.11,0,0,1,1,1.17c-.7,11.42-.16,13.39,0,13.72a1,1,0,0,1,.18,1.46A1,1,0,0,1,560.14,236.59Z"/><path class="cls-8" d="M618.14,68.32c-.13.8,0,25.12,0,25.12a65.18,65.18,0,0,1,13.77,1.69s-7.68,24.45-27.89,22.34-17-20.35-17-20.35c4.49-.81,8.66-1.54,12-2l-.87-5.1s-11.49,1.32-14.67-10.7-3.43-36.6-2.64-38.71,21.54-12.82,31.84-2.78,9.78,21,10.18,23.26,1.18,8.45-5.29,7.26"/><path class="cls-10" d="M587.76,58.34a.53.53,0,0,1-.41-.12.55.55,0,0,1-.08-.77,3.06,3.06,0,0,1,.55-.53,3,3,0,0,1,3.06-.3,3.51,3.51,0,0,1,.61.39.55.55,0,0,1,.08.78.56.56,0,0,1-.78.08,2.26,2.26,0,0,0-.38-.25,1.91,1.91,0,0,0-1.93.19,1.83,1.83,0,0,0-.35.33A.53.53,0,0,1,587.76,58.34Z"/><path class="cls-10" d="M606.44,57.74a.58.58,0,0,1-.38-.19,2,2,0,0,0-.33-.32,1.89,1.89,0,0,0-1.93-.18,2.19,2.19,0,0,0-.41.26.55.55,0,0,1-.78-.06.56.56,0,0,1,.07-.78,3,3,0,0,1,3.7-.13,3.12,3.12,0,0,1,.53.5.55.55,0,0,1-.47.9Z"/><path class="cls-10" d="M598.27,72a5,5,0,0,1-1.84-.12,1.2,1.2,0,0,1-.71-.61c-1.08-2,.68-9.46.7-9.53a.55.55,0,0,1,.69-.36.54.54,0,0,1,.36.68c-.43,1.51-1.54,8.15-.73,8.76a5.62,5.62,0,0,0,3.13-.34.55.55,0,1,1,.44,1A7.51,7.51,0,0,1,598.27,72Z"/><path class="cls-9" d="M593.69,76.91a4.31,4.31,0,0,0,8.58-.89Z"/><path class="cls-10" d="M605.38,63c0,.75-.48,1.35-1,1.32s-.89-.67-.84-1.42.48-1.34,1-1.31S605.43,62.29,605.38,63Z"/><path class="cls-10" d="M590.14,63.86c.08.75-.27,1.41-.77,1.46s-1-.52-1.06-1.27.26-1.4.78-1.45S590.06,63.11,590.14,63.86Z"/><path d="M597.94,50.65c3.11,1.77,6.65,2.59,10.13,3.45s7,1.8,10,3.79,5.34,5.23,5.38,8.8c1.88-5.64.68-12-2.19-17.19S615.74,38,611.06,34.35c-3.41-2.67-8.91-3.09-13.17-3.87-3.88-.7-9.45.37-11.45,4.2,2.78,2,2.56,4.54,3.88,7.5A18.58,18.58,0,0,0,597.94,50.65Z"/><path d="M577.67,63.9a16.79,16.79,0,0,1,4.8-10.18c1.61-1.6,3.58-2.91,4.71-4.9a42,42,0,0,0,1.62-4,5,5,0,0,1,2.91-3l-3.41-7.68c-2.43-.14-7.42,3.7-9.28,5.27s-2.22,4.24-2.38,6.66A76.8,76.8,0,0,0,577.67,63.9Z"/><path class="cls-11" d="M514,460.77s28.31,6.39,35.1,0c7.57-7.11,50.35-135.29,59.07-175.52l.48-2.34C607.2,288.16,559.74,458.38,516.4,453A65.25,65.25,0,0,1,514,460.77Z"/><path class="cls-11" d="M632.13,458.54a52,52,0,0,0,9-.88s24.71-143.34,24.19-216.34c0-1.77,0-3.49-.08-5.18l-7.66-3.44C658.2,233,645.5,387.83,632.13,458.54Z"/><path class="cls-9" d="M598.06,90l.87,5.1c9.72-.57,10.48-11,10.48-11C606.19,89.78,598.06,90,598.06,90Z"/><path class="cls-14" d="M594.09,136.4l-25.27,168a14.65,14.65,0,0,1-16.67,12.3l-292.45-44a14.65,14.65,0,0,1-12.31-16.66L272.67,88a14.63,14.63,0,0,1,16.66-12.3l292.46,44a14.64,14.64,0,0,1,12.3,16.66Z"/><path class="cls-15" d="M398.41,256.71,278,238.59a5.92,5.92,0,0,1-5-6.74h0a5.92,5.92,0,0,1,6.74-5L400.18,245a5.93,5.93,0,0,1,5,6.74h0A5.92,5.92,0,0,1,398.41,256.71Z"/><path class="cls-15" d="M342.29,260l-66-9.93a5.92,5.92,0,0,0-6.74,5h0a5.93,5.93,0,0,0,5,6.74l66,9.93a5.92,5.92,0,0,0,6.74-5h0A5.93,5.93,0,0,0,342.29,260Z"/><rect class="cls-16" x="409.77" y="-13.96" width="36.29" height="325.04" transform="translate(217.34 549.61) rotate(-81.44)"/><rect class="cls-17" x="324.48" y="122.28" width="45.74" height="143.05" transform="translate(104.03 508.46) rotate(-81.44)"/><rect class="cls-17" x="474.48" y="150.67" width="45.74" height="131.41" transform="translate(209.39 676) rotate(-81.44)"/><g class="cls-18"><path class="cls-19" d="M594.09,136.4l-25.27,168a14.65,14.65,0,0,1-16.67,12.3l-292.45-44a14.65,14.65,0,0,1-12.31-16.66l2.86-19c36.31-.35,72.29-7,107.86-14.44,83.38-17.44,169.28-41.09,233.33-97A14.61,14.61,0,0,1,594.09,136.4Z"/></g><path class="cls-8" d="M547.41,200.7a4.46,4.46,0,0,1,3.64-1.32,2.24,2.24,0,0,0,.73,0c1.61-.63,3.25-1.23,4.8-2a11.38,11.38,0,0,0,1.81-1.53c1.36-1.1,2.75-2.17,4.12-3.24,1.55-1.2,3.09-2.41,4.75-3.71a13.36,13.36,0,0,0-1.25-.53,8.69,8.69,0,0,0-3.9-.26,4.26,4.26,0,0,1-3.77-1.93,1.61,1.61,0,0,1-.26-1.28c.11-.26.71-.39,1.13-.47a10.14,10.14,0,0,0,2.31-.33c2.31-1.1,4.62,0,6.91-.13s4.62.82,6.88,1.44c1.32.36,2.61.86,3.91,1.34a7.85,7.85,0,0,0,3.72.5l.25,0,6.63-1.7c2.2,5.17,4.19,10.43,6,15.74-6.37.9-11.1,1.43-12.62,1.59-1.49,1-2.91,2-4.47,2.82a42.19,42.19,0,0,1-5,1.89c-1.66.58-3.32,1.13-5,1.66s-3.35,1.11-5.06,1.46a4,4,0,0,1-4.26-1.57c-.37-.55-1.33-.72-2.05-1a12,12,0,0,0-1.67-.42,1.47,1.47,0,0,1-1.28-1.22,1.26,1.26,0,0,0-1.34-1.14,6.16,6.16,0,0,1-4.28-2.27,1.82,1.82,0,0,0-.86-.41C546.92,202.34,546.67,201.52,547.41,200.7Z"/><path class="cls-8" d="M671.29,138.4s-4.08,49.35-13.84,51.15-70.3,13.17-70.3,13.17V186.39l52-14.78a123.74,123.74,0,0,1,3.47-33.5C650.88,136,661,137.31,671.29,138.4Z"/><path class="cls-4" d="M300.48,438.12a17.24,17.24,0,0,1-17.25,17.25H213.55a17.25,17.25,0,1,1,0-34.5h69.68A17.25,17.25,0,0,1,300.48,438.12Z"/><path class="cls-15" d="M228.85,430.57a1.32,1.32,0,0,1,1.34-1.34h4.61c3.53,0,5.73,2,5.73,5v0c0,3.39-2.72,5.15-6,5.15h-3v3.64a1.33,1.33,0,0,1-2.65,0Zm5.73,6.5c2,0,3.25-1.12,3.25-2.69v0c0-1.77-1.27-2.7-3.25-2.7H231.5v5.43Z"/><path class="cls-15" d="M241.16,442.59l5.61-12.5a1.68,1.68,0,0,1,1.59-1.08h.13a1.65,1.65,0,0,1,1.57,1.08l5.6,12.5a1.1,1.1,0,0,1,.15.56,1.24,1.24,0,0,1-1.25,1.27,1.37,1.37,0,0,1-1.29-.93l-1.22-2.82h-7.33l-1.27,2.91a1.28,1.28,0,0,1-1.23.84,1.22,1.22,0,0,1-1.23-1.23A1.44,1.44,0,0,1,241.16,442.59Zm9.87-4.27-2.65-6.1-2.65,6.1Z"/><path class="cls-15" d="M261.06,438.45l-5.19-7.13a1.66,1.66,0,0,1-.3-.93,1.29,1.29,0,0,1,1.33-1.27,1.54,1.54,0,0,1,1.3.8l4.2,6.05,4.26-6.07a1.52,1.52,0,0,1,1.27-.8,1.26,1.26,0,0,1,1.3,1.29,1.57,1.57,0,0,1-.37.95l-5.15,7.05v4.71a1.33,1.33,0,0,1-2.65,0Z"/><g id="g16527"><path id="path7719" class="cls-20" d="M457.75,372.92h-72.4a1.26,1.26,0,0,0-1.26,1.26h0v9a1.25,1.25,0,0,0,1.26,1.26h1.58a1.28,1.28,0,0,0-1.27,1.26h0v9a1.27,1.27,0,0,0,1.26,1.26h-4.23a1.26,1.26,0,0,0-1.26,1.26h0v9a1.27,1.27,0,0,0,1.26,1.27h2.66a1.25,1.25,0,0,0-1.26,1.25h0v9a1.26,1.26,0,0,0,1.26,1.26h3.51a1.26,1.26,0,0,0-1.26,1.26h0v9a1.27,1.27,0,0,0,1.26,1.27h-1.45a1.25,1.25,0,0,0-1.26,1.25h0v9a1.26,1.26,0,0,0,1.26,1.26h-2.06a1.26,1.26,0,0,0-1.26,1.26h0v9a1.26,1.26,0,0,0,1.26,1.27h-3.14A1.25,1.25,0,0,0,381,455h0v9a1.25,1.25,0,0,0,1.25,1.26h4.49a1.26,1.26,0,0,0-1.27,1.26h0v9a1.26,1.26,0,0,0,1.26,1.27h-3.62a1.26,1.26,0,0,0-1.27,1.25h0v9a1.25,1.25,0,0,0,1.26,1.26h5.45a1.26,1.26,0,0,0-1.26,1.26h0v9a1.26,1.26,0,0,0,1.26,1.26h-3.15a1.26,1.26,0,0,0-1.26,1.26h0v9a1.25,1.25,0,0,0,1.26,1.26h72.4a1.26,1.26,0,0,0,1.26-1.25h0v-9a1.25,1.25,0,0,0-1.26-1.26h3.14a1.27,1.27,0,0,0,1.27-1.26h0v-9a1.27,1.27,0,0,0-1.26-1.27h-5.45a1.26,1.26,0,0,0,1.26-1.25h0v-9a1.25,1.25,0,0,0-1.26-1.26h3.63a1.26,1.26,0,0,0,1.26-1.26h0v-9a1.26,1.26,0,0,0-1.26-1.26H454.6a1.25,1.25,0,0,0,1.26-1.26h0v-9a1.25,1.25,0,0,0-1.25-1.26h3.14a1.26,1.26,0,0,0,1.26-1.26h0v-9a1.26,1.26,0,0,0-1.26-1.26h2.05a1.27,1.27,0,0,0,1.27-1.26h0v-9a1.26,1.26,0,0,0-1.26-1.26h1.45a1.27,1.27,0,0,0,1.26-1.26h0v-9a1.26,1.26,0,0,0-1.26-1.26h-3.51a1.26,1.26,0,0,0,1.26-1.26h0v-9a1.25,1.25,0,0,0-1.26-1.26h-2.67a1.28,1.28,0,0,0,1.27-1.26h0v-9a1.27,1.27,0,0,0-1.26-1.26h4.23a1.26,1.26,0,0,0,1.26-1.26h0v-9a1.27,1.27,0,0,0-1.26-1.27h-1.51a1.25,1.25,0,0,0,1.2-1.25v-9a1.26,1.26,0,0,0-1.26-1.26Z"/><path id="path8169" class="cls-21" d="M385.35,372.92a1.26,1.26,0,0,0-1.26,1.26h0v9a1.25,1.25,0,0,0,1.26,1.26h1.58a1.28,1.28,0,0,0-1.27,1.26h0v9a1.27,1.27,0,0,0,1.26,1.26h-4.23a1.26,1.26,0,0,0-1.26,1.26h0v9a1.27,1.27,0,0,0,1.26,1.27h2.66a1.25,1.25,0,0,0-1.26,1.25h0v9a1.26,1.26,0,0,0,1.26,1.26h3.51a1.26,1.26,0,0,0-1.26,1.26h0v9a1.27,1.27,0,0,0,1.26,1.27h-1.45a1.25,1.25,0,0,0-1.26,1.25h0v9a1.26,1.26,0,0,0,1.26,1.26h-2.06a1.26,1.26,0,0,0-1.26,1.26h0v9a1.26,1.26,0,0,0,1.26,1.27h-3.14a1.27,1.27,0,0,0-1.27,1.25h0v9a1.26,1.26,0,0,0,1.26,1.26h11.85V453.74h.72v11.54h3.58V453.74h1.43v11.54h2.87V453.74H401.5V442.19h1.43v11.55h1.87v11.54H407V453.74H405.8V442.19h2.06V430.65h1.45V419.1h.79V407.56H408V419.1h-1.51v11.55H405V419.1h.79V407.56h1.64V396h-.07V384.46H405.8V372.92h-2.87v11.54H401.5V372.92h-3.59v11.54h-.72V372.92Zm22.6,0v11.54h1.57V396h.79v11.55h1.43V396h-.07V384.46H410.1V372.92Zm5,0v11.54h1.43V372.92Zm5,0v11.54h.72V372.92Zm6.09,0v11.54h.31V372.92Zm4.31,0v11.54h.31V372.92Zm4.3,0v11.54H433V372.92Zm4.3,0v11.54h.31V372.92Zm4.3,0v11.54h.31V372.92Zm4.3,0v11.54h.31V372.92Zm-46.82,11.54h.72V396h.78v11.55h-1.44V396h-.06Zm4.3,0h1.43V396h.79v11.55h-2.15V396h-.07Zm11.47,0V396h.79v11.55H416V396H416V384.46Zm5,0V396h.72V384.46Zm6.1,0V396h.06v11.55H426V396H426V384.46Zm4.3,0V396H430v11.55h.31V396h-.07V384.46Zm4.3,0V396h.07v11.55h.31V396h-.07V384.46Zm4.3,0V396h.07v11.55h.31V396h-.07V384.46Zm4.31,0V396h.06v11.55h.31V396h-.06V384.46Zm4.3,0V396h.31V384.46ZM394.53,396h.72v11.55h-.72Zm26.89,0v11.55h.31V396Zm-24.23,11.55h.72V419.1h-.72Zm4.31,0h1.43V419.1H401.5Zm11.47,0V419.1h-1.51v11.55H410v11.54H408v11.55h1.87v11.54h1.44V453.74H410.1V442.19h2.06V430.65h1.45V419.1h.79V407.56Zm5,0V419.1h.72V407.56Zm6.09,0V419.1h.31V407.56Zm4.31,0V419.1h.31V407.56Zm4.3,0V419.1H433V407.56Zm4.3,0V419.1h.31V407.56Zm4.3,0V419.1h.31V407.56Zm4.3,0V419.1h.31V407.56ZM400.7,419.1h.72v11.55h-.72Zm15.78,0v11.55h1.43V419.1Zm5,0v11.55h.72V419.1Zm6.09,0v11.55h.31V419.1Zm4.3,0v11.55h.31V419.1Zm4.31,0v11.55h.31V419.1Zm4.3,0v11.55h.31V419.1Zm4.3,0v11.55h.31V419.1Zm4.3,0v11.55h.31V419.1Zm-49.85,11.55H400v11.54h-.72Zm4.3,0H405v11.54h-1.44Zm11.48,0v11.54h1.43V430.65Zm5,0v11.54h.71V430.65Zm6.09,0v11.54h.31V430.65Zm4.3,0v11.54h.31V430.65Zm4.3,0v11.54h.31V430.65Zm4.31,0v11.54h.31V430.65Zm4.3,0v11.54h.31V430.65Zm4.3,0v11.54H448V430.65Zm-50.46,11.54h.72v11.55h-.72Zm15.78,0v11.55h1.43V442.19Zm5,0v11.55h.72V442.19Zm6.09,0v11.55h.31V442.19Zm4.31,0v11.55h.31V442.19Zm4.3,0v11.55H433V442.19Zm4.3,0v11.55h.31V442.19Zm4.3,0v11.55h.31V442.19Zm4.3,0v11.55h.31V442.19Zm-30.75,11.55v11.54h.72V453.74Zm6.1,0v11.54h.31V453.74Zm4.3,0v11.54h.31V453.74Zm4.3,0v11.54h.31V453.74Zm4.3,0v11.54h.31V453.74Zm4.31,0v11.54h.31V453.74Zm4.3,0v11.54h.31V453.74Zm-55.76,11.54a1.26,1.26,0,0,0-1.27,1.26h0v9a1.26,1.26,0,0,0,1.26,1.27h-3.63a1.26,1.26,0,0,0-1.26,1.25h0v9a1.25,1.25,0,0,0,1.26,1.26h5.45a1.25,1.25,0,0,0-1.26,1.26h0v9a1.26,1.26,0,0,0,1.25,1.26h-3.14a1.26,1.26,0,0,0-1.26,1.26h0v9a1.25,1.25,0,0,0,1.26,1.26h11.84V499.92h.72v11.54h3.59V499.92h1.43v11.54h2.87V499.92h-1.16V488.37H403.5V476.83h-.67V465.28h-3.59v11.55h1.39v11.54h.43v11.55h-.72V488.37H399.2V476.83h-.67V465.28Zm17.57,0v11.55h1.39v11.54h.43v11.55H408v11.54h2.15V499.92H409V488.37H407.8V476.83h-.67V465.28Zm5,0v11.55h1.39v11.54h.43v11.55H413v11.54h1.43V499.92h-1.15V488.37H412.1V476.83h-.67V465.28Zm5,0v11.55h1.39v11.54h.43v11.55h1.43V488.37h-1.14V476.83h-.67V465.28Zm5,0v11.55H420V465.28Zm6.09,0v11.55h.31V465.28Zm4.31,0v11.55H430V465.28Zm4.3,0v11.55h.31V465.28Zm4.3,0v11.55h.31V465.28Zm4.3,0v11.55h.31V465.28Zm4.31,0v11.55h.31V465.28Zm-52,11.55h.71v11.54h-.71Zm26.88,0v11.54h-.64v11.55h.71V488.37h.24V476.83Zm4.31,0v11.54h.31V476.83Zm4.3,0v11.54h.31V476.83Zm4.3,0v11.54H435V476.83Zm4.3,0v11.54h.31V476.83Zm4.31,0v11.54h.31V476.83Zm-16.07,11.54v11.55h.31V488.37Zm4.3,0v11.55h.31V488.37Zm4.3,0v11.55h.31V488.37Zm4.31,0v11.55h.31V488.37Zm4.3,0v11.55h.31V488.37Zm4.3,0v11.55h.31V488.37ZM418,499.92v11.54h.72V499.92Zm6.09,0v11.54h.31V499.92Zm4.31,0v11.54h.31V499.92Zm4.3,0v11.54H433V499.92Zm4.3,0v11.54h.31V499.92Zm4.3,0v11.54h.31V499.92Zm4.3,0v11.54h.31V499.92Z"/><path id="path8251" class="cls-22" d="M397.6,372.92v11.54h.31V372.92Zm5,0v11.54h.31V372.92Zm5,0v11.54H408V372.92Zm5,0v11.54H413V372.92Zm5,0v11.54H418V372.92Zm6.71,0v11.54h.72V372.92Zm4.31,0v11.54h1.43V372.92Zm4.3,0v11.54h1.57V396h.07v11.55H433V419.1h-.8v11.55h1.44V419.1h1.51V407.56h2.15V419.1h-.79v11.55h-1.46v11.54H433v11.55h1.15v11.54h.18v11.55H435v11.54h1.14v11.55h1.16v11.54h2.87V499.92h-1.88V488.37h-.42V476.83h-1.39V465.28H437V453.74h-1.87V442.19h2.06V430.65h1.45V419.1h1.51V407.56h1.43V419.1h-.79v11.55h-1.45v11.54H437.3v11.55h1.16v11.54h.17v11.55h.67v11.54h1.15v11.55h1.15v11.54h3.59V499.92h.71v11.54h11.85a1.25,1.25,0,0,0,1.26-1.25h0v-9a1.26,1.26,0,0,0-1.26-1.26h3.14a1.25,1.25,0,0,0,1.26-1.26h0v-9a1.25,1.25,0,0,0-1.25-1.27h-5.45a1.26,1.26,0,0,0,1.26-1.25h0v-9a1.25,1.25,0,0,0-1.26-1.26h3.63a1.26,1.26,0,0,0,1.26-1.26h0v-9a1.26,1.26,0,0,0-1.26-1.27H454.6a1.26,1.26,0,0,0,1.26-1.25h0v-9a1.25,1.25,0,0,0-1.26-1.26h3.15a1.26,1.26,0,0,0,1.26-1.26h0v-9a1.26,1.26,0,0,0-1.26-1.26h2.05a1.27,1.27,0,0,0,1.27-1.26h0v-9a1.26,1.26,0,0,0-1.26-1.26h1.44a1.26,1.26,0,0,0,1.27-1.26h0v-9a1.26,1.26,0,0,0-1.26-1.26h-3.51a1.26,1.26,0,0,0,1.26-1.26h0v-9a1.25,1.25,0,0,0-1.26-1.26h-2.67a1.28,1.28,0,0,0,1.27-1.26h0v-9a1.27,1.27,0,0,0-1.26-1.26h4.23a1.26,1.26,0,0,0,1.26-1.26h0v-9a1.27,1.27,0,0,0-1.26-1.27h-1.57a1.25,1.25,0,0,0,1.26-1.25h0v-9a1.26,1.26,0,0,0-1.26-1.26H445.9v11.54h-.71V372.92H441.6v11.54h-1.43V372.92H437.3v11.54h1.57V396h.07v11.55h-1.43V396h-.79V384.46h-1.57V372.92Zm-33.82,11.54V396h.31V384.46Zm5,0V396h.31V384.46Zm5,0V396h.31V384.46Zm5,0V396h.31V384.46Zm5,0V396h.31V384.46Zm6.72,0V396H426v11.55h1.44V396h-.79V384.46Zm4.3,0V396h.07v11.55h2.15V396h-.79V384.46Zm11.47,0h1.44V396h.06v11.55h-.71V396h-.79Zm5,0h.72V396h-.72ZM394.94,396v11.55h.31V396Zm5,0v11.55h.31V396Zm5,0v11.55h.31V396Zm5,0v11.55h.31V396Zm5,0v11.55h.31V396Zm6.71,0v11.55h.72V396ZM397.6,407.56V419.1h.31V407.56Zm5,0V419.1h.31V407.56Zm5,0V419.1H408V407.56Zm5,0V419.1H413V407.56Zm5,0V419.1H418V407.56Zm6.71,0V419.1h.72V407.56Zm4.31,0V419.1h1.43V407.56Zm16.49,0h.71V419.1h-.71ZM401.11,419.1v11.55h.31V419.1Zm5,0v11.55h.31V419.1Zm5,0v11.55h.31V419.1Zm5,0v11.55h.31V419.1Zm5,0v11.55h.31V419.1Zm6.71,0v11.55h.72V419.1Zm15.78,0h1.43v11.55h-1.43Zm5,0h.71v11.55h-.71Zm-49,11.55v11.54H400V430.65Zm5,0v11.54H405V430.65Zm5,0v11.54H410V430.65Zm5,0v11.54H415V430.65Zm5,0v11.54h.31V430.65Zm6.71,0v11.54h.72V430.65Zm4.3,0v11.54h1.44V430.65Zm11.48,0h1.43v11.54h-1.43Zm5,0H448v11.54h-.72ZM397.6,442.19v11.55h.31V442.19Zm5,0v11.55h.31V442.19Zm5,0v11.55H408V442.19Zm5,0v11.55H413V442.19Zm5,0v11.55H418V442.19Zm6.71,0v11.55h.72V442.19Zm4.31,0v11.55h1.15v11.54H430v11.55h.67v11.54h1.14v11.55H433v11.54h2.15V499.92h-1.87V488.37h-.43V476.83h-1.39V465.28H432V453.74h-1.87V442.19Zm11.47,0h1.43v11.55h-1.43Zm5,0h.71v11.55h-.71Zm-50.73,11.55v11.54h.31V453.74Zm5,0v11.54h.3V453.74Zm5,0v11.54h.31V453.74Zm5,0v11.54h.31V453.74Zm5,0v11.54h.31V453.74Zm6.72,0v11.54H422V453.74Zm4.3,0v11.54h.17v11.55h.68v11.54h1.14v11.55h.72V488.37h-.43V476.83h-1.39V465.28H427V453.74Zm16.49,0h.72v11.54h.17v11.55h.68v11.54h1.14v11.55h-1.44V488.37h-.42V476.83H441.5V465.28H442Zm-43.11,11.54v11.55h.31V465.28Zm5,0v11.55h.31V465.28Zm5,0v11.55h.31V465.28Zm5,0v11.55h.31V465.28Zm5,0v11.55h.31V465.28Zm27.51,0h.72v11.55h-.72ZM395.3,476.83v11.54h.31V476.83Zm5,0v11.54h.31V476.83Zm5,0v11.54h.31V476.83Zm5,0v11.54h.31V476.83Zm5,0v11.54h.31V476.83Zm6.71,0v11.54h.72V476.83Zm-21.34,11.54v11.55h.31V488.37Zm5,0v11.55h.31V488.37Zm5,0v11.55h.31V488.37Zm5,0v11.55h.31V488.37Zm5,0v11.55h.31V488.37Zm27.5,0h.72v11.55h-.72ZM397.6,499.92v11.54h.31V499.92Zm5,0v11.54h.31V499.92Zm5,0v11.54H408V499.92Zm5,0v11.54H413V499.92Zm5,0v11.54H418V499.92Zm6.71,0v11.54h.72V499.92Zm4.31,0v11.54h1.43V499.92Z"/></g><g id="g16522"><path id="path16318" class="cls-20" d="M350.3,453.74A1.25,1.25,0,0,0,349,455h0v9a1.25,1.25,0,0,0,1.25,1.26H345a1.26,1.26,0,0,0-1.26,1.26h0v9a1.26,1.26,0,0,0,1.26,1.26h5.81a1.26,1.26,0,0,0-1.26,1.26h0v9a1.25,1.25,0,0,0,1.26,1.26h-7a1.26,1.26,0,0,0-1.26,1.26h0v9a1.26,1.26,0,0,0,1.26,1.26h3.39a1.26,1.26,0,0,0-1.26,1.26h0v9a1.25,1.25,0,0,0,1.26,1.26h72.39a1.26,1.26,0,0,0,1.27-1.25h0v-9a1.27,1.27,0,0,0-1.26-1.26h-3.39a1.26,1.26,0,0,0,1.26-1.26h0v-9a1.26,1.26,0,0,0-1.26-1.27h7a1.26,1.26,0,0,0,1.27-1.25h0v-9a1.26,1.26,0,0,0-1.26-1.26h-5.81a1.26,1.26,0,0,0,1.26-1.26h0v-9a1.26,1.26,0,0,0-1.26-1.27h5.32A1.25,1.25,0,0,0,424,464h0v-9a1.25,1.25,0,0,0-1.25-1.26H350.3Z"/><path id="path9656" class="cls-22" d="M362.55,453.74v11.54h-.31v11.55h.31V465.28h.31V453.74Zm5,0v11.54h-.31v11.55h.31V465.28h.31V453.74Zm5,0v11.54h-.31v11.55h.31V465.28h.31V453.74Zm5,0v11.54h-.3v11.55h.31V465.28h.3V453.74Zm5,0v11.54h.31V453.74Zm6.72,0v11.54h-1v11.55h1.43V465.28h.3V453.74Zm4.3,0v11.54h-1v11.55h1.5v11.54h1.44V476.83h-.79V465.28h.3V453.74Zm4.3,0v11.54h-1v11.55h1.51v11.54h-2.72v11.55h-.91v11.54H397V499.92h1.63V488.37H400v11.55h-.91v11.54H402V499.92h1.43v11.54H407V499.92h.71v11.54h11.84a1.26,1.26,0,0,0,1.27-1.25h0v-9a1.27,1.27,0,0,0-1.26-1.26h-3.39a1.26,1.26,0,0,0,1.26-1.26h0v-9a1.26,1.26,0,0,0-1.26-1.27h7a1.26,1.26,0,0,0,1.27-1.25h0v-9a1.25,1.25,0,0,0-1.26-1.26h-5.81a1.26,1.26,0,0,0,1.26-1.26h0v-9a1.26,1.26,0,0,0-1.26-1.27h5.32A1.25,1.25,0,0,0,424,464h0v-9a1.25,1.25,0,0,0-1.25-1.26H410.85v11.54h-.72V453.74h-3.58v11.54h-1v11.55h-.71V465.28h.3V453.74h-2.87v11.54h-1v11.55h1.51v11.54h-2.15V476.83h-.79V465.28h.3V453.74Zm-40.72,11.54v11.55h.31V465.28Zm26.79,0v11.55h.72V465.28Zm-21,11.55v11.54h.31V476.83Zm5,0v11.54h.31V476.83Zm5,0v11.54h.31V476.83Zm5,0v11.54h.31V476.83Zm5,0v11.54h-.31v11.55h.72V488.37h-.1V476.83Zm6.71,0v11.54h.72V476.83Zm15.78,0H407v11.54H405.6Zm5,0h.71v11.54h-.71ZM356,488.37v11.55h.31V488.37Zm5,0v11.55h.31V488.37Zm5,0v11.55h.31V488.37Zm5,0v11.55h.31V488.37Zm5,0v11.55h.31V488.37Zm11,0v11.55h1.43V488.37Zm4.3,0v11.55h-.92v11.54h1.44V499.92h1.63V488.37Zm12.19,0h.71v11.55h-.71Zm-44.2,11.55v11.54h.31V499.92Zm5,0v11.54h.31V499.92Zm5,0v11.54h.31V499.92Zm5,0v11.54h.31V499.92Zm5,0v11.54h.31V499.92Zm6.71,0v11.54h.72V499.92Z"/><path id="path9654" class="cls-21" d="M350.3,453.74A1.25,1.25,0,0,0,349,455h0v9a1.25,1.25,0,0,0,1.25,1.26h11.85V453.74Zm12.56,0v11.54h3.58V453.74Zm5,0v11.54h2.86V453.74Zm5,0v11.54h2.15V453.74Zm5,0v11.54h1.44V453.74Zm5,0v11.54h.72V453.74Zm6.1,0v11.54h.31V453.74Zm4.3,0v11.54h.31V453.74Zm4.3,0v11.54h.31V453.74Zm4.3,0v11.54h.31V453.74Zm4.31,0v11.54h.31V453.74Zm4.3,0v11.54h.31V453.74ZM345,465.28a1.26,1.26,0,0,0-1.26,1.26h0v9a1.26,1.26,0,0,0,1.26,1.27h5.81a1.26,1.26,0,0,0-1.26,1.25h0v9a1.25,1.25,0,0,0,1.26,1.26h-7a1.26,1.26,0,0,0-1.26,1.26h0v9a1.26,1.26,0,0,0,1.26,1.26h3.39a1.26,1.26,0,0,0-1.26,1.26h0v9a1.25,1.25,0,0,0,1.26,1.26H359V499.92h.72v11.54h3.59V499.92h.91V488.37h2.15v11.55h-1.63v11.54h2.87V499.92h.91V488.37h2.72V476.83h-1.51V465.28h-2.15v11.55h.79v11.54h-1.43V476.83h-1.51V465.28h-2.87v11.55h-1.43V465.28h-3.59v11.55h-.72V465.28Zm27.62,0v11.55h.79v11.54h2.15V476.83H374V465.28Zm5,0v11.55h.72V465.28Zm6.09,0v11.55h-.28v11.54h.71V476.83H384V465.28Zm4.31,0v11.55h.31V465.28Zm4.3,0v11.55h.31V465.28Zm4.3,0v11.55h.31V465.28Zm4.3,0v11.55h.31V465.28Zm4.3,0v11.55h.31V465.28Zm-42.59,11.55h.72v11.54h-.72Zm15.78,0v11.54h1.43V476.83Zm11.11,0v11.54h.31V476.83Zm4.3,0v11.54h.31V476.83Zm4.31,0v11.54h.31V476.83Zm4.3,0v11.54h.31V476.83Zm4.3,0v11.54H407V476.83Zm4.3,0v11.54h.31V476.83ZM355.6,488.37h.72v11.55h-.72Zm4.31,0h1.43v11.55h-1.43Zm11.47,0v11.55h-1.63v11.54h2.15V499.92h.91V488.37Zm5,0v11.55h.72V488.37Zm6.09,0v11.55h.31V488.37Zm4.31,0v11.55h.3V488.37Zm4.3,0v11.55h.31V488.37Zm4.3,0v11.55h.31V488.37Zm4.3,0v11.55H400V488.37Zm4.3,0v11.55h.31V488.37Zm-29.23,11.55v11.54h1.43V499.92Zm5,0v11.54h.71V499.92Zm6.09,0v11.54h.31V499.92Zm4.3,0v11.54h.31V499.92Zm4.31,0v11.54h.31V499.92Zm4.3,0v11.54h.31V499.92Zm4.3,0v11.54h.31V499.92Zm4.3,0v11.54h.31V499.92Z"/></g><g id="g150577"><path id="path138956" class="cls-23" d="M434.63,440.85v69.83h-6.88a30.14,30.14,0,0,1-22.35-10.23,37.53,37.53,0,0,1,0-49.37,30.14,30.14,0,0,1,22.35-10.23Z"/><path id="path139017" class="cls-24" d="M397.54,465.54c.06-.23.13-.46.2-.68h36.91v.68Zm1.4-4.11c.19-.46.39-.92.59-1.37h35.12v1.37Zm2-4.11c.4-.7.81-1.39,1.26-2.06h32.46v2.06Zm2.72-4.12c.56-.72,1.14-1.43,1.76-2.11l.58-.63h28.66v2.74Zm3.73-4.11a32.38,32.38,0,0,1,4.39-3.43h22.88v3.43Zm5.49-4.11a29.25,29.25,0,0,1,14.89-4.12h6.89V445Z"/><path id="path138960" class="cls-20" d="M434.65,440.86a34.92,34.92,0,1,0,34.91,34.92h0A34.92,34.92,0,0,0,434.65,440.86Z"/><path id="path138958" class="cls-25" d="M397.54,486c.06.23.13.46.2.69h3.76c-.08-.23-.16-.46-.23-.69Zm1.4,4.11c.19.47.39.92.59,1.37h4c-.23-.45-.44-.9-.65-1.37Zm2,4.12c.4.7.81,1.38,1.26,2.05h4.24c-.49-.67-.95-1.35-1.39-2.05Zm2.72,4.11c.56.73,1.14,1.43,1.76,2.11l.58.63h4.63a35.13,35.13,0,0,1-2.58-2.74Zm3.73,4.11a31.6,31.6,0,0,0,4.39,3.43H417a34.06,34.06,0,0,1-4.83-3.43Zm5.49,4.11a29.25,29.25,0,0,0,14.89,4.12h6.89a34.83,34.83,0,0,1-16.39-4.12Z"/><path id="path138962" class="cls-26" d="M434.65,448.17A27.62,27.62,0,0,0,407,475.78h0a27.63,27.63,0,0,0,27.62,27.62h0a27.62,27.62,0,0,0,27.61-27.62h0a27.61,27.61,0,0,0-27.61-27.61Z"/><path id="path138964" class="cls-27" d="M434.65,448.17c-.67,0-1.34,0-2,.07C448.07,449.3,460,461.31,460,475.78s-11.94,26.49-27.38,27.54c.67.05,1.34.07,2,.08a27.62,27.62,0,0,0,27.61-27.62h0a27.61,27.61,0,0,0-27.61-27.61Z"/><path id="path138968" class="cls-28" d="M438.61,462.73c.61.64,1,1.54.94,3.39l1.22.84c0-2.16-.47-3-1.28-3.7A3.79,3.79,0,0,0,438.61,462.73Zm-9.26,7.12a7.12,7.12,0,0,0,.64.49,18,18,0,0,0,5.44,2.17c2.14.54,4.75.83,7.15,2.22l0,0a9.67,9.67,0,0,0-1.26-.86c-2.4-1.39-5-1.69-7.15-2.23a19.83,19.83,0,0,1-4.86-1.82Zm10,10a3.63,3.63,0,0,1,1.11,2.48c.14,2.57-.4,3.89-1.31,4.76s-2.73,1.58-6,1.54a11,11,0,0,1-4.42-.85l.08.09c.87.84,2.53,1.51,5.56,1.6,3.22,0,5-.67,6-1.54s1.45-2.2,1.31-4.76a3.66,3.66,0,0,0-2.17-3.24l-.15-.08Zm-9.14,15.19v2.16l1.21.84V495.3C431.07,495.24,430.66,495.16,430.26,495.07Z"/><path id="path138970" class="cls-29" d="M430.26,452.65v2.74l1.21.84v-2.74Zm7.25,3v.61A12.35,12.35,0,0,1,442,457.7a11,11,0,0,0-4.53-2.11ZM420.3,481.92c-.11,3.77.8,7.16,3.18,9.48a9.63,9.63,0,0,0,1.85,1.39,8.27,8.27,0,0,1-.63-.55c-2.39-2.32-3.29-5.71-3.18-9.48Z"/><path id="path138972" class="cls-30" d="M430.26,452.65l1.21.84h6l-1.21-.84Zm0,2.74a11.67,11.67,0,0,0-5.8,2.45,10,10,0,0,0-3.4,7.76,10.59,10.59,0,0,0,4.3,8.88c.2.14.41.27.62.4a10.79,10.79,0,0,1-3.71-8.44,10,10,0,0,1,3.4-7.77,11.75,11.75,0,0,1,5.8-2.44Zm-10,26.53,1.22.84,6,.18-1.21-.84Z"/><path id="path138976" class="cls-31" d="M407.17,449.3l-.39.37Zm4.31.45a35.08,35.08,0,0,0-8,10.38l6.45,3.38a27.64,27.64,0,0,1,8.55-10.07Zm-9.39,5.67-.2.32Zm45.68,27.91c0-.19,0-.38,0-.57v-.13a10.43,10.43,0,0,0-5.1-7.86,11.09,11.09,0,0,0-1.28-.87c-2.4-1.39-5-1.69-7.15-2.23a20.18,20.18,0,0,1-4.85-1.81c-.7-.61-1.05-1.38-1.05-3.42a3.53,3.53,0,0,1,1.23-3.12c.82-.69,2.39-1.3,5.1-1.26H435l-9.49-5a9.24,9.24,0,0,0-1,.74,10,10,0,0,0-3.4,7.76,12,12,0,0,0,.7,4.09m-19.55-6.76c-.35.92-.67,1.86-.95,2.8l6.63,3.48a27.6,27.6,0,0,1,.87-2.85Zm37.22,1.48a7.74,7.74,0,0,1,.12,1.71l1.22.84,3.64.06Zm22.79,11.95a27.57,27.57,0,0,1-3.46,12.73l6.53,3.43a35.15,35.15,0,0,0,4-12.46ZM440.52,483a6.66,6.66,0,0,1-.54,3l6.63,3.47a12.49,12.49,0,0,0,.91-2.83Zm16.6,8.7a27.66,27.66,0,0,1-1.81,2.35l6.63,3.48c.61-.77,1.19-1.57,1.74-2.39Z"/><path id="path138974" class="cls-32" d="M410.21,451.26a36.15,36.15,0,0,1,16-9.19,31.63,31.63,0,0,1,8.42-1.21,30.48,30.48,0,0,0-8.5.92,34.78,34.78,0,0,0-16.36,9.05l-.05.05a35.22,35.22,0,0,0,0,49.76l0,0a34.69,34.69,0,0,0,16.4,9.09,29.9,29.9,0,0,0,8.51.93,31.62,31.62,0,0,1-8.44-1.22,36,36,0,0,1-16-9.22l0,0a34.63,34.63,0,0,1,0-48.92l0,0Z"/></g><circle class="cls-26" cx="434.59" cy="476.19" r="23.52"/><path class="cls-33" d="M441.3,495.85h-3.39c-.59,0-1.18,0-1.77,0a.62.62,0,0,1-.56-.28q-3-3.84-6.1-7.66c-1.83-2.3-3.65-4.6-5.49-6.89a1.18,1.18,0,0,1-.29-.84c0-.73,0-1.46,0-2.19,0-.33.11-.38.4-.37a27.53,27.53,0,0,0,4.63-.11,7.88,7.88,0,0,0,4.07-1.49,5.39,5.39,0,0,0,2.18-3.82c0-.49,0-.49-.44-.49H423.05c-.11,0-.26.06-.33-.05s.07-.2.13-.3c.53-.85,1.08-1.69,1.6-2.54a.58.58,0,0,1,.6-.32h9.2c.23,0,.26-.06.16-.26a4.87,4.87,0,0,0-2.2-2.13,10.14,10.14,0,0,0-4-.89c-1.69-.09-3.39,0-5.09,0h-.38c0-.18.09-.27.15-.37.54-.83,1.09-1.66,1.61-2.5a.52.52,0,0,1,.49-.26h20.1c.1,0,.24,0,.29.05s-.07.19-.12.28c-.51.82-1,1.63-1.54,2.46a.49.49,0,0,1-.49.26H438c-.08.14,0,.2.08.27a6.91,6.91,0,0,1,1.3,2.75c.07.27.17.36.45.36,1.73,0,3.46,0,5.2,0,.16,0,.39-.08.46.06s-.13.28-.22.42c-.52.81-1.05,1.62-1.56,2.44a.58.58,0,0,1-.58.3c-1.09,0-2.19,0-3.29,0-.2,0-.31,0-.36.26a9.12,9.12,0,0,1-5.45,6.82,15.1,15.1,0,0,1-4.9,1.28c-.11,0-.27,0-.32.08s.1.2.17.29l8.35,10.4,3.72,4.63A.71.71,0,0,1,441.3,495.85Z"/></g></g></g></svg>