<svg xmlns="http://www.w3.org/2000/svg" viewBox="0 0 453.55 508.22"><defs><style>.cls-1{isolation:isolate;}.cls-2,.cls-7{fill:#fff;}.cls-2{opacity:0.2;mix-blend-mode:screen;}.cls-3{fill:#e69a06;}.cls-13,.cls-4{fill:#001e50;}.cls-5{fill:#edf3ff;}.cls-6{fill:#ffb200;}.cls-8{fill:#d5e1fa;}.cls-9{fill:#063d76;}.cls-10{fill:#2e363a;}.cls-11{opacity:0.08;}.cls-12{fill:#1f2123;}.cls-13{font-size:20.57px;font-family:Poppins-Medium, Poppins;font-weight:500;}</style></defs><g class="cls-1"><g id="Layer_2" data-name="Layer 2"><g id="Layer_2-2" data-name="Layer 2"><ellipse class="cls-2" cx="226.77" cy="487.61" rx="226.77" ry="20.61"/><path class="cls-3" d="M352.92,163.65H354a6.32,6.32,0,0,0,6.33-6.33v-20A6.32,6.32,0,0,0,354,131h-1.06Z"/><path class="cls-3" d="M100.63,117.25H99.57a6.32,6.32,0,0,0-6.33,6.33v20a6.32,6.32,0,0,0,6.33,6.33h1.06Z"/><path class="cls-3" d="M100.63,75.31H99.57a6.32,6.32,0,0,0-6.33,6.33v20A6.32,6.32,0,0,0,99.57,108h1.06Z"/><path class="cls-4" d="M352.92,30.1V457.82a30.16,30.16,0,0,1-30,30.21H130.84a30.19,30.19,0,0,1-30.2-30.21V30.1A30.24,30.24,0,0,1,130.84,0H322.93A30.2,30.2,0,0,1,352.92,30.1Z"/><path class="cls-5" d="M322.93,9.79H245.24a7.22,7.22,0,0,0-6.55,4.84,12.89,12.89,0,0,1-23.83,0,7.23,7.23,0,0,0-6.55-4.84H130.74A20.25,20.25,0,0,0,110.49,30V457.77a20.46,20.46,0,0,0,20.25,20.47h192a20.43,20.43,0,0,0,20.36-20.36V30A20.26,20.26,0,0,0,322.93,9.79Z"/><path class="cls-6" d="M278.87,438.12a17.24,17.24,0,0,1-17.25,17.25H191.93a17.25,17.25,0,0,1,0-34.5h69.69A17.25,17.25,0,0,1,278.87,438.12Z"/><path class="cls-7" d="M207.24,430.57a1.31,1.31,0,0,1,1.33-1.34h4.61c3.54,0,5.74,2,5.74,5v0c0,3.39-2.72,5.15-6,5.15h-3v3.64a1.33,1.33,0,0,1-2.65,0Zm5.73,6.5c2,0,3.25-1.12,3.25-2.69v0c0-1.77-1.27-2.7-3.25-2.7h-3.08v5.43Z"/><path class="cls-7" d="M219.55,442.59l5.6-12.5a1.68,1.68,0,0,1,1.6-1.08h.13a1.65,1.65,0,0,1,1.57,1.08l5.6,12.5a1.1,1.1,0,0,1,.15.56,1.24,1.24,0,0,1-1.25,1.27,1.37,1.37,0,0,1-1.29-.93l-1.23-2.82h-7.32l-1.27,2.91a1.28,1.28,0,0,1-1.23.84,1.22,1.22,0,0,1-1.23-1.23A1.31,1.31,0,0,1,219.55,442.59Zm9.87-4.27-2.65-6.1-2.65,6.1Z"/><path class="cls-7" d="M239.45,438.45l-5.19-7.13a1.66,1.66,0,0,1-.3-.93,1.29,1.29,0,0,1,1.33-1.27,1.52,1.52,0,0,1,1.29.8l4.21,6.05,4.26-6.07a1.51,1.51,0,0,1,1.27-.8,1.25,1.25,0,0,1,1.29,1.29,1.63,1.63,0,0,1-.36.95l-5.15,7.05v4.71a1.33,1.33,0,0,1-2.65,0Z"/><rect class="cls-8" x="139.68" y="102.87" width="177.79" height="240" rx="82.67"/><path class="cls-9" d="M293,159.13v67.4a5.82,5.82,0,0,1-5.81,5.82H169.8a5.83,5.83,0,0,1-5.82-5.82v-67.4a5.83,5.83,0,0,1,5.82-5.82H287.14a5.82,5.82,0,0,1,5.81,5.82Z"/><path class="cls-7" d="M223.28,217.88H175a2.35,2.35,0,0,1-2.35-2.35h0a2.35,2.35,0,0,1,2.35-2.35h48.32a2.35,2.35,0,0,1,2.35,2.35h0A2.35,2.35,0,0,1,223.28,217.88Z"/><path class="cls-7" d="M201.45,222.49H175a2.35,2.35,0,0,0-2.35,2.35h0a2.35,2.35,0,0,0,2.35,2.35h26.49a2.35,2.35,0,0,0,2.35-2.35h0A2.35,2.35,0,0,0,201.45,222.49Z"/><rect class="cls-10" x="163.98" y="166.51" width="128.97" height="14.4"/><rect class="cls-6" x="171.15" y="187.14" width="56.76" height="18.15"/><rect class="cls-6" x="233.64" y="187.14" width="52.14" height="18.15"/><g class="cls-11"><path class="cls-12" d="M293,159.13v67.4a5.82,5.82,0,0,1-5.81,5.82H169.8a5.83,5.83,0,0,1-5.82-5.82v-7.62c14.23-2.28,28-7,41.47-12,31.69-11.76,64-26.12,85.82-51.84A5.8,5.8,0,0,1,293,159.13Z"/></g><text class="cls-13" transform="translate(180.74 269.57)">Datacard <tspan x="0" y="24.68">Recharge</tspan></text></g></g></g></svg>