<svg xmlns="http://www.w3.org/2000/svg" viewBox="0 0 510.89 519"><defs><style>.cls-1,.cls-10,.cls-11,.cls-17,.cls-18,.cls-19,.cls-20{isolation:isolate;}.cls-10,.cls-2,.cls-20,.cls-7{fill:#fff;}.cls-17,.cls-2{opacity:0.2;}.cls-2{mix-blend-mode:screen;}.cls-3{fill:#e69a06;}.cls-4,.cls-8{fill:#001e50;}.cls-5{fill:#edf3ff;}.cls-6{fill:#ffb200;}.cls-8{font-size:38px;font-family:Poppins-Medium, Poppins;font-weight:500;}.cls-9{fill:#fbbf00;}.cls-10{opacity:0.25;}.cls-11{opacity:0.05;}.cls-12{fill:#fbc518;}.cls-13{fill:#ffdc6d;}.cls-14{fill:#f2c129;}.cls-15{fill:#f1b700;}.cls-16{fill:#dba600;}.cls-18{opacity:0.1;}.cls-19{opacity:0.15;}.cls-20{opacity:0.2;}.cls-21{fill:#ffecb1;}.cls-22{fill:#cc9805;}.cls-23{fill:#1a2e35;}.cls-24{fill:#000405;}.cls-25{fill:#dd8669;}.cls-26{fill:#2b454e;}.cls-27{fill:#d268cc;}.cls-28{fill:#d18807;}.cls-29{opacity:0.35;}.cls-30{fill:#375a64;}.cls-31{fill:#c66150;}.cls-32{fill:#fafafa;}.cls-33{fill:#ffaaa8;}</style></defs><g class="cls-1"><g id="Layer_2" data-name="Layer 2"><g id="Layer_2-2" data-name="Layer 2"><ellipse class="cls-2" cx="255.45" cy="495" rx="255.45" ry="24"/><path class="cls-3" d="M369.92,163.65H371a6.32,6.32,0,0,0,6.33-6.33v-20A6.32,6.32,0,0,0,371,131h-1.06Z"/><path class="cls-3" d="M117.63,117.25h-1.06a6.32,6.32,0,0,0-6.33,6.33v20a6.32,6.32,0,0,0,6.33,6.33h1.06Z"/><path class="cls-3" d="M117.63,75.31h-1.06a6.32,6.32,0,0,0-6.33,6.33v20a6.32,6.32,0,0,0,6.33,6.33h1.06Z"/><path class="cls-4" d="M369.92,30.1V457.82a30.16,30.16,0,0,1-30,30.21H147.84a30.19,30.19,0,0,1-30.2-30.21V30.1A30.24,30.24,0,0,1,147.84,0H339.93A30.2,30.2,0,0,1,369.92,30.1Z"/><path class="cls-5" d="M339.93,9.79H262.24a7.22,7.22,0,0,0-6.55,4.84,12.89,12.89,0,0,1-23.83,0,7.23,7.23,0,0,0-6.55-4.84H147.74A20.25,20.25,0,0,0,127.49,30V457.77a20.46,20.46,0,0,0,20.25,20.47h192a20.43,20.43,0,0,0,20.36-20.36V30A20.26,20.26,0,0,0,339.93,9.79Z"/><path class="cls-6" d="M295.87,438.12a17.24,17.24,0,0,1-17.25,17.25H208.93a17.25,17.25,0,0,1,0-34.5h69.69A17.25,17.25,0,0,1,295.87,438.12Z"/><path class="cls-7" d="M224.24,430.57a1.31,1.31,0,0,1,1.33-1.34h4.61c3.54,0,5.74,2,5.74,5v0c0,3.39-2.72,5.15-6,5.15h-3v3.64a1.33,1.33,0,0,1-2.65,0Zm5.73,6.5c2,0,3.25-1.12,3.25-2.69v0c0-1.77-1.27-2.7-3.25-2.7h-3.08v5.43Z"/><path class="cls-7" d="M236.55,442.59l5.6-12.5a1.68,1.68,0,0,1,1.6-1.08h.13a1.65,1.65,0,0,1,1.57,1.08l5.6,12.5a1.1,1.1,0,0,1,.15.56,1.24,1.24,0,0,1-1.25,1.27,1.37,1.37,0,0,1-1.29-.93l-1.23-2.82h-7.32l-1.27,2.91a1.28,1.28,0,0,1-1.23.84,1.22,1.22,0,0,1-1.23-1.23A1.31,1.31,0,0,1,236.55,442.59Zm9.87-4.27-2.65-6.1-2.65,6.1Z"/><path class="cls-7" d="M256.45,438.45l-5.19-7.13a1.66,1.66,0,0,1-.3-.93,1.29,1.29,0,0,1,1.33-1.27,1.52,1.52,0,0,1,1.29.8l4.21,6.05,4.26-6.07a1.51,1.51,0,0,1,1.27-.8,1.25,1.25,0,0,1,1.29,1.29,1.63,1.63,0,0,1-.36.95l-5.15,7.05v4.71a1.33,1.33,0,0,1-2.65,0Z"/><text class="cls-8" transform="translate(205.78 179.98)">EMI <tspan x="-61.16" y="45.6">payments</tspan></text><g id="g16527"><path id="path7719" class="cls-9" d="M148.49,378.05H90.86a1,1,0,0,0-1,1h0v7.18a1,1,0,0,0,1,1h1.25a1,1,0,0,0-1,1h0v7.18a1,1,0,0,0,1,1H88.74a1,1,0,0,0-1,1h0v7.18a1,1,0,0,0,1,1h2.12a1,1,0,0,0-1,1h0v7.18a1,1,0,0,0,1,1h2.8a1,1,0,0,0-1,1h0V423a1,1,0,0,0,1,1H92.5a1,1,0,0,0-1,1h0v7.18a1,1,0,0,0,1,1H90.86a1,1,0,0,0-1,1h0v7.18a1,1,0,0,0,1,1h-2.5a1,1,0,0,0-1,1h0v7.18a1,1,0,0,0,1,1h3.57a1,1,0,0,0-1,1h0v7.18a1,1,0,0,0,1,1H89a1,1,0,0,0-1,1h0V469a1,1,0,0,0,1,1h4.34a1,1,0,0,0-1,1h0v7.18a1,1,0,0,0,1,1h-2.5a1,1,0,0,0-1,1h0v7.18a1,1,0,0,0,1,1h57.63a1,1,0,0,0,1-1h0v-7.18a1,1,0,0,0-1-1H151a1,1,0,0,0,1-1h0V471a1,1,0,0,0-1-1h-4.34a1,1,0,0,0,1-1h0v-7.18a1,1,0,0,0-1-1h2.89a1,1,0,0,0,1-1h0v-7.18a1,1,0,0,0-1-1H146a1,1,0,0,0,1-1h0v-7.18a1,1,0,0,0-1-1h2.5a1,1,0,0,0,1-1h0V434.2a1,1,0,0,0-1-1h1.63a1,1,0,0,0,1-1h0V425a1,1,0,0,0-1-1h1.15a1,1,0,0,0,1-1h0v-7.18a1,1,0,0,0-1-1h-2.8a1,1,0,0,0,1-1h0v-7.18a1,1,0,0,0-1-1h-2.12a1,1,0,0,0,1-1h0v-7.18a1,1,0,0,0-1-1h3.37a1,1,0,0,0,1-1h0v-7.18a1,1,0,0,0-1-1h-1.2a1,1,0,0,0,1-1v-7.18a1,1,0,0,0-1-1Z"/><path id="path8169" class="cls-10" d="M90.86,378.05a1,1,0,0,0-1,1h0v7.18a1,1,0,0,0,1,1h1.25a1,1,0,0,0-1,1h0v7.18a1,1,0,0,0,1,1H88.74a1,1,0,0,0-1,1h0v7.18a1,1,0,0,0,1,1h2.12a1,1,0,0,0-1,1h0v7.18a1,1,0,0,0,1,1h2.8a1,1,0,0,0-1,1h0V423a1,1,0,0,0,1,1H92.5a1,1,0,0,0-1,1h0v7.18a1,1,0,0,0,1,1H90.86a1,1,0,0,0-1,1h0v7.18a1,1,0,0,0,1,1h-2.5a1,1,0,0,0-1,1h0v7.18a1,1,0,0,0,1,1h9.43v-9.19h.57v9.19h2.86v-9.19h1.14v9.19h2.28v-9.19h-.92v-9.19h1.14v9.19h1.49v9.19h1.72v-9.19h-.92v-9.19h1.63V424h1.16v-9.19h.63v-9.19h-1.71v9.19h-1.2V424h-1.14v-9.19h.63v-9.19h1.3v-9.19h0v-9.19h-1.25v-9.19h-2.29v9.19h-1.14v-9.19h-2.85v9.19h-.57v-9.19Zm18,0v9.19h1.25v9.19h.63v9.19h1.14v-9.19h-.06v-9.19h-1.25v-9.19Zm4,0v9.19H114v-9.19Zm4,0v9.19h.57v-9.19Zm4.85,0v9.19h.25v-9.19Zm3.43,0v9.19h.24v-9.19Zm3.42,0v9.19h.25v-9.19Zm3.43,0v9.19h.24v-9.19Zm3.42,0v9.19h.25v-9.19Zm3.42,0v9.19h.25v-9.19Zm-37.27,9.19h.57v9.19h.62v9.19h-1.14v-9.19h0Zm3.42,0h1.15v9.19h.62v9.19H105v-9.19H105Zm9.14,0v9.19h.62v9.19h.57v-9.19h-.05v-9.19Zm4,0v9.19h.57v-9.19Zm4.85,0v9.19H123v9.19h.24v-9.19h0v-9.19Zm3.43,0v9.19h0v9.19h.25v-9.19h-.06v-9.19Zm3.42,0v9.19h.06v9.19h.24v-9.19H130v-9.19Zm3.43,0v9.19h.05v9.19h.25v-9.19h-.06v-9.19Zm3.42,0v9.19h.06v9.19h.24v-9.19h-.05v-9.19Zm3.43,0v9.19h.24v-9.19Zm-41.9,9.19h.57v9.19h-.57Zm21.4,0v9.19h.25v-9.19Zm-19.28,9.19h.57v9.19h-.57Zm3.42,0h1.14v9.19h-1.14Zm9.13,0v9.19h-1.2V424h-1.15v9.19h-1.64v9.19h1.49v9.19h1.14v-9.19h-.92v-9.19h1.64V424h1.15v-9.19H114v-9.19Zm4,0v9.19h.57v-9.19Zm4.85,0v9.19h.25v-9.19Zm3.43,0v9.19h.24v-9.19Zm3.42,0v9.19h.25v-9.19Zm3.43,0v9.19h.24v-9.19Zm3.42,0v9.19h.25v-9.19Zm3.42,0v9.19h.25v-9.19Zm-35.73,9.19h.57V424h-.57Zm12.56,0V424h1.14v-9.19Zm4,0V424h.57v-9.19Zm4.85,0V424h.25v-9.19Zm3.43,0V424h.25v-9.19Zm3.42,0V424h.25v-9.19Zm3.43,0V424H135v-9.19Zm3.42,0V424h.25v-9.19Zm3.43,0V424h.24v-9.19ZM101.92,424h.58v9.19h-.57Zm3.43,0h1.14v9.19h-1.14Zm9.13,0v9.19h1.14V424Zm4,0v9.19h.57V424Zm4.85,0v9.19h.25V424Zm3.42,0v9.19H127V424Zm3.43,0v9.19h.24V424Zm3.42,0v9.19h.25V424Zm3.43,0v9.19h.24V424Zm3.42,0v9.19h.25V424Zm-40.16,9.19h.57v9.19h-.57Zm12.55,0v9.19H114v-9.19Zm4,0v9.19h.57v-9.19Zm4.85,0v9.19h.25v-9.19Zm3.43,0v9.19h.24v-9.19Zm3.42,0v9.19h.25v-9.19Zm3.43,0v9.19h.24v-9.19Zm3.42,0v9.19h.25v-9.19Zm3.42,0v9.19h.25v-9.19Zm-24.47,9.19v9.19h.57v-9.19Zm4.85,0v9.19h.24v-9.19Zm3.42,0v9.19h.25v-9.19Zm3.43,0v9.19h.24v-9.19Zm3.42,0v9.19h.25v-9.19Zm3.43,0v9.19h.24v-9.19Zm3.42,0v9.19h.25v-9.19Zm-44.39,9.19a1,1,0,0,0-1,1h0v7.18a1,1,0,0,0,1,1H89a1,1,0,0,0-1,1h0V469a1,1,0,0,0,1,1h4.34a1,1,0,0,0-1,1h0v7.18a1,1,0,0,0,1,1h-2.5a1,1,0,0,0-1,1h0v7.18a1,1,0,0,0,1,1h9.43v-9.19h.57v9.19h2.85v-9.19h1.14v9.19h2.29v-9.19h-.92V470h-.91v-9.19h-.54v-9.19h-2.85v9.19H103V470h.34v9.19h-.57V470h-.91v-9.19h-.53v-9.19Zm14,0v9.19H107V470h.34v9.19h1.49v9.19h1.71v-9.19h-.92V470h-.91v-9.19h-.53v-9.19Zm4,0v9.19H111V470h.34v9.19h1.49v9.19H114v-9.19h-.92V470h-.91v-9.19h-.54v-9.19Zm4,0v9.19H115V470h.34v9.19h1.14V470h-.91v-9.19h-.53v-9.19Zm4,0v9.19h.57v-9.19Zm4.85,0v9.19H123v-9.19Zm3.43,0v9.19h.24v-9.19Zm3.42,0v9.19h.25v-9.19Zm3.42,0v9.19h.25v-9.19Zm3.43,0v9.19h.25v-9.19Zm3.42,0v9.19h.25v-9.19Zm-41.41,9.19H99V470h-.57Zm21.4,0V470h-.52v9.19h.58V470h.19v-9.19Zm3.43,0V470h.24v-9.19Zm3.42,0V470H127v-9.19Zm3.42,0V470h.25v-9.19Zm3.43,0V470h.25v-9.19Zm3.42,0V470h.25v-9.19ZM124.2,470v9.19h.24V470Zm3.42,0v9.19h.25V470Zm3.43,0v9.19h.24V470Zm3.42,0v9.19h.25V470Zm3.42,0v9.19h.25V470Zm3.43,0v9.19h.25V470Zm-24.48,9.19v9.19h.57v-9.19Zm4.85,0v9.19h.25v-9.19Zm3.43,0v9.19h.24v-9.19Zm3.42,0v9.19h.25v-9.19Zm3.43,0v9.19h.24v-9.19Zm3.42,0v9.19h.25v-9.19Zm3.42,0v9.19h.25v-9.19Z"/><path id="path8251" class="cls-11" d="M100.61,378.05v9.19h.25v-9.19Zm4,0v9.19h.24v-9.19Zm4,0v9.19h.25v-9.19Zm4,0v9.19h.24v-9.19Zm4,0v9.19h.25v-9.19Zm5.35,0v9.19h.57v-9.19Zm3.42,0v9.19h1.14v-9.19Zm3.43,0v9.19H130v9.19h.05v9.19h-1.3v9.19h-.63V424h1.14v-9.19h1.2v-9.19h1.71v9.19h-.63V424h-1.16v9.19h-1.63v9.19h.92v9.19h.14v9.19h.53V470h.91v9.19h.92v9.19h2.28v-9.19H133V470h-.34v-9.19h-1.1v-9.19H132v-9.19H130.5v-9.19h1.64V424h1.15v-9.19h1.2v-9.19h1.15v9.19H135V424h-1.16v9.19h-1.64v9.19h.92v9.19h.14v9.19h.54V470h.91v9.19h.92v9.19h2.85v-9.19h.57v9.19h9.43a1,1,0,0,0,1-1h0v-7.18a1,1,0,0,0-1-1H151a1,1,0,0,0,1-1h0V471a1,1,0,0,0-1-1h-4.34a1,1,0,0,0,1-1h0v-7.18a1,1,0,0,0-1-1h2.89a1,1,0,0,0,1-1h0v-7.18a1,1,0,0,0-1-1H146a1,1,0,0,0,1-1h0v-7.18a1,1,0,0,0-1-1h2.5a1,1,0,0,0,1-1h0V434.2a1,1,0,0,0-1-1h1.63a1,1,0,0,0,1-1h0V425a1,1,0,0,0-1-1h1.15a1,1,0,0,0,1-1h0v-7.18a1,1,0,0,0-1-1h-2.79a1,1,0,0,0,1-1h0v-7.18a1,1,0,0,0-1-1h-2.12a1,1,0,0,0,1-1h0v-7.18a1,1,0,0,0-1-1h3.37a1,1,0,0,0,1-1h0v-7.19a1,1,0,0,0-1-1h-1.25a1,1,0,0,0,1-1h0v-7.18a1,1,0,0,0-1-1h-9.43v9.19h-.57v-9.19h-2.85v9.19h-1.15v-9.19h-2.28v9.19h1.25v9.19h.06v9.19h-1.14v-9.19h-.63v-9.19H130.5v-9.19Zm-26.93,9.19v9.19h.25v-9.19Zm4,0v9.19h.25v-9.19Zm4,0v9.19h.25v-9.19Zm4,0v9.19h.25v-9.19Zm4,0v9.19h.24v-9.19Zm5.34,0v9.19h0v9.19h1.14v-9.19h-.62v-9.19Zm3.42,0v9.19h.06v9.19h1.71v-9.19h-.62v-9.19Zm9.14,0h1.14v9.19h.05v9.19h-.57v-9.19h-.62Zm4,0h.57v9.19h-.57Zm-41.25,9.19v9.19h.25v-9.19Zm4,0v9.19h.24v-9.19Zm4,0v9.19h.25v-9.19Zm4,0v9.19h.25v-9.19Zm4,0v9.19h.25v-9.19Zm5.35,0v9.19h.57v-9.19Zm-19.21,9.19v9.19h.25v-9.19Zm4,0v9.19h.24v-9.19Zm4,0v9.19h.25v-9.19Zm4,0v9.19h.24v-9.19Zm4,0v9.19h.25v-9.19Zm5.35,0v9.19h.57v-9.19Zm3.42,0v9.19h1.14v-9.19Zm13.13,0h.57v9.19h-.57Zm-35.08,9.19V424h.24v-9.19Zm4,0V424h.25v-9.19Zm4,0V424h.24v-9.19Zm4,0V424h.25v-9.19Zm4,0V424h.24v-9.19Zm5.34,0V424h.57v-9.19Zm12.56,0h1.14V424h-1.14Zm4,0h.57V424h-.57Zm-39,9.19v9.19h.25V424Zm4,0v9.19h.25V424Zm4,0v9.19h.25V424Zm4,0v9.19h.24V424Zm4,0v9.19h.25V424Zm5.35,0v9.19h.57V424Zm3.42,0v9.19h1.14V424Zm9.13,0h1.14v9.19h-1.14Zm4,0h.57v9.19h-.57Zm-39.52,9.19v9.19h.25v-9.19Zm4,0v9.19h.24v-9.19Zm4,0v9.19h.25v-9.19Zm4,0v9.19h.24v-9.19Zm4,0v9.19h.25v-9.19Zm5.35,0v9.19h.57v-9.19Zm3.42,0v9.19h.92v9.19h.14v9.19H127V470h.91v9.19h.92v9.19h1.71v-9.19H129V470h-.34v-9.19h-1.11v-9.19H128v-9.19H126.5v-9.19Zm9.13,0h1.15v9.19h-1.15Zm4,0h.57v9.19h-.57Zm-40.38,9.19v9.19h.24v-9.19Zm4,0v9.19h.25v-9.19Zm4,0v9.19h.24v-9.19Zm4,0v9.19h.25v-9.19Zm4,0v9.19h.25v-9.19Zm5.34,0v9.19H120v-9.19Zm3.43,0v9.19H123v9.19h.53V470h.91v9.19H125V470h-.34v-9.19h-1.1v-9.19H124v-9.19Zm13.13,0h.57v9.19h.14v9.19h.53V470h.91v9.19H137V470h-.34v-9.19h-1.11v-9.19H136Zm-34.32,9.19v9.19h.25v-9.19Zm4,0v9.19h.24v-9.19Zm4,0v9.19h.25v-9.19Zm4,0v9.19h.24v-9.19Zm4,0v9.19h.25v-9.19Zm21.9,0h.57v9.19h-.57Zm-40.77,9.19V470H99v-9.19Zm4,0V470H103v-9.19Zm4,0V470H107v-9.19Zm4,0V470H111v-9.19Zm4,0V470H115v-9.19Zm5.35,0V470h.57v-9.19Zm-17,9.19v9.19h.24V470Zm4,0v9.19h.25V470Zm4,0v9.19h.24V470Zm4,0v9.19h.25V470Zm4,0v9.19h.24V470Zm21.9,0h.57v9.19H141Zm-40.39,9.19v9.19h.25v-9.19Zm4,0v9.19h.24v-9.19Zm4,0v9.19h.25v-9.19Zm4,0v9.19h.24v-9.19Zm4,0v9.19h.25v-9.19Zm5.35,0v9.19h.57v-9.19Zm3.42,0v9.19h1.14v-9.19Z"/></g><g id="g16522"><path id="path16318" class="cls-9" d="M63,442.38a1,1,0,0,0-1,1h0v7.18a1,1,0,0,0,1,1H58.72a1,1,0,0,0-1,1h0v7.18a1,1,0,0,0,1,1h4.63a1,1,0,0,0-1,1h0V469a1,1,0,0,0,1,1H57.76a1,1,0,0,0-1,1h0v7.18a1,1,0,0,0,1,1h2.7a1,1,0,0,0-1,1h0v7.18a1,1,0,0,0,1,1h57.63a1,1,0,0,0,1-1h0v-7.18a1,1,0,0,0-1-1h-2.7a1,1,0,0,0,1-1h0V471a1,1,0,0,0-1-1H121a1,1,0,0,0,1-1h0v-7.18a1,1,0,0,0-1-1h-4.63a1,1,0,0,0,1-1h0v-7.18a1,1,0,0,0-1-1h4.23a1,1,0,0,0,1-1h0v-7.18a1,1,0,0,0-1-1H63Z"/><path id="path9656" class="cls-11" d="M72.71,442.38v9.19h-.25v9.19h.25v-9.19H73v-9.19Zm4,0v9.19h-.24v9.19h.25v-9.19H77v-9.19Zm4,0v9.19h-.25v9.19h.25v-9.19h.24v-9.19Zm4,0v9.19h-.24v9.19h.25v-9.19h.24v-9.19Zm4,0v9.19h.25v-9.19Zm5.34,0v9.19h-.81v9.19h1.14v-9.19h.24v-9.19Zm3.43,0v9.19h-.82v9.19h1.2V470H99v-9.19h-.62v-9.19h.24v-9.19Zm3.42,0v9.19h-.81v9.19h1.2V470H99.11v9.19h-.73v9.19h1.71v-9.19h1.3V470h1.14v9.19h-.73v9.19h2.29v-9.19h1.14v9.19h2.85v-9.19h.57v9.19h9.43a1,1,0,0,0,1-1h0v-7.18a1,1,0,0,0-1-1h-2.7a1,1,0,0,0,1-1h0V471a1,1,0,0,0-1-1H121a1,1,0,0,0,1-1h0v-7.18a1,1,0,0,0-1-1h-4.63a1,1,0,0,0,1-1h0v-7.18a1,1,0,0,0-1-1h4.23a1,1,0,0,0,1-1h0v-7.18a1,1,0,0,0-1-1h-9.43v9.19h-.57v-9.19h-2.86v9.19h-.81v9.19h-.57v-9.19h.24v-9.19h-2.28v9.19h-.82v9.19h1.2V470H103v-9.19h-.63v-9.19h.24v-9.19Zm-32.41,9.19v9.19h.24v-9.19Zm21.32,0v9.19h.58v-9.19Zm-16.7,9.19V470h.25v-9.19Zm4,0V470h.24v-9.19Zm4,0V470h.25v-9.19Zm4,0V470h.25v-9.19Zm4,0V470h-.24v9.19h.57V470h-.08v-9.19Zm5.35,0V470H95v-9.19Zm12.56,0h1.14V470H107Zm4,0h.57V470H111ZM67.5,470v9.19h.25V470Zm4,0v9.19h.25V470Zm4,0v9.19h.24V470Zm4,0v9.19h.25V470Zm4,0v9.19h.24V470Zm8.77,0v9.19H93.4V470Zm3.42,0v9.19H95v9.19h1.14v-9.19h1.3V470Zm9.7,0H106v9.19h-.57ZM70.2,479.14v9.19h.25v-9.19Zm4,0v9.19h.24v-9.19Zm4,0v9.19h.25v-9.19Zm4,0v9.19h.25v-9.19Zm4,0v9.19h.25v-9.19Zm5.35,0v9.19h.57v-9.19Z"/><path id="path9654" class="cls-10" d="M63,442.38a1,1,0,0,0-1,1h0v7.18a1,1,0,0,0,1,1h9.43v-9.19Zm10,0v9.19h2.86v-9.19Zm4,0v9.19h2.28v-9.19Zm4,0v9.19h1.72v-9.19Zm4,0v9.19h1.14v-9.19Zm4,0v9.19h.57v-9.19Zm4.85,0v9.19H94v-9.19Zm3.42,0v9.19h.25v-9.19Zm3.43,0v9.19h.24v-9.19Zm3.42,0v9.19h.25v-9.19Zm3.43,0v9.19h.24v-9.19Zm3.42,0v9.19h.25v-9.19Zm-52.19,9.19a1,1,0,0,0-1,1h0v7.18a1,1,0,0,0,1,1h4.63a1,1,0,0,0-1,1h0V469a1,1,0,0,0,1,1H57.76a1,1,0,0,0-1,1h0v7.18a1,1,0,0,0,1,1h2.7a1,1,0,0,0-1,1h0v7.18a1,1,0,0,0,1,1h9.43v-9.19h.57v9.19H73.3v-9.19H74V470h1.71v9.19h-1.3v9.19h2.29v-9.19h.72V470h2.17v-9.19h-1.2v-9.19H76.71v9.19h.62V470H76.19v-9.19H75v-9.19H72.71v9.19H71.57v-9.19H68.71v9.19h-.57v-9.19Zm22,0v9.19h.63V470H83v-9.19h-1.2v-9.19Zm4,0v9.19h.57v-9.19Zm4.85,0v9.19h-.23V470h.57v-9.19h-.1v-9.19Zm3.42,0v9.19h.25v-9.19Zm3.43,0v9.19h.24v-9.19Zm3.42,0v9.19h.25v-9.19Zm3.43,0v9.19h.24v-9.19Zm3.42,0v9.19h.25v-9.19Zm-33.9,9.19h.57V470h-.57Zm12.56,0V470h1.14v-9.19Zm8.84,0V470h.25v-9.19Zm3.43,0V470h.24v-9.19Zm3.42,0V470h.25v-9.19Zm3.43,0V470h.24v-9.19Zm3.42,0V470h.25v-9.19Zm3.42,0V470h.25v-9.19ZM67.18,470h.57v9.19h-.57Zm3.43,0h1.14v9.19H70.61Zm9.13,0v9.19h-1.3v9.19h1.71v-9.19h.73V470Zm4,0v9.19h.57V470Zm4.85,0v9.19h.25V470ZM92,470v9.19h.25V470Zm3.42,0v9.19h.25V470Zm3.43,0v9.19h.25V470Zm3.42,0v9.19h.25V470Zm3.43,0v9.19H106V470Zm-23.27,9.19v9.19h1.14v-9.19Zm4,0v9.19H87v-9.19Zm4.85,0v9.19h.25v-9.19Zm3.43,0v9.19H95v-9.19Zm3.42,0v9.19h.25v-9.19Zm3.43,0v9.19h.24v-9.19Zm3.42,0v9.19h.25v-9.19Zm3.42,0v9.19h.25v-9.19Z"/></g><g id="g150577"><path id="path138956" class="cls-12" d="M130.09,432.12v55.59h-5.48a24,24,0,0,1-17.79-8.14,29.89,29.89,0,0,1,0-39.31,24,24,0,0,1,17.79-8.14Z"/><path id="path139017" class="cls-13" d="M100.56,451.78c0-.18.1-.37.16-.55H130.1v.55Zm1.12-3.28c.15-.36.31-.73.47-1.09H130.1v1.09Zm1.58-3.27c.32-.56.65-1.1,1-1.64H130.1v1.64Zm2.16-3.27c.45-.58.91-1.14,1.4-1.68l.47-.51H130.1V442Zm3-3.28a24.77,24.77,0,0,1,3.49-2.72H130.1v2.72Zm4.37-3.27a23.29,23.29,0,0,1,11.85-3.27h5.48v3.27Z"/><path id="path138960" class="cls-9" d="M130.1,432.14a27.79,27.79,0,1,0,27.79,27.79h0A27.79,27.79,0,0,0,130.1,432.14Z"/><path id="path138958" class="cls-14" d="M100.56,468.08c0,.18.1.37.16.55h3c-.07-.18-.13-.37-.19-.55Zm1.12,3.27c.15.37.31.74.47,1.1h3.15c-.18-.36-.35-.73-.52-1.1Zm1.58,3.28c.32.56.65,1.1,1,1.64h3.38c-.39-.54-.76-1.08-1.11-1.64Zm2.16,3.27c.45.58.91,1.14,1.4,1.68l.47.51H111a26.67,26.67,0,0,1-2.06-2.19Zm3,3.28a24.77,24.77,0,0,0,3.49,2.72h4.16a27.19,27.19,0,0,1-3.84-2.72Zm4.37,3.27a23.29,23.29,0,0,0,11.85,3.27h5.48a27.78,27.78,0,0,1-13-3.27Z"/><path id="path138962" class="cls-15" d="M130.1,438a22,22,0,0,0-22,22h0a22,22,0,0,0,22,22h0a22,22,0,0,0,22-22h0a22,22,0,0,0-22-22Z"/><path id="path138964" class="cls-16" d="M130.1,438c-.53,0-1.06,0-1.6.06,12.29.84,21.79,10.4,21.79,21.92S140.78,481,128.5,481.85c.53,0,1.06.06,1.6.06a22,22,0,0,0,22-22h0a22,22,0,0,0-22-22Z"/><path id="path138968" class="cls-17" d="M133.25,449.54a3.49,3.49,0,0,1,.76,2.7l1,.66c0-1.71-.37-2.41-1-2.94A3.33,3.33,0,0,0,133.25,449.54Zm-7.37,5.67a5.65,5.65,0,0,0,.51.39,14.62,14.62,0,0,0,4.33,1.73,19.9,19.9,0,0,1,5.69,1.77l0,0a7.42,7.42,0,0,0-1-.69,19.87,19.87,0,0,0-5.7-1.77,15.78,15.78,0,0,1-3.87-1.45Zm8,8a2.92,2.92,0,0,1,.89,2c.11,2-.32,3.1-1.05,3.78s-2.17,1.26-4.74,1.23a8.76,8.76,0,0,1-3.52-.67l.07.07c.68.66,2,1.2,4.42,1.27,2.57,0,4-.53,4.74-1.23s1.15-1.74,1-3.79a2.93,2.93,0,0,0-1.73-2.58l-.12-.06Zm-7.27,12.09V477l1,.66v-2.2C127.25,475.42,126.93,475.36,126.61,475.28Z"/><path id="path138970" class="cls-18" d="M126.61,441.52v2.18l1,.67v-2.18Zm5.77,2.34v.49a9.93,9.93,0,0,1,3.6,1.19,8.64,8.64,0,0,0-3.6-1.68Zm-13.7,21c-.09,3,.63,5.7,2.53,7.54a7.88,7.88,0,0,0,1.47,1.11l-.5-.44c-1.9-1.84-2.62-4.55-2.53-7.54Z"/><path id="path138972" class="cls-19" d="M126.61,441.52l1,.67h4.81l-1-.67Zm0,2.18a9.32,9.32,0,0,0-4.62,1.94,8,8,0,0,0-2.71,6.19,8.43,8.43,0,0,0,3.42,7.06c.17.12.34.22.5.32a8.6,8.6,0,0,1-3-6.72,8,8,0,0,1,2.71-6.18,9.2,9.2,0,0,1,4.61-1.94Zm-7.93,21.12,1,.67,4.8.13-1-.66Z"/><path id="path138976" class="cls-20" d="M108.23,438.85l-.31.3Zm3.43.36a28,28,0,0,0-6.34,8.26l5.13,2.69a22,22,0,0,1,6.82-8Zm-7.48,4.51L104,444Zm36.36,22.22c0-.15,0-.3,0-.45v-.11a8.31,8.31,0,0,0-4.06-6.26,10,10,0,0,0-1-.69,19.87,19.87,0,0,0-5.7-1.77,16.13,16.13,0,0,1-3.86-1.44c-.56-.49-.83-1.1-.83-2.73a2.83,2.83,0,0,1,1-2.48,6.18,6.18,0,0,1,4.06-1h.27l-7.55-4a5.86,5.86,0,0,0-.82.59,8,8,0,0,0-2.71,6.18,9.54,9.54,0,0,0,.56,3.25m-15.56-5.38c-.28.73-.53,1.48-.75,2.23l5.27,2.77a19.85,19.85,0,0,1,.7-2.27Zm29.63,1.18a6.56,6.56,0,0,1,.1,1.36l1,.66,2.9.05Zm18.14,9.51a22,22,0,0,1-2.76,10.14l5.2,2.72a27.77,27.77,0,0,0,3.19-9.91Zm-17.27,5.3a5.31,5.31,0,0,1-.43,2.4l5.27,2.77a9.88,9.88,0,0,0,.73-2.25ZM148,472.62c-.45.65-.93,1.27-1.44,1.87l5.27,2.77c.49-.62,1-1.25,1.39-1.91Z"/><path id="path138974" class="cls-21" d="M110.65,440.41a28.69,28.69,0,0,1,12.75-7.31,25,25,0,0,1,6.7-1,23.58,23.58,0,0,0-6.76.73,27.56,27.56,0,0,0-13,7.2l0,0a28,28,0,0,0,0,39.61l0,0a27.59,27.59,0,0,0,13,7.24,23.63,23.63,0,0,0,6.77.73,25.09,25.09,0,0,1-6.71-1,28.79,28.79,0,0,1-12.78-7.35l0,0a27.57,27.57,0,0,1,0-38.94l0,0Z"/></g><circle class="cls-15" cx="130.05" cy="460.26" r="18.72"/><path class="cls-22" d="M135.4,475.91h-2.7c-.47,0-.94,0-1.41,0a.46.46,0,0,1-.44-.22l-4.86-6.1c-1.46-1.83-2.91-3.66-4.38-5.48a1,1,0,0,1-.23-.67c0-.58,0-1.16,0-1.74,0-.27.09-.31.32-.3a22.75,22.75,0,0,0,3.69-.08,6.27,6.27,0,0,0,3.23-1.19,4.26,4.26,0,0,0,1.74-3c0-.39,0-.39-.35-.39h-9.13c-.09,0-.21.05-.26,0s0-.17.1-.24c.42-.68.86-1.34,1.27-2a.48.48,0,0,1,.48-.25h7.32c.19,0,.21-.05.13-.21a4,4,0,0,0-1.75-1.69,7.86,7.86,0,0,0-3.2-.71c-1.35-.07-2.7,0-4,0h-.31c0-.14.07-.21.13-.29.42-.66.86-1.32,1.28-2a.41.41,0,0,1,.39-.2h16c.08,0,.19,0,.23,0s-.06.16-.1.22c-.41.66-.82,1.3-1.22,2a.4.4,0,0,1-.39.21h-4.13c-.06.11,0,.16.06.21a5.32,5.32,0,0,1,1,2.2.31.31,0,0,0,.36.28h4.14c.12,0,.31-.06.36.05s-.1.23-.17.33c-.41.65-.84,1.29-1.24,2a.48.48,0,0,1-.46.24c-.87,0-1.75,0-2.62,0-.16,0-.25,0-.29.22a7.24,7.24,0,0,1-4.33,5.42,11.77,11.77,0,0,1-3.91,1c-.09,0-.21,0-.25.06s.08.16.13.23l6.65,8.28,3,3.69A.67.67,0,0,1,135.4,475.91Z"/><g id="Character"><g id="Character-2" data-name="Character"><g id="Bottom"><g id="Bottom-2" data-name="Bottom"><polygon class="cls-23" points="395.93 469.23 392.27 467.54 395.88 466.59 395.93 469.23"/><path class="cls-24" d="M359.64,475.62s43.17-18.39,43.71-15.65a3.76,3.76,0,0,1,0,1.64l.11-.15-.79,5.11a13.28,13.28,0,0,1-6.72,2.66c0-.25,0-1.77-.05-2.64a22.53,22.53,0,0,0-3.81,1.91c-2.76,1.72-4.54,4.74-7.48,8.24-2.14,2.56-6,3.75-11.61,4.51-6.09.83-11.45-.26-13-1.8C358.82,478.23,359.42,476,359.64,475.62Z"/><path class="cls-25" d="M360.83,474.67c.42-.41,2-2,4-3.75,1.82-1.52,3.95-3.45,6.23-5a24,24,0,0,0,3.09-2.41,30.18,30.18,0,0,0,2.15-2.38,43.43,43.43,0,0,0,5.21-8.32c.68-1.38,1.91-4.44,1.56-10.1-.53-8.58-1.28-11.67-1.31-17.25l20.59,2.62c-.6,3.09-1.24,10-1.56,13.5-.48,5.34-1.31,5.85.9,11.18.66,1.56,1.63,3.07,1.71,4.75.14,2.73-2.14,5.1-4.69,6.44-2.12,1.11-4.55,1.59-6.61,2.77a20.88,20.88,0,0,0-5.37,5c-1.45,1.75-2.62,3.82-4.66,5.05a19.6,19.6,0,0,1-7,2.3,40,40,0,0,1-9.45.46C361.15,479.18,357.81,477.65,360.83,474.67Z"/><path class="cls-24" d="M377.68,466.28a8.61,8.61,0,0,0-6.69-.56c-3.19,2.38-5.82,4.49-7.68,6-2.26,1.79-4.24,3.43-4.16,5.47.13,3.21,13.4,4.16,20.81,1.1a9,9,0,0,0,5.23-4.31S384.1,469.45,377.68,466.28Zm25.21-11.57c-1.13-2.06-1.57-3.11-1.57-3.11-2.57,1.32-7.05,7.38-5,13.46a9.88,9.88,0,0,0,6.49-4.16A5.51,5.51,0,0,0,402.89,454.71Z"/><path class="cls-24" d="M427.9,465.87c-.15,2.08.07,8.29-.39,12.93-.41,4.22-1.67,10.78-.63,15.78s5.82,10.69,12.82,6.33c4.34-2.71,6.17-6.11,7-12.17.56-4.22-1.21-10.15-2.73-15.41-1.76-6.14-2.4-9.41-2.4-9.41Z"/><path class="cls-25" d="M443.06,435.23c0,5.72-.73,15.16-1,21.48a53.73,53.73,0,0,0,.54,10.2c.83,4.07,1.74,9.71,2.34,12.35.83,3.69,1.48,6-.15,10.05a4.31,4.31,0,0,1-.51.91c-2.2,3.29-7.55,5.63-9.22,5.15a3.17,3.17,0,0,1-3,.77,5.54,5.54,0,0,1-.55-.14,4.33,4.33,0,0,1-.56-.22,5.12,5.12,0,0,1-2.68-3.21,5.91,5.91,0,0,1-.24-.9,29.76,29.76,0,0,1-.32-10c.15-2.42.24-5.87.13-9.58s-3.7-23.16-5.1-34.82Z"/><path class="cls-24" d="M445.75,484.05c-4.09-1.72-16.5-2.22-18.6,2.68-.22,4.7,0,7.68,3.36,11.91,4.42,5.61,10.67.1,13.11-3.46S446.22,486.6,445.75,484.05Z"/><path class="cls-26" d="M429.22,294.85c5.68,8.76,10.88,18.06,11.53,38.1.85,26.4-2,49.86-1.75,53.08s1.69,8.43,4.18,24.21-.35,46.4-.35,46.4-1.84,3.63-8.3,4.44c-6,.75-8.81-1.82-8.81-1.82s-10.17-42.18-12.88-51.64-6.77-43.29-6.77-43.29l-1,18s2.23,8.67,1.05,22.65-5.45,41-5.45,41-2.66,2.72-9,2.59c-5.81-.12-8.79-3.08-8.79-3.08s-6.47-53-7.2-68.8-.92-55.13,3.31-78.68Z"/><path class="cls-23" d="M383.21,320.43c1,6.4,11.64,12.88,15.75,13.62l5.59,29.69.5,18.55,1-18-3.91-32.82S389,328.66,383.21,320.43Zm40.25,82.2c-1.39-8.21-2.89-26.85-3.8-35.14s-1.74-16.61-2.73-24.91c.3,8.34.7,16.68,1.34,25s2.05,27,3.41,35.29,3,16.47,4.57,24.69,3.26,16.42,5.06,24.6q-1.67-12.42-3.68-24.81C426.32,419.11,424.89,410.84,423.46,402.63Zm-40-46,.45-21.79c-.87,7.23-1.47,14.49-1.85,21.75s-.7,14.52-.38,21.87c.6,7.3,1.52,14.49,2.49,21.71s2.08,14.41,3.32,21.59q-.82-10.89-1.92-21.73l-1.09-10.85c-.36-3.61-.76-7.24-1-10.82s-.16-7.22-.15-10.84S383.37,360.24,383.42,356.61Z"/></g></g></g><g id="Top"><g id="Arm"><g id="Arm-2" data-name="Arm"><path class="cls-25" d="M394.57,240.2c-5,.58-8.76.44-13.38,6.42s-10.2,13.66-17.33,23.06l-16.26-9.07L340,271.85s17.26,12.93,23.79,15.67c4.88,2.05,6.22-.06,10.19-3.66,4.43-4,17.53-17.16,17.53-17.16Z"/><path class="cls-27" d="M395.11,239.84c-6.05.43-9.34,1.67-11.35,3.41s-20.17,26-20.17,26l-3.08-1.48s2.36,2.89.07,9.39-5.25,5.43-5.25,5.43a77.31,77.31,0,0,0,8.71,5.45c3.2,1.49,5,.66,8.65-2.47s19.47-18.79,19.47-18.79Z"/><path class="cls-28" d="M395.11,239.84c-6.05.43-9.34,1.67-11.35,3.41s-20.17,26-20.17,26l-3.08-1.48s2.36,2.89.07,9.39-5.25,5.43-5.25,5.43a77.31,77.31,0,0,0,8.71,5.45c3.2,1.49,5,.66,8.65-2.47s19.47-18.79,19.47-18.79Z"/><path class="cls-29" d="M363.59,269.29c2.77,1.17,5.88,4.48,6.28,6.14-.54-4.58-4.08-6.57-5.39-7.33Z"/></g><g id="Tablet"><path class="cls-30" d="M329.34,239.23h0l1.56-.89v0a1.54,1.54,0,0,1,1.41.11l13.63,6.74a5.4,5.4,0,0,1,2.66,3.66l4.57,32a1.39,1.39,0,0,1-.49,1.5h0l-1.6.92v0a1.52,1.52,0,0,1-1.42-.1L336,276.47a5.4,5.4,0,0,1-2.66-3.66c-.9-6.3-3.68-25.75-4.57-32C328.66,240,328.89,239.45,329.34,239.23Z"/><path class="cls-23" d="M345.75,247.24a5.25,5.25,0,0,1,1.25,2.53l4.58,32a1.48,1.48,0,0,1-.44,1.48l1.51-.86v0a1.39,1.39,0,0,0,.49-1.49l-4.57-32a5.27,5.27,0,0,0-1.14-2.39Z"/><path class="cls-26" d="M351.57,281.8l-4.57-32a5.4,5.4,0,0,0-2.66-3.66l-13.64-6.74c-1.26-.62-2.13,0-1.93,1.41.89,6.29,3.67,25.74,4.57,32a5.4,5.4,0,0,0,2.66,3.66l13.63,6.74C350.9,283.83,351.77,283.2,351.57,281.8Z"/><path class="cls-30" d="M345.76,256.06l-.86-6a1,1,0,0,0-.5-.69l-2.56-1.26c-.24-.11-.4,0-.36.26.16,1.18.68,4.82.85,6a1,1,0,0,0,.5.69l2.56,1.26C345.63,256.44,345.79,256.32,345.76,256.06Z"/><path class="cls-23" d="M344.51,251.38a2.58,2.58,0,0,0-1.28-1.7c-.61-.31-1,0-1,.6a2.62,2.62,0,0,0,1.28,1.71C344.17,252.29,344.6,252,344.51,251.38Z"/><path class="cls-23" d="M344.9,254.4a2.58,2.58,0,0,0-1.27-1.71c-.62-.3-1,0-.95.61A2.52,2.52,0,0,0,344,255C344.57,255.31,345,255,344.9,254.4Z"/><path class="cls-25" d="M329.66,262c-.92-1.69-.79-1.89-.09-2.6a4.91,4.91,0,0,1,4.22-1.55,10.21,10.21,0,0,1,3.4.8c.66.45-.12,1.86-1.95,2-2.87.28-2.95,1-2.95,1a36.09,36.09,0,0,1,3.69-.18,26.72,26.72,0,0,1,4,1.12c1.16.34,1.2,1.89-.86,2.17l2.12.61c1.48.43,1.9,1.3.59,2.09a2.23,2.23,0,0,1-1.43.34s1.61.2,1.58.74c-.09,1.55-1.14,1.83-4.52,2.38-3.22.51-4.06,2.11-3.59,3.34,0,0-1.16-.88-2.18-1.79-.75-.67-1.36-1.39-.84-2.62,0,0-1.78-.18-1.75-1.29a5.75,5.75,0,0,1,.72-2.3,2,2,0,0,1-.76-1.95,3.19,3.19,0,0,1,.89-1.85Z"/><path class="cls-31" d="M339.15,264.87a10.17,10.17,0,0,0-1.94-.46,6.69,6.69,0,0,0-2,.37,22.54,22.54,0,0,0-3.65,1.41,23.13,23.13,0,0,0,3.81-.86,11.1,11.1,0,0,1,1.82-.47C337.81,264.84,338.5,264.91,339.15,264.87Z"/><path class="cls-31" d="M340.43,267.91a4.36,4.36,0,0,0-2.12-.32,11.28,11.28,0,0,0-2.1.39,20.14,20.14,0,0,0-3.95,1.52,40.07,40.07,0,0,0,4.1-1A11.29,11.29,0,0,1,340.43,267.91Z"/></g></g><path class="cls-32" d="M437.23,310.25c-3.52-11.86-5.81-18.73-5.77-22.45,0,0,4.16-18.53,4.82-22.91,1.74-11.4-.09-16.86-2.34-18.17a83.74,83.74,0,0,0-8.42-3.16C417.69,241,406.34,240.21,399,240c-2.77,0-3.63.08-3.63.08A69,69,0,0,0,385,248.76c-6.15,6.56-8.18,11.07-7.53,18.11a16.85,16.85,0,0,0,3.54,8.4c.31,3.41.65,13,.65,13-.25,3.77,0,3.69-2.27,12.7C384.64,319.16,424.69,319.71,437.23,310.25Z"/><g id="Head"><path d="M424.13,194.27A10,10,0,0,1,435.05,197c2.62,3.07,3.08,7.38,3.35,11.41.24,3.45.64,7,.56,10.45-.06,3,1.93,4.79,4,6.86,1.81,1.79,3.58,4.1,3.18,6.61-.26,1.67-1.47,3.16-1.34,4.83a6.72,6.72,0,0,0,1.82,3.49c1.46,1.84,2.87,4,2.62,6.36-.28,2.59-2.52,4.54-4.87,5.65-6,2.83-13,1.3-18.34-2.14s-8-10.14-8.11-16.25a52.28,52.28,0,0,1,1.63-12.09,83.91,83.91,0,0,1,2.2-8.7c.59-1.81,1.31-3.57,1.81-5.4a23.6,23.6,0,0,0,.21-11.51"/><path class="cls-7" d="M427.33,194.74a11.58,11.58,0,0,1,3.59,6.35,3.26,3.26,0,0,1-.09,2,2.42,2.42,0,0,1-2.58,1.21,4.81,4.81,0,0,1-2.59-1.53,10,10,0,0,1-2.77-5.81c-.12-1,0-2.6,1-3.17S426.5,194,427.33,194.74Z"/><path d="M390.22,211.14c-4.74-5.9-2.46-14.6.38-17.49,5.69-5.81,10.88-5.77,19.7-5.12C417,189,425,193,426.14,199.94c6.18,3.22,3.88,11.83,2.18,15.44-3.57,7.59-8.59,13.5-8.73,17.56Z"/><path class="cls-25" d="M394.14,197.58c-1.56,1.12-4.18,4.32-4.05,10.35.12,1.82-.55,4-.69,7.45-.54,12.86,2.92,15.69,6.33,17.35,2,1,3.17,1.19,6.48,1.29l-.25,6s-5.12,3.73-2.12,14.15c16.05-9.93,20.54-14.32,20.55-14.35l.79-16.37c.08.07,2,1.88,5.3.27,3.58-1.75,5.19-7.61,3-10.42s-6.31-1.76-7.59.74c-2.17,4.23-4.35,2-3.46.11-2-1.06-2.6-3.08-2.5-5.25s.37-4-.16-6.15A7.37,7.37,0,0,0,412,198a9.85,9.85,0,0,0-8.26,0,2.8,2.8,0,0,1-1.6.39,3.45,3.45,0,0,1-1.37-.89C398.74,195.78,396.14,196.14,394.14,197.58Z"/><path class="cls-31" d="M405.94,222l-6,1.85a3,3,0,0,0,3.83,2.15A3.31,3.31,0,0,0,405.94,222Z"/><path class="cls-33" d="M402.36,226.07a2.83,2.83,0,0,1,2.93-2.68,2.62,2.62,0,0,1,.68.12,3.3,3.3,0,0,1-2.23,2.48A3,3,0,0,1,402.36,226.07Z"/><polygon class="cls-31" points="401.74 208.69 400.46 220.14 394.84 217.19 401.74 208.69"/><path class="cls-31" d="M402.21,234c4.14-.06,13.05-2,15.42-7.34,0,0-.48,3.89-5.67,6.71-4.09,2.22-9.81,2.48-9.81,2.48Z"/><path class="cls-23" d="M406.27,212.5a1.83,1.83,0,1,0,1.73-1.91A1.83,1.83,0,0,0,406.27,212.5Z"/><path class="cls-23" d="M392.67,211.48a1.83,1.83,0,0,0,3.59-.68,1.83,1.83,0,1,0-3.59.68Z"/><path class="cls-23" d="M393.65,204.36a2.61,2.61,0,0,1,3.07,2.06l-5.13,1A2.61,2.61,0,0,1,393.65,204.36Z"/><path class="cls-23" d="M410.73,206a2.62,2.62,0,0,1,1.24,3.49l-4.72-2.25A2.62,2.62,0,0,1,410.73,206Z"/></g><path class="cls-27" d="M419.2,238.9a41.7,41.7,0,0,1-2.09,7.3c-1.8,5-2.55,9.1-3.32,20s.53,47.79.74,68.38c8.13.34,20.78-2.16,27.11-8.46-.07-4.32-1.75-9.95-4.19-21.12s-5.43-12.17-4.56-18.07,6.16-29.45,1.86-41.66a48.56,48.56,0,0,1-7-1.71C420.09,241.38,419.2,238.9,419.2,238.9Z"/><path class="cls-6" d="M419.2,238.9a41.7,41.7,0,0,1-2.09,7.3c-1.8,5-2.55,9.1-3.32,20s.53,47.79.74,68.38c8.13.34,20.78-2.16,27.11-8.46-.07-4.32-1.75-9.95-4.19-21.12s-5.43-12.17-4.56-18.07,6.16-29.45,1.86-41.66a48.56,48.56,0,0,1-7-1.71C420.09,241.38,419.2,238.9,419.2,238.9Z"/><path class="cls-27" d="M401.91,237.59l-.33,1.09c-.13,3.14-6.8,7.85-11.62,15s-5.85,14.38-5.94,23.83a130.33,130.33,0,0,1-2,19.92c-2.53,12.18-5.34,24.19-6.09,31,0,0,.15-10.85.85-17.2.79-7.16,3.11-16,3.4-23,.23-5.59.24-11.58.24-11.58a19.54,19.54,0,0,1-2.83-17.31c3-10.18,17.56-19.6,17.56-19.6a27,27,0,0,1,2.79-.56A15.3,15.3,0,0,0,401.91,237.59Z"/><path class="cls-6" d="M401.91,237.59l-.33,1.09c-.13,3.14-6.8,7.85-11.62,15s-5.85,14.38-5.94,23.83a130.33,130.33,0,0,1-2,19.92c-2.53,12.18-5.34,24.19-6.09,31,0,0,.15-10.85.85-17.2.79-7.16,3.11-16,3.4-23,.23-5.59.24-11.58.24-11.58a19.54,19.54,0,0,1-2.83-17.31c3-10.18,17.56-19.6,17.56-19.6a27,27,0,0,1,2.79-.56A15.3,15.3,0,0,0,401.91,237.59Z"/><path class="cls-28" d="M420.57,234.56a15.69,15.69,0,0,0,4.66,8.2s-2.54,9.84-2.37,14.74,1,9.65-.38,9.56a35.07,35.07,0,0,1-5.35-1.5s3.05,4.89,2.67,6.37-6.11,18-6.11,18-1.3-19.46-.74-25.13,2-16,4.3-21.93C418.84,238.74,420.57,234.56,420.57,234.56Z"/><path class="cls-28" d="M383.52,286c-.06-5.46-2.34-19.25-2.59-22s3.72-5.07,3.72-5.07-2.36.5-3.1-.13,4.24-7.25,8.44-11.57,12.14-10.83,12.14-10.83L402,240a50.58,50.58,0,0,0-6.17,7.46C392.05,253.08,385.24,259.1,383.52,286Z"/><g id="Arm-3" data-name="Arm"><path class="cls-31" d="M409.59,266.71c-2.77-2.62-4.2-3.68-5.57-4.25s-6.1-3.21-7.94-3.91c-1.18-.44-1.89,1.42-.51,2.92,1.07,1.16,4,2.86,5.26,3.75s3.53,4.44,3.53,4.44Z"/><path class="cls-25" d="M448.6,257.09c-2.35-7.63-6.46-10.49-13.7-11.59-5,10.23-2.1,26.87-2.1,26.87l3.73,12.15s-14.47-5.45-16.37-7a98.9,98.9,0,0,1-8.22-8.71c-2.23-2.71-3.52-2.53-4.82-2.49-4.26.14-5.22.38-6.17.84a1.91,1.91,0,0,0-1,1.54c-1.13,0-2.79-.23-3.22,1.58a4.92,4.92,0,0,0-.23,1.45,1.28,1.28,0,0,0-.78.33c-1,1,.11,4.86,1,5.89a3.69,3.69,0,0,0,3,.89c1.14,0,.75-1.23.75-1.23l1.57.28c3.12,2.82,2.73,7.63,7.11,9.22a30.1,30.1,0,0,1,5.38,1.71c9.31,4.39,21.27,16.89,32,18.09,8.47,1,9.72-3,10-8.17C456.75,293.34,450.7,263.89,448.6,257.09Z"/><path class="cls-27" d="M434.76,245.28c4.08.88,7.81,1.32,10.76,4.84s3.65,6.62,5.48,14.89,3.6,16.73,4.95,25,1.33,13.32-1.39,15.85-7.65,1.9-10.17,1.33a39.52,39.52,0,0,1-7.07-3.05s2.56-3.24,1.83-10.23-4.26-10-4.26-10l1.42.48s-2.79-8.07-4.73-13.65S431,249.89,434.76,245.28Z"/><path class="cls-28" d="M434.76,245.28c4.08.88,7.81,1.32,10.76,4.84s3.65,6.62,5.48,14.89,3.6,16.73,4.95,25,1.33,13.32-1.39,15.85-7.65,1.9-10.17,1.33a39.52,39.52,0,0,1-7.07-3.05s2.56-3.24,1.83-10.23-4.26-10-4.26-10l1.42.48s-2.79-8.07-4.73-13.65S431,249.89,434.76,245.28Z"/><path class="cls-29" d="M435.51,282.05l.8,2.32c5,1.43,10,3,11.27,4.9C446.29,286.1,442.5,283.77,435.51,282.05Z"/><path class="cls-31" d="M399.94,268.69l5.09-.43-4.9-.25A1.88,1.88,0,0,0,399.94,268.69Z"/><path class="cls-31" d="M396.49,271.72l5.81-.07-5.74-.59A2.78,2.78,0,0,0,396.49,271.72Z"/><path class="cls-31" d="M401,276.82a2.21,2.21,0,0,1-.58-1.18,19.23,19.23,0,0,1-2-.37,5.92,5.92,0,0,1-.73-.31,2,2,0,0,1-.77-.63,1.74,1.74,0,0,0,.69.76,3.12,3.12,0,0,0,.82.4l.25.75a1.11,1.11,0,0,0-.62.16,1.46,1.46,0,0,0-.59.69,1.81,1.81,0,0,1,.65-.56,1.14,1.14,0,0,1,.79,0,2.45,2.45,0,0,1,1.51,1.12l1.57.28A11.81,11.81,0,0,1,401,276.82Z"/></g></g></g></g></g></g></svg>