<svg xmlns="http://www.w3.org/2000/svg" viewBox="0 0 779.01 556.51"><defs><style>.cls-1{isolation:isolate;}.cls-2{fill:#001e50;}.cls-3,.cls-6{fill:#fff;}.cls-4{fill:#e5edfd;}.cls-5{fill:#7699d9;}.cls-6{opacity:0.2;mix-blend-mode:screen;}.cls-7{opacity:0.37;}.cls-8{fill:#3b3348;}.cls-9{fill:#c8d7fa;}.cls-10{fill:#3c251d;}.cls-11{fill:#5d87c7;}.cls-12{fill:#eaad38;}.cls-13{fill:#ca4068;}.cls-14{fill:#d3d165;}.cls-15{fill:#02336d;}.cls-16{font-size:30px;fill:#02275e;font-family:Poppins-Medium, Poppins;font-weight:500;}</style></defs><g class="cls-1"><g id="Layer_2" data-name="Layer 2"><g id="Layer_2-2" data-name="Layer 2"><rect class="cls-2" x="136.65" width="418.44" height="545.96" rx="9.06"/><rect class="cls-3" x="144.89" y="7.84" width="401.95" height="524.4" rx="3.11"/><rect class="cls-4" x="171.56" y="27.52" width="351.08" height="96.05"/><rect class="cls-4" x="178.18" y="137.48" width="340.49" height="382.88"/><rect class="cls-5" x="171.23" y="27.09" width="96.18" height="97.81"/><path class="cls-6" d="M771.06,556.51H8a8,8,0,1,1,0-15.9H771.06a8,8,0,1,1,0,15.9Z"/><g class="cls-7"><path class="cls-8" d="M452.8,323.42H238.66a19.93,19.93,0,0,0-19.93,19.93v22.52l-27.61,15,27.61,18.32V426A19.92,19.92,0,0,0,238.66,446H452.8A19.93,19.93,0,0,0,472.74,426V343.35A19.93,19.93,0,0,0,452.8,323.42Z"/></g><path class="cls-3" d="M457.14,318.6H243a19.92,19.92,0,0,0-19.93,19.92v22.53l-27.61,15,27.61,18.32V421.2A19.93,19.93,0,0,0,243,441.13H457.14a19.93,19.93,0,0,0,19.94-19.93V338.52A19.93,19.93,0,0,0,457.14,318.6Z"/><rect class="cls-5" x="379.75" y="337.74" width="75.31" height="10.21" rx="2.28"/><rect class="cls-9" x="364.43" y="384.33" width="89.67" height="6.7" rx="1.5"/><rect class="cls-9" x="364.43" y="405.39" width="89.67" height="6.7" rx="1.5"/><rect class="cls-9" x="259.12" y="384.33" width="89.67" height="6.7" rx="1.5"/><rect class="cls-9" x="247.32" y="365.82" width="206.78" height="6.7" rx="1.5"/><g class="cls-7"><path class="cls-8" d="M246.76,172.73H460.91a19.93,19.93,0,0,1,19.93,19.93v22.52l27.61,15-27.61,18.31v26.86a19.93,19.93,0,0,1-19.93,19.93H246.76a19.93,19.93,0,0,1-19.93-19.93V192.66A19.93,19.93,0,0,1,246.76,172.73Z"/></g><path class="cls-3" d="M242.42,167.91H456.57a19.93,19.93,0,0,1,19.93,19.93v22.52l27.61,15L476.5,243.66v26.86a19.92,19.92,0,0,1-19.93,19.92H242.42a19.93,19.93,0,0,1-19.93-19.92V187.84A19.93,19.93,0,0,1,242.42,167.91Z"/><rect class="cls-5" x="244.51" y="187.05" width="75.31" height="10.21" rx="2.28"/><rect class="cls-9" x="245.47" y="233.64" width="89.67" height="6.7" rx="1.5"/><rect class="cls-9" x="245.47" y="254.71" width="89.67" height="6.7" rx="1.5"/><rect class="cls-9" x="350.77" y="233.64" width="89.67" height="6.7" rx="1.5"/><rect class="cls-9" x="245.47" y="215.14" width="206.78" height="6.7" rx="1.5"/><path class="cls-10" d="M476.93,484.32a17.29,17.29,0,0,1-17.26-17.26V292.86h5.76v174.2a11.51,11.51,0,1,0,23,0V370.85a18.24,18.24,0,0,1,18.22-18.22v5.75a12.48,12.48,0,0,0-12.47,12.47v96.21A17.28,17.28,0,0,1,476.93,484.32Z"/><path class="cls-11" d="M483.07,287.74h0a1.35,1.35,0,0,1-1.8-.64c-1.79-3.79-4.82-10.28-5-11.2s.05-12.36.22-19.1a1.36,1.36,0,0,1,2.71.08c-.17,6.62-.4,17.51-.28,18.51.2.65,2.93,6.58,4.8,10.55A1.34,1.34,0,0,1,483.07,287.74Z"/><path class="cls-11" d="M474,235.22l-5.29-1.17,4.85-21.81a29.71,29.71,0,0,1,15.08-19.83l9.91-5.27,2.55,4.78-9.91,5.28a24.29,24.29,0,0,0-12.35,16.22Z"/><path class="cls-12" d="M462.85,303.2l24.51,1.31,6.87-2.51a5.76,5.76,0,0,0,3.66-6.54l-9.26-45.4a6.53,6.53,0,0,0-1.18-2.63l-11-14.6-6.32-2.5A6.22,6.22,0,0,0,462.5,233L450,254.61a7.06,7.06,0,0,0,.58,7.94l5,6.34-.24,26.32A7.94,7.94,0,0,0,462.85,303.2Zm7.52-14.57c.36-9.25,1-26,1.18-27.15.1-.85,3.77-1.8,7.23-2.51a6.21,6.21,0,0,1,7.32,4.84l5,24.29a6.22,6.22,0,0,1-6.47,7.45L476.2,295A6.19,6.19,0,0,1,470.37,288.63Z"/><path class="cls-12" d="M657.47,163.05l-3.38-1.48a173.18,173.18,0,0,0-142.52,1.37h0A20,20,0,0,0,500,181.13V541.21H669.44V181.41A20.08,20.08,0,0,0,657.47,163.05Z"/><rect class="cls-9" x="532.11" y="197.01" width="110.39" height="90.4"/><rect class="cls-10" x="539.71" y="205.48" width="93.22" height="44.33"/><path class="cls-13" d="M566.63,259.94H543.42a1.92,1.92,0,1,1,0-3.84h23.21a1.92,1.92,0,0,1,0,3.84Z"/><path class="cls-13" d="M598.51,259.94H575.3a1.92,1.92,0,1,1,0-3.84h23.21a1.92,1.92,0,1,1,0,3.84Z"/><path class="cls-13" d="M631,259.94H607.74a1.92,1.92,0,1,1,0-3.84H631a1.92,1.92,0,1,1,0,3.84Z"/><path class="cls-14" d="M567.71,216.15H546.93a1,1,0,0,1,0-1.92h20.78a1,1,0,0,1,0,1.92Z"/><path class="cls-14" d="M586.57,223.66h-40a1,1,0,0,1,0-1.92h40a1,1,0,1,1,0,1.92Z"/><path class="cls-14" d="M617.57,224.3H594.24a1,1,0,0,1,0-1.92h23.33a1,1,0,1,1,0,1.92Z"/><rect class="cls-11" x="542.14" y="266.09" width="11.75" height="5.03"/><rect class="cls-11" x="560.68" y="266.09" width="11.75" height="5.03"/><rect class="cls-11" x="579.85" y="266.09" width="11.75" height="5.03"/><rect class="cls-11" x="600.63" y="266.09" width="11.75" height="5.03"/><rect class="cls-11" x="619.81" y="266.09" width="11.75" height="5.03"/><rect class="cls-15" x="475.98" y="524.91" width="216.07" height="23.65"/><path class="cls-14" d="M555.42,237.83l.82-.81-.82-.82V232l.82-.82.81.82v4.19l-.81.82.81.81V242l-.81.81-.82-.81Zm1.77-7.59h4.32l.82.81-.82.82h-4.32l-.81-.82Zm0,11.94h4.32l.82.81-.82.82h-4.33l-.8-.82Zm3.11-10.09h1.14v1.29l-3,8.58h-1.13v-1.3Zm1.36,5.74.82-.81-.82-.77V232l.82-.82.81.82v4.19l-.81.82.81.81V242l-.81.81-.82-.81Z"/><path class="cls-14" d="M565.74,244.52l-.82-.8v-1.09l.82-.81.81.81v1.09Z"/><path class="cls-14" d="M568.18,237.83,569,237l-.81-.82V232l.81-.82.82.82v4.19L569,237l.82.81V242l-.82.81-.81-.81Zm1.77-7.59h4.32l.81.81-.81.82H570l-.82-.82Zm0,11.94h4.32l.81.81-.81.82h-4.34l-.8-.82Zm3.11-10.09h1.14v1.29l-3,8.58H570v-1.3Zm1.36,5.74.81-.81-.81-.77V232l.81-.82.82.82v4.19l-.82.82.82.81V242l-.82.81-.81-.81Z"/><path class="cls-14" d="M577.68,237.83l.81-.81-.81-.82V232l.81-.82.82.82v4.19l-.82.82.82.81V242l-.82.81-.81-.81Zm1.77-7.59h4.32l.82.81-.82.82h-4.32l-.82-.82Zm0,11.94h4.32l.82.81-.82.82h-4.34l-.8-.82Zm3.11-10.09h1.14v1.29l-3,8.58h-1.14v-1.3Zm1.36,5.74.81-.81-.81-.77V232l.81-.82.82.82v4.19l-.82.82.82.81V242l-.82.81-.81-.81Z"/><path class="cls-14" d="M587.8,242.18h5.46l.82.81-.82.82H587.8L587,243ZM595,231.05l-.81.82h-6.1l-.81-.82.81-.81h6.1Zm-6,5.15h4.24l.82.82-.82.81H589l-.82-.81Zm2.91-4.14H594L590.1,236H589V234.9Zm1.48,5.91.82-.81.81.81V242l-.81.81-.82-.81Z"/><path class="cls-14" d="M596.67,236.2h6.19l.81.82-.81.81h-6.19l-.81-.81Zm4.78-6h2.06L597.76,236h-1.09V234.9Zm1.56.81.81-.81.81.81v5l-.81.81-.81-.81Zm0,6.92.81-.81.81.81v5l-.81.82L603,243Z"/><path class="cls-14" d="M606.17,236.06v-5.68L607.8,232v4.05l-.81.81Zm6.91,6.93-.81.82H607l-.82-.82.82-.81h5.28Zm-5.14-11.12-1.62-1.63h7.73l-1.63,1.63Zm0,6-.81-.81.81-.82h4.33l.81.82-.81.81Zm4.48,4.21V238l.81-.81.82.81V242l-.82.81Z"/><path class="cls-10" d="M640.42,514.2H529.19a11,11,0,0,1-11-11V319.07a11,11,0,0,1,11-11H640.42a11,11,0,0,1,11,11v184.1A11,11,0,0,1,640.42,514.2ZM529.19,310a9.12,9.12,0,0,0-9.11,9.11v184.1a9.12,9.12,0,0,0,9.11,9.11H640.42a9.11,9.11,0,0,0,9.11-9.11V319.07a9.11,9.11,0,0,0-9.11-9.11Z"/><rect class="cls-3" x="557.48" y="163.73" width="52.26" height="17.26"/><path class="cls-10" d="M607.38,412.55c0-13.17-22.38-46.62-23.85-45.14-2,2-23.84,32-23.84,45.14a23.85,23.85,0,0,0,47.69,0Z"/><path class="cls-10" d="M583.53,457.19a55.31,55.31,0,1,1,55.3-55.31A55.38,55.38,0,0,1,583.53,457.19Zm0-103.24a47.93,47.93,0,1,0,47.93,47.93A48,48,0,0,0,583.53,354Z"/><circle class="cls-3" cx="575.85" cy="410.48" r="9.68"/><path class="cls-3" d="M197.92,102.3a3.49,3.49,0,0,1-3.49-3.48V63.61h1.17V98.82a2.33,2.33,0,0,0,4.65,0V79.37a3.68,3.68,0,0,1,3.68-3.68v1.16a2.52,2.52,0,0,0-2.52,2.52V98.82A3.49,3.49,0,0,1,197.92,102.3Z"/><path class="cls-3" d="M199.16,62.58h0a.27.27,0,0,1-.37-.13c-.36-.76-1-2.08-1-2.26s0-2.5.05-3.86a.27.27,0,1,1,.54,0c0,1.34-.08,3.54-.05,3.75s.59,1.33,1,2.13A.28.28,0,0,1,199.16,62.58Z"/><path class="cls-3" d="M197.32,52l-1.07-.24,1-4.41a6,6,0,0,1,3.05-4l2-1.07.52,1-2,1.06a4.9,4.9,0,0,0-2.5,3.28Z"/><path class="cls-3" d="M195.08,65.7,200,66l1.39-.51a1.15,1.15,0,0,0,.73-1.32L200.28,55a1.2,1.2,0,0,0-.24-.54l-2.21-3-1.28-.5a1.26,1.26,0,0,0-1.55.54l-2.53,4.36a1.42,1.42,0,0,0,.12,1.61l1,1.28-.05,5.32A1.59,1.59,0,0,0,195.08,65.7Zm1.51-2.94c.08-1.87.21-5.25.24-5.49s.76-.36,1.46-.5a1.25,1.25,0,0,1,1.48,1l1,4.91a1.26,1.26,0,0,1-1.3,1.51l-1.71-.11A1.25,1.25,0,0,1,196.59,62.76Z"/><path class="cls-3" d="M234.4,37.38l-.68-.3a35,35,0,0,0-28.8.28h0A4.06,4.06,0,0,0,202.57,41V113.8h34.25V41.09A4.06,4.06,0,0,0,234.4,37.38Z"/><rect class="cls-5" x="209.07" y="44.67" width="22.31" height="18.27"/><rect class="cls-3" x="197.73" y="110.51" width="43.66" height="4.78"/><path class="cls-5" d="M231,108.34H208.48a2.23,2.23,0,0,1-2.23-2.23V68.91a2.23,2.23,0,0,1,2.23-2.23H231a2.23,2.23,0,0,1,2.23,2.23v37.2A2.23,2.23,0,0,1,231,108.34ZM208.48,67.07a1.84,1.84,0,0,0-1.84,1.84v37.2a1.84,1.84,0,0,0,1.84,1.84H231a1.84,1.84,0,0,0,1.84-1.84V68.91A1.84,1.84,0,0,0,231,67.07Z"/><rect class="cls-5" x="214.2" y="37.52" width="10.56" height="3.49"/><text class="cls-16" transform="translate(295.39 84.13)">Gas Bill</text></g></g></g></svg>