<svg xmlns="http://www.w3.org/2000/svg" viewBox="0 0 580.6 355.8"><defs><style>.cls-1{fill:#ffd37b;}.cls-2,.cls-30{fill:#001e50;}.cls-3{fill:#ffbc5b;}.cls-4{fill:#c84520;}.cls-17,.cls-27,.cls-5,.cls-6{fill:#fff;}.cls-5{opacity:0.22;}.cls-7{fill:#9aa1b0;}.cls-8{fill:#b4b9c7;}.cls-9{fill:#60301e;}.cls-10{fill:#6f3924;}.cls-11{fill:#b4dff7;}.cls-12{fill:#283039;}.cls-13{fill:#ffb200;}.cls-14,.cls-15{fill:none;stroke-miterlimit:10;stroke-width:0.91px;}.cls-14{stroke:#9aa1b0;stroke-linecap:round;opacity:0.44;}.cls-15{stroke:#fff;}.cls-16{fill:#fbbf00;}.cls-17{opacity:0.25;}.cls-17,.cls-18,.cls-24,.cls-25,.cls-26,.cls-27{isolation:isolate;}.cls-18{opacity:0.05;}.cls-19{fill:#fbc518;}.cls-20{fill:#ffdc6d;}.cls-21{fill:#f2c129;}.cls-22{fill:#f1b700;}.cls-23{fill:#dba600;}.cls-24{opacity:0.2;}.cls-25{opacity:0.1;}.cls-26{opacity:0.15;}.cls-27{opacity:0.2;}.cls-28{fill:#ffecb1;}.cls-29{fill:#cc9805;}.cls-30{font-size:16px;font-family:Poppins-Medium, Poppins;font-weight:500;}</style></defs><g id="Layer_2" data-name="Layer 2"><g id="Layer_2-2" data-name="Layer 2"><rect class="cls-1" x="248.52" y="24.96" width="49.61" height="63.94"/><rect class="cls-2" x="242.54" y="13.16" width="61.57" height="20.09"/><polygon class="cls-3" points="220.69 62.66 312.09 62.66 403.65 123.84 403.65 306.2 220.69 306.2 220.69 62.66"/><polygon class="cls-4" points="220.69 62.66 312.09 62.66 403.65 123.84 403.65 125.19 220.69 125.19 220.69 62.66"/><polygon class="cls-1" points="269.09 123.84 151.09 32.78 32.91 123.84 32.91 306.2 269.09 306.2 269.09 123.84"/><polygon class="cls-5" points="294.87 115.4 151.48 4.32 151.48 4.29 151.46 4.31 151.44 4.29 151.44 4.32 8.05 115.4 16.73 136.1 151.46 34.33 286.2 136.1 294.87 115.4"/><polygon class="cls-5" points="294.87 115.4 151.48 4.32 151.48 4.29 151.46 4.31 151.44 4.29 151.44 4.32 8.05 115.4 16.73 136.1 151.46 34.33 286.2 136.1 294.87 115.4"/><polygon class="cls-2" points="294.87 115.4 151.48 4.32 151.48 4.29 151.46 4.31 151.44 4.29 151.44 4.32 8.05 115.4 16.73 136.1 151.46 34.33 286.2 136.1 294.87 115.4"/><polygon class="cls-6" points="292.98 142.33 151.11 142.33 9.02 142.33 9.02 152.67 292.98 152.67 292.98 142.33"/><polygon class="cls-6" points="33.22 318.84 33.22 230.66 33.22 142.33 22.89 142.33 22.89 318.84 33.22 318.84"/><polygon class="cls-6" points="278.49 318.84 278.49 230.66 278.49 142.33 268.15 142.33 268.15 318.84 278.49 318.84"/><rect class="cls-7" y="316.36" width="423.8" height="10.64"/><rect class="cls-8" x="13.14" y="305.72" width="397.51" height="10.64"/><rect class="cls-9" x="55.21" y="172.34" width="69.49" height="133.85"/><rect class="cls-10" x="60.38" y="179.08" width="59.13" height="127.12"/><path class="cls-6" d="M72.46,243.16a3.41,3.41,0,1,1-3.38-3.89A3.66,3.66,0,0,1,72.46,243.16Z"/><rect class="cls-10" x="148.23" y="171.06" width="105.3" height="95.21"/><rect class="cls-2" x="202.2" y="176.77" width="45.46" height="39.12"/><rect class="cls-2" x="153.43" y="176.77" width="45.46" height="39.12"/><rect class="cls-2" x="202.2" y="221.15" width="45.46" height="39.12"/><rect class="cls-2" x="153.43" y="221.15" width="45.46" height="39.12"/><rect class="cls-10" x="293.67" y="171.06" width="66.18" height="59.85"/><rect class="cls-2" x="327.6" y="174.65" width="28.58" height="24.59"/><rect class="cls-2" x="296.94" y="174.65" width="28.57" height="24.59"/><rect class="cls-2" x="327.6" y="202.55" width="28.58" height="24.59"/><rect class="cls-2" x="296.94" y="202.55" width="28.57" height="24.59"/><path class="cls-10" d="M171.74,89.32a23.51,23.51,0,1,1-23.51-23.51A23.5,23.5,0,0,1,171.74,89.32Z"/><circle class="cls-2" cx="148.23" cy="89.32" r="19.2"/><rect class="cls-10" x="124.72" y="87.92" width="47.03" height="2.79"/><rect class="cls-10" x="124.72" y="87.92" width="47.03" height="2.79" transform="translate(237.55 -58.91) rotate(90)"/><rect class="cls-2" x="346.2" width="181.6" height="335.82" rx="12.2"/><rect class="cls-6" x="357.46" y="12.51" width="159.79" height="310.8" rx="5.9"/><path class="cls-11" d="M363.36,12.51H511.74a5.92,5.92,0,0,1,5.92,5.92v299a5.9,5.9,0,0,1-5.9,5.9H363.38a5.92,5.92,0,0,1-5.92-5.92v-299A5.9,5.9,0,0,1,363.36,12.51Z"/><path class="cls-12" d="M494.17,276H379.83a4.21,4.21,0,0,1-4.21-4.21h0a4.21,4.21,0,0,1,4.21-4.22H494.17a4.22,4.22,0,0,1,4.22,4.22h0A4.22,4.22,0,0,1,494.17,276Z"/><rect class="cls-13" x="372.63" y="25.12" width="128.74" height="99.15" rx="5.9"/><rect class="cls-7" x="418.68" y="301.9" width="58.96" height="40.31"/><path class="cls-6" d="M556.9,327.19c-1.21-3.27-2.19-6.66-3.92-9.69s-4.37-5.75-7.75-6.65a10.19,10.19,0,0,0-2-.29v0h-.47c-.19,0-.38,0-.57,0H495.34c-.3-4.57-.64-9.14-1-13.7-.56-6.2-1.24-12.49-3.62-18.24a30.25,30.25,0,0,0-3.21-4.94h-91.1a30.25,30.25,0,0,1,3.21,4.94c2.38,5.75,3.07,12,3.63,18.24q1.05,11.57,1.61,23.17c.2,4.09.36,8.24,1.63,12.13s3.82,7.56,7.57,9.2c6.73,2.94,14.78-1.85,18.14-8.38,2.07-4,2.89-8.6,5.06-12.57a20.77,20.77,0,0,1,6.06-6.89c3.12-2.26,7.14-3.65,10.87-2.65,3.37.9,6,3.61,7.74,6.65s2.72,6.42,3.93,9.69C470,338.47,478,349.24,489.5,352.68h91.1C569.07,349.24,561.09,338.47,556.9,327.19Z"/><line class="cls-14" x1="478.98" y1="322.26" x2="543.15" y2="322.26"/><line class="cls-14" x1="489.87" y1="326.69" x2="547.17" y2="326.69"/><line class="cls-14" x1="500.39" y1="331.59" x2="548.8" y2="331.59"/><line class="cls-14" x1="508" y1="336.12" x2="551.03" y2="336.12"/><line class="cls-14" x1="493.34" y1="345.43" x2="521.61" y2="345.43"/><line class="cls-14" x1="408.51" y1="282.06" x2="481.87" y2="282.06"/><line class="cls-14" x1="409.58" y1="286.55" x2="474.04" y2="286.55"/><line class="cls-14" x1="410.87" y1="290.88" x2="474.04" y2="290.88"/><line class="cls-14" x1="411.66" y1="295.03" x2="471.66" y2="295.03"/><line class="cls-14" x1="412.55" y1="299.05" x2="465.25" y2="299.05"/><line class="cls-14" x1="414.33" y1="303.41" x2="455.3" y2="303.41"/><line class="cls-14" x1="424.94" y1="316.79" x2="442.46" y2="316.79"/><line class="cls-14" x1="426.86" y1="321.16" x2="446.23" y2="321.16"/><rect class="cls-15" x="372.87" y="137.18" width="58.52" height="39.21" rx="5.02"/><path class="cls-6" d="M417.79,145.76h-32a1.69,1.69,0,0,0-1.69,1.69v18.69a1.69,1.69,0,0,0,1.69,1.68h32a1.68,1.68,0,0,0,1.68-1.68V147.45A1.69,1.69,0,0,0,417.79,145.76Zm.74,20.38a.74.74,0,0,1-.74.74h-32a.74.74,0,0,1-.74-.74V147.45a.75.75,0,0,1,.74-.75h32a.75.75,0,0,1,.74.75Z"/><path class="cls-6" d="M416.41,151.08H386.16a.47.47,0,0,0-.47.47.48.48,0,0,0,.47.48h30.25a.48.48,0,0,0,.47-.48A.47.47,0,0,0,416.41,151.08Z"/><path class="cls-6" d="M415.05,161.16H407a1.83,1.83,0,1,0,0,3.65h8.1a1.83,1.83,0,1,0,0-3.65Zm0,2.71H407a.88.88,0,0,1,0-1.76h8.1a.88.88,0,0,1,0,1.76Z"/><rect class="cls-15" x="372.87" y="186.65" width="58.52" height="39.21" rx="5.02"/><path class="cls-6" d="M392.92,216.08l-1.27,3.37-1.28-3.37H390a1.92,1.92,0,0,1-.48-.07l1.77,4.69a.39.39,0,0,0,.73,0l1.74-4.62Z"/><path class="cls-6" d="M412.57,216.08h0l-1.26,3.37L410,216.08h-.84l1.75,4.62a.39.39,0,0,0,.37.26.38.38,0,0,0,.36-.26l1.84-4.87A1.71,1.71,0,0,1,412.57,216.08Z"/><path class="cls-6" d="M412.57,191.56H390a1.75,1.75,0,0,0-1.75,1.75v21a1.76,1.76,0,0,0,1.27,1.69,1.92,1.92,0,0,0,.48.07h22.58a1.71,1.71,0,0,0,.9-.25,1.76,1.76,0,0,0,.86-1.51v-21A1.76,1.76,0,0,0,412.57,191.56Zm1,22.76a1,1,0,0,1-1,1H390a1,1,0,0,1-1-1v-21a1,1,0,0,1,1-1h22.58a1,1,0,0,1,1,1Z"/><path class="cls-6" d="M391.68,195.72a.38.38,0,0,0,0-.1v-.09a.7.7,0,0,1,.42-.63.38.38,0,0,0,.23-.44.14.14,0,0,0,0-.07.38.38,0,0,0-.51-.21,1.46,1.46,0,0,0-.9,1.35v.09a.22.22,0,0,0,0,.08,1.34,1.34,0,0,1,.35,0A1.4,1.4,0,0,1,391.68,195.72Z"/><path class="cls-6" d="M409.19,213.57a.39.39,0,1,0,0-.78h-1.35a.39.39,0,0,0,0,.78Z"/><path class="cls-6" d="M409.44,194.85h.75a.75.75,0,0,1,.36.1.39.39,0,0,0,.21.06.39.39,0,0,0,.28-.13l0,0a.4.4,0,0,0-.12-.55,1.53,1.53,0,0,0-.78-.22h-.75a.4.4,0,0,0,0,.79Z"/><path class="cls-6" d="M410.87,195.78v1.35a.4.4,0,0,0,.79,0v-1.35a.4.4,0,0,0-.39-.39h0A.4.4,0,0,0,410.87,195.78Z"/><path class="cls-6" d="M406.75,194.85h1.35a.4.4,0,0,0,0-.79h-1.35a.4.4,0,0,0,0,.79Z"/><path class="cls-6" d="M410.87,206.55v1.35a.4.4,0,0,0,.79,0v-1.35a.4.4,0,0,0-.79,0Z"/><path class="cls-6" d="M410.87,198.48v1.34a.4.4,0,1,0,.79,0v-1.34a.4.4,0,0,0-.79,0Z"/><path class="cls-6" d="M410.87,201.17v1.34a.4.4,0,1,0,.79,0v-1.34a.4.4,0,1,0-.79,0Z"/><path class="cls-6" d="M410.87,203.86v1.35a.4.4,0,0,0,.79,0v-1.35a.4.4,0,0,0-.79,0Z"/><path class="cls-6" d="M391.69,203.69v-.07a1.31,1.31,0,0,1-.78,0v.05a.39.39,0,1,0,.78,0Z"/><path class="cls-6" d="M395.73,212.79h-1.35a.39.39,0,0,0,0,.78h1.35a.39.39,0,1,0,0-.78Z"/><path class="cls-6" d="M398.42,212.79h-1.35a.39.39,0,0,0,0,.78h1.35a.39.39,0,1,0,0-.78Z"/><path class="cls-6" d="M401.11,212.79h-1.34a.39.39,0,1,0,0,.78h1.34a.39.39,0,1,0,0-.78Z"/><path class="cls-6" d="M403.8,212.79h-1.34a.39.39,0,0,0,0,.78h1.34a.39.39,0,1,0,0-.78Z"/><path class="cls-6" d="M406.5,212.79h-1.35a.39.39,0,0,0,0,.78h1.35a.39.39,0,1,0,0-.78Z"/><path class="cls-6" d="M404.06,194.85h1.34a.4.4,0,1,0,0-.79h-1.34a.4.4,0,0,0,0,.79Z"/><path class="cls-6" d="M391.69,205.59V205a.39.39,0,1,0-.78,0v.55a1.55,1.55,0,0,1,.78,0Z"/><path class="cls-6" d="M398.68,194.85H400a.4.4,0,0,0,0-.79h-1.34a.4.4,0,1,0,0,.79Z"/><path class="cls-6" d="M401.37,194.85h1.34a.4.4,0,1,0,0-.79h-1.34a.4.4,0,1,0,0,.79Z"/><path class="cls-6" d="M410.87,209.24v1.35a.4.4,0,0,0,.79,0v-1.35a.4.4,0,0,0-.79,0Z"/><path class="cls-6" d="M393.29,194.85h1.35a.4.4,0,0,0,0-.79h-1.35a.4.4,0,0,0,0,.79Z"/><path class="cls-6" d="M396,194.85h1.35a.4.4,0,0,0,0-.79H396a.4.4,0,0,0,0,.79Z"/><path class="cls-6" d="M410.87,211.94v.17a.68.68,0,0,1-.47.64.39.39,0,0,0-.26.43s0,0,0,.07a.41.41,0,0,0,.38.27l.12,0a1.47,1.47,0,0,0,1-1.39v-.17a.4.4,0,1,0-.79,0Z"/><path class="cls-6" d="M393,212.79h-.49a1.4,1.4,0,0,1-.72.68,1.4,1.4,0,0,0,.54.1H393a.39.39,0,1,0,0-.78Z"/><path class="cls-6" d="M401.28,199.18a4.64,4.64,0,1,0,4.64,4.64A4.64,4.64,0,0,0,401.28,199.18Zm0,8.49a3.85,3.85,0,1,1,3.86-3.85A3.86,3.86,0,0,1,401.28,207.67Z"/><path class="cls-6" d="M401.28,201.18a2.64,2.64,0,1,0,2.64,2.64A2.64,2.64,0,0,0,401.28,201.18Zm0,4.5a1.86,1.86,0,1,1,1.86-1.86A1.86,1.86,0,0,1,401.28,205.68Z"/><path class="cls-6" d="M391.69,203.62a1.39,1.39,0,0,0,1-1.32V197a1.38,1.38,0,0,0-1.39-1.38,1.34,1.34,0,0,0-.35,0,1.38,1.38,0,0,0-1,1.34v5.26a1.39,1.39,0,0,0,1,1.34,1.31,1.31,0,0,0,.78,0Zm-1-1.32V197a.6.6,0,0,1,1.2,0v5.26a.6.6,0,1,1-1.2,0Z"/><path class="cls-6" d="M392.55,212.79a1.51,1.51,0,0,0,.14-.6v-5.27a1.4,1.4,0,0,0-1-1.33,1.55,1.55,0,0,0-.78,0,1.41,1.41,0,0,0-1,1.33v5.27a1.38,1.38,0,0,0,1.38,1.38,1.32,1.32,0,0,0,.53-.1A1.4,1.4,0,0,0,392.55,212.79Zm-1.85-.6v-5.27a.6.6,0,1,1,1.2,0v5.27a.6.6,0,1,1-1.2,0Z"/><rect class="cls-15" x="442.94" y="137.18" width="58.52" height="39.21" rx="5.02"/><polygon class="cls-6" points="471.29 158.63 472.1 162.08 472.3 162.08 473.11 158.63 471.29 158.63"/><polygon class="cls-6" points="477.93 164.88 478.37 163.02 477.5 163.02 477.93 164.88"/><polygon class="cls-6" points="466.47 164.88 466.9 163.02 466.03 163.02 466.47 164.88"/><path class="cls-6" d="M473.24,158.05a.47.47,0,0,1,.46-.36h-3a.47.47,0,0,1,.46.36l.13.58h1.82Z"/><path class="cls-6" d="M466.09,157.69l.67-3.45h10.59l.67,3.45h1l-.78-4a.47.47,0,0,0-.46-.38H466.37a.47.47,0,0,0-.46.38l-.78,4Z"/><path class="cls-6" d="M460.86,162.08l.81-3.45h8.65l.81,3.45h1l-.81-3.45-.13-.58a.47.47,0,0,0-.46-.36h-9.41a.47.47,0,0,0-.46.36l-.94,4Z"/><path class="cls-6" d="M465.89,162.44l.14.58h.87l.14-.58a.47.47,0,0,1,.46-.36h-2.06A.47.47,0,0,1,465.89,162.44Z"/><path class="cls-6" d="M478,157.69H473.7a.47.47,0,0,0-.46.36l-.13.58-.81,3.45h1l.81-3.45h8.65l.81,3.45h1l-.95-4a.47.47,0,0,0-.45-.36H478Z"/><path class="cls-6" d="M477.36,162.44l.14.58h.87l.14-.58a.46.46,0,0,1,.45-.36H476.9A.47.47,0,0,1,477.36,162.44Z"/><path class="cls-6" d="M466.1,167.23a.45.45,0,0,1-.09-.4l.46-2L466,163l-.14-.58a.47.47,0,0,0-.45-.36H456a.47.47,0,0,0-.46.36l-1,4.39a.48.48,0,0,0,.09.4.46.46,0,0,0,.37.18h11.47A.45.45,0,0,1,466.1,167.23ZM460.26,163h4.8l.81,3.45H455.6l.81-3.45Z"/><path class="cls-6" d="M488.83,162.44a.47.47,0,0,0-.46-.36H479a.46.46,0,0,0-.45.36l-.14.58-.44,1.86.46,2a.48.48,0,0,1-.09.4.45.45,0,0,1-.37.18H489.4a.46.46,0,0,0,.37-.18.48.48,0,0,0,.09-.4ZM488,163l.81,3.45H478.53l.81-3.45H488Z"/><path class="cls-6" d="M478.3,167.23a.48.48,0,0,0,.09-.4l-.46-2L477.5,163l-.14-.58a.47.47,0,0,0-.46-.36h-9.4a.47.47,0,0,0-.46.36l-.14.58-.43,1.86-.46,2a.47.47,0,0,0,.46.58h11.46A.45.45,0,0,0,478.3,167.23ZM472.67,163h3.86l.81,3.45H467.06l.81-3.45h4.8Z"/><path class="cls-6" d="M471.73,146.64v3.1a.47.47,0,1,0,.94,0v-3.1a.47.47,0,1,0-.94,0Z"/><path class="cls-6" d="M480.77,148.87l-2.19,2.2a.45.45,0,0,0,0,.66.46.46,0,0,0,.66,0l2.2-2.19a.47.47,0,1,0-.67-.67Z"/><path class="cls-6" d="M464.14,148.31a.47.47,0,1,0-.67.67l2.19,2.19a.44.44,0,0,0,.34.14.45.45,0,0,0,.33-.14.47.47,0,0,0,0-.66Z"/><rect class="cls-15" x="442.94" y="186.65" width="58.52" height="39.21" rx="5.02"/><path class="cls-6" d="M481.74,198.44a.68.68,0,0,0-1,0l-18.11,18.11a.68.68,0,0,0,0,1,.69.69,0,0,0,1,0l18.11-18.11A.68.68,0,0,0,481.74,198.44Z"/><path class="cls-6" d="M481.87,213.12a4.6,4.6,0,1,0-4.6,4.6A4.6,4.6,0,0,0,481.87,213.12Zm-4.6,3.23a3.23,3.23,0,1,1,3.23-3.23A3.23,3.23,0,0,1,477.27,216.35Z"/><path class="cls-6" d="M467.06,206.76a4.6,4.6,0,1,0-4.6-4.6A4.6,4.6,0,0,0,467.06,206.76Zm0-7.82a3.23,3.23,0,1,1-3.23,3.22A3.23,3.23,0,0,1,467.06,198.94Z"/><g id="g16527"><path id="path7719" class="cls-16" d="M116.19,245.52H58.56a1,1,0,0,0-1,1h0v7.18a1,1,0,0,0,1,1h1.26a1,1,0,0,0-1,1h0v7.18a1,1,0,0,0,1,1H56.44a1,1,0,0,0-1,1h0v7.18a1,1,0,0,0,1,1h2.12a1,1,0,0,0-1,1h0v7.18a1,1,0,0,0,1,1h2.8a1,1,0,0,0-1,1h0v7.18a1,1,0,0,0,1,1H60.2a1,1,0,0,0-1,1h0v7.18a1,1,0,0,0,1,1H58.56a1,1,0,0,0-1,1h0v7.18a1,1,0,0,0,1,1h-2.5a1,1,0,0,0-1,1h0V318a1,1,0,0,0,1,1h3.57a1,1,0,0,0-1,1h0v7.18a1,1,0,0,0,1,1H56.73a1,1,0,0,0-1,1h0v7.18a1,1,0,0,0,1,1h4.34a1,1,0,0,0-1,1h0v7.18a1,1,0,0,0,1,1h-2.5a1,1,0,0,0-1,1h0v7.18a1,1,0,0,0,1,1h57.63a1,1,0,0,0,1-1h0v-7.18a1,1,0,0,0-1-1h2.5a1,1,0,0,0,1-1h0v-7.18a1,1,0,0,0-1-1h-4.34a1,1,0,0,0,1-1h0v-7.18a1,1,0,0,0-1-1h2.89a1,1,0,0,0,1-1h0v-7.18a1,1,0,0,0-1-1h-3.57a1,1,0,0,0,1-1h0v-7.18a1,1,0,0,0-1-1h2.5a1,1,0,0,0,1-1h0v-7.18a1,1,0,0,0-1-1h1.64a1,1,0,0,0,1-1h0v-7.18a1,1,0,0,0-1-1H119a1,1,0,0,0,1-1h0v-7.18a1,1,0,0,0-1-1h-2.8a1,1,0,0,0,1-1h0v-7.18a1,1,0,0,0-1-1h-2.12a1,1,0,0,0,1-1h0V264.9a1,1,0,0,0-1-1h3.37a1,1,0,0,0,1-1h0v-7.18a1,1,0,0,0-1-1h-1.21a1,1,0,0,0,1-1v-7.18a1,1,0,0,0-1-1Z"/><path id="path8169" class="cls-17" d="M58.56,245.52a1,1,0,0,0-1,1h0v7.18a1,1,0,0,0,1,1h1.26a1,1,0,0,0-1,1h0v7.18a1,1,0,0,0,1,1H56.44a1,1,0,0,0-1,1h0v7.18a1,1,0,0,0,1,1h2.12a1,1,0,0,0-1,1h0v7.18a1,1,0,0,0,1,1h2.8a1,1,0,0,0-1,1h0v7.18a1,1,0,0,0,1,1H60.2a1,1,0,0,0-1,1h0v7.18a1,1,0,0,0,1,1H58.56a1,1,0,0,0-1,1h0v7.18a1,1,0,0,0,1,1h-2.5a1,1,0,0,0-1,1h0V318a1,1,0,0,0,1,1h9.43v-9.19h.58V319h2.85v-9.19h1.14V319h2.28v-9.19h-.92v-9.19h1.15v9.19h1.49V319h1.71v-9.19h-.92v-9.19h1.64v-9.19h1.15v-9.19h.63v-9.19H76.55v9.19h-1.2v9.19H74.21v-9.19h.63v-9.19h1.3V263.9h0v-9.19H74.84v-9.19H72.56v9.19H71.41v-9.19H68.56v9.19H68v-9.19Zm18,0v9.19H77.8v9.19h.63v9.19h1.14V263.9h0v-9.19H78.26v-9.19Zm4,0v9.19h1.14v-9.19Zm4,0v9.19h.57v-9.19Zm4.85,0v9.19h.25v-9.19Zm3.43,0v9.19h.24v-9.19Zm3.42,0v9.19h.25v-9.19Zm3.43,0v9.19h.24v-9.19Zm3.42,0v9.19h.25v-9.19Zm3.43,0v9.19h.24v-9.19Zm-37.28,9.19h.57v9.19h.63v9.19H69.29V263.9h-.05Zm3.43,0h1.14v9.19h.62v9.19H72.72V263.9h0Zm9.13,0v9.19h.62v9.19H83V263.9h0v-9.19Zm4,0v9.19h.57v-9.19Zm4.86,0v9.19h0v9.19h.24V263.9h0v-9.19Zm3.42,0v9.19h.05v9.19h.25V263.9h-.05v-9.19Zm3.42,0v9.19h.06v9.19h.24V263.9h-.05v-9.19Zm3.43,0v9.19h0v9.19h.25V263.9h0v-9.19Zm3.42,0v9.19h.06v9.19h.24V263.9h0v-9.19Zm3.43,0v9.19H108v-9.19Zm-41.9,9.19h.57v9.19h-.57Zm21.4,0v9.19h.25V263.9ZM68,273.09h.57v9.19H68Zm3.42,0h1.15v9.19H71.41Zm9.14,0v9.19H79.34v9.19H78.19v9.19H76.55v9.19H78V319h1.14v-9.19h-.92v-9.19H79.9v-9.19h1.16v-9.19h.63v-9.19Zm4,0v9.19h.57v-9.19Zm4.85,0v9.19h.25v-9.19Zm3.43,0v9.19h.24v-9.19Zm3.42,0v9.19h.25v-9.19Zm3.43,0v9.19h.24v-9.19Zm3.42,0v9.19h.25v-9.19Zm3.43,0v9.19h.24v-9.19Zm-35.74,9.19h.57v9.19h-.57Zm12.56,0v9.19h1.14v-9.19Zm4,0v9.19h.57v-9.19Zm4.85,0v9.19h.24v-9.19Zm3.42,0v9.19h.25v-9.19Zm3.43,0v9.19h.24v-9.19Zm3.42,0v9.19h.25v-9.19Zm3.43,0v9.19h.24v-9.19Zm3.42,0v9.19h.25v-9.19Zm-39.68,9.19h.57v9.19h-.57Zm3.42,0h1.14v9.19H73.05Zm9.13,0v9.19h1.15v-9.19Zm4,0v9.19h.57v-9.19Zm4.85,0v9.19h.25v-9.19Zm3.42,0v9.19h.25v-9.19Zm3.43,0v9.19h.25v-9.19Zm3.42,0v9.19h.25v-9.19Zm3.43,0v9.19H105v-9.19Zm3.42,0v9.19h.25v-9.19ZM68,300.66h.57v9.19H68Zm12.56,0v9.19h1.14v-9.19Zm4,0v9.19h.57v-9.19Zm4.85,0v9.19h.25v-9.19Zm3.43,0v9.19h.24v-9.19Zm3.42,0v9.19h.25v-9.19Zm3.43,0v9.19h.24v-9.19Zm3.42,0v9.19h.25v-9.19Zm3.43,0v9.19h.24v-9.19ZM82,309.85V319h.57v-9.19Zm4.85,0V319h.24v-9.19Zm3.42,0V319h.25v-9.19Zm3.43,0V319H94v-9.19Zm3.42,0V319h.25v-9.19Zm3.43,0V319h.24v-9.19Zm3.42,0V319h.25v-9.19ZM59.62,319a1,1,0,0,0-1,1h0v7.18a1,1,0,0,0,1,1H56.73a1,1,0,0,0-1,1h0v7.18a1,1,0,0,0,1,1h4.34a1,1,0,0,0-1,1h0v7.18a1,1,0,0,0,1,1h-2.5a1,1,0,0,0-1,1h0v7.18a1,1,0,0,0,1,1H68v-9.19h.57v9.19h2.85v-9.19h1.15v9.19h2.28v-9.19h-.92v-9.19H73v-9.19h-.54V319H69.62v9.19h1.11v9.19h.33v9.19h-.57v-9.19h-.91v-9.19h-.53V319Zm14,0v9.19h1.1v9.19h.34v9.19h1.49v9.19h1.71v-9.19h-.92v-9.19h-.91v-9.19H75.9V319Zm4,0v9.19h1.11v9.19h.34v9.19h1.49v9.19h1.14v-9.19h-.92v-9.19h-.91v-9.19h-.54V319Zm4,0v9.19h1.1v9.19h.34v9.19h1.14v-9.19h-.91v-9.19h-.53V319Zm4,0v9.19h.57V319Zm4.85,0v9.19h.25V319Zm3.43,0v9.19h.24V319Zm3.42,0v9.19h.25V319Zm3.43,0v9.19H101V319Zm3.42,0v9.19h.25V319Zm3.43,0v9.19h.24V319Zm-41.42,9.19h.57v9.19h-.57Zm21.4,0v9.19h-.51v9.19h.57v-9.19h.19v-9.19Zm3.43,0v9.19h.24v-9.19Zm3.42,0v9.19h.25v-9.19Zm3.43,0v9.19h.24v-9.19Zm3.42,0v9.19h.25v-9.19Zm3.43,0v9.19h.24v-9.19ZM91.9,337.42v9.19h.24v-9.19Zm3.42,0v9.19h.25v-9.19Zm3.43,0v9.19H99v-9.19Zm3.42,0v9.19h.25v-9.19Zm3.43,0v9.19h.24v-9.19Zm3.42,0v9.19h.25v-9.19Zm-24.48,9.19v9.19h.57v-9.19Zm4.85,0v9.19h.25v-9.19Zm3.43,0v9.19h.24v-9.19Zm3.42,0v9.19h.25v-9.19Zm3.43,0v9.19h.24v-9.19Zm3.42,0v9.19h.25v-9.19Zm3.43,0v9.19h.24v-9.19Z"/><path id="path8251" class="cls-18" d="M68.31,245.52v9.19h.25v-9.19Zm4,0v9.19h.25v-9.19Zm4,0v9.19h.25v-9.19Zm4,0v9.19h.25v-9.19Zm4,0v9.19h.24v-9.19Zm5.34,0v9.19h.57v-9.19Zm3.42,0v9.19h1.15v-9.19Zm3.43,0v9.19h1.25v9.19h.05v9.19h-1.3v9.19h-.63v9.19H97v-9.19h1.2v-9.19h1.71v9.19h-.63v9.19H98.13v9.19H96.49v9.19h.92V319h.14v9.19h.53v9.19H99v9.19h.92v9.19h2.29v-9.19h-1.49v-9.19h-.34v-9.19H99.26V319h.43v-9.19H98.2v-9.19h1.64v-9.19H101v-9.19h1.21v-9.19h1.14v9.19h-.63v9.19h-1.16v9.19H99.91v9.19h.92V319H101v9.19h.54v9.19h.91v9.19h.92v9.19h2.85v-9.19h.57v9.19h9.43a1,1,0,0,0,1-1h0v-7.18a1,1,0,0,0-1-1h2.5a1,1,0,0,0,1-1h0v-7.18a1,1,0,0,0-1-1h-4.34a1,1,0,0,0,1-1h0v-7.18a1,1,0,0,0-1-1h2.89a1,1,0,0,0,1-1h0v-7.18a1,1,0,0,0-1-1h-3.57a1,1,0,0,0,1-1h0v-7.18a1,1,0,0,0-1-1h2.5a1,1,0,0,0,1-1h0v-7.18a1,1,0,0,0-1-1h1.64a1,1,0,0,0,1-1h0v-7.18a1,1,0,0,0-1-1H119a1,1,0,0,0,1-1h0v-7.18a1,1,0,0,0-1-1h-2.8a1,1,0,0,0,1-1h0v-7.18a1,1,0,0,0-1-1h-2.12a1,1,0,0,0,1-1h0V264.9a1,1,0,0,0-1-1h3.37a1,1,0,0,0,1-1h0v-7.18a1,1,0,0,0-1-1h-1.26a1,1,0,0,0,1-1h0v-7.18a1,1,0,0,0-1-1h-9.43v9.19h-.57v-9.19h-2.85v9.19H102.2v-9.19H99.91v9.19h1.26v9.19h0v9.19h-1.14V263.9h-.63v-9.19H98.2v-9.19Zm-26.92,9.19v9.19h.24v-9.19Zm4,0v9.19h.25v-9.19Zm4,0v9.19h.24v-9.19Zm4,0v9.19h.25v-9.19Zm4,0v9.19h.24v-9.19Zm5.34,0v9.19h0v9.19h1.15V263.9h-.63v-9.19Zm3.43,0v9.19h.05v9.19h1.71V263.9h-.62v-9.19Zm9.13,0h1.14v9.19h0v9.19h-.57V263.9h-.62Zm4,0H108v9.19h-.58ZM66.19,263.9v9.19h.25V263.9Zm4,0v9.19h.25V263.9Zm4,0v9.19h.24V263.9Zm4,0v9.19h.25V263.9Zm4,0v9.19h.24V263.9Zm5.34,0v9.19h.57V263.9Zm-19.21,9.19v9.19h.25v-9.19Zm4,0v9.19h.25v-9.19Zm4,0v9.19h.25v-9.19Zm4,0v9.19h.25v-9.19Zm4,0v9.19h.24v-9.19Zm5.34,0v9.19h.57v-9.19Zm3.42,0v9.19h1.15v-9.19Zm13.13,0h.57v9.19h-.57Zm-35.08,9.19v9.19h.24v-9.19Zm4,0v9.19h.25v-9.19Zm4,0v9.19h.24v-9.19Zm4,0v9.19h.25v-9.19Zm4,0v9.19h.25v-9.19Zm5.34,0v9.19H93v-9.19Zm12.56,0h1.14v9.19H105Zm4,0h.57v9.19H109Zm-39,9.19v9.19h.25v-9.19Zm4,0v9.19h.24v-9.19Zm4,0v9.19h.25v-9.19Zm4,0v9.19h.24v-9.19Zm4,0v9.19h.25v-9.19Zm5.35,0v9.19h.57v-9.19Zm3.42,0v9.19h1.14v-9.19Zm9.13,0H105v9.19h-1.15Zm4,0h.57v9.19h-.57Zm-39.52,9.19v9.19h.25v-9.19Zm4,0v9.19h.25v-9.19Zm4,0v9.19h.25v-9.19Zm4,0v9.19h.25v-9.19Zm4,0v9.19h.24v-9.19Zm5.34,0v9.19h.57v-9.19Zm3.42,0v9.19H94V319h.14v9.19h.54v9.19h.91v9.19h.92v9.19H98.2v-9.19H96.71v-9.19h-.34v-9.19h-1.1V319h.43v-9.19H94.21v-9.19Zm9.14,0h1.14v9.19H102.2Zm4,0h.57v9.19h-.57Zm-40.38,9.19V319h.25v-9.19Zm4,0V319h.25v-9.19Zm4,0V319h.25v-9.19Zm4,0V319H78v-9.19Zm4,0V319H82v-9.19Zm5.34,0V319h.58v-9.19Zm3.43,0V319h.14v9.19h.53v9.19h.91v9.19h.57v-9.19h-.33v-9.19H91.27V319h.43v-9.19Zm13.13,0h.57V319h.14v9.19h.53v9.19h.91v9.19H104.7v-9.19h-.34v-9.19h-1.1V319h.43ZM69.37,319v9.19h.25V319Zm4,0v9.19h.25V319Zm4,0v9.19h.25V319Zm4,0v9.19h.25V319Zm4,0v9.19h.24V319Zm21.89,0h.57v9.19h-.57Zm-40.77,9.19v9.19h.25v-9.19Zm4,0v9.19h.25v-9.19Zm4,0v9.19h.25v-9.19Zm4,0v9.19h.25v-9.19Zm4,0v9.19h.24v-9.19Zm5.34,0v9.19h.57v-9.19Zm-17,9.19v9.19h.24v-9.19Zm4,0v9.19h.25v-9.19Zm4,0v9.19h.25v-9.19Zm4,0v9.19h.25v-9.19Zm4,0v9.19h.25v-9.19Zm21.9,0h.57v9.19h-.57Zm-40.39,9.19v9.19h.25v-9.19Zm4,0v9.19h.25v-9.19Zm4,0v9.19h.25v-9.19Zm4,0v9.19h.25v-9.19Zm4,0v9.19h.24v-9.19Zm5.34,0v9.19h.57v-9.19Zm3.42,0v9.19h1.15v-9.19Z"/></g><g id="g16522"><path id="path16318" class="cls-16" d="M30.66,309.85a1,1,0,0,0-1,1h0V318a1,1,0,0,0,1,1H26.42a1,1,0,0,0-1,1h0v7.18a1,1,0,0,0,1,1H31a1,1,0,0,0-1,1h0v7.18a1,1,0,0,0,1,1H25.46a1,1,0,0,0-1,1h0v7.18a1,1,0,0,0,1,1h2.7a1,1,0,0,0-1,1h0v7.18a1,1,0,0,0,1,1H85.78a1,1,0,0,0,1-1h0v-7.18a1,1,0,0,0-1-1h-2.7a1,1,0,0,0,1-1h0v-7.18a1,1,0,0,0-1-1h5.58a1,1,0,0,0,1-1h0v-7.18a1,1,0,0,0-1-1H84.05a1,1,0,0,0,1-1h0v-7.18a1,1,0,0,0-1-1h4.23a1,1,0,0,0,1-1h0v-7.18a1,1,0,0,0-1-1H30.66Z"/><path id="path9656" class="cls-18" d="M40.41,309.85V319h-.24v9.19h.24V319h.24v-9.19Zm4,0V319h-.24v9.19h.25V319h.24v-9.19Zm4,0V319h-.24v9.19h.24V319h.25v-9.19Zm4,0V319h-.24v9.19h.25V319h.24v-9.19Zm4,0V319h.25v-9.19Zm5.34,0V319h-.81v9.19h1.14V319h.25v-9.19Zm3.43,0V319h-.81v9.19h1.19v9.19h1.15v-9.19h-.63V319h.24v-9.19Zm3.42,0V319h-.81v9.19H69v9.19H66.81v9.19h-.73v9.19h1.71v-9.19h1.3v-9.19h1.14v9.19H69.5v9.19h2.29v-9.19h1.14v9.19h2.85v-9.19h.57v9.19h9.43a1,1,0,0,0,1-1h0v-7.18a1,1,0,0,0-1-1h-2.7a1,1,0,0,0,1-1h0v-7.18a1,1,0,0,0-1-1h5.58a1,1,0,0,0,1-1h0v-7.18a1,1,0,0,0-1-1H84.05a1,1,0,0,0,1-1h0v-7.18a1,1,0,0,0-1-1h4.23a1,1,0,0,0,1-1h0v-7.18a1,1,0,0,0-1-1H78.86V319h-.57v-9.19H75.43V319h-.81v9.19h-.57V319h.24v-9.19H72V319h-.82v9.19h1.2v9.19H70.68v-9.19h-.63V319h.25v-9.19ZM36.17,319v9.19h.25V319Zm21.33,0v9.19h.57V319Zm-16.71,9.19v9.19H41v-9.19Zm4,0v9.19H45v-9.19Zm4,0v9.19H49v-9.19Zm4,0v9.19H53v-9.19Zm4,0v9.19h-.25v9.19h.57v-9.19H57v-9.19Zm5.34,0v9.19h.57v-9.19Zm12.56,0h1.14v9.19H74.68Zm4,0h.57v9.19h-.57Zm-43.46,9.19v9.19h.24v-9.19Zm4,0v9.19h.25v-9.19Zm4,0v9.19h.24v-9.19Zm4,0v9.19h.25v-9.19Zm4,0v9.19h.25v-9.19Zm8.77,0v9.19H61.1v-9.19Zm3.42,0v9.19h-.73v9.19H63.8v-9.19h1.29v-9.19Zm9.71,0h.57v9.19h-.57ZM37.9,346.61v9.19h.25v-9.19Zm4,0v9.19h.25v-9.19Zm4,0v9.19h.25v-9.19Zm4,0v9.19h.25v-9.19Zm4,0v9.19h.24v-9.19Zm5.34,0v9.19h.57v-9.19Z"/><path id="path9654" class="cls-17" d="M30.66,309.85a1,1,0,0,0-1,1h0V318a1,1,0,0,0,1,1h9.43v-9.19Zm10,0V319h2.86v-9.19Zm4,0V319h2.28v-9.19Zm4,0V319h1.71v-9.19Zm4,0V319h1.14v-9.19Zm4,0V319h.57v-9.19Zm4.85,0V319h.24v-9.19Zm3.42,0V319h.25v-9.19Zm3.43,0V319h.24v-9.19Zm3.42,0V319H72v-9.19Zm3.43,0V319h.24v-9.19Zm3.42,0V319h.25v-9.19ZM26.42,319a1,1,0,0,0-1,1h0v7.18a1,1,0,0,0,1,1H31a1,1,0,0,0-1,1h0v7.18a1,1,0,0,0,1,1H25.46a1,1,0,0,0-1,1h0v7.18a1,1,0,0,0,1,1h2.7a1,1,0,0,0-1,1h0v7.18a1,1,0,0,0,1,1h9.43v-9.19h.57v9.19H41v-9.19h.73v-9.19h1.71v9.19H42.15v9.19h2.28v-9.19h.73v-9.19h2.16v-9.19h-1.2V319H44.41v9.19H45v9.19H43.89v-9.19H42.7V319H40.41v9.19H39.27V319H36.42v9.19h-.57V319Zm22,0v9.19H49v9.19h1.71v-9.19h-1.2V319Zm4,0v9.19H53V319Zm4.85,0v9.19H57v9.19h.57v-9.19H57.5V319Zm3.42,0v9.19h.25V319Zm3.43,0v9.19h.25V319Zm3.42,0v9.19h.25V319ZM71,319v9.19h.24V319Zm3.42,0v9.19h.25V319Zm-33.9,9.19H41v9.19h-.57Zm12.56,0v9.19h1.14v-9.19Zm8.84,0v9.19h.25v-9.19Zm3.43,0v9.19h.24v-9.19Zm3.42,0v9.19H69v-9.19Zm3.43,0v9.19h.24v-9.19Zm3.42,0v9.19h.25v-9.19Zm3.43,0v9.19h.24v-9.19Zm-44.12,9.19h.57v9.19h-.57Zm3.43,0h1.14v9.19H38.31Zm9.13,0v9.19h-1.3v9.19h1.71v-9.19h.73v-9.19Zm4,0v9.19H52v-9.19Zm4.85,0v9.19h.24v-9.19Zm3.42,0v9.19H60v-9.19Zm3.43,0v9.19h.24v-9.19Zm3.42,0v9.19h.25v-9.19Zm3.42,0v9.19h.25v-9.19Zm3.43,0v9.19h.25v-9.19Zm-23.27,9.19v9.19h1.14v-9.19Zm4,0v9.19h.57v-9.19Zm4.85,0v9.19h.25v-9.19Zm3.43,0v9.19h.24v-9.19Zm3.42,0v9.19h.25v-9.19Zm3.43,0v9.19h.24v-9.19Zm3.42,0v9.19h.25v-9.19Zm3.43,0v9.19h.24v-9.19Z"/></g><g id="g150577"><path id="path138956" class="cls-19" d="M97.79,299.59v55.59H92.31A24,24,0,0,1,74.52,347a29.89,29.89,0,0,1,0-39.31,24,24,0,0,1,17.79-8.14Z"/><path id="path139017" class="cls-20" d="M68.26,319.25c0-.19.11-.37.16-.55H97.8v.55ZM69.38,316c.15-.36.31-.73.47-1.09h28V316ZM71,312.7c.32-.56.65-1.1,1-1.64H97.8v1.64Zm2.17-3.27c.44-.58.91-1.14,1.4-1.69l.46-.5H97.8v2.19Zm3-3.28a25.6,25.6,0,0,1,3.49-2.73H97.8v2.73Zm4.37-3.27a23.3,23.3,0,0,1,11.85-3.28H97.8v3.28Z"/><path id="path138960" class="cls-16" d="M97.8,299.6a27.8,27.8,0,1,0,27.8,27.8h0A27.8,27.8,0,0,0,97.8,299.6Z"/><path id="path138958" class="cls-21" d="M68.26,335.55c0,.18.11.36.16.54h3c-.07-.18-.13-.36-.19-.54Zm1.12,3.27c.15.37.31.73.47,1.09H73c-.18-.36-.35-.72-.52-1.09ZM71,342.1c.32.55.65,1.1,1,1.63h3.38c-.39-.53-.76-1.08-1.11-1.63Zm2.17,3.27c.44.58.91,1.14,1.4,1.68.15.17.3.34.46.5h3.69a28.25,28.25,0,0,1-2.06-2.18Zm3,3.27a24.84,24.84,0,0,0,3.49,2.73h4.16a27.84,27.84,0,0,1-3.84-2.73Zm4.37,3.28a23.29,23.29,0,0,0,11.85,3.27H97.8a27.78,27.78,0,0,1-13-3.27Z"/><path id="path138962" class="cls-22" d="M97.8,305.42a22,22,0,0,0-22,22h0a22,22,0,0,0,22,22h0a22,22,0,0,0,22-22h0a22,22,0,0,0-22-22Z"/><path id="path138964" class="cls-23" d="M97.8,305.42q-.8,0-1.59.06c12.28.84,21.78,10.4,21.78,21.92s-9.51,21.08-21.79,21.92c.53,0,1.07.06,1.6.06a22,22,0,0,0,22-22h0a22,22,0,0,0-22-22Z"/><path id="path138968" class="cls-24" d="M101,317a3.54,3.54,0,0,1,.75,2.7l1,.66c0-1.72-.37-2.41-1-2.94A3.5,3.5,0,0,0,101,317Zm-7.37,5.67a4.81,4.81,0,0,0,.51.39,14.3,14.3,0,0,0,4.32,1.72,20.35,20.35,0,0,1,5.69,1.77l0,0a7.42,7.42,0,0,0-1-.69,19.87,19.87,0,0,0-5.7-1.77,16.36,16.36,0,0,1-3.86-1.45Zm8,8a2.86,2.86,0,0,1,.89,2c.11,2-.32,3.09-1,3.78s-2.17,1.26-4.74,1.23a8.94,8.94,0,0,1-3.52-.67l.07.07c.69.66,2,1.2,4.42,1.27,2.57,0,4-.54,4.74-1.23s1.16-1.74,1-3.79a2.92,2.92,0,0,0-1.73-2.58l-.12-.06Zm-7.27,12.09v1.72l1,.67v-2.21C95,342.89,94.63,342.82,94.31,342.75Z"/><path id="path138970" class="cls-25" d="M94.31,309v2.18l1,.66v-2.18Zm5.77,2.34v.49a9.92,9.92,0,0,1,3.6,1.18,8.75,8.75,0,0,0-3.6-1.67Zm-13.7,21c-.09,3,.64,5.7,2.53,7.54a7.88,7.88,0,0,0,1.47,1.11l-.5-.44C88,338.65,87.26,336,87.35,333Z"/><path id="path138972" class="cls-26" d="M94.31,309l1,.66h4.8l-1-.66Zm0,2.18a9.23,9.23,0,0,0-4.62,1.94A8,8,0,0,0,87,319.29a8.44,8.44,0,0,0,3.43,7.07c.16.12.33.21.5.32A8.59,8.59,0,0,1,88,320a8,8,0,0,1,2.71-6.18,9.33,9.33,0,0,1,4.62-1.95Zm-7.93,21.12,1,.66,4.81.14-1-.66Z"/><path id="path138976" class="cls-27" d="M75.93,306.32l-.31.29Zm3.43.36A28,28,0,0,0,73,314.94l5.13,2.69a22,22,0,0,1,6.82-8Zm-7.48,4.51-.16.25Zm36.36,22.22c0-.15,0-.3,0-.45v-.11a8.31,8.31,0,0,0-4.07-6.26,8.58,8.58,0,0,0-1-.69,19.87,19.87,0,0,0-5.7-1.77,16.3,16.3,0,0,1-3.86-1.44c-.56-.49-.83-1.1-.83-2.73a2.83,2.83,0,0,1,1-2.48,6.12,6.12,0,0,1,4.06-1h.28l-7.56-4a9.45,9.45,0,0,0-.82.59,8,8,0,0,0-2.7,6.18,9.6,9.6,0,0,0,.55,3.26M72,317.17c-.28.73-.53,1.47-.75,2.23l5.27,2.76a20.32,20.32,0,0,1,.7-2.26Zm29.63,1.17a6.73,6.73,0,0,1,.1,1.37l1,.66,2.89.05Zm18.14,9.52A21.91,21.91,0,0,1,117,338l5.19,2.73a27.84,27.84,0,0,0,3.19-9.91Zm-17.27,5.3a5.31,5.31,0,0,1-.43,2.4l5.27,2.77a9.88,9.88,0,0,0,.73-2.25Zm13.21,6.93c-.45.64-.93,1.27-1.44,1.87l5.27,2.76c.49-.61,1-1.24,1.39-1.9Z"/><path id="path138974" class="cls-28" d="M78.35,307.88a28.74,28.74,0,0,1,12.75-7.31,25.31,25.31,0,0,1,6.7-1,23.85,23.85,0,0,0-6.76.74,27.49,27.49,0,0,0-13,7.2l0,0a28,28,0,0,0,0,39.61l0,0a27.59,27.59,0,0,0,13,7.24,24.11,24.11,0,0,0,6.77.73,25.09,25.09,0,0,1-6.71-1,28.71,28.71,0,0,1-12.77-7.35l0,0a27.56,27.56,0,0,1,0-38.94l0,0Z"/></g><circle class="cls-22" cx="97.76" cy="327.72" r="18.72"/><path class="cls-29" d="M103.1,343.38H99a.48.48,0,0,1-.44-.22l-4.86-6.1c-1.46-1.83-2.91-3.66-4.37-5.48a.93.93,0,0,1-.23-.67c0-.58,0-1.16,0-1.74,0-.27.09-.31.32-.3a22.75,22.75,0,0,0,3.69-.08,6.28,6.28,0,0,0,3.23-1.2,4.22,4.22,0,0,0,1.74-3c0-.4,0-.4-.35-.4H88.57c-.09,0-.21,0-.26,0s0-.17.1-.24c.43-.68.86-1.35,1.27-2a.48.48,0,0,1,.48-.25h7.32c.19,0,.21-.05.13-.21a3.82,3.82,0,0,0-1.75-1.69,7.85,7.85,0,0,0-3.19-.71c-1.36-.07-2.71,0-4.06,0h-.3c0-.14.07-.21.12-.29.43-.67.86-1.32,1.28-2a.42.42,0,0,1,.39-.21h16c.08,0,.19,0,.23,0s0,.15-.1.22c-.4.66-.82,1.3-1.22,2a.39.39,0,0,1-.39.2h-4.13c-.06.11,0,.16.06.21a5.49,5.49,0,0,1,1,2.19c.05.22.13.29.35.28h4.14c.13,0,.31-.06.36.05s-.1.22-.16.33c-.42.65-.85,1.29-1.25,1.94a.45.45,0,0,1-.46.24H102c-.16,0-.25,0-.28.22a7.27,7.27,0,0,1-4.34,5.42,12,12,0,0,1-3.91,1c-.08,0-.21,0-.25.06s.08.16.14.23l6.64,8.28,3,3.69A.61.61,0,0,1,103.1,343.38Z"/><text class="cls-30" transform="translate(402.03 69.57)">Housing <tspan x="-18.97" y="19.2">Bill Payments</tspan></text><path class="cls-13" d="M473.08,247.59A12.12,12.12,0,0,1,461,259.71H412a12.12,12.12,0,1,1,0-24.24h49A12.11,12.11,0,0,1,473.08,247.59Z"/><path class="cls-6" d="M422.75,242.28a.93.93,0,0,1,.94-.94h3.24c2.48,0,4,1.41,4,3.54v0c0,2.38-1.9,3.62-4.23,3.62h-2.11v2.56a.93.93,0,0,1-1.86,0Zm4,4.57c1.4,0,2.28-.79,2.28-1.89v0c0-1.24-.89-1.89-2.28-1.89h-2.17v3.81Z"/><path class="cls-6" d="M431.4,250.73l3.94-8.78a1.18,1.18,0,0,1,1.12-.76h.09a1.15,1.15,0,0,1,1.1.76l3.94,8.78a.73.73,0,0,1,.1.39.86.86,0,0,1-.87.89,1,1,0,0,1-.91-.65l-.86-2H433.9l-.89,2a.9.9,0,0,1-.87.59.85.85,0,0,1-.86-.86A1,1,0,0,1,431.4,250.73Zm6.94-3-1.87-4.28-1.86,4.28Z"/><path class="cls-6" d="M445.38,247.82l-3.64-5a1.15,1.15,0,0,1-.22-.65.9.9,0,0,1,.94-.89,1.06,1.06,0,0,1,.91.56l2.95,4.25,3-4.27a1.08,1.08,0,0,1,.89-.56.88.88,0,0,1,.91.91,1.08,1.08,0,0,1-.26.66l-3.61,5v3.32a.94.94,0,0,1-1.87,0Z"/></g></g></svg>