<svg xmlns="http://www.w3.org/2000/svg" viewBox="0 0 504.84 517.89"><defs><style>.cls-1{fill:#e1e1e1;}.cls-2{fill:#a8a8a8;}.cls-3{fill:#d268cc;}.cls-4{fill:#ffb200;}.cls-5{fill:#001e50;}.cls-11,.cls-6{opacity:0.25;}.cls-7{fill:#f5f5f5;}.cls-8{fill:#02275e;}.cls-9{fill:#375a64;}.cls-10{fill:#fafafa;}.cls-12{fill:#2b454e;}.cls-13{fill:#1a2e35;}.cls-14,.cls-15{fill:#fff;}.cls-14{opacity:0.4;}.cls-16{fill:#f0f0f0;}.cls-17{fill:#ffbea7;}.cls-18{fill:#000607;}.cls-19{fill:#063d76;}.cls-20{opacity:0.15;}.cls-21{fill:#ff9a79;}.cls-22{fill:#ff9090;}.cls-23{fill:#c76668;}</style></defs><g id="Layer_2" data-name="Layer 2"><g id="Layer_2-2" data-name="Layer 2"><path id="Floor" class="cls-1" d="M72.42,274.2c-96.56,55.75-96.56,146.13,0,201.88s253.12,55.75,349.68,0,96.55-146.13,0-201.88S169,218.45,72.42,274.2Z"/><path id="Shadow" class="cls-1" d="M229,337.43,24.22,455.64a7.84,7.84,0,0,1-7-.29L3.73,447.58c-2.09-1.2-2.31-3-.51-4.06L208,325.31a7.84,7.84,0,0,1,7,.29l13.45,7.77C230.55,334.57,230.77,336.39,229,337.43Z"/><ellipse id="Shadow-2" data-name="Shadow" class="cls-2" cx="366.99" cy="424.41" rx="80.86" ry="46.69"/><path id="Shadow-3" data-name="Shadow" class="cls-1" d="M172.12,481.94l155.56-89.85c2-1.17,2-3.08,0-4.25l-79-45.57a8.18,8.18,0,0,0-7.37,0L85.75,432.12c-2,1.17-2,3.07,0,4.25l79,45.57A8.16,8.16,0,0,0,172.12,481.94Z"/><g id="Clipboard"><g id="Board"><g id="Window"><path class="cls-3" d="M205.47.84l-188,108.42A7.76,7.76,0,0,0,14,115.34v326.3a7.75,7.75,0,0,0,3.53,6.08l.71.41a7.83,7.83,0,0,0,7,0l188-108.55a7.76,7.76,0,0,0,3.52-6.09V7.32a7.73,7.73,0,0,0-3.52-6.08l-.72-.41A7.83,7.83,0,0,0,205.47.84Z"/><path class="cls-4" d="M205.47.84l-188,108.42A7.76,7.76,0,0,0,14,115.34v326.3a7.75,7.75,0,0,0,3.53,6.08l.71.41a7.83,7.83,0,0,0,7,0l188-108.55a7.76,7.76,0,0,0,3.52-6.09V7.32a7.73,7.73,0,0,0-3.52-6.08l-.72-.41A7.83,7.83,0,0,0,205.47.84Z"/><path class="cls-3" d="M216.75,333.72c0,3.09-2.17,5.06-4.86,6.6l-185.32,107c-2.67,1.55-4.86.3-4.86-2.8V121.31h0a9.68,9.68,0,0,1,4.84-8.38L211.89,5.9a3.24,3.24,0,0,1,4.86,2.8h0Z"/><path class="cls-5" d="M216.75,333.72c0,3.09-2.17,5.06-4.86,6.6l-185.32,107c-2.67,1.55-4.86.3-4.86-2.8V121.31h0a9.68,9.68,0,0,1,4.84-8.38L211.89,5.9a3.24,3.24,0,0,1,4.86,2.8h0Z"/><path class="cls-3" d="M216.75,7.32V8.7a3.24,3.24,0,0,0-4.87-2.8l-185.33,107A9.35,9.35,0,0,0,23,116.47a.39.39,0,0,0-.06.11l-8-4.64a7.27,7.27,0,0,1,2.53-2.68L205.47.84a7.83,7.83,0,0,1,7,0l.71.41A7.72,7.72,0,0,1,216.75,7.32Z"/><path class="cls-4" d="M216.75,7.32V8.7a3.24,3.24,0,0,0-4.87-2.8l-185.33,107A9.35,9.35,0,0,0,23,116.47a.39.39,0,0,0-.06.11l-8-4.64a7.27,7.27,0,0,1,2.53-2.68L205.47.84a7.83,7.83,0,0,1,7,0l.71.41A7.72,7.72,0,0,1,216.75,7.32Z"/></g></g><path id="Shadow-4" data-name="Shadow" class="cls-6" d="M212.17,319.48c0,3.18-2.24,5.21-5,6.81L32,427.41c-2.76,1.59-5,.31-5-2.89V139.24h0a10,10,0,0,1,5-8.64L207.16,29.43a3.35,3.35,0,0,1,5,2.9V319.48Z"/><g id="Form"><g id="Paper"><path class="cls-7" d="M31.49,134.39,206,33.64a3.28,3.28,0,0,1,3,0l1.68,1a3.29,3.29,0,0,1,1.5,2.59V323.89a3.31,3.31,0,0,1-1.5,2.59L36.16,427.23a3.28,3.28,0,0,1-3,0l-1.68-1a3.31,3.31,0,0,1-1.5-2.59V137A3.31,3.31,0,0,1,31.49,134.39Z"/><path class="cls-1" d="M35.81,427.39a2.56,2.56,0,0,1-.56.15l-.28,0a4,4,0,0,1-.91,0,2.34,2.34,0,0,1-.55-.15,2.11,2.11,0,0,1-.34-.16l-1.68-1A3.34,3.34,0,0,1,30,423.68V137a3,3,0,0,1,.43-1.47l4.67,2.69a3.18,3.18,0,0,0-.43,1.47V426.37C34.67,427.19,35.15,427.59,35.81,427.39Z"/><path class="cls-3" d="M210.67,34.61l-1.68-1a3.28,3.28,0,0,0-3,0L31.49,134.39A3.31,3.31,0,0,0,30,137v38.68l4.68,2.71L212.17,75.89V37.2A3.29,3.29,0,0,0,210.67,34.61Z"/><path class="cls-4" d="M210.67,34.61l-1.68-1a3.28,3.28,0,0,0-3,0L31.49,134.39A3.31,3.31,0,0,0,30,137v38.68l4.68,2.71L212.17,75.89V37.2A3.29,3.29,0,0,0,210.67,34.61Z"/><path class="cls-3" d="M212.11,36.75c-.18-.61-.76-.81-1.43-.42L36.16,137.09a3.06,3.06,0,0,0-1.06,1.11l-4.67-2.69a3,3,0,0,1,1.06-1.11L206,33.64a3.26,3.26,0,0,1,3,0l1.69,1A3.3,3.3,0,0,1,212.11,36.75Z"/><path class="cls-8" d="M212.11,36.75c-.18-.61-.76-.81-1.43-.42L36.16,137.09a3.06,3.06,0,0,0-1.06,1.11l-4.67-2.69a3,3,0,0,1,1.06-1.11L206,33.64a3.26,3.26,0,0,1,3,0l1.69,1A3.3,3.3,0,0,1,212.11,36.75Z"/><path class="cls-8" d="M30,137v38.7l4.67,2.69V139.68a3.21,3.21,0,0,1,.43-1.48l-4.67-2.69A3,3,0,0,0,30,137Z"/></g></g><g id="Clip_Board" data-name="Clip Board"><path class="cls-8" d="M70.06,190.07,177,128.18c.47-.28.85-.06.85.49v1.1a1.88,1.88,0,0,1-.85,1.48L70.06,193.14c-.47.27-.85.05-.85-.49v-1.11A1.87,1.87,0,0,1,70.06,190.07Z"/><path class="cls-1" d="M74.4,236v1.56c0,.84.59,1.19,1.33.76l70.45-40.62a3,3,0,0,0,1.33-2.3v-1.57c0-.84-.6-1.18-1.33-.76L75.73,233.66A2.91,2.91,0,0,0,74.4,236Z"/><path class="cls-1" d="M74.4,245.8v1.56c0,.84.59,1.19,1.33.76l121-69.82a2.94,2.94,0,0,0,1.32-2.3v-1.57c0-.84-.59-1.18-1.32-.76l-121,69.83A2.91,2.91,0,0,0,74.4,245.8Z"/><path class="cls-1" d="M74.4,255.16v1.56c0,.85.59,1.19,1.33.77l121-69.83a2.93,2.93,0,0,0,1.32-2.3V183.8c0-.85-.59-1.19-1.32-.77l-121,69.83A2.92,2.92,0,0,0,74.4,255.16Z"/><path class="cls-9" d="M46.93,274.71a.69.69,0,0,1-.34-.09.68.68,0,0,1-.34-.59V251.44a.67.67,0,0,1,.34-.59L66,239.63a.68.68,0,0,1,1,.59v22.6a.7.7,0,0,1-.34.59L47.27,274.62A.67.67,0,0,1,46.93,274.71Zm.68-22.88v21l18.07-10.43v-21Z"/><polygon class="cls-8" points="56.41 264.15 51.89 259.8 53.4 256.6 55.97 259.07 67.11 235.5 69.06 237.38 56.41 264.15"/><path class="cls-1" d="M74.4,271.33v1.56c0,.85.59,1.19,1.33.77L146.18,233a2.93,2.93,0,0,0,1.33-2.29v-1.57c0-.85-.6-1.19-1.33-.77L75.73,269A2.91,2.91,0,0,0,74.4,271.33Z"/><path class="cls-1" d="M74.4,281.17v1.56c0,.85.59,1.19,1.33.77l121-69.83a2.92,2.92,0,0,0,1.32-2.29v-1.57c0-.84-.59-1.19-1.32-.76l-121,69.83A2.91,2.91,0,0,0,74.4,281.17Z"/><path class="cls-1" d="M74.4,290.54v1.56c0,.84.59,1.19,1.33.76l121-69.82a2.93,2.93,0,0,0,1.32-2.3v-1.56c0-.85-.59-1.19-1.32-.77l-121,69.83A2.91,2.91,0,0,0,74.4,290.54Z"/><path class="cls-9" d="M46.93,310.09a.69.69,0,0,1-.34-.09.68.68,0,0,1-.34-.59v-22.6a.7.7,0,0,1,.34-.59L66,275a.66.66,0,0,1,.68,0,.67.67,0,0,1,.34.59v22.59a.67.67,0,0,1-.34.59L47.27,310A.67.67,0,0,1,46.93,310.09Zm.68-22.88v21L65.68,297.8v-21Z"/><polygon class="cls-8" points="56.41 299.53 51.89 295.18 53.4 291.98 55.97 294.45 67.11 270.88 69.06 272.75 56.41 299.53"/><path class="cls-1" d="M74.4,306.71v1.56c0,.85.59,1.19,1.33.77l70.45-40.63a2.94,2.94,0,0,0,1.33-2.3v-1.56c0-.85-.6-1.19-1.33-.77L75.73,304.41A2.92,2.92,0,0,0,74.4,306.71Z"/><path class="cls-1" d="M74.4,316.55v1.56c0,.85.59,1.19,1.33.77l121-69.83a2.93,2.93,0,0,0,1.32-2.3v-1.56c0-.85-.59-1.19-1.32-.77l-121,69.83A2.91,2.91,0,0,0,74.4,316.55Z"/><path class="cls-1" d="M74.4,325.91v1.56c0,.85.59,1.19,1.33.77l121-69.83a2.92,2.92,0,0,0,1.32-2.29v-1.57c0-.84-.59-1.19-1.32-.76l-121,69.83A2.91,2.91,0,0,0,74.4,325.91Z"/><path class="cls-9" d="M46.93,345.47a.61.61,0,0,1-.34-.1.67.67,0,0,1-.34-.59V322.19a.68.68,0,0,1,.34-.59L66,310.38a.69.69,0,0,1,.68,0A.7.7,0,0,1,67,311v22.6a.68.68,0,0,1-.34.59L47.27,345.37A.59.59,0,0,1,46.93,345.47Zm.68-22.89v21l18.07-10.43v-21Z"/><polygon class="cls-8" points="56.41 334.9 51.89 330.56 53.4 327.35 55.97 329.83 67.11 306.26 69.06 308.13 56.41 334.9"/><path class="cls-1" d="M74.4,342.09v1.56c0,.84.59,1.19,1.33.76l70.45-40.62a3,3,0,0,0,1.33-2.3v-1.57c0-.84-.6-1.19-1.33-.76L75.73,339.79A2.91,2.91,0,0,0,74.4,342.09Z"/><path class="cls-1" d="M74.4,351.93v1.56c0,.84.59,1.18,1.33.76l121-69.82a2.94,2.94,0,0,0,1.32-2.3v-1.57c0-.84-.59-1.18-1.32-.76l-121,69.83A2.91,2.91,0,0,0,74.4,351.93Z"/><path class="cls-1" d="M74.4,361.29v1.56c0,.85.59,1.19,1.33.77l121-69.83a2.93,2.93,0,0,0,1.32-2.3v-1.56c0-.85-.59-1.19-1.32-.77L75.73,359A2.92,2.92,0,0,0,74.4,361.29Z"/><path class="cls-9" d="M46.93,380.84a.69.69,0,0,1-.34-.09.68.68,0,0,1-.34-.59V357.57a.67.67,0,0,1,.34-.59L66,345.76a.68.68,0,0,1,1,.59v22.59a.7.7,0,0,1-.34.6L47.27,380.75A.67.67,0,0,1,46.93,380.84ZM47.61,358v21l18.07-10.43v-21Z"/><polygon class="cls-8" points="56.41 370.28 51.89 365.93 53.4 362.73 55.97 365.2 67.11 341.63 69.06 343.51 56.41 370.28"/><path class="cls-1" d="M46.25,218.27v1.56c0,.85.59,1.19,1.33.77l149.16-86.14a2.92,2.92,0,0,0,1.32-2.29V130.6c0-.84-.59-1.19-1.32-.76L47.58,216A2.92,2.92,0,0,0,46.25,218.27Z"/><path class="cls-1" d="M46.25,228.21v1.56c0,.84.59,1.19,1.33.76L196.74,144.4a2.93,2.93,0,0,0,1.32-2.3v-1.56c0-.85-.59-1.19-1.32-.77L47.58,225.91A2.91,2.91,0,0,0,46.25,228.21Z"/><path class="cls-1" d="M46.25,238.15v1.55c0,.85.59,1.19,1.33.77l149.16-86.13a2.93,2.93,0,0,0,1.32-2.3v-1.56c0-.85-.59-1.19-1.32-.77L47.58,235.85A2.91,2.91,0,0,0,46.25,238.15Z"/><path class="cls-1" d="M46.25,394v1.56c0,.85.59,1.19,1.33.77l149.16-86.13a3,3,0,0,0,1.32-2.3v-1.57c0-.84-.59-1.19-1.32-.76L47.58,391.74A2.94,2.94,0,0,0,46.25,394Z"/><path class="cls-1" d="M46.25,404v1.56c0,.85.59,1.19,1.33.77l149.16-86.14a2.92,2.92,0,0,0,1.32-2.29v-1.57c0-.85-.59-1.19-1.32-.76L47.58,401.68A2.92,2.92,0,0,0,46.25,404Z"/><path class="cls-10" d="M47.85,150.39l61.1-35.3c.88-.51,1.59-.1,1.59.92v.46a3.53,3.53,0,0,1-1.59,2.77l-61.11,35.3c-.88.51-1.59.1-1.59-.92v-.47A3.51,3.51,0,0,1,47.85,150.39Z"/><path class="cls-10" d="M47.85,158.75l36.35-21c.88-.51,1.6-.1,1.6.92v.47a3.54,3.54,0,0,1-1.6,2.76l-36.36,21c-.88.51-1.59.1-1.59-.92v-.47A3.5,3.5,0,0,1,47.85,158.75Z"/><path class="cls-5" d="M170.09,79.28l27.18-15.7c.44-.26.79,0,.79.46v1a1.76,1.76,0,0,1-.79,1.38l-27.18,15.7c-.44.26-.79,0-.79-.46v-1A1.76,1.76,0,0,1,170.09,79.28Z"/><path class="cls-5" d="M170.09,91.8l27.18-15.7c.44-.25.79,0,.79.46v1a1.75,1.75,0,0,1-.79,1.38l-27.18,15.7c-.44.26-.79,0-.79-.46v-1A1.76,1.76,0,0,1,170.09,91.8Z"/><path class="cls-5" d="M175.7,82.27l21.57-12.45c.44-.25.79,0,.79.46v1a1.75,1.75,0,0,1-.79,1.38L175.7,85.14c-.44.26-.8,0-.8-.46v-1A1.77,1.77,0,0,1,175.7,82.27Z"/><path class="cls-9" d="M72.13,185.1a.26.26,0,0,1-.34,0,.64.64,0,0,1-.14-.45V166.77a1.47,1.47,0,0,1,.14-.61,1,1,0,0,1,.34-.42l1.46-.84a.26.26,0,0,1,.34,0,.59.59,0,0,1,.14.45v17.86a1.33,1.33,0,0,1-.14.61.88.88,0,0,1-.34.42Z"/><path class="cls-9" d="M85,177.65c-.2.12-.36.13-.46,0a1.75,1.75,0,0,1-.24-.25l-5-8.6v11.4a1.32,1.32,0,0,1-.14.6.88.88,0,0,1-.34.42l-1.46.84a.26.26,0,0,1-.34,0,.62.62,0,0,1-.14-.45V163.75a1.47,1.47,0,0,1,.14-.61,1,1,0,0,1,.34-.42l1.26-.72c.2-.12.36-.13.47,0s.18.19.23.26l5,8.6v-11.4a1.46,1.46,0,0,1,.14-.6.88.88,0,0,1,.34-.42l1.46-.84a.26.26,0,0,1,.34,0,.57.57,0,0,1,.15.44V175.9a1.37,1.37,0,0,1-.15.61.93.93,0,0,1-.34.42Z"/><path class="cls-9" d="M93.89,152.9a4.71,4.71,0,0,1,2.12-.72,2.64,2.64,0,0,1,1.53.36,2.47,2.47,0,0,1,.92,1.11,4.11,4.11,0,0,1,.35,1.5,1.24,1.24,0,0,1-.13.62,1,1,0,0,1-.35.41l-1.26.72c-.2.12-.36.15-.46.09a.86.86,0,0,1-.28-.33,1.44,1.44,0,0,0-.82-.73,2.12,2.12,0,0,0-1.62.43A4.61,4.61,0,0,0,93,157a5,5,0,0,0-.74.86,4.56,4.56,0,0,0-.49,1,3.22,3.22,0,0,0-.18,1.05,2.07,2.07,0,0,0,.17.94.74.74,0,0,0,.58.36,3.51,3.51,0,0,0,1.06-.08c.45-.09,1-.22,1.66-.38a7.11,7.11,0,0,1,1.86-.23,2.19,2.19,0,0,1,1.27.43,2.3,2.3,0,0,1,.74,1.14,6.18,6.18,0,0,1,.24,1.88,9.12,9.12,0,0,1-.36,2.51,10.53,10.53,0,0,1-1,2.42,11.45,11.45,0,0,1-1.64,2.15,9.94,9.94,0,0,1-2.17,1.7,5.88,5.88,0,0,1-1.92.73,2.83,2.83,0,0,1-1.63-.14,2.33,2.33,0,0,1-1.14-1,4.12,4.12,0,0,1-.48-1.93,1.12,1.12,0,0,1,.13-.62,1,1,0,0,1,.35-.41l1.26-.73a.57.57,0,0,1,.47-.1.6.6,0,0,1,.26.34,3.6,3.6,0,0,0,.31.54.89.89,0,0,0,.49.36,1.57,1.57,0,0,0,.76,0,4.12,4.12,0,0,0,1.14-.48,7.23,7.23,0,0,0,1-.73,4.78,4.78,0,0,0,.88-.92,5,5,0,0,0,.61-1.07,3.06,3.06,0,0,0,.24-1.2,1.18,1.18,0,0,0-.25-.85,1,1,0,0,0-.77-.23,6.77,6.77,0,0,0-1.27.21c-.5.12-1.08.25-1.74.37a5.58,5.58,0,0,1-1.57.12,1.82,1.82,0,0,1-1.11-.48,2.41,2.41,0,0,1-.66-1.18,7.91,7.91,0,0,1-.22-2,9,9,0,0,1,.36-2.5A10.73,10.73,0,0,1,92,154.42,8.05,8.05,0,0,1,93.89,152.9Z"/><path class="cls-9" d="M110.94,143.34a.26.26,0,0,1,.34,0,.61.61,0,0,1,.14.44v11.34a16,16,0,0,1-.32,3.29,13.52,13.52,0,0,1-1,2.94,10.28,10.28,0,0,1-1.62,2.46,8.64,8.64,0,0,1-2.24,1.84,4.85,4.85,0,0,1-2.26.76,2.21,2.21,0,0,1-1.61-.6,3.88,3.88,0,0,1-1-1.83,11.63,11.63,0,0,1-.31-2.91V149.75a1.47,1.47,0,0,1,.14-.61,1,1,0,0,1,.34-.42l1.46-.84a.26.26,0,0,1,.34,0,.59.59,0,0,1,.14.45v11.2a6.89,6.89,0,0,0,.2,1.82,2,2,0,0,0,.56,1,1.06,1.06,0,0,0,.86.25,2.9,2.9,0,0,0,1.1-.4,4.68,4.68,0,0,0,1.1-.87,5,5,0,0,0,.87-1.25,7.34,7.34,0,0,0,.57-1.64,9.23,9.23,0,0,0,.21-2V145.19a1.39,1.39,0,0,1,.14-.61.84.84,0,0,1,.34-.41Z"/><path class="cls-9" d="M119.26,138.53c1.49-.86,2.63-1,3.41-.36s1.17,1.88,1.17,3.78a11.76,11.76,0,0,1-.6,3.79,9.64,9.64,0,0,1-1.77,3.13l2.47,5.41a.63.63,0,0,1,.06.27,1.11,1.11,0,0,1-.12.49.79.79,0,0,1-.28.35l-1.52.88c-.24.13-.42.15-.53,0a1,1,0,0,1-.25-.34L119,150.88l-2.39,1.38v6.44a1.47,1.47,0,0,1-.14.61.93.93,0,0,1-.34.42l-1.46.84a.26.26,0,0,1-.34,0,.64.64,0,0,1-.14-.45V142.24a1.47,1.47,0,0,1,.14-.61,1,1,0,0,1,.34-.42Zm-2.7,10.27,2.61-1.5a4.91,4.91,0,0,0,1.63-1.5,4.29,4.29,0,0,0,.61-2.45c0-1-.2-1.61-.61-1.73a2.28,2.28,0,0,0-1.63.42l-2.61,1.51Z"/><path class="cls-9" d="M132.08,131.13c.19-.11.34-.12.43,0a1.45,1.45,0,0,1,.26.57l4.4,14.93a.92.92,0,0,1,0,.19,1.4,1.4,0,0,1-.15.61.84.84,0,0,1-.34.41l-1.29.75q-.36.21-.51.06a.8.8,0,0,1-.19-.35l-.78-2.62-5.67,3.28-.78,3.51a2.71,2.71,0,0,1-.19.57,1.18,1.18,0,0,1-.51.53l-1.29.75a.27.27,0,0,1-.34,0,.57.57,0,0,1-.15-.44,1.23,1.23,0,0,1,0-.2l4.4-20a4.57,4.57,0,0,1,.26-.85,1,1,0,0,1,.43-.48Zm1,11.57-2-6.74-2,9Z"/><path class="cls-9" d="M147,141.89c-.21.12-.36.13-.47,0a1.53,1.53,0,0,1-.23-.25l-5-8.6v11.39a1.34,1.34,0,0,1-.15.61.93.93,0,0,1-.34.42l-1.46.84a.26.26,0,0,1-.34,0,.64.64,0,0,1-.14-.45V128a1.47,1.47,0,0,1,.14-.61.93.93,0,0,1,.34-.42l1.26-.73c.21-.11.36-.12.47,0a2.11,2.11,0,0,1,.23.25l5,8.61v-11.4a1.4,1.4,0,0,1,.15-.61.93.93,0,0,1,.34-.42l1.45-.84a.27.27,0,0,1,.34,0,.57.57,0,0,1,.15.44v17.87a1.4,1.4,0,0,1-.15.61.93.93,0,0,1-.34.42Z"/><path class="cls-9" d="M159.25,128.67a1.55,1.55,0,0,1,.18-.65,1,1,0,0,1,.34-.37l1.45-.84a.28.28,0,0,1,.35,0,.53.53,0,0,1,.14.46,13.55,13.55,0,0,1-.37,2.48,12.12,12.12,0,0,1-1,2.61,11.93,11.93,0,0,1-1.64,2.43,8.69,8.69,0,0,1-2.39,2,4.31,4.31,0,0,1-2.19.7,2.3,2.3,0,0,1-1.61-.64,4.12,4.12,0,0,1-1-1.83,11.59,11.59,0,0,1-.44-2.81c0-.69,0-1.46,0-2.3s0-1.63,0-2.35a19.22,19.22,0,0,1,.44-3.32,14.33,14.33,0,0,1,1-3,11.57,11.57,0,0,1,1.61-2.51,8.68,8.68,0,0,1,2.19-1.83,4.92,4.92,0,0,1,2.39-.8,2.53,2.53,0,0,1,1.64.55,3.18,3.18,0,0,1,1,1.51,7.92,7.92,0,0,1,.37,2,1.25,1.25,0,0,1-.14.62.94.94,0,0,1-.35.4l-1.45.84a.32.32,0,0,1-.34,0,.5.5,0,0,1-.2-.42,3,3,0,0,0-.25-.94,1.52,1.52,0,0,0-.54-.63,1.46,1.46,0,0,0-.86-.18,3.1,3.1,0,0,0-1.23.45,4.61,4.61,0,0,0-1.22,1,6.24,6.24,0,0,0-.87,1.39,8.3,8.3,0,0,0-.54,1.64,10.72,10.72,0,0,0-.22,1.76c0,.72,0,1.5,0,2.35s0,1.61,0,2.3a6.51,6.51,0,0,0,.22,1.51,2.41,2.41,0,0,0,.54,1,1.29,1.29,0,0,0,.87.38,2.23,2.23,0,0,0,1.22-.37,5.38,5.38,0,0,0,1.23-1,7.3,7.3,0,0,0,.87-1.18,7,7,0,0,0,.55-1.26A6.46,6.46,0,0,0,159.25,128.67Z"/><path class="cls-9" d="M172.18,123.88a.26.26,0,0,1,.34,0,.57.57,0,0,1,.14.44v2a1.33,1.33,0,0,1-.14.61.93.93,0,0,1-.34.42l-7.89,4.55a.26.26,0,0,1-.34,0,.61.61,0,0,1-.14-.44V113.56A1.5,1.5,0,0,1,164,113a1,1,0,0,1,.34-.42l7.75-4.47a.26.26,0,0,1,.34,0,.61.61,0,0,1,.14.44v2a1.47,1.47,0,0,1-.14.61,1,1,0,0,1-.34.42l-5.81,3.35v4.4l5.41-3.13a.27.27,0,0,1,.34,0,.57.57,0,0,1,.15.44v2a1.34,1.34,0,0,1-.15.61.83.83,0,0,1-.34.42l-5.41,3.12v4.6Z"/></g><g id="Clip"><g id="Shadow-5" data-name="Shadow" class="cls-11"><path d="M171.8,46.25v15a12.85,12.85,0,0,1-5.89,10.19l-29,16.76c-1.43.83-2.25,2.48-3.11,4.23a16.48,16.48,0,0,1-2.24,3.66c-2.26,2.56-7.18,5.23-10.65,6.34a20.39,20.39,0,0,1-3.49.8c-.43.07-.92.14-1.42.2-3.17.42-7.11,1-9.43,2.3l-34,19.61a5.94,5.94,0,0,1-3,.89,4,4,0,0,1-2-.51,4.88,4.88,0,0,1-2.16-4.47v-15a12.83,12.83,0,0,1,5.89-10.19l11.41-6.59a.76.76,0,0,1,.16-.06,1.2,1.2,0,0,1,1.51.51,1.19,1.19,0,0,1-.32,1.55.35.35,0,0,1-.13.11L72.55,98.17a10.49,10.49,0,0,0-4.67,8.08v15a2.6,2.6,0,0,0,.94,2.35,2.6,2.6,0,0,0,2.51-.37l34-19.62c2.73-1.57,7-2.14,10.32-2.6l1.41-.19a19.45,19.45,0,0,0,3.1-.72c3.08-1,7.66-3.47,9.55-5.61a15,15,0,0,0,1.89-3.15c1-2,2-4,4.08-5.25l29-16.76a10.5,10.5,0,0,0,4.66-8.08v-15a2,2,0,0,0-3.45-2L156,50a10.55,10.55,0,0,0-1.24-2.1l9.92-5.72a4.4,4.4,0,0,1,7.1,4.09Z"/></g><g id="Clip-2" data-name="Clip"><path class="cls-12" d="M150.62,46.53h0a3,3,0,0,1,3.06.29A9.54,9.54,0,0,1,158,54.3a3,3,0,0,1-1.28,2.8h0L87.82,96.89l-6.1-10.58Z"/><path class="cls-9" d="M84.78,91.63l72-41.56a9,9,0,0,0-3.07-3.25c-.14-.08-.28-.12-.41-.19L82.42,87.54Z"/><path class="cls-13" d="M84.78,86.61c-2.38-1.38-4.31-.26-4.31,2.49a9.56,9.56,0,0,0,4.31,7.48c2.39,1.37,4.32.26,4.32-2.49A9.53,9.53,0,0,0,84.78,86.61Z"/><path class="cls-9" d="M173,47.32v15a12.86,12.86,0,0,1-5.88,10.19l-29,16.76c-1.44.83-2.26,2.48-3.12,4.22a16.18,16.18,0,0,1-2.24,3.67c-2.25,2.56-7.18,5.23-10.65,6.33a20.54,20.54,0,0,1-3.48.81c-.44.07-.93.13-1.43.19-3.16.43-7.11,1-9.42,2.31l-34,19.61a6,6,0,0,1-3,.89,4,4,0,0,1-2-.51,4.88,4.88,0,0,1-2.15-4.48v-15a12.81,12.81,0,0,1,5.88-10.18L84,90.54a.44.44,0,0,1,.16-.06,1.2,1.2,0,0,1,1.2,2.06.49.49,0,0,1-.14.11L73.77,99.24a10.51,10.51,0,0,0-4.67,8.07v15a2.62,2.62,0,0,0,.94,2.36,2.62,2.62,0,0,0,2.51-.37l34-19.62c2.73-1.57,6.94-2.15,10.31-2.6l1.42-.19a19.34,19.34,0,0,0,3.09-.72c3.08-1,7.66-3.47,9.55-5.62a14.93,14.93,0,0,0,1.89-3.14c1-2,2-4.06,4.08-5.25l29-16.76a10.53,10.53,0,0,0,4.67-8.08v-15a2,2,0,0,0-3.45-2l-9.89,5.72A10.31,10.31,0,0,0,156,49l9.92-5.72a4.4,4.4,0,0,1,7.1,4.09Z"/></g></g></g><g id="Shield"><path class="cls-3" d="M272.26,279.67c.06-1.49-.3-2.41-1-2.77h0l-.09-.06c-.71-.32-5.38-3.1-6-3.46h0l-.09-.06c-.7-.32-1.74,0-3,.93-12.46,9.54-29.61,11.87-42.66,6.12a29.26,29.26,0,0,1-4.94-4.58l-.23-.25h0a4.82,4.82,0,0,0-1.26-1s-5.69-3.3-6.11-3.53l-.21-.12c-1.4-.66-2.68,0-3.53,2.09-11.83,29.4-37,59.18-53.85,66.63A9.56,9.56,0,0,0,146,342a7.06,7.06,0,0,0-1.87,4.82c0,37.79,20.71,98.19,59.94,118.36a68.33,68.33,0,0,0,7.19,4.11C265.22,413.64,272.26,324.46,272.26,279.67Z"/><path class="cls-4" d="M271.22,276.82c-.71-.32-1.75,0-3,.93-14.51,11.11-35.39,12.45-48.74,2.62,13.05,5.72,30.18,3.4,42.63-6.14,1.25-1,2.29-1.25,3-.93l.09.06h0C265.84,273.73,270.51,276.5,271.22,276.82Z"/><path class="cls-3" d="M212.79,274.35c-1.4-.66-2.68,0-3.53,2.09-11.83,29.41-37,59.18-53.85,66.63a9.56,9.56,0,0,0-3.31,2.47,8.23,8.23,0,0,0-1.23,1.9l-6.1-3.52A8.1,8.1,0,0,1,146,342a9.56,9.56,0,0,1,3.31-2.47c16.81-7.45,42-37.23,53.85-66.63.85-2.08,2.13-2.75,3.53-2.09l.21.12,2.71,1.55C210.89,273.25,212.27,274.07,212.79,274.35Z"/><path class="cls-4" d="M212.79,274.35c-1.4-.66-2.68,0-3.53,2.09-11.83,29.41-37,59.18-53.85,66.63a9.56,9.56,0,0,0-3.31,2.47,8.23,8.23,0,0,0-1.23,1.9l-6.1-3.52A8.1,8.1,0,0,1,146,342a9.56,9.56,0,0,1,3.31-2.47c16.81-7.45,42-37.23,53.85-66.63.85-2.08,2.13-2.75,3.53-2.09l.21.12,2.71,1.55C210.89,273.25,212.27,274.07,212.79,274.35Z"/><path class="cls-4" d="M204,465.15C164.8,445,144.12,384.6,144.12,346.84a6.53,6.53,0,0,1,.65-2.92l6.1,3.52a6.29,6.29,0,0,0-.64,2.92C150.23,386.14,168.75,442.14,204,465.15Z"/><path class="cls-3" d="M272.26,279.67c0,44.79-7,134-61,189.64-39.94-19.61-61-80.8-61-118.94a7.05,7.05,0,0,1,1.86-4.82,9.75,9.75,0,0,1,3.31-2.47c16.82-7.45,42-37.23,53.86-66.63.84-2.08,2.12-2.75,3.52-2.09h0l.21.12a4.82,4.82,0,0,1,1.26,1h0l.23.25c12.55,14.62,37.23,14.6,53.71,2,1.25-.95,2.29-1.25,3-.93l.09.06h0C272,277.26,272.32,278.18,272.26,279.67Z"/><path class="cls-8" d="M272.26,279.67c0,44.79-7,134-61,189.64-39.94-19.61-61-80.8-61-118.94a7.05,7.05,0,0,1,1.86-4.82,9.75,9.75,0,0,1,3.31-2.47c16.82-7.45,42-37.23,53.86-66.63.84-2.08,2.12-2.75,3.52-2.09h0l.21.12a4.82,4.82,0,0,1,1.26,1h0l.23.25c12.55,14.62,37.23,14.6,53.71,2,1.25-.95,2.29-1.25,3-.93l.09.06h0C272,277.26,272.32,278.18,272.26,279.67Z"/><path class="cls-8" d="M212.79,274.36c-1.4-.66-2.68,0-3.52,2.09-11.83,29.4-37,59.18-53.86,66.63a9.75,9.75,0,0,0-3.31,2.47,7.05,7.05,0,0,0-1.86,4.82c0,38.14,21.07,99.33,61,118.94C238.08,365.54,212.79,274.36,212.79,274.36Z"/><path class="cls-14" d="M233.16,294.51c13.47,3.44,25.4-2.47,32.23-6,0,0,1.59,79-25.63,130.17,10.74-39.93,13.37-51.36,14.14-81C254.65,308.65,243.37,301.77,233.16,294.51Z"/><polygon class="cls-15" points="214.94 406.06 187.82 388.4 195.92 375.96 209.56 384.83 238.09 332.23 251.15 339.31 214.94 406.06"/><path class="cls-16" d="M223.47,359.19l-13.91,25.64L195.92,376l-8.1,12.44,27.12,17.66L223,391.15C223.6,380,223.7,369.25,223.47,359.19Z"/></g><g id="Character"><g id="Bottom"><g id="Bottom-2" data-name="Bottom"><polygon class="cls-13" points="349.74 420.11 345.57 418.13 349.67 416.97 349.74 420.11"/><path class="cls-13" d="M308.55,428s48.92-22.2,49.55-18.94a4.77,4.77,0,0,1,0,2l.13-.17-.86,6.1a14.69,14.69,0,0,1-7.62,3.2c0-.29-.05-2.1-.07-3.14a24.26,24.26,0,0,0-4.31,2.3c-3.14,2.08-5.13,5.68-8.44,9.88-2.42,3.06-6.74,4.51-13.16,5.45-6.91,1-13-.25-14.74-2.07C307.64,431.08,308.31,428.38,308.55,428Z"/><path class="cls-17" d="M309.9,426.82c.47-.49,2.21-2.41,4.56-4.5a90.65,90.65,0,0,1,7-6,28.26,28.26,0,0,0,3.5-2.89c.85-.92,1.66-1.86,2.41-2.85a52.48,52.48,0,0,0,5.86-10,22.85,22.85,0,0,0,2-5.23,33,33,0,0,0,.54-5.78c0-8.75-.2-10.14-.28-16.79l20.74.54c-.66,3.69-1.66,8.73-2,12.93-.5,6.38-.67,7.8,1.9,14.14.75,1.86,1.87,3.66,2,5.66.18,3.26-2.4,6.1-5.29,7.71-2.39,1.34-5.16,1.92-7.48,3.35a24.21,24.21,0,0,0-6.07,6c-1.63,2.1-2.94,4.58-5.25,6.06-2.56,1.64-5,2.16-8,2.78a43.9,43.9,0,0,1-10.74.61C310.29,432.2,306.49,430.39,309.9,426.82Z"/><path class="cls-18" d="M329,416.71a9.39,9.39,0,0,0-7.62-.63c-3.6,2.85-6.58,5.39-8.68,7.16-2.55,2.15-4.79,4.11-4.67,6.55.17,3.83,15.25,4.88,23.65,1.19a10.39,10.39,0,0,0,5.91-5.18S336.3,420.45,329,416.71Zm28.54-13.95c-1.3-2.46-1.8-3.71-1.8-3.71-2.92,1.59-8,8.85-5.57,16.09a11.15,11.15,0,0,0,7.35-5C359.09,407.67,358.84,405.21,357.53,402.76Z"/><path class="cls-13" d="M395.65,405.59c-1.36,2.2.35,10.45,0,16.33-.3,5.34-1.75,14.66-.15,19.93,1.9,6.25,5.79,13.49,13.09,7.6,4.53-3.65,7.13-8.36,7.78-16.05.45-5.34-1.63-12.73-3.42-19.28-2.08-7.64-2.87-11.74-2.87-11.74Z"/><path class="cls-17" d="M410.3,366.06c.53,12.47-.94,21.23-1,29.21a55,55,0,0,0,1.16,10.78c1.06,5.1,2.87,12.18,3.64,15.48,1.06,4.61,1.87,7.52.24,12.7a6.7,6.7,0,0,1-.53,1.16c-2.27,4.27-8,7.49-9.88,7a3.23,3.23,0,0,1-3.25,1.12c-.2,0-.41-.09-.61-.15a5.36,5.36,0,0,1-.62-.25,6.23,6.23,0,0,1-3.07-3.91,11.63,11.63,0,0,1-.29-1.13c-1.35-6.43-.64-10.73-.61-13.24,0-3.46,0-6.82-.29-11.5s-1-19-2.68-26c-1.23-4.9-2.76-11.05-4.38-17.61Z"/><path class="cls-18" d="M415.19,427.54c-4.55-2-17.73-2.25-19.83,4-.06,5.93-.1,10,3.72,15.12,5.07,6.86,11.69-.41,14.23-5S415.81,430.73,415.19,427.54Z"/><path class="cls-8" d="M393.1,203.22c6.43,11.3,11.61,20.83,13.28,50.69,1.89,33.7,1.61,46.54,1.77,50.6S411,316,413.26,336.07s-.13,68.58-.13,68.58-1.6,3.27-9.4,4c-7.2.69-11.42-1.79-11.42-1.79S380.87,343.11,378,331.06,367,279.37,367,279.37l-2.7,37.84s2.28,11,.21,28.63-7.37,50.84-7.37,50.84-3.06,3-12.47,2.86c-10-.19-12.1-2.92-12.1-2.92s-2.24-71.51-2.39-91.43S328.84,233.53,335,204Z"/><path class="cls-12" d="M385.49,228.22c.82,3.23,1.57,6.48,2.37,9.72s1.57,6.5,2.42,9.77a64,64,0,0,0-.76-10.07,98.68,98.68,0,0,0-1.93-9.92,86.52,86.52,0,0,0-3-9.67,47.3,47.3,0,0,0-4.47-9.12c1.05,3.22,2,6.41,2.87,9.62S384.7,225,385.49,228.22Zm5.72-6.26c1.12,1.94,2.18,3.9,3.26,5.87l3.16,6a26.61,26.61,0,0,0-1.62-6.68,43,43,0,0,0-2.91-6.23,48.78,48.78,0,0,0-3.82-5.73,35.12,35.12,0,0,0-4.68-5.08c1,2.06,2.16,4,3.28,6S390.13,220,391.21,222Z"/></g></g><g id="Top"><path class="cls-19" d="M299.56,51c10.54,2.83,20.1,12.62,25,22.6,21.91.52,48.74,10,73.32,24.77l24.73-73.21C381.51,14.24,340.45,18.13,299.56,51Z"/><path class="cls-3" d="M504.84,120.37c-10.1-4.14-23.64-2.16-33.62,2.79-17.73-12.88-44.79-21.64-73.31-24.77l24.73-73.21C462,41.42,492.27,69.42,504.84,120.37Z"/><path class="cls-8" d="M504.84,120.37c-10.1-4.14-23.64-2.16-33.62,2.79-17.73-12.88-44.79-21.64-73.31-24.77l24.73-73.21C462,41.42,492.27,69.42,504.84,120.37Z"/><path class="cls-3" d="M324.59,73.62c21.91.52,48.74,10,73.32,24.77l24.73-73.21C394,21.6,351.67,39.4,324.59,73.62Z"/><path class="cls-19" d="M324.59,73.62c21.91.52,48.74,10,73.32,24.77l24.73-73.21C394,21.6,351.67,39.4,324.59,73.62Z"/><path class="cls-20" d="M504.84,120.37C492.27,69.42,462,41.42,422.64,25.18c25,14.56,47.81,54.35,48.58,98C481.2,118.21,494.74,116.23,504.84,120.37Z"/><path class="cls-13" d="M377.29,130.06c-1.49,1.59-2,3.25-4.37,2.48-2.07-.66-3.58-2.25-5.26-3.55q-3.29-2.54-6.44-5.24-6.23-5.31-11.93-11.2c-2.16-2.24-4.74-4.75-6.06-7.62a18,18,0,0,1-1.86-9c.59-6.37,4.52-14.64,16.23-17,9.76-2,28.39.16,30.76,12.82.12.66,1.57,1.55,2,2.14a17.24,17.24,0,0,1,3,10.81c-.4,5.83-3.78,11-7.43,15.6C383.19,123.69,380.27,126.9,377.29,130.06Z"/><g id="Arm"><path class="cls-17" d="M326.8,153.44c-9,10.26-16.93,18.49-16.93,18.49s-2.62-2.22-2.77-2.34c-3-2.53-5.87-5.1-8.67-7.79-3.2-3.07-6.12-6.32-7.19-10.79a21.37,21.37,0,0,1-.42-3q-.42-4.29-.83-8.6a29,29,0,0,1-.4-4.24,13.31,13.31,0,0,0,.34-2.8c-.2-1-1.54-1.42-3.39.36a9,9,0,0,0-1.93,4.09c-.37,1.31-.51,3-1,3.08s-2-1.48-3.67-2.54-3.05-2.41-5.3-2.49a2.54,2.54,0,0,0-2.75,2.62,3.36,3.36,0,0,0,.67,1.61,2.75,2.75,0,0,0-2.17-.07,3,3,0,0,0-1.26,3.56,1.69,1.69,0,0,0-2,.87c-.63,1.14-.9,2.38.14,3.26,0,0-1.07-.1-1.33.46s-1,2.3-.25,3.32a9.79,9.79,0,0,0,3.18,2s0,.49,1,1.48a33.09,33.09,0,0,0,2.71,4.08c1.84,2,3.63,2.51,5.79,3.76,3.51,2,7.3,8.29,11.26,14.47,4.71,7.37,8.65,14,13.56,18.76,6.12,5.9,10.13,5.33,17.88-2.4,9.41-9.38,19.69-22.34,19.69-22.34L344.44,141C337.43,141.86,334,145.2,326.8,153.44Z"/><path class="cls-21" d="M273.37,150.46a1.43,1.43,0,0,1-.21.49,2.12,2.12,0,0,1-.36.54,2.81,2.81,0,0,1-.71.62,2.55,2.55,0,0,1-.54.22,6.46,6.46,0,0,1-1.7.16l-1,0a5.34,5.34,0,0,0,1.32.34,4.61,4.61,0,0,0,1.65-.15,2.65,2.65,0,0,0,.37-.12,2,2,0,0,0,.81-.67,2.28,2.28,0,0,0,.47-1.08s0-.36,0-.37a5.63,5.63,0,0,0,1.09,0,3.4,3.4,0,0,0,1.67-.48,2.39,2.39,0,0,0,.54-.7.82.82,0,0,0,.1-.26l.56-.42a7.47,7.47,0,0,0,.73,3.48,9,9,0,0,0,2.66,3.42,7.93,7.93,0,0,1-2-3.91,8,8,0,0,1,1.63-6.37h.1a1.2,1.2,0,0,0,.55-.34,1.63,1.63,0,0,0,.43-1.12,3.4,3.4,0,0,0-.18-1.11,6.32,6.32,0,0,0-2.79-3.17,3.07,3.07,0,0,0-.25-.91,4.8,4.8,0,0,0-.49-.85,6.33,6.33,0,0,1,.39.89,3,3,0,0,1,.17.92v.06l.05,0a6.55,6.55,0,0,1,2.53,3.16,1.76,1.76,0,0,1-.17,1.77c-.25.24-.39.28-.69.13s-.6-.33-.92-.49c-.65-.33-1.31-.57-1.93-.87a8.11,8.11,0,0,1-1.72-1.13c-.53-.45-1-1-1.5-1.46a14.92,14.92,0,0,1-1.4-1.58,17.18,17.18,0,0,0,2.67,3.29,7.08,7.08,0,0,0,1.76,1.26c.64.32,1.3.57,1.91.9l.36.2a1.29,1.29,0,0,1,.17.93,1.44,1.44,0,0,1-1.14,1.08,8.12,8.12,0,0,1-1.73.33,4.79,4.79,0,0,1-1.71-.17,12,12,0,0,1-2.86-2.07c-.94-.77-1.88-1.54-2.86-2.26.85.88,1.73,1.71,2.61,2.54.44.42.9.82,1.36,1.22a5.35,5.35,0,0,0,1.59,1,5.88,5.88,0,0,0,1.16.16,1.66,1.66,0,0,1,.7.88.78.78,0,0,1-.08.68,2.22,2.22,0,0,1-.5.55,5.16,5.16,0,0,1-3,.23,6.16,6.16,0,0,1-1.28-.92,10.06,10.06,0,0,0-1.44-.85c-1-.5-2-1-3-1.38.94.59,1.89,1.13,2.83,1.7a15.82,15.82,0,0,1,1.36.88,6.09,6.09,0,0,0,1.36,1A3,3,0,0,0,273.37,150.46Zm6.13-5.55v0h0Z"/><path class="cls-22" d="M309.87,171.93c2.78,2.12,6.22,5.23,6.54,10.38a12.21,12.21,0,0,0-5.24-12.05Z"/></g><path class="cls-12" d="M345.45,140.44c-9,1-12.24,5-19.69,13.42-6.53,7.37-15.89,17.25-15.89,17.25l-13.6-11.49s.8,2.83-3.1,7.35a9.17,9.17,0,0,1-7.94,3s5.42,9.15,12.41,19.47,12.82,11.5,17.86,8.74,28.43-27.57,28.43-27.57Z"/><path class="cls-13" d="M309.87,171.11c4.54,3.81,7.18,11.28,7.73,15.51.77-9.73-5.63-17.74-5.63-17.74Z"/><path id="Chest" class="cls-3" d="M399.46,218.65c3.75-3.05.83-8.53-1.24-23.93-.64-4.74,2.41-16.5,2.41-16.5s-8.8-13.27-5.95-36.31L381,139.35,358.78,139,346,141.17c-2.95,2.59-5.86,7.19-10.15,13.41-6.19,9-7.31,21.1-.63,28.25a139.06,139.06,0,0,1-.3,16.56c-.84,7.69-5.12,15.18-.65,19C347.32,229.45,381.75,230.23,399.46,218.65Z"/><path id="Chest-2" data-name="Chest" class="cls-4" d="M399.46,218.65c3.75-3.05.83-8.53-1.24-23.93-.64-4.74,2.41-16.5,2.41-16.5s-8.8-13.27-5.95-36.31L381,139.35,358.78,139,346,141.17c-2.95,2.59-5.86,7.19-10.15,13.41-6.19,9-7.31,21.1-.63,28.25a139.06,139.06,0,0,1-.3,16.56c-.84,7.69-5.12,15.18-.65,19C347.32,229.45,381.75,230.23,399.46,218.65Z"/><g id="Head"><g id="Head-2" data-name="Head"><g id="Head-3" data-name="Head"><path class="cls-17" d="M383.75,122.76a7.36,7.36,0,0,0,6.56-2.45c3.45-3.73,3.78-7.53,2.17-10.06-1.32-2.08-4.58-3.41-6.87-2-2.45,1.5-2.53,2.73-3.45,4.43s-3.3.37-2.5-6.46a6.47,6.47,0,0,1-3-3.2c-.15-.31-1.41-4.15-1.37-4.14a10.42,10.42,0,0,1-6.88-5,7.44,7.44,0,0,0,.8,3.65,26.39,26.39,0,0,1-6.08-.86,8.76,8.76,0,0,1-4.94-3.45,12.31,12.31,0,0,0,.87,5.59,10.8,10.8,0,0,1-8.61-9c-1.67,2.7-3.43,5.13-4.18,8.23a62.89,62.89,0,0,0-1.38,9.16c-1.16,12.37-.07,18.73,3.64,22.09A15.75,15.75,0,0,0,359,133.27l-.17,5.75s-12.66,12,3.66,10.83a25.74,25.74,0,0,0,18.5-10.28l.11-18.76S381.31,122.31,383.75,122.76Z"/><path class="cls-23" d="M357,120.56a3.65,3.65,0,0,0,4.28,2.81,3.58,3.58,0,0,0,2.86-4.2Z"/><path class="cls-22" d="M364.12,120.33a3.61,3.61,0,0,1-2.89,3,3.73,3.73,0,0,1-1.29,0A3.69,3.69,0,0,1,364.12,120.33Z"/><path class="cls-13" d="M365.1,101.2l4.69,2.46a2.49,2.49,0,0,0-1-3.51A2.82,2.82,0,0,0,365.1,101.2Z"/><path class="cls-13" d="M352.41,100.64l-4.69,2.47a2.49,2.49,0,0,1,1-3.51A2.83,2.83,0,0,1,352.41,100.64Z"/><path class="cls-13" d="M367.71,107a1.94,1.94,0,1,1-1.93-1.94A1.92,1.92,0,0,1,367.71,107Z"/><path class="cls-13" d="M352.81,106.39a1.94,1.94,0,1,1-1.94-1.94A1.94,1.94,0,0,1,352.81,106.39Z"/><polygon class="cls-21" points="351.53 112.25 358.14 115.72 360.27 102.31 351.53 112.25"/></g></g><path class="cls-21" d="M359,133.27c6.38-.23,16.49-2.91,19.4-10-1.71,7.44-7.94,10.06-11.53,11.05A38.13,38.13,0,0,1,359,135.7Z"/></g><path class="cls-13" d="M358.75,137.41l0,1.61a69.29,69.29,0,0,0-15.69,17.74c-6.67,11-4.65,24.75-5,38.92s.42,44.25.42,44.25-6.29-1.27-9.51-6.09c0-7.89,2.24-34.81,2.39-43.25A72.25,72.25,0,0,0,330,174.12c-1.11-6.24-.14-18.65,15.46-33.68Z"/><path class="cls-13" d="M381,137.81s-6.07,13.55-6.27,27.36S380.15,246,380.15,246s21.12,1.68,31.21-7.2c-2.22-10.88-7.19-26.78-9-33.63s-2.76-12.43-1.12-19.57,3.1-11.83,3.1-11.83l-8.1-32.53Z"/><g id="Arm-2" data-name="Arm"><path class="cls-13" d="M417.93,39.15l.54.08.64.1c.18,0,.41,0,.57,0,.83,0,.64-.41.84-.8.27-.84.67-2,1.14-3.48.93-2.89,2.1-6.76,3.15-10.67.54-2,1-3.92,1.46-5.78.21-.93.45-1.82.62-2.67l.51-2.42c.16-.74.27-1.44.39-2s.21-1.14.28-1.59c.15-.88.21-1.39.21-1.39s-.26.45-.67,1.24c-.22.39-.47.88-.75,1.43s-.61,1.18-.93,1.87l-1.06,2.23c-.38.78-.73,1.63-1.13,2.5-.78,1.73-1.58,3.6-2.34,5.47-1.53,3.75-2.95,7.54-4,10.4-.5,1.43-.92,2.62-1.21,3.46-.08.44-.5.66.19,1.14a3.4,3.4,0,0,0,.46.33l.57.31Z"/><path class="cls-1" d="M369.9,175.28,412.73,48a1.87,1.87,0,0,1,3.55,1.2L373.45,176.48C372.45,177.16,370.08,176.32,369.9,175.28Z"/><path class="cls-9" d="M368.41,174.71l-5.08,13.1c-2.7,7.36-7.1,8.23-11.31,6.61s-4-8.62-2.88-11.43a2.89,2.89,0,0,0-5.39-2.07c-2.14,3.77-4.2,15.34,6.25,19.43a15,15,0,0,0,15.05-2.71,13.94,13.94,0,0,0,4-6l5.62-14.51Z"/><path class="cls-9" d="M369.7,173.88a5.26,5.26,0,0,1,4.52,1.49c1,1.14.62,2.3-.87,2.61a5.23,5.23,0,0,1-4.51-1.5C367.83,175.35,368.22,174.18,369.7,173.88Z"/><path class="cls-3" d="M408.92,65.78A114.68,114.68,0,0,1,469.41,94.5C488,99.18,499,108.27,504.84,120.37c-10.75-51.68-44.2-82.35-82.2-95.19S339.45,16.44,299.56,51c12-6.07,26.25-6.64,43.86.92A114.54,114.54,0,0,1,408.92,65.78Z"/><path class="cls-8" d="M408.92,65.78A114.68,114.68,0,0,1,469.41,94.5C488,99.18,499,108.27,504.84,120.37c-10.75-51.68-44.2-82.35-82.2-95.19S339.45,16.44,299.56,51c12-6.07,26.25-6.64,43.86.92A114.54,114.54,0,0,1,408.92,65.78Z"/><path class="cls-3" d="M343.41,51.94a114.48,114.48,0,0,1,65.51,13.85l13.72-40.61C379.23,10.52,343.41,51.94,343.41,51.94Z"/><path class="cls-19" d="M343.41,51.94a114.48,114.48,0,0,1,65.51,13.85l13.72-40.61C379.23,10.52,343.41,51.94,343.41,51.94Z"/><path class="cls-8" d="M469.41,94.51a114.53,114.53,0,0,0-60.49-28.72l13.72-40.61C466.05,39.85,469.41,94.51,469.41,94.51Z"/><path class="cls-3" d="M504.84,120.37c-10.75-51.68-44.2-82.35-82.2-95.19,43.41,14.66,46.77,69.32,46.77,69.32C488,99.18,499,108.27,504.84,120.37Z"/><path class="cls-19" d="M504.84,120.37c-10.75-51.68-44.2-82.35-82.2-95.19,43.41,14.66,46.77,69.32,46.77,69.32C488,99.18,499,108.27,504.84,120.37Z"/><path class="cls-17" d="M427.25,209.5c-11.1,1.76-30.11-4.59-43.33-5.63a64.38,64.38,0,0,0-7.8.07c-4.76.07-7.3-4.29-10.49-6.85l-.49-.36a9.29,9.29,0,0,0-2.26-1.23c-1.95-1-2.46-1.28-3-2.08a6.75,6.75,0,0,1-6.17,1.5c-.85-1.31-1.41-2.72-1-3.51a1.59,1.59,0,0,1,.8-.73,6.13,6.13,0,0,1-.36-1.84c-.29-2.32,1.82-2.79,3.17-3.31a2.38,2.38,0,0,1,.54-2.26c.93-1,2-1.69,7.08-3.77a6.13,6.13,0,0,1,2.53-.66,2.3,2.3,0,0,1,.37,0,9.29,9.29,0,0,1,4,1.43c.47.26,1.11.64,1.85,1.09.08.06.19.11.29.17,3.79,2.26,10.29,5.66,12.73,6.46,3,1,23-.71,23-.71l-9-18.41s-7.09-15.42-3.75-26.07c8.7.08,13.3,1.27,19,8.28s18.72,39.05,20,44.78C436.43,202.31,438.09,207.78,427.25,209.5Z"/><path class="cls-21" d="M407.73,185.23l1,2.07c5.13,0,12.35,4.91,14.15,7.22C421,190.63,416.79,185.37,407.73,185.23Z"/><path class="cls-21" d="M356.28,185.53l6-2.78-6,1.9A2.32,2.32,0,0,0,356.28,185.53Z"/><path class="cls-21" d="M353.46,190.68l7-2.69-7.2,1.87A4.5,4.5,0,0,0,353.46,190.68Z"/><path class="cls-12" d="M396.27,141.27c8.61.25,16,2.42,21.89,12.65s11,22.78,14.95,33.87,4.77,16.52,1.59,19.42-8.73,4-17.75,3-22.4-4.42-22.4-4.42a19.78,19.78,0,0,0,1.92-10.21c-.36-6.22-2.09-7.45-2.09-7.45L407.81,187s-5.25-10.68-8.8-18.07S393.05,145.35,396.27,141.27Z"/><path class="cls-13" d="M407.81,187c5.64-.43,12.65,1.13,15.85,5.37-3.22-7.44-13-8.19-17-7.78Z"/></g></g></g><g id="Speech_Bubble" data-name="Speech Bubble"><g id="Speech_Bubble-2" data-name="Speech Bubble"><path class="cls-9" d="M304.38,109.12l-5.13-7.35a28.89,28.89,0,1,0-5.37,8l8.75,2A1.68,1.68,0,0,0,304.38,109.12Zm-9.35-4.4a26.39,26.39,0,0,1-14.88,10.74l-3,.66A26.6,26.6,0,0,1,267,63.94l3-.51a26.59,26.59,0,0,1,25,41.29Z"/><path class="cls-15" d="M287.81,67.78A26.42,26.42,0,0,0,270,63.43l-3,.51a26.6,26.6,0,0,0,10.2,52.18l3-.66a26.59,26.59,0,0,0,7.66-47.68Z"/><path class="cls-8" d="M269.66,103.52a3.67,3.67,0,0,1-2.69-1.17l-8.35-8.91a3.69,3.69,0,0,1,5.38-5l5.42,5.79,12.83-16.25A3.68,3.68,0,1,1,288,82.51l-15.48,19.6a3.66,3.66,0,0,1-2.74,1.4Z"/></g></g></g></g></svg>