<svg xmlns="http://www.w3.org/2000/svg" viewBox="0 0 453.55 508.22"><defs><style>.cls-1,.cls-27,.cls-28,.cls-34,.cls-35,.cls-36,.cls-37{isolation:isolate;}.cls-2,.cls-27,.cls-37,.cls-7{fill:#fff;}.cls-2,.cls-34{opacity:0.2;}.cls-2{mix-blend-mode:screen;}.cls-3{fill:#e69a06;}.cls-25,.cls-4{fill:#001e50;}.cls-5{fill:#edf3ff;}.cls-6{fill:#ffb200;}.cls-8{fill:#282228;}.cls-9{opacity:0.3;}.cls-16,.cls-20,.cls-9{mix-blend-mode:multiply;}.cls-10{fill:#063d76;}.cls-11{fill:#2c1f23;}.cls-12{fill:#0e60d8;}.cls-13,.cls-15{fill:none;stroke:#2c1f23;stroke-miterlimit:10;}.cls-13{stroke-width:0.74px;}.cls-14{fill:#d8d8d8;}.cls-15{stroke-width:1.49px;}.cls-16{opacity:0.5;}.cls-17{fill:#feaf84;}.cls-18{fill:#fcfcfc;}.cls-19{fill:#e72d27;}.cls-20{opacity:0.35;}.cls-21{fill:#5275a0;}.cls-22{fill:#8fcaf2;}.cls-23{fill:#b1dafc;}.cls-24{fill:#f29d77;}.cls-25{font-size:25px;font-family:Poppins-Medium, Poppins;font-weight:500;}.cls-26{fill:#fbbf00;}.cls-27{opacity:0.25;}.cls-28{opacity:0.05;}.cls-29{fill:#fbc518;}.cls-30{fill:#ffdc6d;}.cls-31{fill:#f2c129;}.cls-32{fill:#f1b700;}.cls-33{fill:#dba600;}.cls-35{opacity:0.1;}.cls-36{opacity:0.15;}.cls-37{opacity:0.2;}.cls-38{fill:#ffecb1;}.cls-39{fill:#cc9805;}</style></defs><g class="cls-1"><g id="Layer_2" data-name="Layer 2"><g id="Layer_2-2" data-name="Layer 2"><ellipse class="cls-2" cx="226.77" cy="487.61" rx="226.77" ry="20.61"/><path class="cls-3" d="M369.92,163.65H371a6.32,6.32,0,0,0,6.33-6.33v-20A6.32,6.32,0,0,0,371,131h-1.06Z"/><path class="cls-3" d="M117.63,117.25h-1.06a6.32,6.32,0,0,0-6.33,6.33v20a6.32,6.32,0,0,0,6.33,6.33h1.06Z"/><path class="cls-3" d="M117.63,75.31h-1.06a6.32,6.32,0,0,0-6.33,6.33v20a6.32,6.32,0,0,0,6.33,6.33h1.06Z"/><path class="cls-4" d="M369.92,30.1V457.82a30.16,30.16,0,0,1-30,30.21H147.84a30.19,30.19,0,0,1-30.2-30.21V30.1A30.24,30.24,0,0,1,147.84,0H339.93A30.2,30.2,0,0,1,369.92,30.1Z"/><path class="cls-5" d="M339.93,9.79H262.24a7.22,7.22,0,0,0-6.55,4.84,12.89,12.89,0,0,1-23.83,0,7.23,7.23,0,0,0-6.55-4.84H147.74A20.25,20.25,0,0,0,127.49,30V457.77a20.46,20.46,0,0,0,20.25,20.47h192a20.43,20.43,0,0,0,20.36-20.36V30A20.26,20.26,0,0,0,339.93,9.79Z"/><path class="cls-6" d="M295.87,438.12a17.24,17.24,0,0,1-17.25,17.25H208.93a17.25,17.25,0,0,1,0-34.5h69.69A17.25,17.25,0,0,1,295.87,438.12Z"/><path class="cls-7" d="M224.24,430.57a1.31,1.31,0,0,1,1.33-1.34h4.61c3.54,0,5.74,2,5.74,5v0c0,3.39-2.72,5.15-6,5.15h-3v3.64a1.33,1.33,0,0,1-2.65,0Zm5.73,6.5c2,0,3.25-1.12,3.25-2.69v0c0-1.77-1.27-2.7-3.25-2.7h-3.08v5.43Z"/><path class="cls-7" d="M236.55,442.59l5.6-12.5a1.68,1.68,0,0,1,1.6-1.08h.13a1.65,1.65,0,0,1,1.57,1.08l5.6,12.5a1.1,1.1,0,0,1,.15.56,1.24,1.24,0,0,1-1.25,1.27,1.37,1.37,0,0,1-1.29-.93l-1.23-2.82h-7.32l-1.27,2.91a1.28,1.28,0,0,1-1.23.84,1.22,1.22,0,0,1-1.23-1.23A1.31,1.31,0,0,1,236.55,442.59Zm9.87-4.27-2.65-6.1-2.65,6.1Z"/><path class="cls-7" d="M256.45,438.45l-5.19-7.13a1.66,1.66,0,0,1-.3-.93,1.29,1.29,0,0,1,1.33-1.27,1.52,1.52,0,0,1,1.29.8l4.21,6.05,4.26-6.07a1.51,1.51,0,0,1,1.27-.8,1.25,1.25,0,0,1,1.29,1.29,1.63,1.63,0,0,1-.36.95l-5.15,7.05v4.71a1.33,1.33,0,0,1-2.65,0Z"/><path class="cls-8" d="M272.93,304.15c-1.28,4.67,1.53,9.23,5.34,11.74A31.54,31.54,0,0,0,292.34,320a9.12,9.12,0,0,0,6.33-2.63,6.27,6.27,0,0,0,1.67-5.83c-1-3.78-5.44-5.64-9-5.11-4.32.64-7.33,4.62-9.33,8.16-2.37,4.22-4.51,8.9-4.75,13.81a14.1,14.1,0,0,0,5.14,12.09c3.73,2.83,8.83,3.56,13.38,3.22a26.81,26.81,0,0,0,7.51-1.62,67.24,67.24,0,0,0,7-3.33c3.71-1.92,8-3.69,12.08-2.42a6.79,6.79,0,0,1,2.31,1.23,1.53,1.53,0,0,0,2.1,0,1.51,1.51,0,0,0,0-2.11c-3.24-2.7-7.6-3-11.57-2-4.34,1.13-8,3.84-12.14,5.5a23.74,23.74,0,0,1-13.06,1.46c-3.76-.7-7.27-2.58-8.82-6.26s-1-8,.39-11.69a43.19,43.19,0,0,1,2.77-5.93,21.21,21.21,0,0,1,3.18-4.62,8.25,8.25,0,0,1,4.19-2.59l.3-.06c-.07,0-.25,0,.06,0l.54,0,.54,0,.31,0c-.21,0,.06,0,.14,0a6.06,6.06,0,0,1,1.95.67l.45.28.24.17c-.05,0-.17-.15.05,0s.25.23.37.35.41.47.28.3a3.65,3.65,0,0,1,.5.85c-.11-.26.07.25.09.3s.08.58.06.31a3.83,3.83,0,0,1-2.14,3.55,8.48,8.48,0,0,1-5.78.62,36.66,36.66,0,0,1-6.35-1.76c-3.5-1.31-7.05-3.81-7.62-7.76a6,6,0,0,1,.16-2.37,1.49,1.49,0,0,0-2.87-.79Z"/><path class="cls-9" d="M178.27,236.4v99.27H152.05a13.05,13.05,0,0,1-.09-4.14l11.92-84.95a26.26,26.26,0,0,1,3.68-10.18Z"/><path class="cls-6" d="M284.9,346.9c-3.56,5.33-10.7,5.33-13.82,5.33l-101.89-5.84c-3.11,0-9.67,1.63-11.44-.93-2-2.9-2.1-9.53-1.48-13.93l11.92-85a26.24,26.24,0,0,1,7.46-15l10.49-9.85,12.7,10.06,50.9-3.86,5.42-5.64,9.68,7a25.9,25.9,0,0,1,10.38,16.15c.06.35.12.71.17,1.06l11.92,85C288.52,337,287.37,343.2,284.9,346.9Z"/><path class="cls-10" d="M279.33,349.09a12.5,12.5,0,0,1-8.25,3.14H168.83a12.52,12.52,0,0,1-8.26-3.14,13.26,13.26,0,0,1-4.3-11.72l11.58-85a26.61,26.61,0,0,1,7.25-15l9.22-9.49h13.57l.18-7.31,40.76.56L242,228h13.56l9,8.11a14.6,14.6,0,0,1,1.05,1c3.62,4,5.66,9.89,6.4,15.31l11.58,85A13.24,13.24,0,0,1,279.33,349.09Z"/><path class="cls-6" d="M279.33,349.08a12.46,12.46,0,0,1-8.25,3.15H168.83a12.44,12.44,0,0,1-8.25-3.15,13.22,13.22,0,0,1-4.31-11.71l.22-1.63a13,13,0,0,0,4.09,6.9,12.48,12.48,0,0,0,8.25,3.14H271.08a12.5,12.5,0,0,0,8.25-3.14,13,13,0,0,0,4.09-6.9l.22,1.63A13.22,13.22,0,0,1,279.33,349.08Z"/><path class="cls-11" d="M185.14,228l.91-11.94a3,3,0,0,1,3-2.8h5.16a3,3,0,0,1,3,2.83l.81,11.91Z"/><path class="cls-11" d="M242.61,228l.91-11.94a3,3,0,0,1,3-2.8h5.16a3,3,0,0,1,3,2.83l.82,11.91Z"/><polygon class="cls-12" points="243.19 227.96 197.61 227.96 197.57 220.65 243.16 220.69 243.19 227.96"/><circle class="cls-11" cx="221.79" cy="285.25" r="13.27"/><circle class="cls-13" cx="221.79" cy="285.25" r="14.78"/><circle class="cls-7" cx="214.78" cy="264.87" r="2.88" transform="translate(-89.45 110.82) rotate(-24.11)"/><path class="cls-11" d="M215.11,264a.93.93,0,0,1,.54,1.2.92.92,0,0,1-1.2.53.91.91,0,0,1-.53-1.19A.92.92,0,0,1,215.11,264Z"/><path class="cls-14" d="M217.37,263.61a2.9,2.9,0,0,1,.1,2.28,2.87,2.87,0,0,1-5.35,0,2.87,2.87,0,0,0,5.25-.26A2.92,2.92,0,0,0,217.37,263.61Z"/><path class="cls-7" d="M205.28,268.21a2.87,2.87,0,1,1-2.38,3.29A2.86,2.86,0,0,1,205.28,268.21Z"/><path class="cls-11" d="M205.59,270.13a.93.93,0,1,1-.77,1.06A.93.93,0,0,1,205.59,270.13Z"/><path class="cls-14" d="M207.34,268.67a2.81,2.81,0,0,1,1.23,1.92A2.88,2.88,0,0,1,204,273.3a2.88,2.88,0,0,0,4.43-2.86A2.83,2.83,0,0,0,207.34,268.67Z"/><path class="cls-7" d="M201.26,278.06a2.87,2.87,0,1,1-3.13,2.59A2.87,2.87,0,0,1,201.26,278.06Z"/><path class="cls-11" d="M201.08,280a.93.93,0,0,1,.83,1,.92.92,0,1,1-.83-1Z"/><path class="cls-14" d="M203.15,279a2.88,2.88,0,0,1-2.43,4.76,2.84,2.84,0,0,1-2-1.13,2.82,2.82,0,0,0,1.86.94,2.87,2.87,0,0,0,2.59-4.57Z"/><path class="cls-7" d="M202,289a2.87,2.87,0,1,1-3,2.73A2.88,2.88,0,0,1,202,289Z"/><path class="cls-11" d="M201.86,290.92a.93.93,0,1,1-1,.88A.92.92,0,0,1,201.86,290.92Z"/><path class="cls-14" d="M203.89,289.85a2.82,2.82,0,0,1,.79,2.14,2.87,2.87,0,0,1-5.08,1.68,2.88,2.88,0,0,0,4.29-3.82Z"/><path class="cls-7" d="M207.83,298a2.87,2.87,0,1,1-2.71,3A2.87,2.87,0,0,1,207.83,298Z"/><path class="cls-11" d="M207.94,300a.94.94,0,0,1,1,.88.93.93,0,1,1-1-.88Z"/><path class="cls-14" d="M209.84,298.69A2.87,2.87,0,1,1,206,303a2.87,2.87,0,0,0,3.85-4.26Z"/><circle class="cls-7" cx="217.87" cy="305.64" r="2.88" transform="translate(-99.93 105.93) rotate(-22.37)"/><path class="cls-11" d="M217.72,304.72a.93.93,0,0,1,.29,1.83.93.93,0,1,1-.29-1.83Z"/><path class="cls-14" d="M219.48,303.26a2.87,2.87,0,1,1-3.4,4.63,2.88,2.88,0,0,0,3.4-4.63Z"/><path class="cls-7" d="M227.53,302.23a2.88,2.88,0,1,1-1.32,3.84A2.87,2.87,0,0,1,227.53,302.23Z"/><path class="cls-11" d="M228.39,304a.92.92,0,0,1,1.24.42.94.94,0,0,1-.43,1.25.93.93,0,0,1-1.24-.43A.91.91,0,0,1,228.39,304Z"/><path class="cls-14" d="M229.64,302.07a2.87,2.87,0,1,1-1.9,5.41,2.87,2.87,0,0,0,3.4-4A2.81,2.81,0,0,0,229.64,302.07Z"/><path class="cls-7" d="M237.93,295.76a2.88,2.88,0,1,1-3,2.78A2.87,2.87,0,0,1,237.93,295.76Z"/><circle class="cls-11" cx="237.84" cy="298.63" r="0.93"/><path class="cls-14" d="M239.87,296.61a2.79,2.79,0,0,1,.84,2.12,2.87,2.87,0,0,1-5.05,1.78,2.93,2.93,0,0,0,1.92.82,2.87,2.87,0,0,0,2.29-4.72Z"/><path class="cls-7" d="M242.71,285.89a2.87,2.87,0,1,1-3,2.75A2.87,2.87,0,0,1,242.71,285.89Z"/><path class="cls-11" d="M242.63,287.83a.93.93,0,0,1-.08,1.86.93.93,0,0,1,.08-1.86Z"/><path class="cls-14" d="M244.64,286.75a2.87,2.87,0,1,1-4.25,3.86,2.87,2.87,0,0,0,4.25-3.86Z"/><path class="cls-7" d="M241.32,275a2.88,2.88,0,1,1-2.4,3.29A2.88,2.88,0,0,1,241.32,275Z"/><path class="cls-11" d="M241.62,276.92a.93.93,0,1,1-.78,1.06A.93.93,0,0,1,241.62,276.92Z"/><path class="cls-14" d="M243.38,275.46a2.87,2.87,0,0,1-1.17,5.21,2.83,2.83,0,0,1-2.24-.59,2.87,2.87,0,0,0,3.41-4.62Z"/><circle class="cls-15" cx="221.79" cy="285.25" r="26.82" transform="translate(-136.74 240.38) rotate(-45)"/><path class="cls-14" d="M252.32,272.79c0-.66.33-1.09,1-1.09s1,.43,1,1.09V275c0,.66-.33,1.1-1,1.1s-1-.44-1-1.1Zm.48,2.28c0,.39.17.63.52.63s.52-.24.52-.63v-2.3c0-.4-.17-.64-.52-.64s-.52.24-.52.64Z"/><path class="cls-14" d="M210,252.31a1.25,1.25,0,0,1-.6.18v-.39a.77.77,0,0,0,.75-.58h.33v4.35H210Z"/><path class="cls-14" d="M198.11,261.31c0,1.31-1.47,1.78-1.48,2.79v.06h1.43v.45h-1.91v-.38c0-1.4,1.48-1.68,1.48-2.9,0-.45-.15-.69-.51-.69s-.51.26-.51.64v.39h-.46v-.35c0-.67.31-1.11,1-1.11S198.11,260.64,198.11,261.31Z"/><path class="cls-14" d="M189.28,278.14v.11a1,1,0,0,0,0,1.8v.34c0,.66-.31,1.1-1,1.1s-1-.44-1-1.1v-.3h.45v.33c0,.39.17.63.51.63s.51-.23.51-.67V280c0-.43-.18-.63-.54-.65H188V279h.28c.33,0,.52-.22.52-.6v-.2c0-.45-.15-.68-.51-.68s-.51.25-.51.64v.22h-.45v-.2c0-.66.31-1.09,1-1.09S189.28,277.48,189.28,278.14Z"/><path class="cls-14" d="M190.39,297.29v.88h-.48v-.88h-1.4v-.44l1.35-3h.53v3h.34v.44Zm-1.43-.44h.95v-2.13Z"/><path class="cls-14" d="M200.34,310.29a.69.69,0,0,1,.65-.36c.56,0,.8.41.8,1v.85c0,.67-.31,1.1-1,1.1s-1-.43-1-1.1v-.29h.46v.32c0,.39.16.63.51.63s.51-.24.51-.63V311c0-.4-.16-.63-.51-.63a.46.46,0,0,0-.49.46v.1h-.46l.12-2.42h1.72V309h-1.28Z"/><path class="cls-14" d="M217.38,317v.08h-.46V317c0-.4-.16-.63-.51-.63s-.53.24-.53.71v1a.69.69,0,0,1,.7-.46c.56,0,.81.4.81,1v.66c0,.66-.33,1.1-1,1.1s-1-.44-1-1.1v-2.22c0-.69.31-1.12,1-1.12S217.38,316.36,217.38,317Zm-1.5,1.63v.65c0,.39.16.63.51.63s.52-.24.52-.63v-.65c0-.4-.17-.63-.52-.63S215.88,318.26,215.88,318.66Z"/><path class="cls-14" d="M234.47,314.58H233v-.44h2v.42l-1.12,3.94h-.49Z"/><path class="cls-14" d="M249.63,304v.13a.86.86,0,0,1-.49.9.87.87,0,0,1,.49.92v.32a1,1,0,1,1-2,0v-.32a.89.89,0,0,1,.5-.92.86.86,0,0,1-.5-.9V304a1,1,0,1,1,2,0Zm-1.57,0v.21c0,.42.2.61.55.61s.54-.19.54-.61V304c0-.45-.2-.66-.54-.66S248.06,303.51,248.06,304Zm0,1.88v.37c0,.45.2.66.55.66s.54-.21.54-.66v-.37q0-.63-.54-.63C248.25,305.21,248.06,305.42,248.06,305.84Z"/><path class="cls-14" d="M256.32,288.83v2.22c0,.69-.31,1.12-1,1.12s-1-.42-1-1.09V291h.45v.11c0,.39.17.62.52.62s.53-.23.53-.69v-1a.69.69,0,0,1-.7.46c-.56,0-.81-.4-.81-1v-.66c0-.67.32-1.1,1-1.1S256.32,288.16,256.32,288.83Zm-1.52,0v.66c0,.39.17.62.52.62s.51-.23.51-.62v-.66c0-.4-.16-.63-.51-.63S254.8,288.4,254.8,288.8Z"/><path class="cls-16" d="M237.48,220.78l-.93,5.3s-5.65,2.08-6.93,2.1-7,.82-7,.82a21.77,21.77,0,0,1,.28,6.64c-.52,2.52-4.8,21.72-4.8,21.72l-.91.59v2a3.35,3.35,0,0,1,.91,1.19,11,11,0,0,1,.25,2.71l-2.78.39c-.43.06-.9-.86-1.37-.8-3.23.43-7.16,1.86-7.16,1.52a3.59,3.59,0,0,1,.79-1.52l4.68-.8,1.1-33.61s-4.6.37-4.78,1.05.16,4.31.14,6c0,1.46-1.93,19.6-1.93,19.6a4.91,4.91,0,0,0-.74.24c.05.18-.33.61-.14,1.31.26.94,1.08,2.23.88,2.69-.34.79-2.27.88-2.27.88l-1.35-6.46-.56-13.84-.77-8.72,1.47-7.07,11-2.49,22.38-1.48"/><path class="cls-17" d="M202,255.15a23.83,23.83,0,0,0,0,2.92c.12.77,2.59.61,2.84.19a21.12,21.12,0,0,0,.09-4"/><path class="cls-18" d="M205.59,259c0,.8,0,2.33,0,2.33l-2.54.51-.3-.44a4.53,4.53,0,0,1-1.51.75,10.11,10.11,0,0,1-2.39.14c-2.08-.22-3.49-.92-3.55-1.23-.25-1.28,5.83-2.24,6.18-3.05.25-.59.12-.73.46-.64a.84.84,0,0,1,.52.4,1.53,1.53,0,0,0,1.57.74,1.8,1.8,0,0,0,1-.51A1,1,0,0,1,205.59,259Z"/><path class="cls-19" d="M223.84,226.15c-3.79-.06-13.81,1.5-17.64,1.83.2,1.59,1.06,3.74,1.09,5.92a156.48,156.48,0,0,1-1.69,22,2.71,2.71,0,0,1-3.71,0c-1.71-9.77-4.16-29.36-3.25-33.3,1.16-5,16.46-9,25.94-8.25"/><g class="cls-20"><path class="cls-21" d="M224.58,214.29c-6.7-.52-16.29,1.31-21.76,4.19a13.77,13.77,0,0,1,3.25,2,5.17,5.17,0,0,1,1.86,3.8,13,13,0,0,1-.45,3.54c4.43-.49,12.93-1.76,16.36-1.7Z"/></g><path class="cls-17" d="M211.43,258.15a23.47,23.47,0,0,0,.13,2.91c.15.76,2.61.52,2.85.08a21.34,21.34,0,0,0-.06-4"/><path class="cls-18" d="M215.12,261.88c.07.8.06,2.33.06,2.33l-2.52.6-.32-.42a4.3,4.3,0,0,1-1.48.8,9.52,9.52,0,0,1-2.38.23c-2.08-.14-3.52-.79-3.59-1.09-.3-1.27,5.74-2.46,6.06-3.28.23-.6.09-.74.43-.66a.85.85,0,0,1,.54.38,1.51,1.51,0,0,0,1.6.68,1.77,1.77,0,0,0,.95-.55A1,1,0,0,1,215.12,261.88Z"/><path class="cls-19" d="M238.67,214.79c1,2.31,1.65,6.48.65,8.26-.87,1.57-1.28,2.54-2.77,3-6.36,2.11-11.87,1.7-19.05,1.26,3,8-1.65,24.19-2.32,31.45-2.68,1.2-4.2-.07-4.2-.07.3-14.79-3-35.45-1-39,1.21-2.15,15.69-5,16-5"/><path class="cls-17" d="M187.63,194.85l-1.74-.1a1.81,1.81,0,0,0-.83.16,9.14,9.14,0,0,1-1.47.5,7.11,7.11,0,0,1-3.28-.23c-.81-.14-.14-.9,1.07-1s.55.17,1.13-.19-.54-.88-1.45-1.22a12.91,12.91,0,0,1-1.67-.77c-.88-.41-1.66-.67-2.17-1-.36-.2-.67-.55-.25-.65s2.86.55,3.41.58.84-.77,2.29-.78,2.89,1.54,3.56,1.91,3.25.17,3.25.17"/><path class="cls-10" d="M222.26,180.54s-3.44,0-5.57,1.5c-1.2.84-11.6,7.64-12.89,8.33S186.54,192,186.54,192a2.85,2.85,0,0,0-.83,1.84,7.17,7.17,0,0,0,.35,2.13s15.79,1.46,19.11.78,16.63-6.37,16.63-6.37"/><path class="cls-10" d="M238.75,214.91c-1.72,4.16-10.88,2.66-15.75,2.83-4.37.16-5.45-1.34-5.45-1.34.16-6.24,1.19-10.87.21-15.42-1.67-7.73-2.62-17.2-1.07-18.94,3.05-2.33,11.15-4,17.51-2.06,4.78,1.48,6.29,2.88,6,6.48C240.1,187.65,236.89,209.79,238.75,214.91Z"/><polygon class="cls-22" points="231.88 215.96 208.79 214.15 222.19 220.24 231.88 215.96"/><polygon class="cls-23" points="222.1 220.78 231.75 216.77 231.88 215.96 222.06 219.98 222.1 220.78"/><path class="cls-17" d="M220.88,212.49l-1.95.9a3.27,3.27,0,0,0-3.71-.15c-1.94,1.27,0,5.36,1.41,5.06s5.58-3,5.58-3Z"/><path class="cls-10" d="M221.21,216.4a2.55,2.55,0,0,1-1.43-2,5.82,5.82,0,0,1,.16-1.94s5.44-3.24,9.3-6.18a29.49,29.49,0,0,1,5.66-3.48c-.32-3.31-.64-6.63-1-9.94a27.64,27.64,0,0,1-.37-5.8c.32-2.36,1.22-6.15,4.07-5.68,5.11.85,3.9,11.63,3.72,15.56-.13,2.68.11,7.26-1.56,9.54C237.28,209.88,221.21,216.4,221.21,216.4Z"/><path class="cls-23" d="M222.1,220.78l-21.21-3.44a1.53,1.53,0,0,1-1.28-1.43l-.65-15a1.28,1.28,0,0,1,1.48-1.31l19.87,3.22a1.27,1.27,0,0,1,1.06,1.2Z"/><path class="cls-17" d="M221.55,173.77c.51.19-.26,3.48.88,3.79a10.79,10.79,0,0,0,3,.22c0,.08-.25,1.85-.25,1.85l.26,1.11h2l2.78-.76s.09-3.56.2-4a17.07,17.07,0,0,0,1.91-3,8.44,8.44,0,0,0,.79-2.78c0-1.89-.07-3.87-1.31-4.84s-9.1-4.47-9.32,1.31c0,0-1,4-1.37,5-.13.34-.66,1.43-.55,1.76S221.3,173.68,221.55,173.77Z"/><path class="cls-24" d="M225.35,178.51a7.05,7.05,0,0,1-.33,1.22l.43.9,2,.11,2.78-.76s.09-3.56.2-4a17.07,17.07,0,0,0,1.91-3l-.1-1.12s-2.44-.59-2.53-.58-.11,4.8-.19,6.15a8.49,8.49,0,0,1-2.59,1.69A2.63,2.63,0,0,1,225.35,178.51Z"/><path d="M229.73,171.28s-1.9,2.44-1.84-1.46a.29.29,0,0,0-.27-.25c-.51-.06-1.7-.46-1.63-2.82a.36.36,0,0,0-.38-.35,21.89,21.89,0,0,0-2.53.17,3.33,3.33,0,0,0-.46.12,7.75,7.75,0,0,0-.35,1.17c-.05.16-.23,1.18-.23,1.18s-.66-.21-.66-.63a10.25,10.25,0,0,0,.09-1.55c-.08-.21-.73-.36-.83-.84-.24-1.1-.71-5.38,3-3.36a9.21,9.21,0,0,0,3.4.22c1.49-.15,8.13.28,7.34,6.5-.48,3.69-1.07,4.91-2,5.64-.17.12-1,.91-1.13,1a1.13,1.13,0,0,1-.8.12,3,3,0,0,1-.22-1C230.18,173.87,230.27,171.71,229.73,171.28Z"/><path class="cls-17" d="M229.58,171.14s.12-1.27,1.16-1.09c1.4.24,1.39,3.66-1.53,3.71A10.65,10.65,0,0,1,229.58,171.14Z"/><path class="cls-7" d="M230.62,177.67a10.37,10.37,0,0,1,1.26,1.75,5.38,5.38,0,0,1-1.39,1.08c-.74.39-4.18,2.26-4.18,2.26l-.86-2.13S229,178.65,230.62,177.67Z"/><path class="cls-7" d="M225.45,180.63a4.8,4.8,0,0,0-1.61,1.72,8.15,8.15,0,0,1,.14-3.25,6.22,6.22,0,0,1,1.47-1.26A9.9,9.9,0,0,0,225.45,180.63Z"/><path class="cls-19" d="M230.53,169.2a10.72,10.72,0,0,0-.12-2.71,4.57,4.57,0,0,0-1.71-2.9,4.28,4.28,0,0,0-3.25-.67,4.65,4.65,0,0,1,3.07.91,4.42,4.42,0,0,1,1.51,2.74,10.69,10.69,0,0,1,.17,2.59H230a2.71,2.71,0,0,0-1.61,4.9,4.78,4.78,0,0,1-4,1.77.67.67,0,0,0-.6-.32.58.58,0,0,0-.64.5.59.59,0,0,0,.64.51.68.68,0,0,0,.58-.29h.13a5.06,5.06,0,0,0,4.24-2,2.66,2.66,0,0,0,1.28.34,2.72,2.72,0,0,0,.5-5.39Z"/><path class="cls-10" d="M336.42,343.65c-6.86,3.51-16.75,1.07-21.23-7.88h0c-15-27.5-39.65-77.61-39.65-77.61-4.44-10.38-.76-18.35,6.06-21.83h0l2.75-1.41h0l7.83-3.75c.54,6.49,1.64,7.35,3.35,10.71l6.32,2.31c1.72,3.37,6.5,8.81,3.14,10.53l-6,3.06a2.65,2.65,0,0,0-1.15,3.56l27.84,54.49a2.63,2.63,0,0,0,3.55,1.15l5.28-2.61c3.37-1.71,6.11,6.09,7.83,9.46l8.16,4.95c-2.23,2.7.24,7.43-3.13,9.15l-8.2,4.32h0l-2.75,1.4Z"/><path class="cls-6" d="M348.78,330.09l-6.07-11.89a6.85,6.85,0,0,0-9.2-3l-6,3.07a2.65,2.65,0,0,1-3.56-1.15l-27.84-54.5a2.64,2.64,0,0,1,1.15-3.55l.69-.35a2.58,2.58,0,0,0-.12,2.59l27.84,54.51a2.66,2.66,0,0,0,3.55,1.15l4.89-2.42c3.36-1.72,3.41,1.7,5.12,5.06l6.44,4.15"/><ellipse class="cls-6" cx="340.68" cy="326.29" rx="9.23" ry="13.43" transform="translate(-115.91 207.73) rotate(-29.21)"/><path class="cls-8" d="M347.23,338l-.23.12c4.28-2.59,4.89-9.74,1.32-16.12s-9.93-9.59-14.38-7.33l.18-.12c4.45-2.48,11,.74,14.62,7.22S351.68,335.53,347.23,338Z"/><ellipse class="cls-6" cx="298.21" cy="243.15" rx="8.54" ry="13.43" transform="matrix(0.87, -0.49, 0.49, 0.87, -80.73, 176.44)"/><path class="cls-8" d="M304.77,254.87l-.21.11c4-2.36,4.39-9.41.81-15.83s-9.73-9.76-13.84-7.64l.13-.08c4.12-2.31,10.39,1.08,14,7.55S308.89,252.57,304.77,254.87Z"/><text class="cls-25" transform="translate(188.16 106.98)">Landline <tspan x="-33.77" y="30">Bill Settlement</tspan></text><g id="g16527"><path id="path7719" class="cls-26" d="M148.49,378.05H90.86a1,1,0,0,0-1,1h0v7.18a1,1,0,0,0,1,1h1.25a1,1,0,0,0-1,1h0v7.18a1,1,0,0,0,1,1H88.74a1,1,0,0,0-1,1h0v7.18a1,1,0,0,0,1,1h2.12a1,1,0,0,0-1,1h0v7.18a1,1,0,0,0,1,1h2.8a1,1,0,0,0-1,1h0V423a1,1,0,0,0,1,1H92.5a1,1,0,0,0-1,1h0v7.18a1,1,0,0,0,1,1H90.86a1,1,0,0,0-1,1h0v7.18a1,1,0,0,0,1,1h-2.5a1,1,0,0,0-1,1h0v7.18a1,1,0,0,0,1,1h3.57a1,1,0,0,0-1,1h0v7.18a1,1,0,0,0,1,1H89a1,1,0,0,0-1,1h0V469a1,1,0,0,0,1,1h4.34a1,1,0,0,0-1,1h0v7.18a1,1,0,0,0,1,1h-2.5a1,1,0,0,0-1,1h0v7.18a1,1,0,0,0,1,1h57.63a1,1,0,0,0,1-1h0v-7.18a1,1,0,0,0-1-1H151a1,1,0,0,0,1-1h0V471a1,1,0,0,0-1-1h-4.34a1,1,0,0,0,1-1h0v-7.18a1,1,0,0,0-1-1h2.89a1,1,0,0,0,1-1h0v-7.18a1,1,0,0,0-1-1H146a1,1,0,0,0,1-1h0v-7.18a1,1,0,0,0-1-1h2.5a1,1,0,0,0,1-1h0V434.2a1,1,0,0,0-1-1h1.63a1,1,0,0,0,1-1h0V425a1,1,0,0,0-1-1h1.15a1,1,0,0,0,1-1h0v-7.18a1,1,0,0,0-1-1h-2.8a1,1,0,0,0,1-1h0v-7.18a1,1,0,0,0-1-1h-2.12a1,1,0,0,0,1-1h0v-7.18a1,1,0,0,0-1-1h3.37a1,1,0,0,0,1-1h0v-7.18a1,1,0,0,0-1-1h-1.2a1,1,0,0,0,1-1v-7.18a1,1,0,0,0-1-1Z"/><path id="path8169" class="cls-27" d="M90.86,378.05a1,1,0,0,0-1,1h0v7.18a1,1,0,0,0,1,1h1.25a1,1,0,0,0-1,1h0v7.18a1,1,0,0,0,1,1H88.74a1,1,0,0,0-1,1h0v7.18a1,1,0,0,0,1,1h2.12a1,1,0,0,0-1,1h0v7.18a1,1,0,0,0,1,1h2.8a1,1,0,0,0-1,1h0V423a1,1,0,0,0,1,1H92.5a1,1,0,0,0-1,1h0v7.18a1,1,0,0,0,1,1H90.86a1,1,0,0,0-1,1h0v7.18a1,1,0,0,0,1,1h-2.5a1,1,0,0,0-1,1h0v7.18a1,1,0,0,0,1,1h9.43v-9.19h.57v9.19h2.86v-9.19h1.14v9.19h2.28v-9.19h-.92v-9.19h1.14v9.19h1.49v9.19h1.72v-9.19h-.92v-9.19h1.63V424h1.16v-9.19h.63v-9.19h-1.71v9.19h-1.2V424h-1.14v-9.19h.63v-9.19h1.3v-9.19h0v-9.19h-1.25v-9.19h-2.29v9.19h-1.14v-9.19h-2.85v9.19h-.57v-9.19Zm18,0v9.19h1.25v9.19h.63v9.19h1.14v-9.19h-.06v-9.19h-1.25v-9.19Zm4,0v9.19H114v-9.19Zm4,0v9.19h.57v-9.19Zm4.85,0v9.19h.25v-9.19Zm3.43,0v9.19h.24v-9.19Zm3.42,0v9.19h.25v-9.19Zm3.43,0v9.19h.24v-9.19Zm3.42,0v9.19h.25v-9.19Zm3.42,0v9.19h.25v-9.19Zm-37.27,9.19h.57v9.19h.62v9.19h-1.14v-9.19h0Zm3.42,0h1.15v9.19h.62v9.19H105v-9.19H105Zm9.14,0v9.19h.62v9.19h.57v-9.19h-.05v-9.19Zm4,0v9.19h.57v-9.19Zm4.85,0v9.19H123v9.19h.24v-9.19h0v-9.19Zm3.43,0v9.19h0v9.19h.25v-9.19h-.06v-9.19Zm3.42,0v9.19h.06v9.19h.24v-9.19H130v-9.19Zm3.43,0v9.19h.05v9.19h.25v-9.19h-.06v-9.19Zm3.42,0v9.19h.06v9.19h.24v-9.19h-.05v-9.19Zm3.43,0v9.19h.24v-9.19Zm-41.9,9.19h.57v9.19h-.57Zm21.4,0v9.19h.25v-9.19Zm-19.28,9.19h.57v9.19h-.57Zm3.42,0h1.14v9.19h-1.14Zm9.13,0v9.19h-1.2V424h-1.15v9.19h-1.64v9.19h1.49v9.19h1.14v-9.19h-.92v-9.19h1.64V424h1.15v-9.19H114v-9.19Zm4,0v9.19h.57v-9.19Zm4.85,0v9.19h.25v-9.19Zm3.43,0v9.19h.24v-9.19Zm3.42,0v9.19h.25v-9.19Zm3.43,0v9.19h.24v-9.19Zm3.42,0v9.19h.25v-9.19Zm3.42,0v9.19h.25v-9.19Zm-35.73,9.19h.57V424h-.57Zm12.56,0V424h1.14v-9.19Zm4,0V424h.57v-9.19Zm4.85,0V424h.25v-9.19Zm3.43,0V424h.25v-9.19Zm3.42,0V424h.25v-9.19Zm3.43,0V424H135v-9.19Zm3.42,0V424h.25v-9.19Zm3.43,0V424h.24v-9.19ZM101.92,424h.58v9.19h-.57Zm3.43,0h1.14v9.19h-1.14Zm9.13,0v9.19h1.14V424Zm4,0v9.19h.57V424Zm4.85,0v9.19h.25V424Zm3.42,0v9.19H127V424Zm3.43,0v9.19h.24V424Zm3.42,0v9.19h.25V424Zm3.43,0v9.19h.24V424Zm3.42,0v9.19h.25V424Zm-40.16,9.19h.57v9.19h-.57Zm12.55,0v9.19H114v-9.19Zm4,0v9.19h.57v-9.19Zm4.85,0v9.19h.25v-9.19Zm3.43,0v9.19h.24v-9.19Zm3.42,0v9.19h.25v-9.19Zm3.43,0v9.19h.24v-9.19Zm3.42,0v9.19h.25v-9.19Zm3.42,0v9.19h.25v-9.19Zm-24.47,9.19v9.19h.57v-9.19Zm4.85,0v9.19h.24v-9.19Zm3.42,0v9.19h.25v-9.19Zm3.43,0v9.19h.24v-9.19Zm3.42,0v9.19h.25v-9.19Zm3.43,0v9.19h.24v-9.19Zm3.42,0v9.19h.25v-9.19Zm-44.39,9.19a1,1,0,0,0-1,1h0v7.18a1,1,0,0,0,1,1H89a1,1,0,0,0-1,1h0V469a1,1,0,0,0,1,1h4.34a1,1,0,0,0-1,1h0v7.18a1,1,0,0,0,1,1h-2.5a1,1,0,0,0-1,1h0v7.18a1,1,0,0,0,1,1h9.43v-9.19h.57v9.19h2.85v-9.19h1.14v9.19h2.29v-9.19h-.92V470h-.91v-9.19h-.54v-9.19h-2.85v9.19H103V470h.34v9.19h-.57V470h-.91v-9.19h-.53v-9.19Zm14,0v9.19H107V470h.34v9.19h1.49v9.19h1.71v-9.19h-.92V470h-.91v-9.19h-.53v-9.19Zm4,0v9.19H111V470h.34v9.19h1.49v9.19H114v-9.19h-.92V470h-.91v-9.19h-.54v-9.19Zm4,0v9.19H115V470h.34v9.19h1.14V470h-.91v-9.19h-.53v-9.19Zm4,0v9.19h.57v-9.19Zm4.85,0v9.19H123v-9.19Zm3.43,0v9.19h.24v-9.19Zm3.42,0v9.19h.25v-9.19Zm3.42,0v9.19h.25v-9.19Zm3.43,0v9.19h.25v-9.19Zm3.42,0v9.19h.25v-9.19Zm-41.41,9.19H99V470h-.57Zm21.4,0V470h-.52v9.19h.58V470h.19v-9.19Zm3.43,0V470h.24v-9.19Zm3.42,0V470H127v-9.19Zm3.42,0V470h.25v-9.19Zm3.43,0V470h.25v-9.19Zm3.42,0V470h.25v-9.19ZM124.2,470v9.19h.24V470Zm3.42,0v9.19h.25V470Zm3.43,0v9.19h.24V470Zm3.42,0v9.19h.25V470Zm3.42,0v9.19h.25V470Zm3.43,0v9.19h.25V470Zm-24.48,9.19v9.19h.57v-9.19Zm4.85,0v9.19h.25v-9.19Zm3.43,0v9.19h.24v-9.19Zm3.42,0v9.19h.25v-9.19Zm3.43,0v9.19h.24v-9.19Zm3.42,0v9.19h.25v-9.19Zm3.42,0v9.19h.25v-9.19Z"/><path id="path8251" class="cls-28" d="M100.61,378.05v9.19h.25v-9.19Zm4,0v9.19h.24v-9.19Zm4,0v9.19h.25v-9.19Zm4,0v9.19h.24v-9.19Zm4,0v9.19h.25v-9.19Zm5.35,0v9.19h.57v-9.19Zm3.42,0v9.19h1.14v-9.19Zm3.43,0v9.19H130v9.19h.05v9.19h-1.3v9.19h-.63V424h1.14v-9.19h1.2v-9.19h1.71v9.19h-.63V424h-1.16v9.19h-1.63v9.19h.92v9.19h.14v9.19h.53V470h.91v9.19h.92v9.19h2.28v-9.19H133V470h-.34v-9.19h-1.1v-9.19H132v-9.19H130.5v-9.19h1.64V424h1.15v-9.19h1.2v-9.19h1.15v9.19H135V424h-1.16v9.19h-1.64v9.19h.92v9.19h.14v9.19h.54V470h.91v9.19h.92v9.19h2.85v-9.19h.57v9.19h9.43a1,1,0,0,0,1-1h0v-7.18a1,1,0,0,0-1-1H151a1,1,0,0,0,1-1h0V471a1,1,0,0,0-1-1h-4.34a1,1,0,0,0,1-1h0v-7.18a1,1,0,0,0-1-1h2.89a1,1,0,0,0,1-1h0v-7.18a1,1,0,0,0-1-1H146a1,1,0,0,0,1-1h0v-7.18a1,1,0,0,0-1-1h2.5a1,1,0,0,0,1-1h0V434.2a1,1,0,0,0-1-1h1.63a1,1,0,0,0,1-1h0V425a1,1,0,0,0-1-1h1.15a1,1,0,0,0,1-1h0v-7.18a1,1,0,0,0-1-1h-2.79a1,1,0,0,0,1-1h0v-7.18a1,1,0,0,0-1-1h-2.12a1,1,0,0,0,1-1h0v-7.18a1,1,0,0,0-1-1h3.37a1,1,0,0,0,1-1h0v-7.19a1,1,0,0,0-1-1h-1.25a1,1,0,0,0,1-1h0v-7.18a1,1,0,0,0-1-1h-9.43v9.19h-.57v-9.19h-2.85v9.19h-1.15v-9.19h-2.28v9.19h1.25v9.19h.06v9.19h-1.14v-9.19h-.63v-9.19H130.5v-9.19Zm-26.93,9.19v9.19h.25v-9.19Zm4,0v9.19h.25v-9.19Zm4,0v9.19h.25v-9.19Zm4,0v9.19h.25v-9.19Zm4,0v9.19h.24v-9.19Zm5.34,0v9.19h0v9.19h1.14v-9.19h-.62v-9.19Zm3.42,0v9.19h.06v9.19h1.71v-9.19h-.62v-9.19Zm9.14,0h1.14v9.19h.05v9.19h-.57v-9.19h-.62Zm4,0h.57v9.19h-.57Zm-41.25,9.19v9.19h.25v-9.19Zm4,0v9.19h.24v-9.19Zm4,0v9.19h.25v-9.19Zm4,0v9.19h.25v-9.19Zm4,0v9.19h.25v-9.19Zm5.35,0v9.19h.57v-9.19Zm-19.21,9.19v9.19h.25v-9.19Zm4,0v9.19h.24v-9.19Zm4,0v9.19h.25v-9.19Zm4,0v9.19h.24v-9.19Zm4,0v9.19h.25v-9.19Zm5.35,0v9.19h.57v-9.19Zm3.42,0v9.19h1.14v-9.19Zm13.13,0h.57v9.19h-.57Zm-35.08,9.19V424h.24v-9.19Zm4,0V424h.25v-9.19Zm4,0V424h.24v-9.19Zm4,0V424h.25v-9.19Zm4,0V424h.24v-9.19Zm5.34,0V424h.57v-9.19Zm12.56,0h1.14V424h-1.14Zm4,0h.57V424h-.57Zm-39,9.19v9.19h.25V424Zm4,0v9.19h.25V424Zm4,0v9.19h.25V424Zm4,0v9.19h.24V424Zm4,0v9.19h.25V424Zm5.35,0v9.19h.57V424Zm3.42,0v9.19h1.14V424Zm9.13,0h1.14v9.19h-1.14Zm4,0h.57v9.19h-.57Zm-39.52,9.19v9.19h.25v-9.19Zm4,0v9.19h.24v-9.19Zm4,0v9.19h.25v-9.19Zm4,0v9.19h.24v-9.19Zm4,0v9.19h.25v-9.19Zm5.35,0v9.19h.57v-9.19Zm3.42,0v9.19h.92v9.19h.14v9.19H127V470h.91v9.19h.92v9.19h1.71v-9.19H129V470h-.34v-9.19h-1.11v-9.19H128v-9.19H126.5v-9.19Zm9.13,0h1.15v9.19h-1.15Zm4,0h.57v9.19h-.57Zm-40.38,9.19v9.19h.24v-9.19Zm4,0v9.19h.25v-9.19Zm4,0v9.19h.24v-9.19Zm4,0v9.19h.25v-9.19Zm4,0v9.19h.25v-9.19Zm5.34,0v9.19H120v-9.19Zm3.43,0v9.19H123v9.19h.53V470h.91v9.19H125V470h-.34v-9.19h-1.1v-9.19H124v-9.19Zm13.13,0h.57v9.19h.14v9.19h.53V470h.91v9.19H137V470h-.34v-9.19h-1.11v-9.19H136Zm-34.32,9.19v9.19h.25v-9.19Zm4,0v9.19h.24v-9.19Zm4,0v9.19h.25v-9.19Zm4,0v9.19h.24v-9.19Zm4,0v9.19h.25v-9.19Zm21.9,0h.57v9.19h-.57Zm-40.77,9.19V470H99v-9.19Zm4,0V470H103v-9.19Zm4,0V470H107v-9.19Zm4,0V470H111v-9.19Zm4,0V470H115v-9.19Zm5.35,0V470h.57v-9.19Zm-17,9.19v9.19h.24V470Zm4,0v9.19h.25V470Zm4,0v9.19h.24V470Zm4,0v9.19h.25V470Zm4,0v9.19h.24V470Zm21.9,0h.57v9.19H141Zm-40.39,9.19v9.19h.25v-9.19Zm4,0v9.19h.24v-9.19Zm4,0v9.19h.25v-9.19Zm4,0v9.19h.24v-9.19Zm4,0v9.19h.25v-9.19Zm5.35,0v9.19h.57v-9.19Zm3.42,0v9.19h1.14v-9.19Z"/></g><g id="g16522"><path id="path16318" class="cls-26" d="M63,442.38a1,1,0,0,0-1,1h0v7.18a1,1,0,0,0,1,1H58.72a1,1,0,0,0-1,1h0v7.18a1,1,0,0,0,1,1h4.63a1,1,0,0,0-1,1h0V469a1,1,0,0,0,1,1H57.76a1,1,0,0,0-1,1h0v7.18a1,1,0,0,0,1,1h2.7a1,1,0,0,0-1,1h0v7.18a1,1,0,0,0,1,1h57.63a1,1,0,0,0,1-1h0v-7.18a1,1,0,0,0-1-1h-2.7a1,1,0,0,0,1-1h0V471a1,1,0,0,0-1-1H121a1,1,0,0,0,1-1h0v-7.18a1,1,0,0,0-1-1h-4.63a1,1,0,0,0,1-1h0v-7.18a1,1,0,0,0-1-1h4.23a1,1,0,0,0,1-1h0v-7.18a1,1,0,0,0-1-1H63Z"/><path id="path9656" class="cls-28" d="M72.71,442.38v9.19h-.25v9.19h.25v-9.19H73v-9.19Zm4,0v9.19h-.24v9.19h.25v-9.19H77v-9.19Zm4,0v9.19h-.25v9.19h.25v-9.19h.24v-9.19Zm4,0v9.19h-.24v9.19h.25v-9.19h.24v-9.19Zm4,0v9.19h.25v-9.19Zm5.34,0v9.19h-.81v9.19h1.14v-9.19h.24v-9.19Zm3.43,0v9.19h-.82v9.19h1.2V470H99v-9.19h-.62v-9.19h.24v-9.19Zm3.42,0v9.19h-.81v9.19h1.2V470H99.11v9.19h-.73v9.19h1.71v-9.19h1.3V470h1.14v9.19h-.73v9.19h2.29v-9.19h1.14v9.19h2.85v-9.19h.57v9.19h9.43a1,1,0,0,0,1-1h0v-7.18a1,1,0,0,0-1-1h-2.7a1,1,0,0,0,1-1h0V471a1,1,0,0,0-1-1H121a1,1,0,0,0,1-1h0v-7.18a1,1,0,0,0-1-1h-4.63a1,1,0,0,0,1-1h0v-7.18a1,1,0,0,0-1-1h4.23a1,1,0,0,0,1-1h0v-7.18a1,1,0,0,0-1-1h-9.43v9.19h-.57v-9.19h-2.86v9.19h-.81v9.19h-.57v-9.19h.24v-9.19h-2.28v9.19h-.82v9.19h1.2V470H103v-9.19h-.63v-9.19h.24v-9.19Zm-32.41,9.19v9.19h.24v-9.19Zm21.32,0v9.19h.58v-9.19Zm-16.7,9.19V470h.25v-9.19Zm4,0V470h.24v-9.19Zm4,0V470h.25v-9.19Zm4,0V470h.25v-9.19Zm4,0V470h-.24v9.19h.57V470h-.08v-9.19Zm5.35,0V470H95v-9.19Zm12.56,0h1.14V470H107Zm4,0h.57V470H111ZM67.5,470v9.19h.25V470Zm4,0v9.19h.25V470Zm4,0v9.19h.24V470Zm4,0v9.19h.25V470Zm4,0v9.19h.24V470Zm8.77,0v9.19H93.4V470Zm3.42,0v9.19H95v9.19h1.14v-9.19h1.3V470Zm9.7,0H106v9.19h-.57ZM70.2,479.14v9.19h.25v-9.19Zm4,0v9.19h.24v-9.19Zm4,0v9.19h.25v-9.19Zm4,0v9.19h.25v-9.19Zm4,0v9.19h.25v-9.19Zm5.35,0v9.19h.57v-9.19Z"/><path id="path9654" class="cls-27" d="M63,442.38a1,1,0,0,0-1,1h0v7.18a1,1,0,0,0,1,1h9.43v-9.19Zm10,0v9.19h2.86v-9.19Zm4,0v9.19h2.28v-9.19Zm4,0v9.19h1.72v-9.19Zm4,0v9.19h1.14v-9.19Zm4,0v9.19h.57v-9.19Zm4.85,0v9.19H94v-9.19Zm3.42,0v9.19h.25v-9.19Zm3.43,0v9.19h.24v-9.19Zm3.42,0v9.19h.25v-9.19Zm3.43,0v9.19h.24v-9.19Zm3.42,0v9.19h.25v-9.19Zm-52.19,9.19a1,1,0,0,0-1,1h0v7.18a1,1,0,0,0,1,1h4.63a1,1,0,0,0-1,1h0V469a1,1,0,0,0,1,1H57.76a1,1,0,0,0-1,1h0v7.18a1,1,0,0,0,1,1h2.7a1,1,0,0,0-1,1h0v7.18a1,1,0,0,0,1,1h9.43v-9.19h.57v9.19H73.3v-9.19H74V470h1.71v9.19h-1.3v9.19h2.29v-9.19h.72V470h2.17v-9.19h-1.2v-9.19H76.71v9.19h.62V470H76.19v-9.19H75v-9.19H72.71v9.19H71.57v-9.19H68.71v9.19h-.57v-9.19Zm22,0v9.19h.63V470H83v-9.19h-1.2v-9.19Zm4,0v9.19h.57v-9.19Zm4.85,0v9.19h-.23V470h.57v-9.19h-.1v-9.19Zm3.42,0v9.19h.25v-9.19Zm3.43,0v9.19h.24v-9.19Zm3.42,0v9.19h.25v-9.19Zm3.43,0v9.19h.24v-9.19Zm3.42,0v9.19h.25v-9.19Zm-33.9,9.19h.57V470h-.57Zm12.56,0V470h1.14v-9.19Zm8.84,0V470h.25v-9.19Zm3.43,0V470h.24v-9.19Zm3.42,0V470h.25v-9.19Zm3.43,0V470h.24v-9.19Zm3.42,0V470h.25v-9.19Zm3.42,0V470h.25v-9.19ZM67.18,470h.57v9.19h-.57Zm3.43,0h1.14v9.19H70.61Zm9.13,0v9.19h-1.3v9.19h1.71v-9.19h.73V470Zm4,0v9.19h.57V470Zm4.85,0v9.19h.25V470ZM92,470v9.19h.25V470Zm3.42,0v9.19h.25V470Zm3.43,0v9.19h.25V470Zm3.42,0v9.19h.25V470Zm3.43,0v9.19H106V470Zm-23.27,9.19v9.19h1.14v-9.19Zm4,0v9.19H87v-9.19Zm4.85,0v9.19h.25v-9.19Zm3.43,0v9.19H95v-9.19Zm3.42,0v9.19h.25v-9.19Zm3.43,0v9.19h.24v-9.19Zm3.42,0v9.19h.25v-9.19Zm3.42,0v9.19h.25v-9.19Z"/></g><g id="g150577"><path id="path138956" class="cls-29" d="M130.09,432.12v55.59h-5.48a24,24,0,0,1-17.79-8.14,29.89,29.89,0,0,1,0-39.31,24,24,0,0,1,17.79-8.14Z"/><path id="path139017" class="cls-30" d="M100.56,451.78c0-.18.1-.37.16-.55H130.1v.55Zm1.12-3.28c.15-.36.31-.73.47-1.09H130.1v1.09Zm1.58-3.27c.32-.56.65-1.1,1-1.64H130.1v1.64Zm2.16-3.27c.45-.58.91-1.14,1.4-1.68l.47-.51H130.1V442Zm3-3.28a24.77,24.77,0,0,1,3.49-2.72H130.1v2.72Zm4.37-3.27a23.29,23.29,0,0,1,11.85-3.27h5.48v3.27Z"/><path id="path138960" class="cls-26" d="M130.1,432.14a27.79,27.79,0,1,0,27.79,27.79h0A27.79,27.79,0,0,0,130.1,432.14Z"/><path id="path138958" class="cls-31" d="M100.56,468.08c0,.18.1.37.16.55h3c-.07-.18-.13-.37-.19-.55Zm1.12,3.27c.15.37.31.74.47,1.1h3.15c-.18-.36-.35-.73-.52-1.1Zm1.58,3.28c.32.56.65,1.1,1,1.64h3.38c-.39-.54-.76-1.08-1.11-1.64Zm2.16,3.27c.45.58.91,1.14,1.4,1.68l.47.51H111a26.67,26.67,0,0,1-2.06-2.19Zm3,3.28a24.77,24.77,0,0,0,3.49,2.72h4.16a27.19,27.19,0,0,1-3.84-2.72Zm4.37,3.27a23.29,23.29,0,0,0,11.85,3.27h5.48a27.78,27.78,0,0,1-13-3.27Z"/><path id="path138962" class="cls-32" d="M130.1,438a22,22,0,0,0-22,22h0a22,22,0,0,0,22,22h0a22,22,0,0,0,22-22h0a22,22,0,0,0-22-22Z"/><path id="path138964" class="cls-33" d="M130.1,438c-.53,0-1.06,0-1.6.06,12.29.84,21.79,10.4,21.79,21.92S140.78,481,128.5,481.85c.53,0,1.06.06,1.6.06a22,22,0,0,0,22-22h0a22,22,0,0,0-22-22Z"/><path id="path138968" class="cls-34" d="M133.25,449.54a3.49,3.49,0,0,1,.76,2.7l1,.66c0-1.71-.37-2.41-1-2.94A3.33,3.33,0,0,0,133.25,449.54Zm-7.37,5.67a5.65,5.65,0,0,0,.51.39,14.62,14.62,0,0,0,4.33,1.73,19.9,19.9,0,0,1,5.69,1.77l0,0a7.42,7.42,0,0,0-1-.69,19.87,19.87,0,0,0-5.7-1.77,15.78,15.78,0,0,1-3.87-1.45Zm8,8a2.92,2.92,0,0,1,.89,2c.11,2-.32,3.1-1.05,3.78s-2.17,1.26-4.74,1.23a8.76,8.76,0,0,1-3.52-.67l.07.07c.68.66,2,1.2,4.42,1.27,2.57,0,4-.53,4.74-1.23s1.15-1.74,1-3.79a2.93,2.93,0,0,0-1.73-2.58l-.12-.06Zm-7.27,12.09V477l1,.66v-2.2C127.25,475.42,126.93,475.36,126.61,475.28Z"/><path id="path138970" class="cls-35" d="M126.61,441.52v2.18l1,.67v-2.18Zm5.77,2.34v.49a9.93,9.93,0,0,1,3.6,1.19,8.64,8.64,0,0,0-3.6-1.68Zm-13.7,21c-.09,3,.63,5.7,2.53,7.54a7.88,7.88,0,0,0,1.47,1.11l-.5-.44c-1.9-1.84-2.62-4.55-2.53-7.54Z"/><path id="path138972" class="cls-36" d="M126.61,441.52l1,.67h4.81l-1-.67Zm0,2.18a9.32,9.32,0,0,0-4.62,1.94,8,8,0,0,0-2.71,6.19,8.43,8.43,0,0,0,3.42,7.06c.17.12.34.22.5.32a8.6,8.6,0,0,1-3-6.72,8,8,0,0,1,2.71-6.18,9.2,9.2,0,0,1,4.61-1.94Zm-7.93,21.12,1,.67,4.8.13-1-.66Z"/><path id="path138976" class="cls-37" d="M108.23,438.85l-.31.3Zm3.43.36a28,28,0,0,0-6.34,8.26l5.13,2.69a22,22,0,0,1,6.82-8Zm-7.48,4.51L104,444Zm36.36,22.22c0-.15,0-.3,0-.45v-.11a8.31,8.31,0,0,0-4.06-6.26,10,10,0,0,0-1-.69,19.87,19.87,0,0,0-5.7-1.77,16.13,16.13,0,0,1-3.86-1.44c-.56-.49-.83-1.1-.83-2.73a2.83,2.83,0,0,1,1-2.48,6.18,6.18,0,0,1,4.06-1h.27l-7.55-4a5.86,5.86,0,0,0-.82.59,8,8,0,0,0-2.71,6.18,9.54,9.54,0,0,0,.56,3.25m-15.56-5.38c-.28.73-.53,1.48-.75,2.23l5.27,2.77a19.85,19.85,0,0,1,.7-2.27Zm29.63,1.18a6.56,6.56,0,0,1,.1,1.36l1,.66,2.9.05Zm18.14,9.51a22,22,0,0,1-2.76,10.14l5.2,2.72a27.77,27.77,0,0,0,3.19-9.91Zm-17.27,5.3a5.31,5.31,0,0,1-.43,2.4l5.27,2.77a9.88,9.88,0,0,0,.73-2.25ZM148,472.62c-.45.65-.93,1.27-1.44,1.87l5.27,2.77c.49-.62,1-1.25,1.39-1.91Z"/><path id="path138974" class="cls-38" d="M110.65,440.41a28.69,28.69,0,0,1,12.75-7.31,25,25,0,0,1,6.7-1,23.58,23.58,0,0,0-6.76.73,27.56,27.56,0,0,0-13,7.2l0,0a28,28,0,0,0,0,39.61l0,0a27.59,27.59,0,0,0,13,7.24,23.63,23.63,0,0,0,6.77.73,25.09,25.09,0,0,1-6.71-1,28.79,28.79,0,0,1-12.78-7.35l0,0a27.57,27.57,0,0,1,0-38.94l0,0Z"/></g><circle class="cls-32" cx="130.05" cy="460.26" r="18.72"/><path class="cls-39" d="M135.4,475.91h-2.7c-.47,0-.94,0-1.41,0a.46.46,0,0,1-.44-.22l-4.86-6.1c-1.46-1.83-2.91-3.66-4.38-5.48a1,1,0,0,1-.23-.67c0-.58,0-1.16,0-1.74,0-.27.09-.31.32-.3a22.75,22.75,0,0,0,3.69-.08,6.27,6.27,0,0,0,3.23-1.19,4.26,4.26,0,0,0,1.74-3c0-.39,0-.39-.35-.39h-9.13c-.09,0-.21.05-.26,0s0-.17.1-.24c.42-.68.86-1.34,1.27-2a.48.48,0,0,1,.48-.25h7.32c.19,0,.21-.05.13-.21a4,4,0,0,0-1.75-1.69,7.86,7.86,0,0,0-3.2-.71c-1.35-.07-2.7,0-4,0h-.31c0-.14.07-.21.13-.29.42-.66.86-1.32,1.28-2a.41.41,0,0,1,.39-.2h16c.08,0,.19,0,.23,0s-.06.16-.1.22c-.41.66-.82,1.3-1.22,2a.4.4,0,0,1-.39.21h-4.13c-.06.11,0,.16.06.21a5.32,5.32,0,0,1,1,2.2.31.31,0,0,0,.36.28h4.14c.12,0,.31-.06.36.05s-.1.23-.17.33c-.41.65-.84,1.29-1.24,2a.48.48,0,0,1-.46.24c-.87,0-1.75,0-2.62,0-.16,0-.25,0-.29.22a7.24,7.24,0,0,1-4.33,5.42,11.77,11.77,0,0,1-3.91,1c-.09,0-.21,0-.25.06s.08.16.13.23l6.65,8.28,3,3.69A.67.67,0,0,1,135.4,475.91Z"/></g></g></g></svg>