<svg xmlns="http://www.w3.org/2000/svg" xmlns:xlink="http://www.w3.org/1999/xlink" viewBox="0 0 353.47 404.38"><defs><style>.cls-1{fill:none;clip-rule:evenodd;}.cls-2{fill:#fadbc0;}.cls-10,.cls-12,.cls-13,.cls-2,.cls-3,.cls-4,.cls-6,.cls-8,.cls-9{fill-rule:evenodd;}.cls-14,.cls-3,.cls-7,.cls-8,.cls-9{fill:#fff;}.cls-4{fill:#ebc9ab;}.cls-5{fill:#e69a06;}.cls-6{fill:#02336d;}.cls-8{opacity:0.5;}.cls-9{opacity:0.3;}.cls-10{fill:#001e50;}.cls-11{clip-path:url(#clip-path);}.cls-12{fill:#ffb200;}.cls-13{fill:#f2cc64;}.cls-14{font-size:11.08px;font-family:MyriadPro-Regular, Myriad Pro;}.cls-15{letter-spacing:0em;}.cls-16{letter-spacing:0.02em;}.cls-17{fill:#840000;}</style><clipPath id="clip-path"><polygon id="SVGID" class="cls-1" points="323.63 311.78 353.48 392.74 250.68 392.74 234.24 347.38 323.63 311.78"/></clipPath></defs><g id="Layer_2" data-name="Layer 2"><g id="Layer_2-2" data-name="Layer 2"><path class="cls-2" d="M59.43,257.19l63,20.68,10.77-34.78C161.16,241.57,169,198,181,173L93.84,146Z"/><polygon class="cls-3" points="55.86 238.58 131.24 261.92 106.31 342.44 23.71 342.44 55.86 238.58"/><path class="cls-4" d="M93.05,177c5.72.28,9.22,3.37,9.23,6.93l-.1-33L108,125.24c1.83-7.5-4.26-14.53-10.59-17.37,4.62,3.41,9,8.13,7.56,14.81C102.52,134.05,93.24,176.62,93.05,177Z"/><rect class="cls-5" x="96.97" width="105.67" height="208" rx="8.22"/><path class="cls-6" d="M100.82,8.58H199a.35.35,0,0,1,.35.34v190.6a.35.35,0,0,1-.35.34H100.82a.35.35,0,0,1-.35-.34V8.92A.35.35,0,0,1,100.82,8.58Z"/><path class="cls-3" d="M131.58,3h27.93a1.38,1.38,0,0,1,1.38,1.38h0a1.37,1.37,0,0,1-1.38,1.37H131.58a1.37,1.37,0,0,1-1.37-1.37h0A1.38,1.38,0,0,1,131.58,3Z"/><circle class="cls-7" cx="168.04" cy="4.36" r="1.38"/><polygon class="cls-3" points="150.19 125.49 161.98 141.94 138.41 141.94 150.19 125.49"/><polygon class="cls-8" points="150.19 146.19 161.98 162.64 138.41 162.64 150.19 146.19"/><polygon class="cls-9" points="150.19 166.89 161.98 183.34 138.41 183.34 150.19 166.89"/><path class="cls-2" d="M222,278.06l27,64.38h57.22c2.52-2.25,5-4.55,7.41-6.91l-27.89-69.59Z"/><polygon class="cls-3" points="305.83 293.06 325.1 342.44 295.58 392.74 260.51 392.74 234.57 321.44 305.83 293.06"/><path class="cls-2" d="M165.69,227.63l31.15,44.21c4,5.69,36.14,32.13,42.14,28.6S225.23,268.6,221.07,263L197.2,233.08C183.51,215.91,171.74,223.09,165.69,227.63Z"/><path class="cls-2" d="M175.32,139.77l25.1,57.33c2-10.39,17.83-12,23.56-2.18.59-10.92,15.36-13.64,22.28-5.77,2.21-10,18.08-10.94,22.77-.34l21.49,48.59c6,13.65,6.41,34.46,3.67,44-8.13,28.27-45.49,29.16-58.64,20.48-10.25-6.77-18.31-10.47-21.64-17.72L152.35,149.57C144.54,132.57,169.28,125.62,175.32,139.77Z"/><path class="cls-4" d="M254.51,205.84s-4.07-9.72-7.73-18.34a10.59,10.59,0,0,0-.52,1.65,12.24,12.24,0,0,0-2-1.83c4.56,8.39,10.24,18.52,10.24,18.52Zm-54-9a10,10,0,0,1,.92-2.54c4.06,9.67,10.63,26.37,10.63,26.37s-8.38-16.43-11.62-23.53c.05.11.07,0,.07-.3Zm20.44-5.42a12.83,12.83,0,0,1,3,3.54,11.22,11.22,0,0,1,.3-2.07c4.13,9.5,9.19,21.3,9.19,21.3S225.59,200.18,220.93,191.38Z"/><path class="cls-8" d="M172.19,140.36l2.14,4.92c-3.89,7-9.84,9.31-17.51,7.72l-2.13-4.67C148.91,135.62,167.75,129.78,172.19,140.36Z"/><path class="cls-8" d="M168.89,225.9c-1.09.54-2.15,1.12-3.2,1.73l10.73,15.23C180.78,238,173.64,230.61,168.89,225.9Z"/><polygon class="cls-4" points="186.31 223.83 201.51 257.05 182 223.12 186.31 223.83"/><polygon class="cls-10" points="323.63 311.78 353.48 392.74 250.68 392.74 234.24 347.38 323.63 311.78"/><g class="cls-11"><path class="cls-12" d="M249.68,358.38a4.29,4.29,0,1,1-.81,6A4.28,4.28,0,0,1,249.68,358.38Z"/><path class="cls-12" d="M255.59,374.71a4.28,4.28,0,1,1-.81,6A4.28,4.28,0,0,1,255.59,374.71Z"/><path class="cls-12" d="M261.51,391a4.29,4.29,0,1,1-.81,6A4.3,4.3,0,0,1,261.51,391Z"/><polygon class="cls-12" points="256.12 338.56 277.9 398.68 280.78 397.64 258.99 337.52 256.12 338.56"/><polygon class="cls-13" points="261.96 404.38 280.78 397.64 279.75 394.77 260.94 401.51 261.96 404.38"/></g><polygon class="cls-10" points="41.73 259.51 132.44 287.6 99.48 392.74 0 392.74 41.73 259.51"/><path class="cls-2" d="M79.55,230.65l7.06-24.53,20.32-76.42c4.17-15.72-6.44-21.27-16.24-24.3l-21,81.47C65.76,201.92,69.54,224.53,79.55,230.65Z"/><path class="cls-8" d="M94.12,119.75c-1.13-.43-2.28-.82-3.43-1.18l-3.93,18.17C93.28,136.65,93.87,126.42,94.12,119.75Z"/><path class="cls-12" d="M112.47,305.74a4.29,4.29,0,1,0-4.29-4.29A4.29,4.29,0,0,0,112.47,305.74Z"/><path class="cls-12" d="M107.27,322.31A4.29,4.29,0,1,0,103,318,4.3,4.3,0,0,0,107.27,322.31Z"/><path class="cls-12" d="M102.08,338.88a4.29,4.29,0,1,0-4.29-4.29A4.29,4.29,0,0,0,102.08,338.88Z"/><polygon class="cls-12" points="106.45 279.56 87.33 340.57 84.41 339.67 103.54 278.65 106.45 279.56"/><polygon class="cls-12" points="103.5 345.57 84.41 339.67 85.31 336.75 104.39 342.66 103.5 345.57"/><text class="cls-14" transform="translate(120.88 102.84)">LPG <tspan class="cls-15" x="20.63" y="0">B</tspan><tspan x="26.68" y="0">oo</tspan><tspan class="cls-16" x="38.85" y="0">k</tspan><tspan x="44.23" y="0">ing</tspan></text><circle class="cls-7" cx="150.47" cy="59.59" r="32.59"/><path class="cls-17" d="M150.47,68.27h14.4c.42,0,.51.11.52.52a7.9,7.9,0,0,1-1.75,5.59A7.39,7.39,0,0,1,160,76.78c-.27.08-.35.18-.34.48,0,1,0,2,0,3.07a1,1,0,0,1-1.1,1.08q-8.13,0-16.25,0a1,1,0,0,1-1.11-1.08c0-1,0-2,0-3,0-.33-.06-.44-.37-.55A7.47,7.47,0,0,1,135.64,71a12.45,12.45,0,0,1-.14-2.44c0-.35.22-.28.42-.28h14.55Z"/><path class="cls-17" d="M150.45,53.71H136c-.43,0-.54-.11-.55-.54a8.25,8.25,0,0,1,1-4.54,7.41,7.41,0,0,1,4.7-3.53c.32-.08.41-.22.4-.54q0-3.48,0-6.94c0-.36-.08-.53-.46-.48a1.47,1.47,0,0,1-.47,0,.79.79,0,0,1-.67-.84.83.83,0,0,1,.73-.8H160a.83.83,0,0,1,.07,1.66c-.26,0-.61-.11-.77.08s-.07.61-.07.92c0,2.12,0,4.25,0,6.37,0,.36.09.52.45.61a7.5,7.5,0,0,1,5.67,7.25c0,.43.2,1-.09,1.27s-.81.07-1.23.07Zm0-16.56h-6.89c-.33,0-.47.05-.47.43q0,3.45,0,6.9c0,.31.11.39.41.39h5.85c.33,0,.4-.11.39-.41,0-.63,0-1.26,0-1.89,0-.35-.13-.41-.44-.41-.72,0-1.45,0-2.17,0-.57,0-.91-.29-.9-.74s.34-.73.92-.73h6.61c.57,0,.9.29.9.75s-.34.72-.92.72c-.74,0-1.48,0-2.22,0-.29,0-.38.09-.37.38,0,.63,0,1.26,0,1.89,0,.35.09.45.44.44h5.77c.34,0,.45-.09.45-.44q0-3.39,0-6.76c0-.41-.09-.53-.52-.53C155,37.16,152.73,37.15,150.44,37.15Z"/><path class="cls-17" d="M150.44,66.68c-4.81,0-9.61,0-14.41,0-.4,0-.54-.06-.53-.5,0-3.46,0-6.93,0-10.39,0-.4.11-.5.49-.5h28.87c.4,0,.53.08.53.51q0,5.21,0,10.39c0,.4-.11.5-.5.5C160.07,66.67,155.25,66.68,150.44,66.68Zm4.9-5.7h0V59c0-.38.28-.41.55-.41s.49.07.52.42-.17.71.11.87.61,0,.93.05H158c.14,0,.22,0,.26-.19a1.6,1.6,0,0,0-1.38-2.15,5.35,5.35,0,0,0-2.11,0,1.36,1.36,0,0,0-1.24,1.52c0,1.27,0,2.55,0,3.82a1.26,1.26,0,0,0,1,1.34,4.66,4.66,0,0,0,2.79,0,1.24,1.24,0,0,0,1-1.29c0-.74,0-1.48,0-2.22,0-.24-.07-.34-.32-.33-.55,0-1.11,0-1.66,0-.15,0-.36,0-.32.21s-.2.73.15.84.31.27.31.5,0,.54,0,.8-.1.59-.52.6-.57-.21-.55-.62C155.36,62.17,155.34,61.58,155.34,61Zm-7.46,0c0,1,0,2,0,3.06,0,.29.09.39.38.37a9.73,9.73,0,0,1,1.08,0c.3,0,.38-.09.37-.37,0-.71,0-1.42,0-2.13,0-.26.08-.35.34-.35a3.84,3.84,0,0,0,1.7-.35,1.23,1.23,0,0,0,.74-1.16c0-.35,0-.69,0-1a1.2,1.2,0,0,0-.86-1.17,3,3,0,0,0-1.15-.21c-.72,0-1.45,0-2.17,0-.35,0-.41.12-.41.43C147.89,59,147.88,60,147.88,61Zm-5.24,0v3c0,.21,0,.41.3.4h3.73c.19,0,.29-.06.28-.27a2.06,2.06,0,0,1,0-.43c0-.3-.07-.42-.39-.4-.55,0-1.1,0-1.65,0-.37,0-.44-.11-.44-.45,0-1.61,0-3.21,0-4.82,0-.31-.06-.46-.41-.43a6,6,0,0,1-1,0c-.31,0-.4.09-.4.4C142.65,59,142.64,60,142.64,61Z"/><path class="cls-17" d="M150.64,59.55c0,.77-.08.89-.62.89-.23,0-.34,0-.33-.31s0-.69,0-1c0-.19-.06-.44.27-.42s.63,0,.67.41C150.65,59.24,150.64,59.4,150.64,59.55Z"/></g></g></svg>