<svg xmlns="http://www.w3.org/2000/svg" viewBox="0 0 626.58 388.82"><defs><style>.cls-1{fill:#ffb200;}.cls-2{fill:#ddd3d1;}.cls-3{fill:#f7ede4;}.cls-4{fill:#063d76;}.cls-5{fill:#733e23;opacity:0.42;}.cls-6{fill:#001e50;}.cls-7{fill:#a69f8f;}.cls-8{fill:#d18807;}.cls-9{fill:#6a857e;}.cls-10{fill:#5c979d;}.cls-11{fill:#fef9f5;}.cls-12{opacity:0.39;}.cls-13{opacity:0.5;}.cls-14{fill:#59554d;opacity:0.25;}.cls-15{font-size:15px;fill:#fff;font-family:MyriadPro-Regular, Myriad Pro;}.cls-16{letter-spacing:0em;}.cls-17{letter-spacing:-0.03em;}.cls-18{letter-spacing:-0.01em;}.cls-19{letter-spacing:0em;}</style></defs><g id="Layer_2" data-name="Layer 2"><g id="Layer_2-2" data-name="Layer 2"><rect class="cls-1" x="10.74" y="97.73" width="605.11" height="291.08"/><rect class="cls-2" x="10.74" y="113.06" width="605.11" height="18.67"/><rect class="cls-3" x="10.74" y="367.72" width="605.11" height="21.09"/><polygon class="cls-4" points="626.58 113.06 0 113.06 10.73 73.56 615.84 73.56 626.58 113.06"/><polygon class="cls-5" points="124.61 89.12 124.19 388.82 109.58 388.82 109.58 134.19 10.74 134.19 10.74 131.72 109.58 131.72 109.58 115.53 10.74 115.53 10.74 113.06 109.58 113.06 124.61 89.12"/><polygon class="cls-5" points="516.01 115.43 516.01 131.72 615.84 131.72 615.84 134.09 516.01 134.09 516.01 388.82 501.42 388.82 500.99 89.12 516.01 113.06 615.84 113.06 615.84 115.43 516.01 115.43"/><rect class="cls-6" x="124.19" y="118.88" width="378.2" height="269.93"/><polygon class="cls-7" points="136.99 85.4 313.07 6.79 488.76 85.4 482.93 94.81 142.98 94.81 136.99 85.4"/><polygon class="cls-2" points="502.82 98.77 124.61 98.77 126.61 90.85 499.54 90.85 502.82 98.77"/><polygon class="cls-3" points="502.82 98.77 124.61 98.77 124.19 118.88 502.39 118.88 502.82 98.77"/><path class="cls-8" d="M122.52,96.81h0a7,7,0,0,0,6.84,0L313.08,14.2V0L122.6,85.43A6.49,6.49,0,0,0,122.52,96.81Z"/><path class="cls-8" d="M501.52,96.35h0a7,7,0,0,1-6.16-.31L313.08,14.2V0l189,84.63A6.5,6.5,0,0,1,501.52,96.35Z"/><rect class="cls-9" x="268.43" y="292.71" width="90.25" height="95.79"/><rect class="cls-3" x="272" y="296.5" width="39.28" height="92"/><rect class="cls-3" x="315.14" y="296.5" width="39.77" height="92"/><rect class="cls-10" x="320.6" y="301.73" width="28.85" height="81.54"/><rect class="cls-10" x="276.27" y="301.73" width="29.09" height="81.54"/><polygon class="cls-4" points="312.88 21.57 165.38 85.42 461.32 85.42 312.88 21.57"/><rect class="cls-11" x="142.09" y="125.94" width="40" height="54.05"/><rect class="cls-10" x="144.56" y="129.31" width="35.06" height="47.3"/><rect class="cls-11" x="160.92" y="129.31" width="2.34" height="47.31"/><rect class="cls-11" x="144.56" y="143.61" width="35.06" height="2.91"/><rect class="cls-11" x="144.56" y="159.39" width="35.06" height="2.91"/><g class="cls-12"><polygon class="cls-11" points="179.62 129.31 179.62 129.96 144.56 156.72 144.56 147.64 168.57 129.31 179.62 129.31"/></g><g class="cls-12"><polygon class="cls-11" points="179.62 140.01 179.62 156.66 153.46 176.62 144.56 176.62 144.56 166.77 179.62 140.01"/></g><rect class="cls-11" x="202.95" y="125.94" width="40" height="54.05"/><rect class="cls-10" x="205.42" y="129.31" width="35.06" height="47.3"/><rect class="cls-11" x="221.78" y="129.31" width="2.34" height="47.31"/><rect class="cls-11" x="205.42" y="143.61" width="35.06" height="2.91"/><rect class="cls-11" x="205.42" y="159.39" width="35.06" height="2.91"/><g class="cls-12"><polygon class="cls-11" points="240.48 129.31 240.48 129.96 205.42 156.72 205.42 147.64 229.43 129.31 240.48 129.31"/></g><g class="cls-12"><polygon class="cls-11" points="240.48 140.01 240.48 156.66 214.32 176.62 205.42 176.62 205.42 166.77 240.48 140.01"/></g><rect class="cls-11" x="263.81" y="125.94" width="40" height="54.05"/><rect class="cls-10" x="266.28" y="129.31" width="35.06" height="47.3"/><rect class="cls-11" x="282.64" y="129.31" width="2.34" height="47.31"/><rect class="cls-11" x="266.28" y="143.61" width="35.06" height="2.91"/><rect class="cls-11" x="266.28" y="159.39" width="35.06" height="2.91"/><g class="cls-12"><polygon class="cls-11" points="301.34 129.31 301.34 129.96 266.28 156.72 266.28 147.64 290.29 129.31 301.34 129.31"/></g><g class="cls-12"><polygon class="cls-11" points="301.34 140.01 301.34 156.66 275.18 176.62 266.28 176.62 266.28 166.77 301.34 140.01"/></g><rect class="cls-11" x="324.67" y="125.94" width="40" height="54.05"/><rect class="cls-10" x="327.14" y="129.31" width="35.06" height="47.3"/><rect class="cls-11" x="343.5" y="129.31" width="2.34" height="47.31"/><rect class="cls-11" x="327.14" y="143.61" width="35.06" height="2.91"/><rect class="cls-11" x="327.14" y="159.39" width="35.06" height="2.91"/><g class="cls-12"><polygon class="cls-11" points="362.19 129.31 362.19 129.96 327.14 156.72 327.14 147.64 351.15 129.31 362.19 129.31"/></g><g class="cls-12"><polygon class="cls-11" points="362.19 140.01 362.19 156.66 336.04 176.62 327.14 176.62 327.14 166.77 362.19 140.01"/></g><rect class="cls-11" x="385.53" y="125.94" width="40" height="54.05"/><rect class="cls-10" x="388" y="129.31" width="35.06" height="47.3"/><rect class="cls-11" x="404.36" y="129.31" width="2.34" height="47.31"/><rect class="cls-11" x="388" y="143.61" width="35.06" height="2.91"/><rect class="cls-11" x="388" y="159.39" width="35.06" height="2.91"/><g class="cls-12"><polygon class="cls-11" points="423.06 129.31 423.06 129.96 388 156.72 388 147.64 412.01 129.31 423.06 129.31"/></g><g class="cls-12"><polygon class="cls-11" points="423.06 140.01 423.06 156.66 396.9 176.62 388 176.62 388 166.77 423.06 140.01"/></g><rect class="cls-11" x="446.39" y="125.94" width="40" height="54.05"/><rect class="cls-10" x="448.86" y="129.31" width="35.06" height="47.3"/><rect class="cls-11" x="465.22" y="129.31" width="2.34" height="47.31"/><rect class="cls-11" x="448.86" y="143.61" width="35.06" height="2.91"/><rect class="cls-11" x="448.86" y="159.39" width="35.06" height="2.91"/><g class="cls-12"><polygon class="cls-11" points="483.92 129.31 483.92 129.96 448.86 156.72 448.86 147.64 472.87 129.31 483.92 129.31"/></g><g class="cls-12"><polygon class="cls-11" points="483.92 140.01 483.92 156.66 457.76 176.62 448.86 176.62 448.86 166.77 483.92 140.01"/></g><rect class="cls-11" x="537.94" y="140.01" width="40" height="54.05"/><rect class="cls-10" x="540.41" y="143.38" width="35.06" height="47.31"/><rect class="cls-11" x="556.78" y="143.38" width="2.34" height="47.31"/><rect class="cls-11" x="540.41" y="157.68" width="35.06" height="2.92"/><rect class="cls-11" x="540.41" y="173.46" width="35.06" height="2.91"/><g class="cls-12"><polygon class="cls-11" points="575.47 143.38 575.47 144.03 540.41 170.79 540.41 161.71 564.43 143.38 575.47 143.38"/></g><g class="cls-12"><polygon class="cls-11" points="575.47 154.08 575.47 170.73 549.32 190.69 540.41 190.69 540.41 180.84 575.47 154.08"/></g><rect class="cls-11" x="537.94" y="224.76" width="40" height="54.05"/><rect class="cls-10" x="540.41" y="228.14" width="35.06" height="47.31"/><rect class="cls-11" x="556.78" y="228.13" width="2.34" height="47.31"/><rect class="cls-11" x="540.41" y="242.43" width="35.06" height="2.91"/><rect class="cls-11" x="540.41" y="258.22" width="35.06" height="2.91"/><g class="cls-12"><polygon class="cls-11" points="575.47 228.14 575.47 228.79 540.41 255.54 540.41 246.46 564.43 228.14 575.47 228.14"/></g><g class="cls-12"><polygon class="cls-11" points="575.47 238.84 575.47 255.49 549.32 275.44 540.41 275.44 540.41 265.59 575.47 238.84"/></g><rect class="cls-11" x="537.94" y="309.52" width="40" height="54.05"/><rect class="cls-10" x="540.41" y="312.89" width="35.06" height="47.31"/><rect class="cls-11" x="556.78" y="312.89" width="2.34" height="47.31"/><rect class="cls-11" x="540.41" y="327.19" width="35.06" height="2.92"/><rect class="cls-11" x="540.41" y="342.98" width="35.06" height="2.91"/><g class="cls-12"><polygon class="cls-11" points="575.47 312.89 575.47 313.54 540.41 340.3 540.41 331.22 564.43 312.89 575.47 312.89"/></g><g class="cls-12"><polygon class="cls-11" points="575.47 323.59 575.47 340.24 549.32 360.2 540.41 360.2 540.41 350.35 575.47 323.59"/></g><rect class="cls-11" x="47.62" y="140.01" width="40" height="54.05"/><rect class="cls-10" x="50.1" y="143.38" width="35.06" height="47.31"/><rect class="cls-11" x="66.46" y="143.38" width="2.34" height="47.31"/><rect class="cls-11" x="50.1" y="157.68" width="35.06" height="2.92"/><rect class="cls-11" x="50.1" y="173.46" width="35.06" height="2.91"/><g class="cls-12"><polygon class="cls-11" points="85.15 143.38 85.15 144.03 50.09 170.79 50.09 161.71 74.11 143.38 85.15 143.38"/></g><g class="cls-12"><polygon class="cls-11" points="85.15 154.08 85.15 170.73 59 190.69 50.09 190.69 50.09 180.84 85.15 154.08"/></g><rect class="cls-11" x="47.62" y="224.76" width="40" height="54.05"/><rect class="cls-10" x="50.1" y="228.14" width="35.06" height="47.31"/><rect class="cls-11" x="66.46" y="228.13" width="2.34" height="47.31"/><rect class="cls-11" x="50.1" y="242.43" width="35.06" height="2.91"/><rect class="cls-11" x="50.1" y="258.22" width="35.06" height="2.91"/><g class="cls-12"><polygon class="cls-11" points="85.15 228.14 85.15 228.79 50.09 255.54 50.09 246.46 74.11 228.14 85.15 228.14"/></g><g class="cls-12"><polygon class="cls-11" points="85.15 238.84 85.15 255.49 59 275.44 50.09 275.44 50.09 265.59 85.15 238.84"/></g><rect class="cls-11" x="47.62" y="309.52" width="40" height="54.05"/><rect class="cls-10" x="50.1" y="312.89" width="35.06" height="47.31"/><rect class="cls-11" x="66.46" y="312.89" width="2.34" height="47.31"/><rect class="cls-11" x="50.1" y="327.19" width="35.06" height="2.92"/><rect class="cls-11" x="50.1" y="342.98" width="35.06" height="2.91"/><g class="cls-12"><polygon class="cls-11" points="85.15 312.89 85.15 313.54 50.09 340.3 50.09 331.22 74.11 312.89 85.15 312.89"/></g><g class="cls-12"><polygon class="cls-11" points="85.15 323.59 85.15 340.24 59 360.2 50.09 360.2 50.09 350.35 85.15 323.59"/></g><rect class="cls-11" x="142.09" y="205.69" width="40" height="54.05"/><rect class="cls-10" x="144.56" y="209.07" width="35.06" height="47.31"/><rect class="cls-11" x="160.92" y="209.06" width="2.34" height="47.31"/><rect class="cls-11" x="144.56" y="223.36" width="35.06" height="2.91"/><rect class="cls-11" x="144.56" y="239.15" width="35.06" height="2.92"/><g class="cls-12"><polygon class="cls-11" points="179.62 209.07 179.62 209.72 144.56 236.47 144.56 227.39 168.57 209.07 179.62 209.07"/></g><g class="cls-12"><polygon class="cls-11" points="179.62 219.76 179.62 236.41 153.46 256.37 144.56 256.37 144.56 246.52 179.62 219.76"/></g><rect class="cls-11" x="202.95" y="205.69" width="40" height="54.05"/><rect class="cls-10" x="205.42" y="209.07" width="35.06" height="47.31"/><rect class="cls-11" x="221.78" y="209.06" width="2.34" height="47.31"/><rect class="cls-11" x="205.42" y="223.36" width="35.06" height="2.91"/><rect class="cls-11" x="205.42" y="239.15" width="35.06" height="2.92"/><g class="cls-12"><polygon class="cls-11" points="240.48 209.07 240.48 209.72 205.42 236.47 205.42 227.39 229.43 209.07 240.48 209.07"/></g><g class="cls-12"><polygon class="cls-11" points="240.48 219.76 240.48 236.41 214.32 256.37 205.42 256.37 205.42 246.52 240.48 219.76"/></g><rect class="cls-11" x="142.09" y="287.01" width="40" height="54.05"/><rect class="cls-10" x="144.56" y="290.38" width="35.06" height="47.31"/><rect class="cls-11" x="160.92" y="290.38" width="2.34" height="47.31"/><rect class="cls-11" x="144.56" y="304.67" width="35.06" height="2.92"/><rect class="cls-11" x="144.56" y="320.46" width="35.06" height="2.91"/><g class="cls-12"><polygon class="cls-11" points="179.62 290.38 179.62 291.03 144.56 317.79 144.56 308.7 168.57 290.38 179.62 290.38"/></g><g class="cls-12"><polygon class="cls-11" points="179.62 301.07 179.62 317.73 153.46 337.69 144.56 337.69 144.56 327.83 179.62 301.07"/></g><rect class="cls-11" x="202.95" y="287.01" width="40" height="54.05"/><rect class="cls-10" x="205.42" y="290.38" width="35.06" height="47.31"/><rect class="cls-11" x="221.78" y="290.38" width="2.34" height="47.31"/><rect class="cls-11" x="205.42" y="304.67" width="35.06" height="2.92"/><rect class="cls-11" x="205.42" y="320.46" width="35.06" height="2.91"/><g class="cls-12"><polygon class="cls-11" points="240.48 290.38 240.48 291.03 205.42 317.79 205.42 308.7 229.43 290.38 240.48 290.38"/></g><g class="cls-12"><polygon class="cls-11" points="240.48 301.07 240.48 317.73 214.32 337.69 205.42 337.69 205.42 327.83 240.48 301.07"/></g><rect class="cls-11" x="385.13" y="287.01" width="40" height="54.05"/><rect class="cls-10" x="387.6" y="290.38" width="35.06" height="47.31"/><rect class="cls-11" x="403.96" y="290.38" width="2.34" height="47.31"/><rect class="cls-11" x="387.6" y="304.67" width="35.06" height="2.92"/><rect class="cls-11" x="387.6" y="320.46" width="35.06" height="2.91"/><g class="cls-12"><polygon class="cls-11" points="422.65 290.38 422.65 291.03 387.6 317.79 387.6 308.7 411.61 290.38 422.65 290.38"/></g><g class="cls-12"><polygon class="cls-11" points="422.65 301.07 422.65 317.73 396.5 337.69 387.6 337.69 387.6 327.83 422.65 301.07"/></g><rect class="cls-11" x="445.99" y="287.01" width="40" height="54.05"/><rect class="cls-10" x="448.46" y="290.38" width="35.06" height="47.31"/><rect class="cls-11" x="464.82" y="290.38" width="2.34" height="47.31"/><rect class="cls-11" x="448.46" y="304.67" width="35.06" height="2.92"/><rect class="cls-11" x="448.46" y="320.46" width="35.06" height="2.91"/><g class="cls-12"><polygon class="cls-11" points="483.51 290.38 483.51 291.03 448.46 317.79 448.46 308.7 472.47 290.38 483.51 290.38"/></g><g class="cls-12"><polygon class="cls-11" points="483.51 301.07 483.51 317.73 457.36 337.69 448.46 337.69 448.46 327.83 483.51 301.07"/></g><rect class="cls-11" x="263.81" y="205.69" width="40" height="54.05"/><rect class="cls-10" x="266.28" y="209.07" width="35.06" height="47.31"/><rect class="cls-11" x="282.64" y="209.06" width="2.34" height="47.31"/><rect class="cls-11" x="266.28" y="223.36" width="35.06" height="2.91"/><rect class="cls-11" x="266.28" y="239.15" width="35.06" height="2.92"/><g class="cls-12"><polygon class="cls-11" points="301.34 209.07 301.34 209.72 266.28 236.47 266.28 227.39 290.29 209.07 301.34 209.07"/></g><g class="cls-12"><polygon class="cls-11" points="301.34 219.76 301.34 236.41 275.18 256.37 266.28 256.37 266.28 246.52 301.34 219.76"/></g><rect class="cls-11" x="324.67" y="205.69" width="40" height="54.05"/><rect class="cls-10" x="327.14" y="209.07" width="35.06" height="47.31"/><rect class="cls-11" x="343.5" y="209.06" width="2.34" height="47.31"/><rect class="cls-11" x="327.14" y="223.36" width="35.06" height="2.91"/><rect class="cls-11" x="327.14" y="239.15" width="35.06" height="2.92"/><g class="cls-12"><polygon class="cls-11" points="362.19 209.07 362.19 209.72 327.14 236.47 327.14 227.39 351.15 209.07 362.19 209.07"/></g><g class="cls-12"><polygon class="cls-11" points="362.19 219.76 362.19 236.41 336.04 256.37 327.14 256.37 327.14 246.52 362.19 219.76"/></g><rect class="cls-11" x="385.53" y="205.69" width="40" height="54.05"/><rect class="cls-10" x="388" y="209.07" width="35.06" height="47.31"/><rect class="cls-11" x="404.36" y="209.06" width="2.34" height="47.31"/><rect class="cls-11" x="388" y="223.36" width="35.06" height="2.91"/><rect class="cls-11" x="388" y="239.15" width="35.06" height="2.92"/><g class="cls-12"><polygon class="cls-11" points="423.06 209.07 423.06 209.72 388 236.47 388 227.39 412.01 209.07 423.06 209.07"/></g><g class="cls-12"><polygon class="cls-11" points="423.06 219.76 423.06 236.41 396.9 256.37 388 256.37 388 246.52 423.06 219.76"/></g><rect class="cls-11" x="446.39" y="205.69" width="40" height="54.05"/><rect class="cls-10" x="448.86" y="209.07" width="35.06" height="47.31"/><rect class="cls-11" x="465.22" y="209.06" width="2.34" height="47.31"/><rect class="cls-11" x="448.86" y="223.36" width="35.06" height="2.91"/><rect class="cls-11" x="448.86" y="239.15" width="35.06" height="2.92"/><g class="cls-12"><polygon class="cls-11" points="483.92 209.07 483.92 209.72 448.86 236.47 448.86 227.39 472.87 209.07 483.92 209.07"/></g><g class="cls-12"><polygon class="cls-11" points="483.92 219.76 483.92 236.41 457.76 256.37 448.86 256.37 448.86 246.52 483.92 219.76"/></g><g class="cls-13"><polygon class="cls-11" points="276.27 350.46 305.36 331.77 305.36 348.92 276.27 367.61 276.27 350.46"/><polygon class="cls-11" points="349.45 303.42 349.45 320.59 320.61 339.13 320.61 321.96 349.45 303.42"/></g><g class="cls-13"><polygon class="cls-11" points="276.27 378.53 305.36 359.83 305.36 379.87 300.06 383.27 276.27 383.27 276.27 378.53"/><polygon class="cls-11" points="349.45 331.5 349.45 351.52 320.61 370.06 320.61 350.04 349.45 331.5"/></g><path class="cls-3" d="M327.14,359h0a3.44,3.44,0,0,1-3.45-3.45V340a3.45,3.45,0,0,1,3.45-3.45h0a3.45,3.45,0,0,1,3.44,3.45v15.52A3.44,3.44,0,0,1,327.14,359Z"/><path class="cls-3" d="M299.37,359h0a3.45,3.45,0,0,1-3.45-3.45V340a3.46,3.46,0,0,1,3.45-3.45h0a3.46,3.46,0,0,1,3.45,3.45v15.52A3.45,3.45,0,0,1,299.37,359Z"/><path class="cls-14" d="M313.08,14.2l-2.35,1.41c-31.35,18.86-21.87,66.6,14.3,72.07l21,3.17L144.56,90Z"/><rect class="cls-5" x="124.19" y="118.88" width="378.2" height="3.51"/><text class="cls-15" transform="translate(237.71 72.32)"><tspan class="cls-16">M</tspan><tspan x="12.1" y="0">unicipal Bill </tspan><tspan class="cls-17" x="86.82" y="0">P</tspan><tspan class="cls-18" x="94.41" y="0">a</tspan><tspan x="101.52" y="0">yme</tspan><tspan class="cls-19" x="128.61" y="0">n</tspan><tspan x="136.87" y="0">ts</tspan></text></g></g></svg>