<svg xmlns="http://www.w3.org/2000/svg" xmlns:xlink="http://www.w3.org/1999/xlink" viewBox="0 0 1526 478"><defs><style>.cls-1{mask:url(#mask);filter:url(#luminosity-noclip-2);}.cls-2{mix-blend-mode:multiply;fill:url(#Безымянный_градиент_2);}.cls-3,.cls-9{fill:none;}.cls-4{clip-path:url(#clip-path);}.cls-10,.cls-21,.cls-5{fill:#fff;}.cls-6{fill:#001e50;}.cls-7{mask:url(#mask-2);}.cls-8{opacity:0.48;fill:url(#linear-gradient);}.cls-9{stroke:#ffb200;stroke-miterlimit:10;stroke-width:3px;}.cls-10{font-size:123.51px;font-family:MyriadPro-Regular, Myriad Pro;}.cls-11{letter-spacing:0em;}.cls-12{letter-spacing:0em;}.cls-13{letter-spacing:0.01em;}.cls-14{letter-spacing:0em;}.cls-15{letter-spacing:0.02em;}.cls-16{letter-spacing:0em;}.cls-17{letter-spacing:-0.01em;}.cls-18{opacity:0.29;}.cls-19{fill:#d3d5d0;}.cls-20{fill:#fcdd00;}.cls-20,.cls-21,.cls-22,.cls-23,.cls-24,.cls-25,.cls-26,.cls-27,.cls-28,.cls-29,.cls-30,.cls-31,.cls-32,.cls-33,.cls-34,.cls-35,.cls-36,.cls-37,.cls-38,.cls-39,.cls-42,.cls-43,.cls-45,.cls-46,.cls-48,.cls-49,.cls-50,.cls-51,.cls-52{fill-rule:evenodd;}.cls-22{fill:#0c2e4c;}.cls-23{fill:#005e74;}.cls-24,.cls-41{fill:#424d5a;}.cls-25{fill:#160b02;}.cls-26{fill:#f4ae7c;}.cls-27{fill:#f2c53d;}.cls-28{fill:#d19915;}.cls-29{fill:#f29e65;}.cls-30{fill:#e95705;}.cls-31{fill:#eb6622;}.cls-32{fill:#ec725d;}.cls-33{fill:#ee8570;}.cls-34{fill:#ef8f7a;}.cls-35{fill:#bf293f;}.cls-36{fill:#251a0a;}.cls-37{fill:#fae0da;}.cls-38{fill:#f6bca5;}.cls-39{fill:#ec743d;}.cls-40{fill:#696f78;}.cls-42,.cls-44{fill:#00698a;}.cls-43,.cls-47{fill:#002d3e;}.cls-45{fill:#063d76;}.cls-46{fill:#033e69;}.cls-48{fill:#ffb200;}.cls-50{fill:#02336d;}.cls-51{fill:#f09171;}.cls-52{fill:#e9a773;}.cls-53{filter:url(#luminosity-noclip);}</style><filter id="luminosity-noclip" x="-89" y="-8431" width="1117.99" height="32766" filterUnits="userSpaceOnUse" color-interpolation-filters="sRGB"><feFlood flood-color="#fff" result="bg"/><feBlend in="SourceGraphic" in2="bg"/></filter><mask id="mask" x="-89" y="-8431" width="1117.99" height="32766" maskUnits="userSpaceOnUse"><g class="cls-53"/></mask><linearGradient id="Безымянный_градиент_2" x1="1006.22" y1="101.98" x2="-97.42" y2="295.1" gradientUnits="userSpaceOnUse"><stop offset="0" stop-color="#333"/><stop offset="0.21" stop-color="#363636"/><stop offset="0.35" stop-color="#3f3f3f"/><stop offset="0.48" stop-color="#4f4f4f"/><stop offset="0.59" stop-color="#656565"/><stop offset="0.7" stop-color="#818181"/><stop offset="0.8" stop-color="#a4a4a4"/><stop offset="0.9" stop-color="#cdcdcd"/><stop offset="0.99" stop-color="#fcfcfc"/><stop offset="1" stop-color="#fff"/></linearGradient><clipPath id="clip-path"><rect class="cls-3" width="1526" height="478"/></clipPath><filter id="luminosity-noclip-2" x="-89" y="19.91" width="1117.99" height="438.17" filterUnits="userSpaceOnUse" color-interpolation-filters="sRGB"><feFlood flood-color="#fff" result="bg"/><feBlend in="SourceGraphic" in2="bg"/></filter><mask id="mask-2" x="-89" y="19.91" width="1117.99" height="438.17" maskUnits="userSpaceOnUse"><g class="cls-1"><path class="cls-2" d="M-89,19.91H1029S879.05,55.45,818,235.11c-.72,2.1-1.45,4.19-2.19,6.25C769,371.58,645.07,458.09,506.71,458.09H-89Z"/></g></mask><linearGradient id="linear-gradient" x1="-89" y1="239" x2="1028.99" y2="239" gradientUnits="userSpaceOnUse"><stop offset="0" stop-color="#ffb200"/><stop offset="0.55" stop-color="#fdb000"/><stop offset="0.79" stop-color="#f6a902"/><stop offset="0.97" stop-color="#e99d05"/><stop offset="1" stop-color="#e69a06"/></linearGradient></defs><g id="Layer_2" data-name="Layer 2"><g class="cls-4"><rect class="cls-5" x="-88.94" y="-4.43" width="1703.88" height="486.86"/><path class="cls-6" d="M1614.88,32.82V-4.43H-89V482.43H602.91c110,0,211.16-61.51,260.78-159.74a275.17,275.17,0,0,0,18-44.74C933.08,107.79,1073.78,62,1211.06,56.19S1614.88,32.82,1614.88,32.82Z"/><g class="cls-7"><path class="cls-8" d="M-89,19.91H1029S879.05,55.45,818,235.11c-.72,2.1-1.45,4.19-2.19,6.25C769,371.58,645.07,458.09,506.71,458.09H-89Z"/></g></g><line class="cls-9" x1="54.98" y1="301.14" x2="685.98" y2="301.14"/><text class="cls-10" transform="translate(50.1 275.25)"><tspan class="cls-11">O</tspan><tspan class="cls-12" x="85.47" y="0">ur </tspan><tspan class="cls-13" x="220.09" y="0">S</tspan><tspan class="cls-14" x="281.73" y="0">e</tspan><tspan class="cls-15" x="343.6" y="0">r</tspan><tspan class="cls-16" x="387.08" y="0">vi</tspan><tspan class="cls-17" x="475.39" y="0">c</tspan><tspan x="529.98" y="0">es</tspan></text><g class="cls-18"><ellipse class="cls-19" cx="1208" cy="438.51" rx="291.82" ry="19.28"/></g><path class="cls-20" d="M1170.31,76.76c.19,7.57-3.26,13.76-4.24,18.91s2.19,7.3,2.69,11.16a11.52,11.52,0,0,1-.64,5.55l-19.7,7.13a11.43,11.43,0,0,1-4-3.86c-2.09-3.29-1-7-5.07-10.3s-10.67-5.88-15.37-11.82c-9.17-11.61-3.83-25.48,6.94-33a24.52,24.52,0,0,1,14.21-4.76C1157.77,55.19,1170,62.43,1170.31,76.76Z"/><path class="cls-20" d="M1121,72.41c-.16,4.28,0,9.36,1.06,12,5.79,13.53,17,12.57,22.9,20.75,2,2.75,2.41,7.81,3.81,9.62a14,14,0,0,0,4.44,3l-3.32,1.2c-.6.08-1.26.16-2,.23a11.51,11.51,0,0,1-3.54-3.56c-2.09-3.29-1-7-5.07-10.3s-10.67-5.88-15.37-11.82A20.17,20.17,0,0,1,1121,72.41Z"/><path class="cls-20" d="M1169.52,76.78c.12,4.84-1.32,9.16-2.58,13a47.12,47.12,0,0,0-1.66,5.75c-.65,3.43.38,5.58,1.38,7.69a12.36,12.36,0,0,1,1.31,3.73,10.65,10.65,0,0,1,0,3.06,10.08,10.08,0,0,1-.43,1.76l-19,6.87a10,10,0,0,1-1.46-1.08,10.9,10.9,0,0,1-2-2.32,12.3,12.3,0,0,1-1.39-3.7c-.57-2.27-1.16-4.58-3.85-6.79a47.31,47.31,0,0,0-5-3.37c-3.43-2.13-7.3-4.53-10.3-8.33-.27-.35-.54-.71-.82-1.1h0a19.13,19.13,0,0,1-3.1-16,25.92,25.92,0,0,1,9.3-13.72c.42-.34.89-.68,1.39-1a25.31,25.31,0,0,1,6.52-3.39,26.11,26.11,0,0,1,7.27-1.23h0l.5,0h0a25.86,25.86,0,0,1,16.25,4.84,19.27,19.27,0,0,1,7.61,15l0,.41Zm-1.07,13.49c1.31-3.94,2.79-8.4,2.66-13.54,0-.22,0-.37,0-.44a20.81,20.81,0,0,0-8.23-16.22,27.48,27.48,0,0,0-17.26-5.16h0l-.54,0h0a27.62,27.62,0,0,0-7.71,1.31,26.58,26.58,0,0,0-6.93,3.6c-.46.32-1,.69-1.45,1.09a27.6,27.6,0,0,0-9.87,14.59,20.7,20.7,0,0,0,3.34,17.33h0c.25.37.55.76.87,1.17,3.18,4,7.17,6.51,10.7,8.71a46.52,46.52,0,0,1,4.78,3.24c2.29,1.88,2.82,3.93,3.33,6a13.72,13.72,0,0,0,1.58,4.16,12.46,12.46,0,0,0,4.32,4.13l.32.18.34-.13,19.71-7.13.34-.12.13-.34a11.65,11.65,0,0,0,.63-2.44,12.25,12.25,0,0,0,0-3.5,13.28,13.28,0,0,0-1.44-4.2c-.9-1.88-1.81-3.79-1.25-6.71A45.08,45.08,0,0,1,1168.45,90.27Z"/><path class="cls-21" d="M1161,114.94c-.55-1.67-1.18-3.54-1.86-5.53-3.21-9.44-7.38-21.74-7.6-29.56l.14,0a10.44,10.44,0,0,0,5.46-2.36,4.85,4.85,0,0,0,1.52-4.86,3.48,3.48,0,0,0-1.21-1.75,3.24,3.24,0,0,0-2.06-.64c-1.41.05-3,1-4.32,3.37a11.2,11.2,0,0,0-1.08,4.87,18.8,18.8,0,0,1-2.38.09,5.79,5.79,0,0,0,.33-1.18,5.28,5.28,0,0,0-.89-3.87,7.58,7.58,0,0,0-.6-.75h0a3.45,3.45,0,0,0-4.09-.71,4.9,4.9,0,0,0-2.16,1.89,3.34,3.34,0,0,0-.37,2.87c.45,1.28,1.83,2.46,4.65,3l.39.07q-.2.21-.42.42a11.31,11.31,0,0,1-1.37,1.09c-.48.33-.94.62-1.38.88-3.31-4.86-6-5.77-7.74-5a3.57,3.57,0,0,0-1.93,2.8,5,5,0,0,0,.77,3.54c1.27,1.86,4,2.9,8.4.74a59.07,59.07,0,0,1,3,5.93c2,4.46,7.68,18.57,10.56,25.74l.41,1,1.38-.5a5.15,5.15,0,0,0-.32-1.12c-2.89-7.21-8.59-21.4-10.57-25.8a53.57,53.57,0,0,0-3.12-6q.67-.4,1.41-.9a15.19,15.19,0,0,0,1.56-1.24,9.36,9.36,0,0,0,1.21-1.37,20.62,20.62,0,0,0,3.24,0c.29,8.23,4.44,20.45,7.65,29.88.68,2,1.32,3.88,1.86,5.56l1.5-.55Zm-9.44-36.72a9.16,9.16,0,0,1,.92-3.88c1-1.79,2.07-2.5,3-2.53a1.57,1.57,0,0,1,1,.32,1.89,1.89,0,0,1,.65,1,3.34,3.34,0,0,1-1.13,3.27,8.82,8.82,0,0,1-4.45,1.87Zm-5.64.21c-.38-.05-.76-.11-1.13-.18-2.17-.44-3.18-1.2-3.46-2a1.81,1.81,0,0,1,.23-1.52,3.31,3.31,0,0,1,1.44-1.25,1.93,1.93,0,0,1,2.28.34h0a3.68,3.68,0,0,1,.45.56,3.74,3.74,0,0,1,.64,2.72,4.49,4.49,0,0,1-.45,1.32ZM1140.39,83c-3.4,1.62-5.37,1-6.23-.28a3.37,3.37,0,0,1-.51-2.4,2,2,0,0,1,1-1.6C1135.81,78.19,1137.78,79.06,1140.39,83Z"/><path class="cls-21" d="M1156.12,104l-3.85,1.39a2.55,2.55,0,0,0-1.52,3.25l3.21,8.88,8.62-3.11-3.22-8.89A2.54,2.54,0,0,0,1156.12,104Z"/><path class="cls-22" d="M1172.69,134.08l-15,5.42a3.3,3.3,0,0,1-4.32-1.69l-6.76-18.7,22.05-8,6.6,18.25A3.81,3.81,0,0,1,1172.69,134.08Z"/><path class="cls-23" d="M1163.4,134.47l1.1-.31h0c2.15-.59,4.43-1.19,6.44-1.7,2.71-.68,4-.93,4.11,0,.45-.32,1.93-3.24-1.07-3.27-1.24,0-7.57,1.9-9.21,2.36l-1.1.31h0c-2.15.59-4.43,1.19-6.44,1.7-2.71.68-5.23,1.06-5.34.13C1147.3,139.07,1158.58,135.82,1163.4,134.47Z"/><path class="cls-23" d="M1162.37,131.61l1.1-.31h0c2.15-.59,4.42-1.19,6.43-1.7,2.71-.68,5.22-1.14,5.33-.21.55-.39,2.61-4.59-3.65-2.85-1.15.28-2.33.61-3.48.93l-4.37,1.22-1.1.31h0c-2.15.59-4.42,1.2-6.43,1.7-2.71.68-5.23,1.06-5.35.13C1146.27,136.21,1157.55,133,1162.37,131.61Z"/><path class="cls-23" d="M1161.33,128.75l1.1-.31h0c2.15-.59,4.43-1.19,6.44-1.7,2.71-.68,5.21-1.14,5.33-.21.54-.39,2.6-4.59-3.66-2.85-1.15.28-2.32.61-3.47.93l-4.37,1.23-1.1.3h0c-2.15.59-4.42,1.2-6.44,1.7-2.7.68-5.23,1.06-5.34.13C1145.24,133.36,1156.52,130.1,1161.33,128.75Z"/><path class="cls-23" d="M1160.3,125.89l1.1-.31h0c2.15-.59,4.42-1.19,6.44-1.7,2.7-.68,5.21-1.14,5.32-.21.55-.39,2.61-4.59-3.65-2.85-1.15.28-2.32.61-3.48.93l-4.37,1.23-1.09.3h0c-2.16.59-4.43,1.2-6.44,1.7-2.71.68-5.23,1.06-5.35.13C1144.2,130.5,1155.48,127.24,1160.3,125.89Z"/><path class="cls-23" d="M1159.27,123l1.09-.31h0c2.15-.59,4.43-1.19,6.44-1.7,2.71-.68,5.21-1.14,5.33-.21.54-.39,2.6-4.59-3.66-2.85-1.14.29-2.32.61-3.47.93l-4.37,1.23-1.1.3h0c-2.15.6-4.42,1.2-6.44,1.7-2.7.68-5.23,1.06-5.34.13C1143.17,127.64,1154.45,124.38,1159.27,123Z"/><path class="cls-23" d="M1158.23,120.17l1.1-.3h0c2.15-.6,4.42-1.2,6.44-1.7,2.71-.68,5.21-1.14,5.32-.22.55-.39,2.61-4.59-3.65-2.85-1.15.29-2.32.61-3.48.93l-4.36,1.23-1.1.31h0c-2.15.6-4.43,1.2-6.44,1.71-2.71.68-5.23,1-5.34.12C1142.13,124.78,1153.41,121.52,1158.23,120.17Z"/><polygon class="cls-23" points="1158.62 139.17 1159.89 139.5 1162.31 140.14 1166.18 138.74 1170.06 137.34 1171.51 135.3 1172.27 134.23 1158.62 139.17"/><path class="cls-21" d="M1142.77,58.54a.73.73,0,0,0-.68.78.72.72,0,0,0,.77.68c4.86-.3,8.73.06,12.07,1.45s6.19,3.78,9,7.55a.73.73,0,1,0,1.17-.88c-3-4-6.06-6.55-9.65-8S1147.85,58.22,1142.77,58.54Z"/><path class="cls-21" d="M1166.69,71.25a.75.75,0,0,0-.91-.49.73.73,0,0,0-.49.91c.19.66.37,1.32.53,2s.29,1.34.41,2a.73.73,0,1,0,1.44-.24c-.11-.71-.26-1.42-.42-2.13S1166.9,71.94,1166.69,71.25Z"/><polygon class="cls-20" points="1125.86 61.42 1121.26 57.25 1116.66 53.07 1117.74 52.66 1118.08 51.74 1121.97 56.58 1125.86 61.42"/><polygon class="cls-20" points="1119.05 61.92 1116.05 58.98 1113.04 56.05 1111.61 56.56 1115.62 59.49 1119.05 61.92"/><polygon class="cls-20" points="1119.79 67.69 1117.22 66.51 1114.64 65.33 1114.71 65.59 1114.07 66.09 1117.06 66.93 1119.79 67.69"/><polygon class="cls-20" points="1128.82 52.77 1127.22 49.88 1125.62 47 1125.93 47.05 1126.45 46.27 1127.69 49.67 1128.82 52.77"/><path class="cls-20" d="M1123.79,53.51a.79.79,0,0,0,0,1.12.79.79,0,0,0,1.15-1.08.8.8,0,0,0-1.12,0Zm.49.27a.44.44,0,0,1,.63,0,.43.43,0,0,1,0,.62.44.44,0,0,1-.63,0A.43.43,0,0,1,1124.28,53.78Z"/><path class="cls-20" d="M1134.61,47.48a.52.52,0,0,0,0,.73.52.52,0,1,0,0-.73Zm.32.17a.29.29,0,1,1,.39.43.3.3,0,0,1-.41,0A.3.3,0,0,1,1134.93,47.65Z"/><polygon class="cls-20" points="1138.82 51.58 1137.64 45.93 1136.47 40.29 1134.45 39.77 1136.78 46.19 1138.82 51.58"/><polygon class="cls-20" points="1115.42 69.95 1110.7 68.73 1105.98 67.5 1106.58 66.82 1106.48 66.05 1110.95 68 1115.42 69.95"/><polygon class="cls-20" points="1133.14 55.4 1131.85 52.08 1130.56 48.76 1130.88 48.86 1131.55 48.1 1132.39 51.92 1133.14 55.4"/><path class="cls-20" d="M1118.89,64.44a.52.52,0,0,0,.71.75.53.53,0,0,0,0-.73.52.52,0,0,0-.73,0Zm.32.17a.3.3,0,0,1,.41,0,.29.29,0,0,1,0,.41.28.28,0,0,1-.41,0A.3.3,0,0,1,1119.21,64.61Z"/><path class="cls-20" d="M1109.4,63.75a.52.52,0,0,0,0,.73.51.51,0,0,0,.73,0,.52.52,0,0,0,0-.73.53.53,0,0,0-.74,0Zm.32.17a.3.3,0,0,1,.42,0,.28.28,0,0,1,0,.4.29.29,0,0,1-.41,0A.3.3,0,0,1,1109.72,63.92Z"/><path class="cls-20" d="M1109.82,70.29a.52.52,0,1,0,.73,0,.51.51,0,0,0-.73,0Zm.32.17a.3.3,0,0,1,.41,0,.29.29,0,1,1-.42.4A.3.3,0,0,1,1110.14,70.46Z"/><polygon class="cls-20" points="1120.8 93.59 1115.57 96.96 1110.35 100.33 1110.23 99.17 1109.43 98.61 1115.11 96.1 1120.8 93.59"/><polygon class="cls-20" points="1121.72 99.34 1118.11 101.49 1114.5 103.63 1114.62 105.14 1118.49 102.03 1121.72 99.34"/><polygon class="cls-20" points="1127.5 100.12 1125.69 102.3 1123.88 104.48 1124.14 104.49 1124.46 105.23 1126.05 102.56 1127.5 100.12"/><polygon class="cls-20" points="1115.41 87.53 1112.21 88.33 1109.01 89.13 1109.14 88.85 1108.52 88.14 1112.13 87.82 1115.41 87.53"/><path class="cls-20" d="M1114.83,92.59a.8.8,0,0,0,1.07.32.79.79,0,1,0-.75-1.39.8.8,0,0,0-.32,1.07Zm.38-.41a.46.46,0,0,1,.18-.6.47.47,0,0,1,.61.18.45.45,0,0,1-.79.42Z"/><path class="cls-20" d="M1111.8,80.58a.52.52,0,0,0,.7.21.5.5,0,0,0,.21-.7.51.51,0,0,0-.69-.21.52.52,0,0,0-.22.7Zm.25-.26a.3.3,0,1,1,.52-.28.3.3,0,0,1-.52.28Z"/><polygon class="cls-20" points="1116.85 77.57 1111.09 77.25 1105.34 76.92 1104.32 78.73 1111.12 78.15 1116.85 77.57"/><polygon class="cls-20" points="1128.55 104.92 1126.14 109.17 1123.73 113.41 1123.23 112.65 1122.46 112.55 1125.51 108.74 1128.55 104.92"/><polygon class="cls-20" points="1119.07 84.04 1115.53 84.43 1111.99 84.82 1112.17 84.54 1111.61 83.69 1115.51 83.87 1119.07 84.04"/><path class="cls-20" d="M1124.12,100.15a.52.52,0,1,0,.21-.7.52.52,0,0,0-.21.7Zm.25-.26a.29.29,0,0,1,.12-.4.29.29,0,0,1,.27.51A.28.28,0,0,1,1124.37,99.89Z"/><path class="cls-20" d="M1121,109.14a.52.52,0,0,0,.91-.49.52.52,0,1,0-.91.49Zm.25-.27a.29.29,0,0,1,.51-.27.3.3,0,0,1-.12.39A.28.28,0,0,1,1121.25,108.87Z"/><path class="cls-20" d="M1127.42,110.43a.52.52,0,0,0,.91-.5.52.52,0,0,0-.7-.21.53.53,0,0,0-.21.71Zm.25-.27a.28.28,0,0,1,.12-.39.28.28,0,0,1,.39.11.28.28,0,0,1-.12.39A.28.28,0,0,1,1127.67,110.16Z"/><path class="cls-20" d="M1136,112.9a.5.5,0,0,0-.11.46Z"/><polygon class="cls-20" points="1134.93 108.09 1133.13 113.57 1131.32 119.04 1132.81 120.5 1134.01 113.78 1134.93 108.09"/><polygon class="cls-20" points="1172.07 78.38 1178.28 78.08 1184.48 77.78 1184.01 78.83 1184.42 79.73 1178.25 79.06 1172.07 78.38"/><polygon class="cls-20" points="1176.54 73.22 1180.74 73.17 1184.94 73.11 1185.59 71.74 1180.67 72.51 1176.54 73.22"/><polygon class="cls-20" points="1171.92 69.66 1174.59 68.67 1177.24 67.69 1177.01 67.55 1177.11 66.75 1174.39 68.27 1171.92 69.66"/><polygon class="cls-20" points="1176.1 86.6 1179.27 87.51 1182.44 88.41 1182.18 88.59 1182.37 89.52 1179.09 87.99 1176.1 86.6"/><path class="cls-20" d="M1179.13,82.51a.79.79,0,0,0-1.58-.05.79.79,0,1,0,1.58.05Zm-.54.16a.43.43,0,0,1-.45.43.44.44,0,0,1-.43-.45.44.44,0,1,1,.88,0Z"/><path class="cls-20" d="M1175.75,94.42a.52.52,0,1,0-.53.5.51.51,0,0,0,.53-.5Zm-.35.11a.3.3,0,0,1-.3.28.29.29,0,0,1,0-.58A.29.29,0,0,1,1175.4,94.53Z"/><polygon class="cls-20" points="1169.87 94.51 1174.69 97.67 1179.52 100.83 1181.31 99.77 1175.13 96.87 1169.87 94.51"/><polygon class="cls-20" points="1173.42 64.97 1177.62 62.5 1181.83 60.03 1181.88 60.94 1182.5 61.41 1177.96 63.19 1173.42 64.97"/><polygon class="cls-20" points="1171.18 87.79 1174.44 89.22 1177.7 90.66 1177.41 90.81 1177.46 91.83 1174.18 89.72 1171.18 87.79"/><path class="cls-20" d="M1174.87,71.32a.52.52,0,0,0-1,0,.52.52,0,0,0,1,0Zm-.35.1a.31.31,0,0,1-.3.29.29.29,0,0,1-.28-.3.28.28,0,0,1,.3-.28A.29.29,0,0,1,1174.52,71.42Z"/><path class="cls-20" d="M1182.06,65.1a.51.51,0,0,0-.5-.53.51.51,0,0,0-.53.5.52.52,0,0,0,.5.53.51.51,0,0,0,.53-.5Zm-.35.1a.29.29,0,0,1-.29.29.31.31,0,0,1-.29-.3.29.29,0,0,1,.3-.28A.28.28,0,0,1,1181.71,65.2Z"/><path class="cls-20" d="M1177.15,60.77a.53.53,0,0,0-.51-.53.52.52,0,0,0-.53.5.51.51,0,0,0,.5.53.52.52,0,0,0,.54-.5Zm-.35.11a.3.3,0,0,1-.3.28.31.31,0,0,1-.29-.3.29.29,0,0,1,.3-.28A.3.3,0,0,1,1176.8,60.88Z"/><polygon class="cls-20" points="1150.45 53.77 1151.76 47.7 1153.07 41.63 1153.97 42.36 1154.94 42.19 1152.69 47.98 1150.45 53.77"/><polygon class="cls-20" points="1146.61 48.13 1147.65 44.06 1148.68 39.98 1147.53 39 1147 43.95 1146.61 48.13"/><polygon class="cls-20" points="1141.98 51.66 1141.71 48.84 1141.45 46.02 1141.26 46.2 1140.51 45.9 1141.27 48.91 1141.98 51.66"/><polygon class="cls-20" points="1159.42 52.02 1161.12 49.19 1162.82 46.36 1162.92 46.65 1163.86 46.72 1161.54 49.49 1159.42 52.02"/><path class="cls-20" d="M1156.26,48a.79.79,0,1,0-.46,1.51.79.79,0,0,0,1-.53.8.8,0,0,0-.53-1Zm0,.56a.44.44,0,0,1,.3.55.45.45,0,0,1-.55.3.46.46,0,0,1-.3-.56A.44.44,0,0,1,1156.27,48.59Z"/><path class="cls-20" d="M1166.89,54.38a.52.52,0,1,0,.34.64.51.51,0,0,0-.34-.64Zm0,.36a.29.29,0,0,1,.19.36.28.28,0,0,1-.36.2.29.29,0,0,1-.19-.36A.3.3,0,0,1,1166.9,54.74Z"/><polygon class="cls-20" points="1165.45 60.08 1169.75 56.24 1174.05 52.4 1173.49 50.39 1169.09 55.61 1165.45 60.08"/><polygon class="cls-20" points="1137.84 49 1136.54 44.3 1135.24 39.6 1136.13 39.78 1136.75 39.31 1137.29 44.16 1137.84 49"/><polygon class="cls-20" points="1159.3 57.07 1161.53 54.29 1163.76 51.52 1163.83 51.84 1164.83 52.05 1161.94 54.68 1159.3 57.07"/><path class="cls-20" d="M1144.34,49.25a.52.52,0,0,0-.29,1,.52.52,0,0,0,.64-.35.51.51,0,0,0-.35-.64Zm0,.36a.29.29,0,0,1,.2.36.28.28,0,0,1-.36.2.29.29,0,0,1,.16-.56Z"/><path class="cls-20" d="M1140.2,40.69a.52.52,0,1,0,.34.64.51.51,0,0,0-.34-.64Zm0,.36a.29.29,0,1,1-.36.2A.29.29,0,0,1,1140.21,41.05Z"/><path class="cls-20" d="M1134.75,44.32a.52.52,0,1,0,.34.64.52.52,0,0,0-.34-.64Zm0,.36a.3.3,0,0,1,.19.37.28.28,0,0,1-.36.19.29.29,0,0,1,.17-.56Z"/><path class="cls-24" d="M1307.11,149.09a75.2,75.2,0,0,0-8.89-10.19l-.87.92-.87.91A75.46,75.46,0,0,0,1307.11,149.09Z"/><path class="cls-21" d="M1297.83,140.27s1.36-1.2.76-1.76l-9.9-9.4-2.48,2.61,9.9,9.4C1296.7,141.68,1297.83,140.27,1297.83,140.27Z"/><polygon class="cls-24" points="1272.74 118.68 1275.22 116.06 1292.36 132.59 1289.87 135.2 1272.74 118.68"/><path class="cls-21" d="M1274.08,109.14a12.91,12.91,0,0,0-1.55-.63l.37,8.08-8.08,0a12,12,0,0,0,.7,1.5l9,0Z"/><path class="cls-24" d="M1264.35,99.67l.37,8.1-8.11.06c1,1.16,11.28,11.38,12,12,2,1.87,4.74.91,6.35.08a11.28,11.28,0,0,0,1.3-.78,10.86,10.86,0,0,0,.72-1.34c.74-1.66,1.56-4.49-.41-6.34C1275.84,110.84,1265.56,100.59,1264.35,99.67Z"/><polygon class="cls-21" points="1262.1 113.43 1263.95 115.28 1272.59 115.23 1272.22 107.24 1270.28 105.33 1270.64 113.38 1262.1 113.43"/><path class="cls-25" d="M1281,69.46c15.45-4.91,26,2.76,29.55,16.77,2.22,8.65,3,19.48,3.26,29.78.28,12.35,3.5,14.1,7.61,24,0,0-12.27,5-30.8-1.47s-23.79,3-23.48-14,16.54-40.25,14.12-46S1277.14,70.7,1281,69.46Z"/><path class="cls-25" d="M1288.9,408.41a5.17,5.17,0,0,1,3.06,4.34c.1,2.37,1,14.51.4,17.32a19.55,19.55,0,0,0-5.22,2.55c-4.19,3.14-7.12,10.31-11.78,12.23-5.09,2.1-11,2.27-13.26,1.32-1.88-.78-1.22-5,1.49-9.31l9-14.45Z"/><path class="cls-25" d="M1334.71,424s4,4.65,4.58,8.44-.45,13.13-3.28,14-9.82-4.15-10.8-5c-6.14-5.45-9-18.67-9-18.67Z"/><path class="cls-26" d="M1291.74,338.05c-.54-20.33-9.44-24.75-16.71-24.75-11.63,0-9.68,21.72-9.51,28.32.18,6.25,6.33,42.15,9.35,62.12.58,3.86-.25,6.84-1.22,10.8-1.6,6.52-4.33,14.71-5.85,17.66-1.94,3.78-1.6,6.55,4.36,4.8s16.14-18.23,17.92-24.66c.62-2.24-.7-3.86-1.5-5.35s-.5-1.8-.45-3.41C1289.11,368.72,1292.18,354.38,1291.74,338.05Z"/><path class="cls-26" d="M1323,396.26c-3.41-17.85-8.55-45.21-10.19-49.84-2.21-6.23-7.37-30-23-23.93-4.93,1.91-5.78,5.76-5.09,15.38,2,28.06,19.81,48,30.33,72.74,0,.06.29,6,.82,10.68s9.12,17.12,16.84,15.63c2.76-.54,3.42-8.46,3-10.42-.23-1.38-4.56-9.23-7.32-14C1324.74,406.05,1324.68,404.82,1323,396.26Z"/><path class="cls-25" d="M1257.75,231.09c40,9,63.37.17,65.48,27.47,2.47,17.06,16.43,84.75,24.5,122.72-32.2,18.33-87.75,12-107.15,4.35C1242.09,331.6,1256.21,283.9,1257.75,231.09Z"/><path class="cls-27" d="M1260.93,122.34c1-.78,8.55-1.14,10.72-1.65a4.11,4.11,0,0,1,.27-.48c16-.54,29.75-.18,36.49,2.59l.15.21c2.85.54,13.49,1.48,15.47,4.85.49,0-2.1,2.09-1.49,2.27-3,2.49-4.41,17.13-2.51,31-1.21,13.6-.59,29.42.73,35.16,2.19,11.63,4.25,21.9,5.68,33.83,1,4.58,2,9.36,3,14.13,2,10.32,10.54,42.71,14.33,53.26.88,2.45-2,3.63-3.82,3.43-3.94-.44-9.43,1.43-12.22,2.23-4.49,1.27-13.8-2.24-18.59-2.74h0q-22-8.44-28.73-5-9.71,1.55-12.55,4.3h0c-3.51.75-24.36-.66-28-1.13-.86-2.35.16-7.56.57-14.5,0-17.69,8.69-42.06,8.86-62.93.34-42.51,1.45-68.8,1.62-82.66C1251.29,130.46,1260,123.46,1260.93,122.34Z"/><path class="cls-26" d="M1278.47,129.89c-.07-2.92,2.84-8.77,2.67-11.69.68-10.88.35-13.71,1.21-14.63.38-.43,12.76-4.33,13.55-3.1.71,1.07.72,5.07,1.24,17.66a24.85,24.85,0,0,0,1.39,7.91,5.66,5.66,0,0,1-.32,5.38C1290.82,137.07,1280.77,137.63,1278.47,129.89Z"/><path class="cls-25" d="M1270.12,271.72c2.65-11,5.85-41.59,5.85-50.14,5-.26,7.65-.05,13.47-.69,2.13,9.32,8.56,34,11.22,41.14,2.07,5.6,8.6,33.52,10.25,43.17-10.66,1.2-28.32,1.23-43.45.45l.44-9.61C1268.09,285.33,1269.11,275.9,1270.12,271.72Z"/><path class="cls-21" d="M1274.57,155.85c.52-4.43.89-8.68,1.77-14,.62-3.73,1.64-8.65,2.13-12.41,2.3,7.74,12.35,7.18,19.74,1.52-1.07,2.17-3.92,5.45-5.39,10.75-1,3.6-2.27,6.47-3.39,10a109.41,109.41,0,0,0-4.26,18.25c-1,6.66-.64,12.25-.15,18.83.58,7.94,1.47,11.09,2.26,17,.54,4.13,1.23,7.79,1.77,12.07.13,1.08.26,2.06.4,3-5.31.55-8.9.48-13.48.7-.19-8.18-.74-14.66-1.24-25.14C1274.09,183.18,1273.1,168.65,1274.57,155.85Z"/><path class="cls-28" d="M1297.34,120.55a40.59,40.59,0,0,1,11.07,2.25l.15.21q3.09,19.36-7.6,25.74.68,21.56-15.5,19.35a108.06,108.06,0,0,1,4-16.38c1.12-3.52,2.38-6.39,3.39-10,1.47-5.3,4.32-8.58,5.39-10.75a5.66,5.66,0,0,0,.32-5.38A23.85,23.85,0,0,1,1297.34,120.55Z"/><path class="cls-28" d="M1271.92,120.21c3.08-.1,6.08-.17,9-.2-.69,3.07-2.46,7.16-2.41,9.45-.49,3.76-1.51,8.68-2.13,12.41-.88,5.3-1.25,9.55-1.77,14-.38,3.27-.59,6.66-.69,10.11q-15.59,1.68-6.18-22.13-4.4-5.28,4-23.14A4.11,4.11,0,0,1,1271.92,120.21Z"/><path class="cls-29" d="M1237.68,161.62c-.6-1.35-.54-4.41-3.45-6.35s-5.59-4.13-6-3.4,1.61,5.68,2.59,9.38,1.81,4.79,3.13,4.46S1237.68,161.62,1237.68,161.62Z"/><path class="cls-28" d="M1260.93,122.34a27.43,27.43,0,0,0-11.15,10.82c-.62,1.24-4.13,7.82-7.6,14.25-1.2,2.24-2.4,4.46-3.47,6.43-3.49,11.95-10,7-10.54,12.9,2.07,11.61,9.78,17.77,11.59,17.77,4.16,0,9.25-8.08,11.33-14s.49-5.28,1.09-12.71C1251.51,132.37,1260.93,122.34,1260.93,122.34Z"/><path class="cls-30" d="M1231.82,166h0a.9.9,0,0,1-1-.8l-2.56-23.31a.91.91,0,0,1,.8-1h0a.9.9,0,0,1,1,.8l2.56,23.3A.9.9,0,0,1,1231.82,166Z"/><path class="cls-26" d="M1229.41,152.06a14.77,14.77,0,0,0,1.95,4.53c.83,1.54.34,2.49-.25,2.79a.84.84,0,0,1-.91,0,3.65,3.65,0,0,1,.58,1.83c0,1-.55,1.67-1.71,1.39s-3.32-1-3.75-2a3.43,3.43,0,0,1-.09-2.07s-.68-1.72,0-2.68,1.22-.81,1.22-.81-1.83-1.89-.81-3.35S1229.41,152.06,1229.41,152.06Z"/><path class="cls-26" d="M1236.79,159.11c-1.51-1.51-2.14-3-3-2.9s-2.27,2.09-3.09,3.35-.5,2.46.19,2.58a3.8,3.8,0,0,0,2.65-1.13,6.81,6.81,0,0,0,.57,2.2c1.09,2,1.45,2.09,2.46,1.77,1.35-.42,1.89-1,2-2.77S1236.79,159.11,1236.79,159.11Z"/><polygon class="cls-21" points="1253.99 170.59 1222.42 157.97 1244.42 188.05 1277.82 201.47 1253.99 170.59"/><polygon class="cls-31" points="1253.99 171.5 1222.42 158.88 1244.42 188.96 1277.82 202.37 1253.99 171.5"/><path class="cls-25" d="M1292.2,70.93c-6-2.14-11.49-3-17,.07-7.22,4-10.16,12.89-9.39,17.85s6.93,11,6.93,11l14.17-16.05Z"/><path class="cls-25" d="M1271.89,77.39c-2.8,6-3.41,9.76-1.2,13.89a34.21,34.21,0,0,0,4.48,6.56s5.66-13.59,4.76-19.23S1271.89,77.39,1271.89,77.39Z"/><path class="cls-26" d="M1297.4,108.26c8.42-1.07,10.35-14.34,5.51-12.67,5.38-25.73-25.36-29.55-32.77-9.85-2.61,9.19.56,11.15-.2,13.56-1.34,4.24-.27,8.19,1.84,11.92a43.25,43.25,0,0,0,4.64,6.4c1.91,2.15,4.27,1.84,8.66.45C1290.1,116.48,1294.1,112.87,1297.4,108.26Z"/><path class="cls-25" d="M1291.54,97.06a28.88,28.88,0,0,0-4.17-3.42,46.5,46.5,0,0,0-9.33-.8l-.2.26.21.82.33.26c1.2,0,6.1-.05,8.57.65A36.63,36.63,0,0,1,1291.54,97.06Z"/><path class="cls-21" d="M1279.17,100.76a3.09,3.09,0,0,0,1,.6,12.41,12.41,0,0,0,3.93.87l1,.08a3.55,3.55,0,0,0,2.86-1.87,9.66,9.66,0,0,0-3.14-2.86,7.22,7.22,0,0,0-1.89-.73,4.73,4.73,0,0,0-1.64.54C1279.74,98.21,1279.17,100.76,1279.17,100.76Z"/><path class="cls-25" d="M1287.94,100.44a6.14,6.14,0,0,0-.88-1.33,7.69,7.69,0,0,0-1.17-1.11l-.32-.25-.34-.22-.36-.2-.18-.09-.18-.09-.38-.17-.38-.12-.2-.07-.2-.05-.39-.08h-.07l-.5.13-.47.19-.44.24-.4.29.46-.17.46-.14.47-.1.47,0h-.07l.36.13.18.06.18.07.36.15.34.16.17.09.17.09.33.19.33.2.31.22A14.63,14.63,0,0,1,1287.94,100.44Z"/><path class="cls-25" d="M1272.94,93.46l.35.75-.19.38a17.15,17.15,0,0,0-3.74,1.29c-.27-.68.9-1.87,3.26-2.57Z"/><path class="cls-21" d="M1270.46,99.41l-.11.71a9.47,9.47,0,0,0,3,.32l.6,0a10.33,10.33,0,0,0,.15-2.71s0-.49-.16-1.13l-1.14-.14a4.3,4.3,0,0,0-2.7.62c.11.53.19,1,.26,1.3.11.51.16.77.16.77v0Z"/><path class="cls-25" d="M1273.93,96.56l-1-.38-1-.06a3.33,3.33,0,0,0-1,.26,1.94,1.94,0,0,0-.82.66l1-.17.93-.11.94-.08Z"/><path class="cls-25" d="M1280.11,101.16l0,.2a12.41,12.41,0,0,0,3.93.87,4.4,4.4,0,0,0,.12-1.33c-.1-1.65-1.1-2.93-2.22-2.86S1280,99.51,1280.11,101.16Z"/><path class="cls-25" d="M1270.35,100.12a9.47,9.47,0,0,0,3,.32c-.09-1.5-1-2.66-2-2.59a1.52,1.52,0,0,0-1,.49c.11.51.16.77.16.77v0l0,.27Z"/><path class="cls-25" d="M1279.75,94.17h-1.07a9,9,0,0,1,.14-1.33c.61,0,1.45,0,2.43.06h0C1280.73,93.3,1280.23,93.73,1279.75,94.17Z"/><path class="cls-21" d="M1282.36,99.79a.84.84,0,1,0,.58-1A.82.82,0,0,0,1282.36,99.79Z"/><path class="cls-21" d="M1271.68,99a.58.58,0,0,0,.72.4.57.57,0,0,0,.41-.72.59.59,0,1,0-1.13.32Z"/><path class="cls-32" d="M1274.11,105.39a5.67,5.67,0,0,0,2-2.72c-1,1.12-2,2.17-3.19,2.12-.45.95,1.16,2,3,2.31C1274.75,106.57,1273.81,105.71,1274.11,105.39Z"/><path class="cls-33" d="M1276.11,102.68h0c-1,1.11-2,2.16-3.19,2.11a.76.76,0,0,0-.07.44,3.71,3.71,0,0,0,2.79-1.53A5.38,5.38,0,0,0,1276.11,102.68Z"/><path class="cls-34" d="M1304.57,99.41a2.24,2.24,0,0,0-1.17-2.57c-1-.27-2.29.46-3.21,1.71a8,8,0,0,0-1.29,4.24,2.34,2.34,0,0,1-2,2.09s-.79.35-.47,1,1-.24,1.69-.1a3.29,3.29,0,0,0,3.42-.4c1.85-1.2,2.59-3.46,2.9-5.14Z"/><path class="cls-33" d="M1299.69,104.46a3.58,3.58,0,0,0,.31-2.11c-.1-.68-.5-1.1,0-1.82a.69.69,0,0,1,1.17.16,2.7,2.7,0,0,1,.16,1.69,9.24,9.24,0,0,1-.21.91c0,.14-.19.44-.14.58s.24-.21.29-.35a6.47,6.47,0,0,0,.34-1.57c.06-.88-.37-1.44-.2-2.32.36-2,2-2.31,2.8-1.25a7,7,0,0,1,.17,2l0-.16.12-.8a2.24,2.24,0,0,0-1.17-2.57c-1-.27-2.29.46-3.21,1.71a8,8,0,0,0-1.29,4.24,2.49,2.49,0,0,1-1.3,1.89A1.2,1.2,0,0,0,1299.69,104.46Z"/><path class="cls-32" d="M1301.55,105.35a7.25,7.25,0,0,0,2.8-4.65c-1.79,4.46-4.75,5.16-5.48,5.27A3.19,3.19,0,0,0,1301.55,105.35Z"/><path class="cls-32" d="M1304.57,99.41a2.43,2.43,0,0,0-1-2.65c-.87-.43-2,.23-2.85,1.06a6.54,6.54,0,0,0-1.7,3.59,6.68,6.68,0,0,1-.54,2.37,2.13,2.13,0,0,1-1.52,1c-.05,0-.06.14,0,.14a2.23,2.23,0,0,0,1.92-1.48,8.15,8.15,0,0,0,.34-1.9,7.17,7.17,0,0,1,.6-2.07,4.57,4.57,0,0,1,2.76-2.53c1.13-.29,2.22.65,2,2.44C1304.56,99.42,1304.57,99.42,1304.57,99.41Z"/><path class="cls-25" d="M1277,76.65s8.52,2.19,11.37,7.39c3,5.56,4.22,11.95,9.64,14.43,0,0,15.65-4.56,1.64-21.64C1288.31,66.92,1277,76.65,1277,76.65Z"/><path class="cls-25" d="M1284.06,73.92s-11.52,4.28-12.67,15.25c0,0-1.77-2.61-.74-7.54S1273.91,70.67,1284.06,73.92Z"/><path class="cls-25" d="M1277.58,74.35c-1.75.64-1.87,1.36-.46,2.64q9.78,3.57,14.51,18.22C1290.36,87,1286.45,79.23,1277.58,74.35Z"/><path class="cls-35" d="M1284.54,107.5a1.21,1.21,0,0,1,1,1.17A2.31,2.31,0,0,0,1284.54,107.5Z"/><path class="cls-34" d="M1277.31,114s1.61,0,2.21-.12A1.58,1.58,0,0,1,1277.31,114Z"/><path class="cls-32" d="M1276.4,110.47l.31,1.75s1.42.31,1.75.32a18.48,18.48,0,0,0,2.22-.65l1.12-.63s1-.8,1.07-.91a9.29,9.29,0,0,1,.51-.83c.09-.12.47-.5.47-.5l-.23-.12-1.06.44s-2.54.63-2.68.62Z"/><path class="cls-35" d="M1283.49,108.9c-.12.06-1.68.61-1.68.61l-2.19.3c-.62.09-2.16.37-2.42.4a1.54,1.54,0,0,0-.48.18.32.32,0,0,0-.22,0,2.36,2.36,0,0,0-.18,1.2c.1.21.16.64.26.67l.5-.51-.07-.7a8.88,8.88,0,0,1,2.39-.3s2-.42,3-.5a11.81,11.81,0,0,1-2.18,1.61l1.94-.55a11.49,11.49,0,0,0,.74-.92l.06-.11c.38.12.61-.81.61-.81l.08-.53S1283.62,108.84,1283.49,108.9Z"/><path class="cls-32" d="M1276.66,110.6a6.89,6.89,0,0,1,.19,1,8,8,0,0,0,3.24.11,8.67,8.67,0,0,0,3.32-2.15c.35-.44-.32.74-.38.82s-1.3,1.16-1.39,1.25a7.27,7.27,0,0,1-1.88,1l-2.23.13a3.16,3.16,0,0,1-1.19-.22c-.17-.09-.29-.55-.32-.67s-.13-.42-.19-.66a4.17,4.17,0,0,1,0-.93v-.09Z"/><path class="cls-32" d="M1276.17,110.5a2.31,2.31,0,0,1,.08,1.38,17.84,17.84,0,0,0,3,.15,5.8,5.8,0,0,0,4.4-2.92l.16-.26.67-.35.22-.11a19.54,19.54,0,0,1-2,2.64,6.13,6.13,0,0,1-3,2.28c-.92.25-3.17.38-4-.21s-.4-1.06-.34-1.79a1.75,1.75,0,0,0-.18-.87c-.1-.21-.64-1-.93-1l.76-.09,1,.31Z"/><path class="cls-33" d="M1275.77,112.43s-.14-.41.81-.3a16.59,16.59,0,0,0,3.07.08c.95-.08.92.42.21.8S1276.05,113.67,1275.77,112.43Z"/><path class="cls-32" d="M1276.06,109.67l-1-.31-.76.09c.29,0,.83.78.93,1a1.64,1.64,0,0,1,.18.68.43.43,0,0,1,.51-.11l.07,0a2.93,2.93,0,0,1,0,.84h.26a2.31,2.31,0,0,0-.08-1.38l-.11-.83Zm8.43-1.17h0l-.67.35-.16.26a6.4,6.4,0,0,1-3.17,2.67h0a3.69,3.69,0,0,0,2.12-1.22.84.84,0,0,1,.2.05,23.48,23.48,0,0,1-1.55,1.94,12.81,12.81,0,0,0,1.5-1.53,19.54,19.54,0,0,0,2-2.64Z"/><path class="cls-21" d="M1275.07,109.66s.26.88.84.9a11.12,11.12,0,0,0,4.34-.06,6.91,6.91,0,0,0,3.76-1.68s-2.66.57-3.18.56-2.71.07-2.87.07-1.93,0-1.93,0Z"/><path class="cls-21" d="M1284,108.82s-2.66.57-3.18.56l-2.08,0-.53.44a11.37,11.37,0,0,0,4.26-.16,11.56,11.56,0,0,1-2.65.86l.42-.06A6.91,6.91,0,0,0,1284,108.82Z"/><path class="cls-32" d="M1285,108.07c-.09.09-.16.2-.25.29a6.5,6.5,0,0,1-2.09,1,8.94,8.94,0,0,1-2.48.48c-1.21,0-2.42-.08-3.63-.09a6.66,6.66,0,0,1-2-.22c-.78-.25-1.06-.53-1.25-1.12a1.74,1.74,0,0,0,1,.55,21,21,0,0,1,2.12.31,9.29,9.29,0,0,1,2.75-.12,14.66,14.66,0,0,0,4.06-.35A3.44,3.44,0,0,0,1285,108.07Z"/><path class="cls-35" d="M1273.3,108.45a1.41,1.41,0,0,0,.56.81,2.94,2.94,0,0,0,1.09.46,7.63,7.63,0,0,0,1.72.13c.71,0,1.41.05,2.11.07a13.39,13.39,0,0,0,1.9,0,8.4,8.4,0,0,0,4.41-1.76c.09-.08-.06-.19-.14-.1-.86,1-2.76,1.58-4.19,1.77a13.25,13.25,0,0,1-1.89,0l-1.81-.07c-.59,0-1.17,0-1.75,0a3,3,0,0,1-1.5-.56A1.74,1.74,0,0,1,1273.3,108.45Z"/><path class="cls-35" d="M1276.85,111.62l-.41-.11a5.94,5.94,0,0,0,4.37,0,3.39,3.39,0,0,0,.7-.46,5.58,5.58,0,0,1-1.42.65A8,8,0,0,1,1276.85,111.62Z"/><path class="cls-21" d="M1277,111.65c0-.05,0-.26,0-.25a10,10,0,0,0,3.88,0,4.86,4.86,0,0,1-.79.3A7.8,7.8,0,0,1,1277,111.65Z"/><path class="cls-29" d="M1285.08,118.07c4.71-1.49,8.52-4.76,11.7-9,.09,2.26.2,5.07.34,8.55a40.5,40.5,0,0,1-6.58,2.47,42,42,0,0,1-10,1.5c.16-.56.29-1.1.39-1.61.06-.32.11-.63.14-.93A24.86,24.86,0,0,0,1285.08,118.07Z"/><path class="cls-25" d="M1275.27,206.56c4-.17,7.4-.14,12-.59q.2,1.4.39,2.73c-3.92.42-8.48.54-12.26.61Z"/><path class="cls-27" d="M1283.73,206.61l.07,2-.17.19-5.1.18-.18-.18-.08-2,.17-.18,5.1-.18.19.17Zm-.07,3.08a1,1,0,0,0,1-1.06l-.07-2a1,1,0,0,0-1.07-1l-5.09.18a1,1,0,0,0-1,1.06l.08,2.06a1,1,0,0,0,1.06,1Z"/><path class="cls-25" d="M1283.66,209.69a1,1,0,0,0,.95-.73c1.05-.07,2.09-.15,3.08-.26.45,3,1,5.92,1.35,9.17.14,1.08.27,2.06.41,3h0c-3.59.37-5.84,1.69-8.7,1.78h0c-1.29,0-3.17-1.17-4.75-1.08-.1-4.29-.3-8.11-.54-12.28l2.15-.05a1,1,0,0,0,1,.62Z"/><path class="cls-36" d="M1320.65,307.88l17.95,77.73A91.74,91.74,0,0,1,1328,389Z"/><path class="cls-36" d="M1300.91,323.53l6.4,69-1.24.11c-4.25.35-8.52.53-12.74.57l2-20.42,4.81-49.76.38-3.93Z"/><path class="cls-36" d="M1276.86,313.4l-2.4,79-1.37-.13c-1.73-.16-3.43-.35-5.1-.55.53-4.54,1.21-11.21,2-19,1.74-17.9,3.91-41.76,5.49-59.45.23-2.58,1.32-14.4,1.52-16.68C1277.22,296.64,1276.92,311.43,1276.86,313.4Z"/><path class="cls-36" d="M1249,357.55l2.57,31.35c-2.37-.55-4.55-1.13-6.52-1.73Z"/><polygon class="cls-21" points="1253.99 170.59 1291.21 150.98 1305.41 175.59 1253.99 170.59"/><polygon class="cls-37" points="1253.99 170.59 1294.44 151.69 1306.84 175.19 1253.99 170.59"/><polygon class="cls-38" points="1274.39 197.21 1253.99 170.59 1298.07 152.61 1314.38 181.07 1274.39 197.21"/><polygon class="cls-39" points="1274.39 198.11 1253.99 171.5 1298.07 153.51 1314.38 181.98 1274.39 198.11"/><path class="cls-28" d="M1287.09,201.57c10-.83,35.93-.07,40.71-2.16s7.67-7.52,8.09-17c1.5-18.7,3.56-51.61-12.4-55.23-2.25-.65-9.33,3.3-8.27,20.83.59,11.35,2.58,33.63,2.58,33.63s-4.5.17-13.2,4.29c-9.92,4.7-18.88,8-18.88,8Z"/><path class="cls-26" d="M1288.23,200.68c-5,.61-9.59,1.75-11.57,1.12-2.54-.82-7.19-2.41-9.39-4.32s-4.17-3-6.48-5.61-2.8-1.79-4.66-4.18-2.2-3.34-1.54-4.06,1.76.84,1.76.84.8-.6,2.32.48c1.18.83,4,2.54,5.18,3.35,1.66,1.2,4.08,1.3,5.84,1.78s2.86,0,2-2.63-1.43-4.48-1.21-6.06,2.42-2.72,3,0,2.2,7,3.73,8.45,2.72,2.87,3.84,4.11c1.69,1.87,5.34.26,5.34.26Z"/><path class="cls-21" d="M1298,107.32a.44.44,0,0,0,0-.87,1.5,1.5,0,0,0-1.27,1,4.75,4.75,0,0,0,0,3.86,1.49,1.49,0,0,0,1.27,1,1.47,1.47,0,0,0,1.26-1,4.3,4.3,0,0,0,.42-1.93,4.75,4.75,0,0,0-.16-1.23c0-.13-.07-.25-.11-.37-.26.1-.54.2-.82.28a2.81,2.81,0,0,1,.1.31,3.94,3.94,0,0,1,.12,1,3.45,3.45,0,0,1-.32,1.54c-.15.3-.32.48-.49.48s-.34-.18-.5-.48a3.6,3.6,0,0,1-.31-1.54,3.65,3.65,0,0,1,.31-1.55C1297.66,107.5,1297.83,107.32,1298,107.32Z"/><polygon class="cls-24" points="1203.72 264.68 1266.59 264.7 1253.39 215.94 1192.47 215.93 1190.92 217.41 1203.72 264.68"/><rect class="cls-40" x="1248.43" y="221.04" width="3.78" height="92.53" transform="translate(981.52 1517.31) rotate(-89.93)"/><polygon class="cls-24" points="1203.67 264.62 1265.1 264.7 1252.15 216.9 1191.53 216.82 1190.9 217.43 1190.89 217.43 1203.67 264.62"/><rect class="cls-41" x="1279.79" y="252.43" width="3.78" height="29.83" transform="translate(1013.01 1548.74) rotate(-89.94)"/><polygon class="cls-24" points="1247.35 266.35 1258.87 266.37 1258.87 264.7 1247.35 264.69 1247.35 266.35"/><polygon class="cls-24" points="1207.9 266.3 1217.76 266.31 1217.76 264.65 1207.9 264.64 1207.9 266.3"/><polygon class="cls-21" points="1251.75 217.5 1190.9 217.43 1191.53 216.82 1252.15 216.9 1265.1 264.7 1264.53 264.7 1251.75 217.5"/><path class="cls-42" d="M988.56,248.25c4.21,6.73,19.24,41.58,10,65.18a79.24,79.24,0,0,1,8.14-1.55s4.08-44.24-12.35-65.32S988.56,248.25,988.56,248.25Z"/><path class="cls-43" d="M978.3,223.64l0-.1c-.14-3.66,23.76-7.69,53.38-9s53.13,1,53.27,4.65c0,.11,11.18,31.83-1,33.51-5.37.75-19.82.48-48.78,1.74s-47.81,4.32-52-.24C983.13,254.23,975.35,230.07,978.3,223.64Z"/><path class="cls-42" d="M977.3,223.43l.17-.32c1-3.84,23.76-7.67,53.38-9s45.52-1.73,52.16,2.63c0,0,2.74,1.39,1.87,2.92-8.54-1.92-27.24-2.71-48.94-1.75-29.62,1.29-51.32,4.64-53.39,9l-.14.36c-2.31,8.22,3,26.12,6.14,32.87-1.89,1.23-8.56-1.36-8.66-4.32C979.89,255.83,974.34,229.86,977.3,223.43Z"/><rect class="cls-44" x="1056.4" y="335.81" width="7.68" height="82.16"/><path class="cls-43" d="M999.93,309.86c2-3.37,83.33-5.3,89.63-4.52s46,7.72,48.34,13.23,4.26,15.12-2.81,18.27-85.84,9.11-97.48,6.3c-7.46-1.82-36.26-8.27-37.68-13.33C997.43,320.78,999.93,309.86,999.93,309.86Z"/><path class="cls-45" d="M1061.06,289.36s17.53-3.5,24.43-4.44c4.06-.57,55.28,5.39,59.44,7,5.92,1.89,11.2,10.16,12,13.48,2.16,9.06-7.07,100.46-7.07,100.46-4.67,3.28-26.45,3.1-26.72,1.55-1.16-6.75-6-59.58-1.52-83.46-8.16.34-25.61,4.2-37.92,1.12C1066.81,320.82,1059.38,296.11,1061.06,289.36Z"/><path class="cls-22" d="M1123.3,427.12a133.24,133.24,0,0,1,17.73,1.52c5.28.77,10.51,1.77,15.77,2.63a87.63,87.63,0,0,0,13.79,1.43,28,28,0,0,0,11.87-2.24,20.73,20.73,0,0,0,3.43-2,4.92,4.92,0,0,1,.19,2.61c-6.27,5.85-20.78,4.49-32.22,2.55l-2.91-.52c-1.61-.3-6.92-1.61-7.49-.42-6.92-.68-20.32-.57-20.75-2.05a16.83,16.83,0,0,1,.42-3.51Zm22.45-13.9Zm4,2.29Zm4,1.95Zm3.7,1.69Zm3.7,1.68Zm24.3,6.13c-1.26-7.49-11.33-6.34-19.3-8.66l-2.19-.69-1.88,3a.64.64,0,0,1-.93.2.75.75,0,0,1-.19-1l1.67-2.67c-.86-.31-1.71-.62-2.55-.95l-1.7,2.72a.65.65,0,0,1-.93.21.75.75,0,0,1-.19-1l1.54-2.47c-.83-.35-1.65-.72-2.45-1.11l-1.67,2.68a.64.64,0,0,1-.93.2.73.73,0,0,1-.19-1l1.57-2.52c-.8-.41-1.57-.85-2.31-1.31l-2.17,2.77a.65.65,0,0,1-1,.09.75.75,0,0,1-.08-1l2-2.59c-.77-.53-1.51-1.08-2.2-1.65l-2.81,3a.64.64,0,0,1-1,0,.75.75,0,0,1,0-1l2.71-2.86c-.42-.39-.82-.8-1.2-1.21-6.91,6.63-14.67,8.82-21.81,4.41-2.55,4-2.63,6.27-2.13,13.1C1150.91,426,1172,437.13,1185.5,427Z"/><path class="cls-26" d="M1145.76,409.51c-5.92,5-12.37,6.81-18.47,4a22.61,22.61,0,0,0,.81-5.19,78.65,78.65,0,0,0,17.34-1C1145.52,408.11,1145.62,408.83,1145.76,409.51Z"/><path class="cls-21" d="M1123.13,427.12a2.65,2.65,0,0,1,.2-1.47c27.58.31,48.68,11.48,62.17,1.31a3.31,3.31,0,0,1,.39,1.5,20.73,20.73,0,0,1-3.43,2,28,28,0,0,1-11.87,2.24,87.63,87.63,0,0,1-13.79-1.43c-5.26-.86-10.49-1.86-15.77-2.63a133.24,133.24,0,0,0-17.73-1.52Zm26.37-16.85-2.8,3a.64.64,0,0,1-1,0,.75.75,0,0,1,0-1l2.71-2.86c.33.31.67.61,1,.92Zm3.37,2.38c-.41-.24-.79-.48-1.16-.73l-2,2.58a.75.75,0,0,0,.08,1,.65.65,0,0,0,1-.09l2.17-2.77Zm4.44,5.51,1.54-2.47c-.83-.35-1.65-.72-2.45-1.11l-1.67,2.68a.64.64,0,0,1-.93.2.73.73,0,0,1-.19-1l1.57-2.52c-.47-.24-.93-.49-1.37-.75h0a58.51,58.51,0,0,0,10.18,4.39l-1.88,3a.64.64,0,0,1-.93.2.75.75,0,0,1-.19-1l1.67-2.67c-.86-.31-1.71-.62-2.55-.95l-1.7,2.72a.65.65,0,0,1-.93.21A.75.75,0,0,1,1157.31,418.16Z"/><path class="cls-43" d="M1063.89,397.39h-7.3a5.34,5.34,0,0,0-5.35,5.35v13.2a2.54,2.54,0,0,0,2.54,2.54h12.92a2.54,2.54,0,0,0,2.54-2.54v-13.2A5.35,5.35,0,0,0,1063.89,397.39Z"/><path class="cls-43" d="M1060.24,409.65a1.81,1.81,0,0,0-1.81,1.81v11.65a1.81,1.81,0,1,0,3.61,0V411.46A1.8,1.8,0,0,0,1060.24,409.65Z"/><path class="cls-43" d="M1102.64,426.71a6.11,6.11,0,1,1-6.1-6.11A6.1,6.1,0,0,1,1102.64,426.71Z"/><path class="cls-43" d="M1066.34,426.71a6.11,6.11,0,1,1-6.1-6.11A6.1,6.1,0,0,1,1066.34,426.71Z"/><path class="cls-43" d="M1017.84,426.71a6.11,6.11,0,1,0,6.1-6.11A6.1,6.1,0,0,0,1017.84,426.71Z"/><path class="cls-43" d="M1100.87,424.42c-11.26-5.39-25.38-8.44-40.67-8.44h0c-15.29,0-29.41,3-40.68,8.44Z"/><path class="cls-45" d="M1021.29,299.46s-.15-15.08,6.75-16c6.12-.83,47.28,4.91,60.51,10.36l.77.28.52.28c.42.21.8.42,1.13.62,10.72,6.42,9,23.77,8.16,39-.4,7.65-4,77.65-4,77.65-3.36,4.51-23,7.77-27.21,5.44,0,0-7.86-74.1-2.81-92.23-7.3,5.49-19,5.87-30.63,2.95C1017.65,323.63,1019.61,306.21,1021.29,299.46Z"/><path class="cls-26" d="M1042.37,170.49c-.57,4.92-3.54,16.68,4.62,21,2.91,3.49-3.2,17.64-5.79,18-9.39,1.35-31-16.69-31-16.69s8.48-3.66,9.22-6.2c1.4-4.93,2.37-16.19,2.33-18.69C1021.7,164.06,1042.37,170.49,1042.37,170.49Z"/><path class="cls-21" d="M1054.43,194.51l-7.44-3.06c-4.29,10.94-22.94,5.18-31.09-1.11-3.21-2.26-7.61,5.68-7.61,5.68s32.57,36.62,40.79,35.46S1054.43,194.51,1054.43,194.51Z"/><path class="cls-46" d="M1015.61,190c-7.06,2.68-11.45,2.82-18.54,5.61,0,0-.93,28.31,5.81,41,7.3,13.76,9.34,12.24,10.4,47.71.79,26.45,3.77,27.71,8.12,22.75,24.17-27.53,52.18-14.31,67.42-22.11,1.56,2.45-9.65-29.43-11.62-35.05a104.34,104.34,0,0,1-5.76-36.1c.26-9.6-1.09-17.18-6.71-18.44-11-2.48-17.74-3.94-17.74-3.94a26.29,26.29,0,0,1,2.15,12.66c-.68,7.29-8.45,10.34-18.18,1.8A135.79,135.79,0,0,1,1015.61,190Z"/><path class="cls-46" d="M1065.48,195.6c5.61.72,13,10.8,17.72,17.82s27.81,39.3,29.21,45.76-16.25,6-21.68,3.86c-3.85-1.47-9.7-10.66-15.21-19.7-2.41-4-2.88-11.8-3.3-14.77A171.39,171.39,0,0,0,1065.48,195.6Z"/><path class="cls-26" d="M1011.25,250c8.42-.58,33.29,4.2,37.2,3.1a58.74,58.74,0,0,1,13.27-2.53c2.22-.16,4.87,1.23,7.91,3.45,4.32,3.19,5.2,5.37,4.37,5.83-.55.29-2.67-1.3-4.37-2.73s-5.52-2.38-5.52-2.38a17.3,17.3,0,0,1,5,2.74c2.22,1.65,5.17,5.18,4.58,5.83-1.29,1.37-4.39-3-6.57-3.92-2.45-1.05-5.94-2.27-5.94-2.27s11.14,6.42,10.13,7.38-5.2-1.82-7-2.37c-2.18-.66-4.56-1.47-4.56-1.47s9.15,3.52,8.67,4.48c-.81,1.52-4.57.09-8.32-.64-3-.58-7.81,1.58-12.94-.45-7.88-3.14-42,7.12-48.78-.46C988.81,253.06,1011.25,250,1011.25,250Z"/><path class="cls-26" d="M1098,248.39c-7.55,1-8.57,2.58-9.37,3.46a19.06,19.06,0,0,0-3.05,5.39c-1.37,3.17-1.62,6.69-.73,6.79.58.07,2.26-2.87,3-5.38.34-1.25,3.32-3.76,3.32-3.76a42.93,42.93,0,0,1-2.59,5.07c-1.33,2.26-2.56,6.46-1.79,6.79,1.62.72,2.7-4.24,4.25-5.89a31.39,31.39,0,0,0,3.15-4.13s-5.7,9.41-4.46,9.87,2.93-2.76,4.31-3.93a13.6,13.6,0,0,0,2.75-3.39s-4.67,6.67-3.89,7.32c1.27,1,3.74-2.72,6.73-4.76,2.36-1.6,3-2.8,4.61-4.57C1107.47,253.78,1101.8,247.88,1098,248.39Z"/><path class="cls-46" d="M1001.64,196.3c-11.3-6.2-19.76,60.4-18.22,63.2,2.89,5.23,9.2,6.09,13.15,6.81,11.7,2.12,28.26-.35,28.26-.35s4.68-8.63,4.35-14.53c-3.52-1.9-22.76-4.17-22.76-4.17a74.25,74.25,0,0,0,3.06-23C1009.4,222.56,1007.45,199.48,1001.64,196.3Z"/><path class="cls-46" d="M998.59,195.3c-2-1-7.35,4.16-8.22,13.22-2.83,9.72-7.51,51.13-3.77,53.16l2.53,2.23s2.09-24.78,2.58-31.36c1.87-24.61,6.47-34.36,9-34.52S998.59,195.3,998.59,195.3Z"/><rect class="cls-47" x="1004.86" y="301.29" width="297.18" height="5.59"/><path class="cls-43" d="M1289.7,277.14c-.57,2.19,26.37,134.27,30.52,154.78a3.32,3.32,0,0,0,3.13,2.6h.76a2.16,2.16,0,0,0,2.2-2.62L1300.9,277.14Zm-276.35-1.53c.57,2.19-24.84,133.88-29,154.39a3.32,3.32,0,0,1-3.13,2.6h-.76a2.16,2.16,0,0,1-2.2-2.62l23.87-154.37Z"/><path class="cls-43" d="M1301.4,269H999.67c-5.13,0-9.29,3.64-9.29,8.13H1310.7C1310.7,272.65,1306.53,269,1301.4,269Z"/><path class="cls-42" d="M1122.78,269v-.1h0a3.45,3.45,0,0,1,3.44-3.44H1145l.55,3.54Z"/><path class="cls-42" d="M1065.76,269a5.18,5.18,0,0,1,5.14-4.72h26.93A5.18,5.18,0,0,1,1103,269Z"/><path class="cls-48" d="M1015.88,190.32l-.27-.33-.16.1-.05,0c-1.21.45-2.34.83-3.42,1.17l.4.51q3.29,4.11,6.47,7.6c6.25,6.85,12.12,11.83,17.15,14.58l.86.45c3.55,1.79,6.64,2.41,9.1,1.73a7.41,7.41,0,0,0,3.31-1.9,8.78,8.78,0,0,0,.7-.79c3.14-4,3.26-11.77-.51-20.95-.07-.18-.14-.35-.22-.53l-2.25-.49c-4.29,10.94-22.94,5.18-31.09-1.11Z"/><path class="cls-21" d="M1047,191.45c-4.29,10.94-22.94,5.18-31.09-1.11l0,0A136,136,0,0,0,1031,205.91a29.09,29.09,0,0,0,2.49,2c8.54,6,15.07,2.9,15.69-3.76a25.91,25.91,0,0,0-1.46-10.94C1047.28,192.08,1047,191.45,1047,191.45Z"/><path class="cls-26" d="M1020.61,173.79c-10.46-.76-13.72-17-7.64-15.27-8.34-31.41,29.34-38.16,39.8-14.33,1.35,5.1,2.08,9.34,1.91,11.69-.23,3.11-1.57,2.52-.77,5,1.68,5.23,2,6.51-1.49,14.83-1.07,2.59-.71,5.62-2.43,8.06-2.19,3.11-8.31,3.15-13.83,1.76C1023.27,182.31,1026,180.45,1020.61,173.79Z"/><path class="cls-21" d="M1053.9,161a15.42,15.42,0,0,1-.23,1.79,6.13,6.13,0,0,1-2.66.18,11.22,11.22,0,0,1-2-.42c-.41-1.84-.54-2.72-.54-2.72l.32-.74.92-.25,1-.19a6.7,6.7,0,0,1,3,.32h0A10.55,10.55,0,0,1,1053.9,161Z"/><path class="cls-21" d="M1043.29,162.38s-.74.28-1.8.63c-.9.29-2,.64-3.16.91a16.4,16.4,0,0,1-2.5.43,16.85,16.85,0,0,1-4.69-1.21,10.19,10.19,0,0,1,6.35-4.43,7.09,7.09,0,0,1,3.51.08l.8.78A9.33,9.33,0,0,1,1043.29,162.38Z"/><path class="cls-49" d="M1042,160.86a4,4,0,0,1-.55,2.15c-.9.29-2,.64-3.16.91a3.58,3.58,0,0,1-1.47-2.94,3.91,3.91,0,0,1,.63-2.27,7.09,7.09,0,0,1,3.51.08l.8.78A4.11,4.11,0,0,1,1042,160.86Z"/><path class="cls-49" d="M1053.9,161a15.42,15.42,0,0,1-.23,1.79,6.13,6.13,0,0,1-2.66.18,5.2,5.2,0,0,1-.59-2.35,5.55,5.55,0,0,1,.3-2,6.7,6.7,0,0,1,3,.32h0A10.55,10.55,0,0,1,1053.9,161Z"/><path class="cls-49" d="M1031.14,163.14a19.45,19.45,0,0,1,2.16-1.82,17.29,17.29,0,0,1,2.36-1.49,9.68,9.68,0,0,1,1.24-.56l.64-.18.68-.13a9,9,0,0,1,1.37-.13h.68l.68.1,0,0,.89.65-.71-.91h0l0,0-.71-.25-.73-.13a6.66,6.66,0,0,0-1.48,0l-.74.09-.74.2a8.25,8.25,0,0,0-1.35.62,12.18,12.18,0,0,0-2.35,1.73A9.52,9.52,0,0,0,1031.14,163.14Z"/><path class="cls-49" d="M1026.11,158.35c1.32-.63,2.89-1.37,3.92-1.78,1.43-.35,12.42-.15,12.42-.15.71-.22,1.51-.49,2.1-.69a.92.92,0,0,0,.62-.92l-.1-.36a1.28,1.28,0,0,0-1.62-.62l-1.82.73a64.68,64.68,0,0,0-10.42.05C1028.48,155.62,1026.54,156.86,1026.11,158.35Z"/><path class="cls-49" d="M1051.33,153.5l1.57-.24a3.24,3.24,0,0,1,2.1.42c.66.44.58.91.21,1.29a2.62,2.62,0,0,1-2.09.64c-.58-.05-1.23-.16-1.87-.28C1050,155.09,1050,153.77,1051.33,153.5Z"/><path class="cls-21" d="M1036.48,161.55a.94.94,0,0,0,1,.89,1,1,0,0,0,.9-1,.95.95,0,0,0-1.89.1Z"/><path class="cls-21" d="M1049.82,160.78a.81.81,0,1,0,1.62-.08.82.82,0,0,0-.86-.77A.8.8,0,0,0,1049.82,160.78Z"/><path class="cls-49" d="M1048.81,159a7.47,7.47,0,0,0,1.27-.08c.41,0,.81-.06,1.21-.08s.8,0,1.21,0l1.26.05a3.26,3.26,0,0,0-1.19-.56,4.37,4.37,0,0,0-1.3-.15,4.81,4.81,0,0,0-1.3.24A5.47,5.47,0,0,0,1048.81,159Z"/><path class="cls-34" d="M1011.18,163.35a2.78,2.78,0,0,1,1.27-3.26c1.26-.39,2.85.42,4.07,1.9s1.52,2.95,1.88,5.15a2.88,2.88,0,0,0,2.59,2.44s1,.39.65,1.17-1.3-.22-2.1,0a4.07,4.07,0,0,1-4.24-.27c-2.37-1.35-3.43-4.09-3.92-6.15Z"/><path class="cls-33" d="M1017.53,169.25a4.41,4.41,0,0,1-.52-2.58c.08-.85.55-1.4-.17-2.24a.84.84,0,0,0-1.43.27,3.44,3.44,0,0,0-.09,2.1,10.63,10.63,0,0,0,.32,1.1c.06.17.26.54.21.71-.08.33-.31-.24-.38-.41a7.91,7.91,0,0,1-.52-1.92c-.14-1.08.36-1.8.1-2.88-.59-2.41-2.68-2.71-3.54-1.34a8,8,0,0,0-.08,2.46,1.94,1.94,0,0,1,0-.2l-.2-1a2.78,2.78,0,0,1,1.27-3.26c1.26-.39,2.85.42,4.07,1.9s1.52,2.95,1.88,5.15a3.07,3.07,0,0,0,1.73,2.25A1.5,1.5,0,0,1,1017.53,169.25Z"/><path class="cls-32" d="M1015.3,170.47c-2.15-1.22-3.21-3.58-3.77-5.55,2.5,5.38,6.21,6.05,7.12,6.13A3.9,3.9,0,0,1,1015.3,170.47Z"/><path class="cls-32" d="M1011.17,163.35a3,3,0,0,1,1.12-3.35c1.06-.58,2.53.16,3.6,1.12a8.08,8.08,0,0,1,2.33,4.32,8.24,8.24,0,0,0,.82,2.89,2.66,2.66,0,0,0,1.94,1.17c.07,0,.09.17,0,.17a2.76,2.76,0,0,1-2.46-1.69,10.92,10.92,0,0,1-.55-2.34,8.59,8.59,0,0,0-.87-2.51,5.66,5.66,0,0,0-3.58-2.94c-1.41-.28-2.69.95-2.36,3.15Z"/><path class="cls-32" d="M1049.93,167.87a7.13,7.13,0,0,1-2.69-3.28c1.31,1.33,2.69,2.58,4.15,2.45.64,1.16-1.32,2.56-3.58,3.11C1049.21,169.4,1050.33,168.25,1049.93,167.87Z"/><path class="cls-33" d="M1047.24,164.59h0c1.31,1.33,2.69,2.58,4.15,2.45a1,1,0,0,1,.12.54,4.61,4.61,0,0,1-3.61-1.73A5.47,5.47,0,0,1,1047.24,164.59Z"/><path class="cls-49" d="M1052.46,134.61c0,.7.07,2.58-.51,3.24-4.25,4.79-22.6,4.32-24.69,4.34-.92,0-3.94-3.09-4.76-2.7,0,0,5.78,5.15-2.84,11.66-.73.55.28,8.36-.54,9.7-.87.15-5.31-2.82-6.15-2.33-1.48-1.91-5.27-11.38-4.72-14a8.93,8.93,0,0,1,.34-1.14c1.19-3.23,3.78-7.07,8.14-7a7,7,0,0,1,3.31-4.42c3.11-1.68,7.91-2.35,11.35-2.4a44.53,44.53,0,0,1,9.73,1.2c2.26.45,4.39,1.08,6.66,1.5a15.74,15.74,0,0,0,5,.42A3.13,3.13,0,0,1,1052.46,134.61Z"/><path class="cls-49" d="M1052.46,134.61c3.52,13.21-18.34,7.52-25.2,7.58-.92,0-3.94-3.09-4.76-2.7,0,0,5.78,5.15-2.84,11.66-.73.55,2.67,6.25-.54,9.7-.87.15-5.31-2.82-6.15-2.33-1.48-1.91-5.27-11.38-4.72-14a5.4,5.4,0,0,0,1.37,2.24c.93.91,1.41,2.22,3.24,2.05a10.88,10.88,0,0,0,1.1-4.69c1.31.9,1.72,2.15,2.73,3.1,2.07-1.06,3.09-3.9,3.44-5.44.42-1.82-.19-3.57.32-5.29C1027.8,140.25,1051.09,143.88,1052.46,134.61Z"/><path class="cls-34" d="M1046.42,180.28a25.68,25.68,0,0,1-2.69,0A1.91,1.91,0,0,0,1046.42,180.28Z"/><path class="cls-32" d="M1047.3,175.93l-.26,2.15a5.42,5.42,0,0,1-4.86-.15l-1.4-.68s-1.27-.91-1.36-1.05-.55-.83-.67-1-.62-.57-.62-.57l.27-.17,1.33.46s3.14.6,3.3.59Z"/><path class="cls-35" d="M1038.56,174.49c.16.06,2.09.62,2.09.62l2.68.23c.77.06,2.67.31,3,.32a1.7,1.7,0,0,1,.59.19c.1,0,.21-.08.26,0a2.85,2.85,0,0,1,.3,1.44c-.1.27-.15.79-.27.83l-.65-.59,0-.85a10.31,10.31,0,0,0-2.92-.22s-2.43-.38-3.65-.41a14.2,14.2,0,0,0,2.76,1.82l-2.4-.55a9.63,9.63,0,0,1-1-1.07.57.57,0,0,1-.08-.13c-.45.17-.79-.94-.79-.94l-.15-.64S1038.4,174.42,1038.56,174.49Z"/><path class="cls-32" d="M1047,176.1a8.78,8.78,0,0,0-.16,1.26,9.86,9.86,0,0,1-3.93.35,10.58,10.58,0,0,1-4.19-2.41c-.45-.51.43.88.51,1s1.66,1.32,1.78,1.42a8.74,8.74,0,0,0,2.36,1l2.71,0a3.7,3.7,0,0,0,1.44-.35c.2-.12.32-.68.35-.83s.12-.53.18-.82a5.59,5.59,0,0,0,0-1.14v-.1Z"/><path class="cls-32" d="M1047.58,176a2.86,2.86,0,0,0,0,1.69,21.7,21.7,0,0,1-3.66.37,7.07,7.07,0,0,1-5.55-3.26l-.21-.31-.84-.38-.28-.12a23.58,23.58,0,0,0,2.57,3.09c1.14,1.14,2.08,2.21,3.79,2.58,1.13.24,3.88.25,4.81-.52s.41-1.32.3-2.2a2,2,0,0,1,.16-1.07c.1-.26.7-1.29,1.06-1.27l-.93-.05-1.13.43Z"/><path class="cls-33" d="M1048.2,178.27s.15-.51-1-.31a19.43,19.43,0,0,1-3.73.3c-1.16,0-1.1.57-.2,1S1047.94,179.8,1048.2,178.27Z"/><path class="cls-32" d="M1047.67,174.93l1.13-.43.93.05c-.36,0-1,1-1.06,1.27a2,2,0,0,0-.18.84.54.54,0,0,0-.63-.1l-.09.05a3.78,3.78,0,0,0,.13,1l-.32,0a2.86,2.86,0,0,1,0-1.69l.09-1Zm-10.35-.87h0l.84.38.21.31a7.85,7.85,0,0,0,4,3.05h0a4.56,4.56,0,0,1-2.66-1.36,1.68,1.68,0,0,0-.24.08,24.92,24.92,0,0,0,2,2.26,15,15,0,0,1-1.93-1.76,23.58,23.58,0,0,1-2.57-3.09Z"/><path class="cls-21" d="M1048.87,174.86s-.26,1.09-1,1.14a13.58,13.58,0,0,1-5.29.22,8.54,8.54,0,0,1-4.69-1.8s3.27.51,3.91.47,3.3-.09,3.5-.11l2.35-.11Z"/><path class="cls-21" d="M1037.93,174.42s3.27.51,3.91.47l2.54-.08.67.5a14,14,0,0,1-5.2.08,13.72,13.72,0,0,0,3.28.87l-.51,0A8.54,8.54,0,0,1,1037.93,174.42Z"/><path class="cls-32" d="M1036.64,173.57c.12.1.2.24.32.34a7.7,7.7,0,0,0,2.62,1.12,10.3,10.3,0,0,0,3,.43c1.48-.06,2.94-.26,4.42-.35a8.33,8.33,0,0,0,2.46-.4,1.92,1.92,0,0,0,1.45-1.44,2.06,2.06,0,0,1-1.19.73,23,23,0,0,0-2.56.52,11,11,0,0,0-3.35,0,17.28,17.28,0,0,1-5-.16A4.19,4.19,0,0,1,1036.64,173.57Z"/><path class="cls-35" d="M1051,173.27a1.83,1.83,0,0,1-.63,1,3.5,3.5,0,0,1-1.3.61,9.84,9.84,0,0,1-2.09.29c-.85.05-1.71.14-2.56.21a16.38,16.38,0,0,1-2.32.1,10.22,10.22,0,0,1-5.48-1.87c-.11-.08.06-.23.16-.12,1.12,1.17,3.47,1.74,5.22,1.88a16.12,16.12,0,0,0,2.3-.12l2.2-.2c.72-.06,1.43-.08,2.13-.19a3.62,3.62,0,0,0,1.8-.78A2.39,2.39,0,0,0,1051,173.27Z"/><path class="cls-35" d="M1046.83,177.35l.49-.15a7.28,7.28,0,0,1-5.31.32,3.62,3.62,0,0,1-.88-.51,6.79,6.79,0,0,0,1.77.7A9.79,9.79,0,0,0,1046.83,177.35Z"/><path class="cls-21" d="M1046.68,177.4c0-.06,0-.32,0-.3a12.18,12.18,0,0,1-4.73.29,6,6,0,0,0,1,.32A9.5,9.5,0,0,0,1046.68,177.4Z"/><path class="cls-29" d="M1036.16,185.56c-12.31-3.1-10.39-4.94-14.87-10.9-.28,2.79-.67,5.93-1.14,8.55q9.9,5.56,24.32,6.36a10,10,0,0,1-2-3.13A28,28,0,0,1,1036.16,185.56Z"/><path class="cls-26" d="M1072.59,417.89a16,16,0,0,1-1.54,5.29q19.9,5.38,20.72-3.23a36.46,36.46,0,0,1-1.1-5.42A54.22,54.22,0,0,1,1072.59,417.89Z"/><path class="cls-22" d="M1084.21,417.93q-5.52,8.29-12.9,2.24a24.59,24.59,0,0,0-2.42,13.54c12.64,4.2,23.72,6.87,33.16,7.79,9,.87,16.5.15,22.42-2.35q-.23-9.79-14.69-9.93-.78-.2-1.53-.42l-8.94,1.07a.75.75,0,0,1-.84-.66h0a.76.76,0,0,1,.66-.83l5.84-.71c-.75-.29-1.46-.6-2.15-.92l-6.62.79a.75.75,0,0,1-.84-.66h0a.77.77,0,0,1,.67-.84l4.44-.53c-.54-.32-1.06-.65-1.55-1l-5.86.56a.75.75,0,0,1-.82-.68h0a.76.76,0,0,1,.68-.82l4.23-.4c-.39-.32-.75-.65-1.1-1l-6.13.43a.76.76,0,0,1-.8-.7h0a.75.75,0,0,1,.7-.8l4.9-.35c-.4-.47-.77-1-1.12-1.46l-5.86.42a.76.76,0,0,1-.8-.7h0a.75.75,0,0,1,.69-.81l5.07-.36c-.17-.29-.32-.59-.47-.9q-5.7-1-8,1Zm1.07,24.86-1.81.27c-3.83-.81-14.13-3.69-14.26-4.52a7.43,7.43,0,0,1-.13-3.18c12.46,4.11,23.43,6.73,32.83,7.64,8.93.87,16.46.19,22.5-2.2a18.92,18.92,0,0,1-.37,2.45C1115.44,446.91,1102.49,446.61,1085.28,442.79Z"/><path class="cls-21" d="M1092.7,417.86l-5.07.36a.75.75,0,0,0-.69.81h0a.76.76,0,0,0,.8.7l5.86-.42c-.32-.47-.62-.95-.9-1.45Zm31.77,21.29c-5.92,2.5-13.42,3.22-22.42,2.35-9.44-.92-20.52-3.59-33.16-7.79,0,.54.11,1.09.19,1.65,12.46,4.11,23.43,6.73,32.83,7.64,8.93.87,16.46.19,22.5-2.2a11.59,11.59,0,0,0,.06-1.65Zm-16.22-10.35c-1.15-.34-2.24-.72-3.28-1.13l-5.84.71a.76.76,0,0,0-.66.83h0a.75.75,0,0,0,.84.66l8.94-1.07Zm-5.43-2.05c-.82-.39-1.6-.8-2.35-1.24L1096,426a.77.77,0,0,0-.67.84h0a.75.75,0,0,0,.84.66l6.62-.79Zm-3.9-2.23c-.63-.43-1.22-.88-1.77-1.34l-4.23.4a.76.76,0,0,0-.68.82h0a.75.75,0,0,0,.82.68l5.86-.56Zm-2.87-2.33c-.47-.46-.91-.93-1.33-1.42l-4.9.35a.75.75,0,0,0-.7.8h0a.76.76,0,0,0,.8.7Z"/><path class="cls-43" d="M1181,190.14h-69.8a7,7,0,0,0-6.63,5.74l-7.9,51.26c-.48,3.15,2.56,7.07,5.71,7l68.95-1.29a7.15,7.15,0,0,0,6.62-5.73l9.79-50.52C1188.39,193.48,1184.19,190.14,1181,190.14Z"/><path class="cls-21" d="M1183.37,191.45h-70.55a7,7,0,0,0-6.7,5.75l-8,51.25a4.81,4.81,0,0,0,4.28,5.71h0l68.95-1.29a7.15,7.15,0,0,0,6.62-5.73l9.79-50.52c.34-1.73-.79-3.52-2.4-4.78A5.26,5.26,0,0,0,1183.37,191.45Z"/><path class="cls-42" d="M1183.13,192h-69.79a7,7,0,0,0-6.63,5.74l-7.9,51.25a4.82,4.82,0,0,0,4.86,5.74h69.79a7,7,0,0,0,6.63-5.74l7.9-51.25A4.81,4.81,0,0,0,1183.13,192Z"/><path class="cls-43" d="M1151,223.12h-12.5l7.12,45.89H1165L1151,223.12Zm-1.42,19a5.19,5.19,0,0,1,5,4.4,3.75,3.75,0,0,1-3.8,4.4,5.2,5.2,0,0,1-5-4.4A3.77,3.77,0,0,1,1149.53,242.1Z"/><polygon class="cls-42" points="1138.45 223.12 1138.29 224.57 1143.38 269 1145.57 269 1138.45 223.12"/><path class="cls-21" d="M1153.49,246.62a5.22,5.22,0,0,0-5-4.41,4.55,4.55,0,0,1,1-.11,5.19,5.19,0,0,1,5,4.4,3.75,3.75,0,0,1-3.8,4.4h0A3.75,3.75,0,0,0,1153.49,246.62Z"/><path class="cls-26" d="M1395.37,110a4.8,4.8,0,0,0,0-3.23c-2.4-1.53,1.6-16.34,12.31-18.19,23.56-4,33.16,10.56,23.51,28.75-5,8.92-.72,13.41,0,15.26-1.57.55-15.09,14.59-15.09,14.59-2.92,0-5.39-12.75-6.39-14.37l-.38-.55c-2.39-1.84-10.8,2.87-12.4,1-1.37-1.64-1.42-4.51-1.5-5.43-.1-2.8-1.12-1.88-1.35-2.45a2.17,2.17,0,0,1,.62-2.3c-.4-.39-1.58-1.29-.86-2,1-.84-.12-1.84-2.65-3.11-1.57-.77-.68-1.65-.14-2.22C1392.35,114.39,1394.73,112.28,1395.37,110Z"/><path class="cls-32" d="M1398.24,122.79l-1.11.75c-.92.63-2,1.77-3.09,1.69a2.17,2.17,0,0,1,.66-2.17l-.37-.34a4.52,4.52,0,0,0,1,.18A18.08,18.08,0,0,0,1398.24,122.79Z"/><path class="cls-32" d="M1395.06,124.86a4.19,4.19,0,0,1-1,.37l0-.11A3.58,3.58,0,0,0,1395.06,124.86Z"/><path class="cls-32" d="M1394.33,122.72a4.52,4.52,0,0,0,1,.18,18.08,18.08,0,0,0,2.94-.11s-1,.69-1.83,1.25c.07-.08.37-.44.11-.53s-1.23-.09-2.13-.15c.12-.2.25-.31.31-.3Z"/><path class="cls-32" d="M1393.63,121.41c.62-.71,1.73.41,2.39.86a2.85,2.85,0,0,0,1.87.51,4.54,4.54,0,0,0,.84-.26,5.28,5.28,0,0,1-4.13.58.19.19,0,0,1,.1,0C1394.36,122.73,1393.44,122,1393.63,121.41Z"/><path class="cls-35" d="M1394.69,123.05a5.21,5.21,0,0,0,4-.53h0a5.32,5.32,0,0,1-4.21.66q.12-.14.18-.12Z"/><path class="cls-33" d="M1394,124.81a3.46,3.46,0,0,0,1.34-.56c.6-.4-.14-.52-1.07-.63A2.49,2.49,0,0,0,1394,124.81Z"/><path class="cls-49" d="M1404.19,105.81a17.8,17.8,0,0,0-3.41-2,22.47,22.47,0,0,0-6,1.81l-.07.3.32.7.27.15c.74-.34,3.82-1.71,5.54-1.74A17.65,17.65,0,0,1,1404.19,105.81Z"/><path class="cls-21" d="M1396.61,112.58a1.69,1.69,0,0,0,.78.16c1.53,0,4.17-1.59,4-3.33a6.54,6.54,0,0,0-2.91-1.29,3.26,3.26,0,0,0-1.35.08,3.06,3.06,0,0,0-.7,1.09,3.23,3.23,0,0,0-.2,1.07A6.36,6.36,0,0,0,1396.61,112.58Z"/><path class="cls-49" d="M1397.8,108.09a3.23,3.23,0,0,1,.94,2.57,4.24,4.24,0,0,1-.41,1.93,3.28,3.28,0,0,1-.94.15,1.69,1.69,0,0,1-.78-.16,6.36,6.36,0,0,1-.37-2.22,3.23,3.23,0,0,1,.2-1.07,3.06,3.06,0,0,1,.7-1.09A3.79,3.79,0,0,1,1397.8,108.09Z"/><path class="cls-49" d="M1401.4,109.41a5.62,5.62,0,0,0-1-.82,5.23,5.23,0,0,0-1.1-.52L1399,108l-.28-.06-.28,0-.14,0h-.42l-.27,0-.13,0-.13,0-.25.07h0l0,0-.22.3-.19.34-.15.38-.11.4.19-.32.21-.3.22-.26.24-.22,0,0,.25,0,.12,0h.78l.13,0,.26,0,.27.06.26.06A10,10,0,0,1,1401.4,109.41Z"/><path class="cls-21" d="M1398.24,108.66c.29,0,.53.42.53.94s-.24.94-.53.94-.53-.42-.53-.94S1397.94,108.66,1398.24,108.66Z"/><path class="cls-34" d="M1419.74,109.54a2.37,2.37,0,0,0-1.23-2.71c-1.09-.27-2.41.49-3.38,1.81a8.36,8.36,0,0,0-1.36,4.46,2.47,2.47,0,0,1-2.09,2.2s-.83.37-.5,1,1.09-.26,1.78-.11a3.47,3.47,0,0,0,3.6-.42c2-1.26,2.73-3.64,3.06-5.42Z"/><path class="cls-33" d="M1414.61,114.86a3.8,3.8,0,0,0,.32-2.22c-.11-.72-.53-1.17,0-1.92a.72.72,0,0,1,1.23.17,2.91,2.91,0,0,1,.18,1.78c-.06.32-.14.64-.23,1,0,.14-.19.46-.15.6s.26-.21.31-.36a6.73,6.73,0,0,0,.35-1.66c.07-.92-.38-1.51-.21-2.44.38-2.09,2.15-2.43,3-1.31a6.7,6.7,0,0,1,.18,2.1c0-.06,0-.12,0-.18l.12-.84a2.37,2.37,0,0,0-1.23-2.71c-1.09-.27-2.41.49-3.38,1.81a8.36,8.36,0,0,0-1.36,4.46,2.59,2.59,0,0,1-1.37,2A1.28,1.28,0,0,0,1414.61,114.86Z"/><path class="cls-32" d="M1416.56,115.8a7.64,7.64,0,0,0,3-4.9c-1.88,4.69-5,5.43-5.77,5.55A3.36,3.36,0,0,0,1416.56,115.8Z"/><path class="cls-32" d="M1419.74,109.54a2.55,2.55,0,0,0-1.1-2.79c-.92-.45-2.14.25-3,1.11a7,7,0,0,0-1.79,3.79,7,7,0,0,1-.56,2.5,2.3,2.3,0,0,1-1.6,1.08c-.06,0-.07.14,0,.14a2.33,2.33,0,0,0,2-1.55,8.47,8.47,0,0,0,.35-2,8,8,0,0,1,.63-2.18,4.84,4.84,0,0,1,2.91-2.66c1.19-.31,2.34.68,2.16,2.57Z"/><path class="cls-26" d="M1353.31,119.76c5.84,11.07,17.62,30.21,17.62,30.21s36.08-8.57,51.83-9.05,13.9,21.81,13.9,21.81L1426,164.15c-11.57.71-58.58,5.64-64.08,2.19-5.29-4.13-10.88-26.28-14.86-38.82a35.63,35.63,0,0,1-1.22-9.85Z"/><path class="cls-45" d="M1423.88,141.88c-.32.28-4.47-3.08-19.42.77-9.34,1.59-18.36,4-18.36,4s-.49,15,4.24,20.54c5.64,1.77,22.14,2.57,22.14,2.57Z"/><path class="cls-26" d="M1400.2,290.6s-5,23.64-3.2,41.91,8.85,49.06,8.65,73.06c-1.63,6.54-14.92,26.34-14.92,26.34l11.57,2,19.33-22.7L1420,403c-.91-23,2.76-39.53,3.4-49.67s-6.67-15.2-6-26.59c.41-7.3,8.37-13.19,10.56-14.77,5.61-4.06-7.28-23.64-7.28-23.64Z"/><path class="cls-26" d="M1446.34,295.22c-.81,2-4.42,31.6-5.06,37.41,13.83,20.33,21.36,50.2,27.67,64.14a32,32,0,0,0,2.7,4.94l1.57,9L1450.7,433l-7-3.66s12.48-20.24,10.38-27.85c-4.38-15.89-32.43-52.49-36.93-60.79-2.5-4.08-1.57-21.44-1.57-21.44l.13-35.35Z"/><path class="cls-49" d="M1396.39,312.7c-.22-12.7,2.17-36.66,2.1-46.11-.11-15.68,1.67-36.9,1.67-36.9l41.87-4.53s14,24.82,14.18,39.29c.21,16.23-10.76,38.89-12.4,47.79,0,0-11.26,4.21-21.09,4.21C1416.57,316.45,1396.39,312.7,1396.39,312.7Z"/><path class="cls-50" d="M1432.93,140.46s8.74,14.07,5.59,42c-2.36,20.93,7.16,48.59,7.16,48.59s-3.89,6.15-24.48,6.28c-15.68.1-22.71-2.58-22.71-2.58s2.54-29.36,0-38.42c-2.45-8.69-12.75-12.37-9.76-22.42,4.67-15.71,21.53-29.61,21.53-29.61l10.57-1.79,4.58-1.72Z"/><path class="cls-26" d="M1411.92,145.5a30,30,0,0,0,.43-8.94c-.34-3.33-4.07-11.44-4.07-11.44l15.78-7.89,4.12,23.68A58.56,58.56,0,0,0,1411.92,145.5Z"/><path class="cls-45" d="M1432.93,140.46l-.19-3.38s-8.73-.62-13.3.92c-12.31,4.17-17.59,6.6-19.28,16.53,5.36-6.44,13.7-10,20.63-11.87A65.42,65.42,0,0,1,1432.93,140.46Z"/><path class="cls-49" d="M1444.3,428.29A32.33,32.33,0,0,0,1435,434c-.37,4.16,3.87,4.52,12.21,5.12,5.79-.46,11.45-.77,13.09-5.15s1.61-12.39,4.59-13.75,4.37-2,4.37-2l1.89,17.36H1474s-.59-15.68,2.85-24.24a12.34,12.34,0,0,0-5.31-10.21S1450,432,1444.3,428.29Z"/><path class="cls-49" d="M1392.36,428.74s-7.6,2-11.21,5.49c-.81,4.25,4.34,5.94,14.37,6.31,5.79-.47,11.45-.77,13.09-5.16s1.61-12.39,4.59-13.75,4.37-2,4.37-2V437h3.1s.64-14,4.14-23.56a13.82,13.82,0,0,0-4.81-10.59S1396.14,433.1,1392.36,428.74Z"/><path class="cls-49" d="M1420.71,84.19c16.06,2.18,21.35,13.19,21.45,22.5.12,10.84-7.73,17.53-.77,28.64-4.37,4.69-26.82,6.29-37.68-.12,0,0,5.52-17.12,3-30-6.94.08-14.15-3.55-14.22-7.11C1394.1,91,1408.24,84.18,1420.71,84.19Z"/><path class="cls-45" d="M1388,146.1a101,101,0,0,0,.6,10.53c.59,4.6,3.28,10.91,3.28,10.91H1389a49.65,49.65,0,0,1-3.33-10.93,61.13,61.13,0,0,1-.7-9.8Z"/><path class="cls-31" d="M1439.77,238.09,1411,265.86a2.85,2.85,0,0,1-4.1.34l-32.36-33.5,32.37-28.61Z"/><path class="cls-51" d="M1404.26,201.33,1374.6,230a1.9,1.9,0,0,0,0,2.71h0a1.92,1.92,0,0,0,2.71.05l29.66-28.66h0C1404.1,205.31,1402.93,204.09,1404.26,201.33Z"/><path class="cls-21" d="M1403.8,202.56,1376,229.41a1.35,1.35,0,0,0,0,1.91h0a1.35,1.35,0,0,0,1.91,0l27.79-26.85C1404.16,204.81,1403.45,204.07,1403.8,202.56Z"/><path class="cls-39" d="M1382.82,223.88l2-1.89a1.06,1.06,0,0,1,1.5,0l.06.07-2.71,2.62Z"/><path class="cls-38" d="M1384.7,222.07a3.35,3.35,0,0,0-.71,2.39l.92,10.23-2.72,2.63-.88-9.73a4.43,4.43,0,0,1,.93-3.15Z"/><path class="cls-26" d="M1437,163.82s11.18,37.19,12.37,46.36c.45,3.44.91,6.19-2.48,10.73-4.15,5.57-9.84,9.26-18.69,15.33-6.4,4.4-10.87,6.89-16.06,10.39-5.57,3.76-10.71,9.53-13.57,11.08-5.53,3-6.9,2-10.48-2.9-4.23-5.79-2-6.64,1.44-9.35,1.82-1.44.53-2.77-.78-3.3-2.22-.89-2.48-2.43-3-3.63-1-2.37,3.85.82,9.3,1.93,3.17.64,5.43.42,7.08-.46,3.55-1.89,9.36-8.62,12.16-11.78,3.91-4.39,15.62-18.54,15.62-18.54l-14.29-37.25Z"/><path class="cls-45" d="M1413.7,150.11c13.69-11.54,24.64-1.81,26.19,5.72,1.18,5.71,2.86,23,2.86,23l-23.9,5.14s-6-12.42-7.9-19.72S1411,152.43,1413.7,150.11Z"/><path class="cls-45" d="M1442.54,176.78l.33,3.12s-6.61,2.28-11.73,3.72-10.9,2.67-10.9,2.67l-1.89-3.19Z"/><path class="cls-26" d="M1347.85,127.58c-.84-1.15-1.54-2.21-1.81-5.52a71.13,71.13,0,0,0-1.52-9.53,19.6,19.6,0,0,1-.67-2.89c-.45-1.1-1.78-4.34-2.2-5.1-.51-.93-.42-1.66-1.15-3.42s-1.73-3.92-1.31-4.43,1.56,0,2.28.71,1.84,4,3,5.64c.69,1,1.4,1.9,1.87,2.47,1.45-1.58,3-3.21,3-3.21l2.81-.86.32,1.62c.27,1.65-.18,1.24,1.22,2.78s1.48,2.11,2.78,1.78,2.81-2.43,4.91-3.59,4.15-1.72,4.59-.8.49,1.24-1.12,2.71-5,3.71-5.83,5-.32,2.81-1.85,4.64-2.54,3-2.54,3a2.67,2.67,0,0,0-.14,2.51,28.51,28.51,0,0,1,.93,3.17,4.48,4.48,0,0,1-1.72,2.43C1351.54,128.37,1348.7,128.72,1347.85,127.58Z"/><path class="cls-26" d="M1357.22,91.21c.58-.3.8.86.5,1.59-.74,1.83-5.3,5.39-5.3,5.39-.76,1.3-3.38-.48-3.38-.48S1354.9,92.42,1357.22,91.21Z"/><path class="cls-26" d="M1352.15,96.9a17.1,17.1,0,0,1,5.18-2c2-.24,4.22-.39,4.16.3a2.67,2.67,0,0,1-1.67,2.24,28.59,28.59,0,0,1-4.8,1,17.37,17.37,0,0,0-2.89,3.59,10.8,10.8,0,0,1-2.77.81c-.54-.12-.6-.36-.62-1.21A6.21,6.21,0,0,1,1352.15,96.9Z"/><path class="cls-29" d="M1349.78,102.62a10,10,0,0,0,2-1.15,14.92,14.92,0,0,1,2.75-3.63s.9.39,4.78-.77a3,3,0,0,0,1.87-2.22c.14,0,.42.14.4.36a2.71,2.71,0,0,1-1.67,2.25,29.35,29.35,0,0,1-4.8,1,17.56,17.56,0,0,0-2.9,3.59,10.41,10.41,0,0,1-2.77.81C1349,102.81,1349.44,102.7,1349.78,102.62Z"/><path class="cls-26" d="M1354.31,91.78c.52-.28,1.18.35,1,1.15s-1.59,2.17-3,3.66-1.84,1.81-2.11,2.91c-.34,1.35-.28,2.83-.65,3.6-1,2-3.81,2.86-3.81,2.86-.47.05-.28-5.17,1.18-7.16S1352.54,92.73,1354.31,91.78Z"/><path class="cls-29" d="M1348.92,102.64c.37-.77.21-3,.27-3.25.16-.65,1.32-1.65,2.7-3.14s2.73-2.72,2.9-3.52a1.7,1.7,0,0,0-.06-1c.38,0,.8.44.64,1.16s-1.58,2.17-3,3.66-1.84,1.81-2.11,2.91c-.34,1.35-.27,2.82-.65,3.59a5,5,0,0,1-2.83,2.53c-.1,0-.23,0-.19,0C1347.49,105.16,1348.22,104.1,1348.92,102.64Z"/><path class="cls-29" d="M1356.33,93.89a4.82,4.82,0,0,0,1.1-1.93,1.54,1.54,0,0,0,0-.74l0,0c.34-.07.51.38.53.64a4.84,4.84,0,0,1-1.85,3.33c-.33.07-1.79.42-2.11.51A13.79,13.79,0,0,0,1356.33,93.89Z"/><path class="cls-29" d="M1346.07,122.15a71.1,71.1,0,0,0-1.53-9.53,19.52,19.52,0,0,1-.66-2.89c-.46-1.1-1.78-4.34-2.21-5.1a3.59,3.59,0,0,1-.3-.71h.07l0,.17a8.31,8.31,0,0,1,1,1.7,12.29,12.29,0,0,0,1.42,2,5.06,5.06,0,0,1,.74.72,2.67,2.67,0,0,1,.12.91c.1.74.3,1.47.47,2.2.43,1.82.68,3.69,1.23,5.49a6.78,6.78,0,0,0,2,3.51c.17.62-1.66-.53-2,.08s.13,1.6.09,2.19c0,.32.06,1.42-.31,1.4A16.43,16.43,0,0,1,1346.07,122.15Z"/><path class="cls-29" d="M1348.18,108.34c.52-.45,1.28-.43,1.71-1,.64-.85,1.22-2,2.18-2.43l-.1.08c-.8.7-1,1.73-1.65,2.46-.43.45-1,.73-1.51,1.15a8.13,8.13,0,0,0-.9,1.15C1347.41,109.37,1347.82,108.65,1348.18,108.34Z"/><path class="cls-52" d="M1357,115.91l-.07.06,0-.06S1357,115.87,1357,115.91Z"/><path class="cls-29" d="M1352.05,120c.15-.11.42-.07.6-.17a3.73,3.73,0,0,0,.57-.41,10.81,10.81,0,0,0,1.31-1.31c.32-.36.65-.72,1-1.07a6.42,6.42,0,0,1,1-.8,2.88,2.88,0,0,0,.33-.28,3.71,3.71,0,0,1-.83.9,6.29,6.29,0,0,0-1,1.27c-.6.85-1.12,1.87-2.29,2C1352.57,120.2,1352.19,120.21,1352.05,120Z"/><path class="cls-52" d="M1356.93,115.89v0h0Z"/></g></svg>