<svg xmlns="http://www.w3.org/2000/svg" viewBox="0 0 173.28 190.59"><defs><style>.cls-1{isolation:isolate;}.cls-2,.cls-8{fill:#fff;}.cls-2{opacity:0.2;mix-blend-mode:screen;}.cls-3{fill:#b58527;}.cls-4{fill:#f5c02b;}.cls-5{fill:#b89020;}.cls-5,.cls-6{opacity:0.5;}.cls-6{fill:#f7d085;}.cls-7{fill:#f8d47b;}.cls-9{fill:#2a294e;}.cls-10{fill:#555471;}.cls-11{fill:#02275e;}.cls-12{fill:#eaeff5;}.cls-13{fill:#02336d;}.cls-14,.cls-48{fill:#001e50;}.cls-15{fill:#ffb200;}.cls-16{fill:#d1dafd;}.cls-17{fill:#4268f9;}.cls-18{fill:#a26604;}.cls-19{fill:#6886fa;}.cls-20{fill:#063d76;}.cls-21{fill:#eabbab;}.cls-22{fill:#151527;}.cls-23{fill:#201f3b;}.cls-24{fill:#202a46;}.cls-25{fill:#dee5fe;}.cls-26{fill:#112f41;}.cls-27{fill:#8ca2fb;}.cls-28{fill:#d7dadb;}.cls-29{fill:#f5c15d;}.cls-30{fill:#bfcbfe;}.cls-31{fill:#5f7dfc;}.cls-32{fill:#9fb1fd;}.cls-33{fill:#7f97fd;}.cls-34{fill:#475ebd;}.cls-35{fill:#acbdfc;}.cls-36{fill:#fdf3fd;}.cls-37{fill:#fffeff;}.cls-38{fill:#f7c8b3;}.cls-39{fill:#ef5a29;opacity:0.25;}.cls-40{fill:#2c1c28;}.cls-41{fill:#bb7871;}.cls-42{fill:#697abc;}.cls-43{fill:#e6a38c;}.cls-44{fill:#eef2fe;}.cls-45{fill:#e69a06;}.cls-46{opacity:0.3;}.cls-47{fill:#46517e;}.cls-48{font-size:7.36px;font-family:MyriadPro-Regular, Myriad Pro;}.cls-49{letter-spacing:-0.05em;}.cls-50{letter-spacing:0em;}.cls-51{letter-spacing:0em;}.cls-52{letter-spacing:-0.01em;}.cls-53{letter-spacing:-0.01em;}.cls-54{fill:none;stroke:#001e50;stroke-miterlimit:10;stroke-width:0.25px;}</style></defs><g class="cls-1"><g id="Layer_2" data-name="Layer 2"><g id="Layer_2-2" data-name="Layer 2"><ellipse class="cls-2" cx="86.64" cy="175.24" rx="86.64" ry="15.36"/><path class="cls-3" d="M47.68,167.69c0,1.6-6,2.91-13.44,2.91s-13.44-1.31-13.44-2.91v-2.9H47.68Z"/><path class="cls-4" d="M47.68,167.06c0,1.61-6,2.92-13.44,2.92s-13.44-1.31-13.44-2.92v-2.89H47.68Z"/><path class="cls-5" d="M28.76,164.17h-8v2.89c0,1.19,3.27,2.21,8,2.66Z"/><path class="cls-6" d="M35.94,164.17V170a40.49,40.49,0,0,0,8.57-1v-4.77Z"/><ellipse class="cls-7" cx="34.24" cy="164.17" rx="13.44" ry="2.91"/><path class="cls-4" d="M45,164.17c0,1-4.81,1.78-10.75,1.78s-10.76-.8-10.76-1.78,4.82-1.77,10.76-1.77S45,163.19,45,164.17Z"/><path class="cls-3" d="M47.68,163.61c0,1.61-6,2.91-13.44,2.91s-13.44-1.3-13.44-2.91v-2.89H47.68Z"/><path class="cls-4" d="M47.68,163c0,1.61-6,2.92-13.44,2.92S20.8,164.59,20.8,163v-2.89H47.68Z"/><path class="cls-5" d="M28.76,160.09h-8V163c0,1.19,3.27,2.21,8,2.67Z"/><path class="cls-6" d="M35.94,160.09v5.78a40.49,40.49,0,0,0,8.57-1v-4.77Z"/><ellipse class="cls-7" cx="34.24" cy="160.09" rx="13.44" ry="2.91"/><path class="cls-4" d="M45,160.09c0,1-4.81,1.78-10.75,1.78s-10.76-.8-10.76-1.78,4.82-1.77,10.76-1.77S45,159.11,45,160.09Z"/><path class="cls-3" d="M47.68,159.53c0,1.61-6,2.91-13.44,2.91s-13.44-1.3-13.44-2.91v-2.89H47.68Z"/><path class="cls-4" d="M47.68,158.9c0,1.61-6,2.92-13.44,2.92S20.8,160.51,20.8,158.9V156H47.68Z"/><path class="cls-5" d="M28.76,156h-8v2.89c0,1.19,3.27,2.21,8,2.67Z"/><path class="cls-6" d="M35.94,156v5.79a41.85,41.85,0,0,0,8.57-1V156Z"/><ellipse class="cls-7" cx="34.24" cy="156.01" rx="13.44" ry="2.91"/><ellipse class="cls-4" cx="34.24" cy="156.01" rx="10.75" ry="1.77"/><path class="cls-3" d="M47.68,155.45c0,1.61-6,2.91-13.44,2.91s-13.44-1.3-13.44-2.91v-2.89H47.68Z"/><path class="cls-4" d="M47.68,154.83c0,1.61-6,2.91-13.44,2.91s-13.44-1.3-13.44-2.91v-2.89H47.68Z"/><path class="cls-5" d="M28.76,151.94h-8v2.89c0,1.18,3.27,2.2,8,2.66Z"/><path class="cls-6" d="M35.94,151.94v5.78a41.85,41.85,0,0,0,8.57-1v-4.77Z"/><ellipse class="cls-7" cx="34.24" cy="151.94" rx="13.44" ry="2.91"/><ellipse class="cls-4" cx="34.24" cy="151.94" rx="10.75" ry="1.77"/><path class="cls-3" d="M47.68,151.37c0,1.61-6,2.91-13.44,2.91S20.8,153,20.8,151.37v-2.89H47.68Z"/><path class="cls-4" d="M47.68,150.75c0,1.61-6,2.91-13.44,2.91s-13.44-1.3-13.44-2.91v-2.89H47.68Z"/><path class="cls-5" d="M28.76,147.86h-8v2.89c0,1.18,3.27,2.2,8,2.66Z"/><path class="cls-6" d="M35.94,147.86v5.78a41.85,41.85,0,0,0,8.57-1v-4.77Z"/><ellipse class="cls-7" cx="34.24" cy="147.86" rx="13.44" ry="2.91"/><ellipse class="cls-4" cx="34.24" cy="147.86" rx="10.75" ry="1.77"/><path class="cls-3" d="M47.68,147.29c0,1.61-6,2.92-13.44,2.92S20.8,148.9,20.8,147.29V144.4H47.68Z"/><path class="cls-4" d="M47.68,146.67c0,1.61-6,2.91-13.44,2.91s-13.44-1.3-13.44-2.91v-2.89H47.68Z"/><path class="cls-5" d="M28.76,143.78h-8v2.89c0,1.19,3.27,2.21,8,2.66Z"/><path class="cls-6" d="M35.94,143.78v5.78a41.16,41.16,0,0,0,8.57-1v-4.77Z"/><ellipse class="cls-7" cx="34.24" cy="143.78" rx="13.44" ry="2.91"/><ellipse class="cls-4" cx="34.24" cy="143.78" rx="10.75" ry="1.77"/><path class="cls-3" d="M47.68,143.21c0,1.61-6,2.92-13.44,2.92s-13.44-1.31-13.44-2.92v-2.89H47.68Z"/><path class="cls-4" d="M47.68,142.59c0,1.61-6,2.91-13.44,2.91s-13.44-1.3-13.44-2.91V139.7H47.68Z"/><path class="cls-5" d="M28.76,139.7h-8v2.89c0,1.19,3.27,2.21,8,2.66Z"/><path class="cls-6" d="M35.94,139.7v5.78a41.16,41.16,0,0,0,8.57-1V139.7Z"/><ellipse class="cls-7" cx="34.24" cy="139.7" rx="13.44" ry="2.91"/><ellipse class="cls-4" cx="34.24" cy="139.7" rx="10.75" ry="1.77"/><path class="cls-3" d="M47.68,139.13c0,1.61-6,2.92-13.44,2.92s-13.44-1.31-13.44-2.92v-2.89H47.68Z"/><path class="cls-4" d="M47.68,138.51c0,1.61-6,2.92-13.44,2.92s-13.44-1.31-13.44-2.92v-2.89H47.68Z"/><path class="cls-5" d="M28.76,135.62h-8v2.89c0,1.19,3.27,2.21,8,2.66Z"/><path class="cls-6" d="M35.94,135.62v5.78a40.49,40.49,0,0,0,8.57-1v-4.77Z"/><ellipse class="cls-7" cx="34.24" cy="135.62" rx="13.44" ry="2.91"/><ellipse class="cls-4" cx="34.24" cy="135.62" rx="10.75" ry="1.77"/><path class="cls-3" d="M47.68,135.06c0,1.61-6,2.91-13.44,2.91s-13.44-1.3-13.44-2.91v-2.9H47.68Z"/><path class="cls-4" d="M47.68,134.43c0,1.61-6,2.92-13.44,2.92S20.8,136,20.8,134.43v-2.89H47.68Z"/><path class="cls-5" d="M28.76,131.54h-8v2.89c0,1.19,3.27,2.21,8,2.66Z"/><path class="cls-6" d="M35.94,131.54v5.78a40.49,40.49,0,0,0,8.57-1v-4.77Z"/><ellipse class="cls-7" cx="34.24" cy="131.54" rx="13.44" ry="2.91"/><ellipse class="cls-4" cx="34.24" cy="131.54" rx="10.75" ry="1.77"/><path class="cls-3" d="M47.68,131c0,1.61-6,2.91-13.44,2.91S20.8,132.59,20.8,131v-2.89H47.68Z"/><path class="cls-4" d="M47.68,130.35c0,1.61-6,2.92-13.44,2.92S20.8,132,20.8,130.35v-2.89H47.68Z"/><path class="cls-5" d="M28.76,127.46h-8v2.89c0,1.19,3.27,2.21,8,2.67Z"/><path class="cls-6" d="M35.94,127.46v5.78a40.49,40.49,0,0,0,8.57-1v-4.77Z"/><ellipse class="cls-7" cx="34.24" cy="127.46" rx="13.44" ry="2.91"/><ellipse class="cls-4" cx="34.24" cy="127.46" rx="10.75" ry="1.77"/><path class="cls-3" d="M68.8,170.26c0,1.61-6,2.91-13.45,2.91s-13.44-1.3-13.44-2.91v-2.89H68.8Z"/><path class="cls-4" d="M68.8,169.64c0,1.61-6,2.91-13.45,2.91s-13.44-1.3-13.44-2.91v-2.89H68.8Z"/><path class="cls-5" d="M49.87,166.75h-8v2.89c0,1.18,3.27,2.2,8,2.66Z"/><path class="cls-6" d="M57.05,166.75v5.78a41.76,41.76,0,0,0,8.57-1v-4.77Z"/><ellipse class="cls-7" cx="55.35" cy="166.75" rx="13.44" ry="2.91"/><ellipse class="cls-4" cx="55.35" cy="166.75" rx="10.75" ry="1.77"/><path class="cls-3" d="M68.8,166.18c0,1.61-6,2.92-13.45,2.92s-13.44-1.31-13.44-2.92v-2.89H68.8Z"/><path class="cls-4" d="M68.8,165.56c0,1.61-6,2.91-13.45,2.91s-13.44-1.3-13.44-2.91v-2.89H68.8Z"/><path class="cls-5" d="M49.87,162.67h-8v2.89c0,1.18,3.27,2.21,8,2.66Z"/><path class="cls-6" d="M57.05,162.67v5.78a41.07,41.07,0,0,0,8.57-1v-4.77Z"/><ellipse class="cls-7" cx="55.35" cy="162.67" rx="13.44" ry="2.91"/><ellipse class="cls-4" cx="55.35" cy="162.67" rx="10.75" ry="1.77"/><path class="cls-3" d="M68.8,162.1c0,1.61-6,2.92-13.45,2.92s-13.44-1.31-13.44-2.92v-2.89H68.8Z"/><path class="cls-4" d="M68.8,161.48c0,1.61-6,2.91-13.45,2.91s-13.44-1.3-13.44-2.91v-2.89H68.8Z"/><path class="cls-5" d="M49.87,158.59h-8v2.89c0,1.19,3.27,2.21,8,2.66Z"/><path class="cls-6" d="M57.05,158.59v5.78a41.07,41.07,0,0,0,8.57-1v-4.77Z"/><ellipse class="cls-7" cx="55.35" cy="158.59" rx="13.44" ry="2.91"/><ellipse class="cls-4" cx="55.35" cy="158.59" rx="10.75" ry="1.77"/><path class="cls-3" d="M68.8,158c0,1.61-6,2.92-13.45,2.92S41.91,159.63,41.91,158v-2.89H68.8Z"/><path class="cls-4" d="M68.8,157.4c0,1.61-6,2.92-13.45,2.92S41.91,159,41.91,157.4v-2.89H68.8Z"/><path class="cls-5" d="M49.87,154.51h-8v2.89c0,1.19,3.27,2.21,8,2.66Z"/><path class="cls-6" d="M57.05,154.51v5.78a40.4,40.4,0,0,0,8.57-1v-4.77Z"/><ellipse class="cls-7" cx="55.35" cy="154.51" rx="13.44" ry="2.91"/><ellipse class="cls-4" cx="55.35" cy="154.51" rx="10.75" ry="1.77"/><path class="cls-3" d="M68.8,153.94c0,1.61-6,2.92-13.45,2.92s-13.44-1.31-13.44-2.92v-2.89H68.8Z"/><path class="cls-4" d="M68.8,153.32c0,1.61-6,2.92-13.45,2.92s-13.44-1.31-13.44-2.92v-2.89H68.8Z"/><path class="cls-5" d="M49.87,150.43h-8v2.89c0,1.19,3.27,2.21,8,2.66Z"/><path class="cls-6" d="M57.05,150.43v5.78a40.4,40.4,0,0,0,8.57-1v-4.77Z"/><ellipse class="cls-7" cx="55.35" cy="150.43" rx="13.44" ry="2.91"/><ellipse class="cls-4" cx="55.35" cy="150.43" rx="10.75" ry="1.77"/><path class="cls-3" d="M68.8,149.87c0,1.61-6,2.91-13.45,2.91s-13.44-1.3-13.44-2.91V147H68.8Z"/><path class="cls-4" d="M68.8,149.24c0,1.61-6,2.92-13.45,2.92s-13.44-1.31-13.44-2.92v-2.89H68.8Z"/><path class="cls-5" d="M49.87,146.35h-8v2.89c0,1.19,3.27,2.21,8,2.67Z"/><path class="cls-6" d="M57.05,146.35v5.78a40.4,40.4,0,0,0,8.57-1v-4.77Z"/><ellipse class="cls-7" cx="55.35" cy="146.35" rx="13.44" ry="2.91"/><ellipse class="cls-4" cx="55.35" cy="146.35" rx="10.75" ry="1.77"/><path class="cls-3" d="M68.8,145.79c0,1.61-6,2.91-13.45,2.91s-13.44-1.3-13.44-2.91V142.9H68.8Z"/><path class="cls-4" d="M68.8,145.16c0,1.61-6,2.92-13.45,2.92s-13.44-1.31-13.44-2.92v-2.89H68.8Z"/><path class="cls-5" d="M49.87,142.27h-8v2.89c0,1.19,3.27,2.21,8,2.67Z"/><path class="cls-6" d="M57.05,142.27v5.79a41.76,41.76,0,0,0,8.57-1v-4.78Z"/><ellipse class="cls-7" cx="55.35" cy="142.27" rx="13.44" ry="2.91"/><ellipse class="cls-4" cx="55.35" cy="142.27" rx="10.75" ry="1.77"/><path class="cls-3" d="M68.8,141.71c0,1.61-6,2.91-13.45,2.91s-13.44-1.3-13.44-2.91v-2.89H68.8Z"/><path class="cls-4" d="M68.8,141.09c0,1.61-6,2.91-13.45,2.91s-13.44-1.3-13.44-2.91V138.2H68.8Z"/><path class="cls-5" d="M49.87,138.2h-8v2.89c0,1.18,3.27,2.2,8,2.66Z"/><path class="cls-6" d="M57.05,138.2V144a41.76,41.76,0,0,0,8.57-1V138.2Z"/><ellipse class="cls-7" cx="55.35" cy="138.2" rx="13.44" ry="2.91"/><ellipse class="cls-4" cx="55.35" cy="138.2" rx="10.75" ry="1.77"/><path class="cls-3" d="M68.8,137.63c0,1.61-6,2.91-13.45,2.91s-13.44-1.3-13.44-2.91v-2.89H68.8Z"/><path class="cls-4" d="M68.8,137c0,1.61-6,2.91-13.45,2.91s-13.44-1.3-13.44-2.91v-2.89H68.8Z"/><path class="cls-5" d="M49.87,134.12h-8V137c0,1.18,3.27,2.2,8,2.66Z"/><path class="cls-6" d="M57.05,134.12v5.78a41.76,41.76,0,0,0,8.57-1v-4.77Z"/><ellipse class="cls-7" cx="55.35" cy="134.12" rx="13.44" ry="2.91"/><ellipse class="cls-4" cx="55.35" cy="134.12" rx="10.75" ry="1.77"/><path class="cls-3" d="M68.8,133.55c0,1.61-6,2.92-13.45,2.92s-13.44-1.31-13.44-2.92v-2.89H68.8Z"/><path class="cls-4" d="M68.8,132.93c0,1.61-6,2.91-13.45,2.91s-13.44-1.3-13.44-2.91V130H68.8Z"/><path class="cls-5" d="M49.87,130h-8v2.89c0,1.19,3.27,2.21,8,2.66Z"/><path class="cls-6" d="M57.05,130v5.78a41.07,41.07,0,0,0,8.57-1V130Z"/><ellipse class="cls-7" cx="55.35" cy="130.04" rx="13.44" ry="2.91"/><ellipse class="cls-4" cx="55.35" cy="130.04" rx="10.75" ry="1.77"/><path class="cls-3" d="M68.8,129.32c0,1.61-6,2.92-13.45,2.92s-13.44-1.31-13.44-2.92v-2.89H68.8Z"/><path class="cls-4" d="M68.8,128.7c0,1.61-6,2.91-13.45,2.91s-13.44-1.3-13.44-2.91v-2.89H68.8Z"/><path class="cls-5" d="M49.87,125.81h-8v2.89c0,1.19,3.27,2.21,8,2.66Z"/><path class="cls-6" d="M57.05,125.81v5.78a41.07,41.07,0,0,0,8.57-1v-4.77Z"/><ellipse class="cls-7" cx="55.35" cy="125.81" rx="13.44" ry="2.91"/><path class="cls-4" d="M66.11,125.81c0,1-4.82,1.77-10.76,1.77s-10.75-.79-10.75-1.77S49.41,124,55.35,124,66.11,124.83,66.11,125.81Z"/><path class="cls-3" d="M68.8,125.24c0,1.61-6,2.92-13.45,2.92s-13.44-1.31-13.44-2.92v-2.89H68.8Z"/><path class="cls-4" d="M68.8,124.62c0,1.61-6,2.91-13.45,2.91s-13.44-1.3-13.44-2.91v-2.89H68.8Z"/><path class="cls-5" d="M49.87,121.73h-8v2.89c0,1.19,3.27,2.21,8,2.66Z"/><path class="cls-6" d="M57.05,121.73v5.78a41.07,41.07,0,0,0,8.57-1v-4.77Z"/><ellipse class="cls-7" cx="55.35" cy="121.73" rx="13.44" ry="2.91"/><path class="cls-4" d="M66.11,121.73c0,1-4.82,1.77-10.76,1.77s-10.75-.79-10.75-1.77S49.41,120,55.35,120,66.11,120.75,66.11,121.73Z"/><path class="cls-3" d="M68.8,121.16c0,1.61-6,2.92-13.45,2.92s-13.44-1.31-13.44-2.92v-2.89H68.8Z"/><path class="cls-4" d="M68.8,120.54c0,1.61-6,2.92-13.45,2.92s-13.44-1.31-13.44-2.92v-2.89H68.8Z"/><path class="cls-5" d="M49.87,117.65h-8v2.89c0,1.19,3.27,2.21,8,2.66Z"/><path class="cls-6" d="M57.05,117.65v5.78a40.4,40.4,0,0,0,8.57-1v-4.77Z"/><ellipse class="cls-7" cx="55.35" cy="117.65" rx="13.44" ry="2.91"/><path class="cls-4" d="M66.11,117.65c0,1-4.82,1.77-10.76,1.77s-10.75-.79-10.75-1.77,4.81-1.77,10.75-1.77S66.11,116.67,66.11,117.65Z"/><path class="cls-3" d="M68.8,117.09c0,1.61-6,2.91-13.45,2.91s-13.44-1.3-13.44-2.91v-2.9H68.8Z"/><path class="cls-4" d="M68.8,116.46c0,1.61-6,2.92-13.45,2.92s-13.44-1.31-13.44-2.92v-2.89H68.8Z"/><path class="cls-5" d="M49.87,113.57h-8v2.89c0,1.19,3.27,2.21,8,2.66Z"/><path class="cls-6" d="M57.05,113.57v5.78a40.4,40.4,0,0,0,8.57-1v-4.77Z"/><ellipse class="cls-7" cx="55.35" cy="113.57" rx="13.44" ry="2.91"/><path class="cls-4" d="M66.11,113.57c0,1-4.82,1.78-10.76,1.78s-10.75-.8-10.75-1.78,4.81-1.77,10.75-1.77S66.11,112.59,66.11,113.57Z"/><path class="cls-3" d="M68.8,113c0,1.61-6,2.91-13.45,2.91s-13.44-1.3-13.44-2.91v-2.89H68.8Z"/><path class="cls-4" d="M68.8,112.38c0,1.61-6,2.92-13.45,2.92S41.91,114,41.91,112.38v-2.89H68.8Z"/><path class="cls-5" d="M49.87,109.49h-8v2.89c0,1.19,3.27,2.21,8,2.67Z"/><path class="cls-6" d="M57.05,109.49v5.78a40.4,40.4,0,0,0,8.57-1v-4.77Z"/><ellipse class="cls-7" cx="55.35" cy="109.49" rx="13.44" ry="2.91"/><path class="cls-4" d="M66.11,109.49c0,1-4.82,1.78-10.76,1.78s-10.75-.8-10.75-1.78,4.81-1.77,10.75-1.77S66.11,108.51,66.11,109.49Z"/><path class="cls-3" d="M68.8,108.93c0,1.61-6,2.91-13.45,2.91s-13.44-1.3-13.44-2.91V106H68.8Z"/><path class="cls-4" d="M68.8,108.3c0,1.61-6,2.92-13.45,2.92s-13.44-1.31-13.44-2.92v-2.89H68.8Z"/><path class="cls-5" d="M49.87,105.41h-8v2.89c0,1.19,3.27,2.21,8,2.67Z"/><path class="cls-6" d="M57.05,105.41v5.79a41.76,41.76,0,0,0,8.57-1v-4.78Z"/><ellipse class="cls-7" cx="55.35" cy="105.41" rx="13.44" ry="2.91"/><path class="cls-4" d="M66.11,105.41c0,1-4.82,1.78-10.76,1.78s-10.75-.8-10.75-1.78,4.81-1.77,10.75-1.77S66.11,104.43,66.11,105.41Z"/><path class="cls-3" d="M68.8,104.85c0,1.61-6,2.91-13.45,2.91s-13.44-1.3-13.44-2.91V102H68.8Z"/><path class="cls-4" d="M68.8,104.23c0,1.61-6,2.91-13.45,2.91s-13.44-1.3-13.44-2.91v-2.89H68.8Z"/><path class="cls-5" d="M49.87,101.34h-8v2.89c0,1.18,3.27,2.2,8,2.66Z"/><path class="cls-6" d="M57.05,101.34v5.78a41.76,41.76,0,0,0,8.57-1v-4.77Z"/><path class="cls-7" d="M68.8,101.34c0,1.61-6,2.91-13.45,2.91s-13.44-1.3-13.44-2.91,6-2.92,13.44-2.92S68.8,99.73,68.8,101.34Z"/><path class="cls-4" d="M66.11,101.34c0,1-4.82,1.77-10.76,1.77s-10.75-.79-10.75-1.77,4.81-1.78,10.75-1.78S66.11,100.36,66.11,101.34Z"/><path class="cls-3" d="M68.8,100.77c0,1.61-6,2.92-13.45,2.92s-13.44-1.31-13.44-2.92V97.88H68.8Z"/><path class="cls-4" d="M68.8,100.15c0,1.61-6,2.91-13.45,2.91s-13.44-1.3-13.44-2.91V97.26H68.8Z"/><path class="cls-5" d="M49.87,97.26h-8v2.89c0,1.18,3.27,2.2,8,2.66Z"/><path class="cls-6" d="M57.05,97.26V103a41.76,41.76,0,0,0,8.57-1V97.26Z"/><path class="cls-7" d="M68.8,97.26c0,1.61-6,2.91-13.45,2.91s-13.44-1.3-13.44-2.91,6-2.92,13.44-2.92S68.8,95.65,68.8,97.26Z"/><path class="cls-4" d="M66.11,97.26c0,1-4.82,1.77-10.76,1.77S44.6,98.24,44.6,97.26s4.81-1.78,10.75-1.78S66.11,96.28,66.11,97.26Z"/><path class="cls-3" d="M68.8,96.69c0,1.61-6,2.92-13.45,2.92S41.91,98.3,41.91,96.69V93.8H68.8Z"/><path class="cls-4" d="M68.8,96.07c0,1.61-6,2.91-13.45,2.91s-13.44-1.3-13.44-2.91V93.18H68.8Z"/><path class="cls-5" d="M49.87,93.18h-8v2.89c0,1.19,3.27,2.21,8,2.66Z"/><path class="cls-6" d="M57.05,93.18V99a41.07,41.07,0,0,0,8.57-1V93.18Z"/><ellipse class="cls-7" cx="55.35" cy="93.18" rx="13.44" ry="2.91"/><path class="cls-4" d="M66.11,93.18c0,1-4.82,1.77-10.76,1.77S44.6,94.16,44.6,93.18s4.81-1.78,10.75-1.78S66.11,92.2,66.11,93.18Z"/><path class="cls-3" d="M68.8,92.61c0,1.61-6,2.92-13.45,2.92s-13.44-1.31-13.44-2.92V89.72H68.8Z"/><path class="cls-4" d="M68.8,92c0,1.61-6,2.91-13.45,2.91S41.91,93.6,41.91,92V89.1H68.8Z"/><path class="cls-5" d="M49.87,89.1h-8V92c0,1.19,3.27,2.21,8,2.66Z"/><path class="cls-6" d="M57.05,89.1v5.78a41.07,41.07,0,0,0,8.57-1V89.1Z"/><ellipse class="cls-7" cx="55.35" cy="89.1" rx="13.44" ry="2.91"/><path class="cls-4" d="M66.11,89.1c0,1-4.82,1.77-10.76,1.77S44.6,90.08,44.6,89.1s4.81-1.77,10.75-1.77S66.11,88.12,66.11,89.1Z"/><path class="cls-3" d="M138.6,175.77c0,1.61-6,2.92-13.45,2.92s-13.44-1.31-13.44-2.92v-2.89H138.6Z"/><path class="cls-4" d="M138.6,175.15c0,1.61-6,2.92-13.45,2.92s-13.44-1.31-13.44-2.92v-2.89H138.6Z"/><path class="cls-5" d="M119.68,172.26h-8v2.89c0,1.19,3.27,2.21,8,2.66Z"/><path class="cls-6" d="M126.85,172.26V178a40.32,40.32,0,0,0,8.57-1v-4.77Z"/><ellipse class="cls-7" cx="125.15" cy="172.26" rx="13.44" ry="2.91"/><ellipse class="cls-4" cx="125.15" cy="172.26" rx="10.75" ry="1.77"/><path class="cls-3" d="M138.6,171.7c0,1.61-6,2.91-13.45,2.91s-13.44-1.3-13.44-2.91v-2.89H138.6Z"/><path class="cls-4" d="M138.6,171.07c0,1.61-6,2.92-13.45,2.92s-13.44-1.31-13.44-2.92v-2.89H138.6Z"/><path class="cls-5" d="M119.68,168.18h-8v2.89c0,1.19,3.27,2.21,8,2.66Z"/><path class="cls-6" d="M126.85,168.18V174a40.32,40.32,0,0,0,8.57-1v-4.77Z"/><ellipse class="cls-7" cx="125.15" cy="168.18" rx="13.44" ry="2.91"/><ellipse class="cls-4" cx="125.15" cy="168.18" rx="10.75" ry="1.77"/><path class="cls-3" d="M138.6,167.62c0,1.61-6,2.91-13.45,2.91s-13.44-1.3-13.44-2.91v-2.89H138.6Z"/><path class="cls-4" d="M138.6,167c0,1.61-6,2.92-13.45,2.92s-13.44-1.31-13.44-2.92V164.1H138.6Z"/><path class="cls-5" d="M119.68,164.1h-8V167c0,1.19,3.27,2.21,8,2.67Z"/><path class="cls-6" d="M126.85,164.1v5.79a40.9,40.9,0,0,0,8.57-1V164.1Z"/><ellipse class="cls-7" cx="125.15" cy="164.1" rx="13.44" ry="2.91"/><ellipse class="cls-4" cx="125.15" cy="164.1" rx="10.75" ry="1.77"/><path class="cls-3" d="M138.6,163.54c0,1.61-6,2.91-13.45,2.91s-13.44-1.3-13.44-2.91v-2.89H138.6Z"/><path class="cls-4" d="M138.6,162.92c0,1.61-6,2.91-13.45,2.91s-13.44-1.3-13.44-2.91V160H138.6Z"/><path class="cls-5" d="M119.68,160h-8v2.89c0,1.18,3.27,2.2,8,2.66Z"/><path class="cls-6" d="M126.85,160v5.78a41.67,41.67,0,0,0,8.57-1V160Z"/><ellipse class="cls-7" cx="125.15" cy="160.03" rx="13.44" ry="2.91"/><ellipse class="cls-4" cx="125.15" cy="160.03" rx="10.75" ry="1.77"/><path class="cls-3" d="M157.62,177.32c0,1.61-6,2.91-13.44,2.91s-13.45-1.3-13.45-2.91v-2.89h26.89Z"/><path class="cls-4" d="M157.62,176.7c0,1.61-6,2.91-13.44,2.91s-13.45-1.3-13.45-2.91v-2.89h26.89Z"/><path class="cls-5" d="M138.7,173.81h-8v2.89c0,1.18,3.28,2.2,8,2.66Z"/><path class="cls-6" d="M145.88,173.81v5.78a41.85,41.85,0,0,0,8.57-1v-4.77Z"/><ellipse class="cls-7" cx="144.18" cy="173.81" rx="13.44" ry="2.91"/><ellipse class="cls-4" cx="144.18" cy="173.81" rx="10.75" ry="1.77"/><path class="cls-3" d="M157.62,173.24c0,1.61-6,2.92-13.44,2.92s-13.45-1.31-13.45-2.92v-2.89h26.89Z"/><path class="cls-4" d="M157.62,172.62c0,1.61-6,2.91-13.44,2.91s-13.45-1.3-13.45-2.91v-2.89h26.89Z"/><path class="cls-5" d="M138.7,169.73h-8v2.89c0,1.18,3.28,2.2,8,2.66Z"/><path class="cls-6" d="M145.88,169.73v5.78a41.16,41.16,0,0,0,8.57-1v-4.77Z"/><ellipse class="cls-7" cx="144.18" cy="169.73" rx="13.44" ry="2.91"/><ellipse class="cls-4" cx="144.18" cy="169.73" rx="10.75" ry="1.77"/><path class="cls-3" d="M157.62,169.16c0,1.61-6,2.92-13.44,2.92s-13.45-1.31-13.45-2.92v-2.89h26.89Z"/><path class="cls-4" d="M157.62,168.54c0,1.61-6,2.91-13.44,2.91s-13.45-1.3-13.45-2.91v-2.89h26.89Z"/><path class="cls-5" d="M138.7,165.65h-8v2.89c0,1.19,3.28,2.21,8,2.66Z"/><path class="cls-6" d="M145.88,165.65v5.78a41.16,41.16,0,0,0,8.57-1v-4.77Z"/><ellipse class="cls-7" cx="144.18" cy="165.65" rx="13.44" ry="2.91"/><ellipse class="cls-4" cx="144.18" cy="165.65" rx="10.75" ry="1.77"/><path class="cls-3" d="M157.62,165.08c0,1.61-6,2.92-13.44,2.92s-13.45-1.31-13.45-2.92v-2.89h26.89Z"/><path class="cls-4" d="M157.62,164.46c0,1.61-6,2.92-13.44,2.92s-13.45-1.31-13.45-2.92v-2.89h26.89Z"/><path class="cls-5" d="M138.7,161.57h-8v2.89c0,1.19,3.28,2.21,8,2.66Z"/><path class="cls-6" d="M145.88,161.57v5.78a40.49,40.49,0,0,0,8.57-1v-4.77Z"/><ellipse class="cls-7" cx="144.18" cy="161.57" rx="13.44" ry="2.91"/><ellipse class="cls-4" cx="144.18" cy="161.57" rx="10.75" ry="1.77"/><path class="cls-3" d="M157.62,161c0,1.61-6,2.92-13.44,2.92s-13.45-1.31-13.45-2.92v-2.89h26.89Z"/><path class="cls-4" d="M157.62,160.38c0,1.61-6,2.92-13.44,2.92s-13.45-1.31-13.45-2.92v-2.89h26.89Z"/><path class="cls-5" d="M138.7,157.49h-8v2.89c0,1.19,3.28,2.21,8,2.66Z"/><path class="cls-6" d="M145.88,157.49v5.78a40.49,40.49,0,0,0,8.57-1v-4.77Z"/><ellipse class="cls-7" cx="144.18" cy="157.49" rx="13.44" ry="2.91"/><ellipse class="cls-4" cx="144.18" cy="157.49" rx="10.75" ry="1.77"/><path class="cls-3" d="M157.62,156.93c0,1.61-6,2.91-13.44,2.91s-13.45-1.3-13.45-2.91V154h26.89Z"/><path class="cls-4" d="M157.62,156.3c0,1.61-6,2.92-13.44,2.92s-13.45-1.31-13.45-2.92v-2.89h26.89Z"/><path class="cls-5" d="M138.7,153.41h-8v2.89c0,1.19,3.28,2.21,8,2.66Z"/><path class="cls-6" d="M145.88,153.41v5.78a40.49,40.49,0,0,0,8.57-1v-4.77Z"/><ellipse class="cls-7" cx="144.18" cy="153.41" rx="13.44" ry="2.91"/><ellipse class="cls-4" cx="144.18" cy="153.41" rx="10.75" ry="1.77"/><path class="cls-3" d="M157.62,152.85c0,1.61-6,2.91-13.44,2.91s-13.45-1.3-13.45-2.91V150h26.89Z"/><path class="cls-4" d="M157.62,152.22c0,1.61-6,2.92-13.44,2.92s-13.45-1.31-13.45-2.92v-2.89h26.89Z"/><path class="cls-5" d="M138.7,149.33h-8v2.89c0,1.19,3.28,2.21,8,2.67Z"/><path class="cls-6" d="M145.88,149.33v5.79a41.07,41.07,0,0,0,8.57-1v-4.77Z"/><ellipse class="cls-7" cx="144.18" cy="149.33" rx="13.44" ry="2.91"/><ellipse class="cls-4" cx="144.18" cy="149.33" rx="10.75" ry="1.77"/><path class="cls-8" d="M121.18,58.89v116a5.07,5.07,0,0,1-5.07,5H62.77a5.08,5.08,0,0,1-5-4.44q0-.32,0-.63v-116a5.07,5.07,0,0,1,5.06-5.07h53.34A5.08,5.08,0,0,1,121.18,58.89Z"/><path class="cls-9" d="M116.11,51.26H62.77a7.61,7.61,0,0,0-7.63,7.63v116a7.64,7.64,0,0,0,7.63,7.63h53.34a7.64,7.64,0,0,0,7.64-7.63v-116A7.64,7.64,0,0,0,116.11,51.26Zm6.36,123.63a6.35,6.35,0,0,1-6.36,6.35H62.77a6.35,6.35,0,0,1-6.35-6.35v-116a6.35,6.35,0,0,1,6.35-6.35h53.34a6.35,6.35,0,0,1,6.36,6.35Z"/><path class="cls-10" d="M116.11,52.54H62.77a6.35,6.35,0,0,0-6.35,6.35v116a6.35,6.35,0,0,0,6.35,6.35h53.34a6.35,6.35,0,0,0,6.36-6.35v-116A6.35,6.35,0,0,0,116.11,52.54Zm5.07,122.38a5.07,5.07,0,0,1-5.07,5H62.77a5.08,5.08,0,0,1-5-4.44q0-.32,0-.63v-116a5.07,5.07,0,0,1,5.06-5.07h53.34a5.08,5.08,0,0,1,5.07,5.07Z"/><path class="cls-11" d="M121.16,174.89v0a5.07,5.07,0,0,1-5.06,5H62.75a5.08,5.08,0,0,1-5-4.44V169h63.43Z"/><path class="cls-12" d="M91.72,177.13a3.66,3.66,0,0,1-5.14-.09,3.61,3.61,0,0,1,.09-5.11,3.62,3.62,0,1,1,5,5.2Z"/><path class="cls-12" d="M111.6,176.94h-3.8a1,1,0,0,1-1-1v-2.89a1,1,0,0,1,1-1h3.79a1,1,0,0,1,1,1V176A1,1,0,0,1,111.6,176.94Z"/><path class="cls-12" d="M71.22,176.94H67.43a1,1,0,0,1-1-1v-2.89a1,1,0,0,1,1-1h3.79a1,1,0,0,1,1,1V176A1,1,0,0,1,71.22,176.94Z"/><path class="cls-13" d="M113.18,76.92H66a1.75,1.75,0,0,1-1.76-1.74v-9A1.74,1.74,0,0,1,66,64.43h47.22a1.75,1.75,0,0,1,1.76,1.74v9A1.74,1.74,0,0,1,113.18,76.92Z"/><path class="cls-12" d="M103.17,68.16H67.54a.79.79,0,1,1,0-1.57h35.63a.79.79,0,1,1,0,1.57Z"/><path class="cls-8" d="M108.18,68.16h-2.64a.79.79,0,1,1,0-1.57h2.64a.79.79,0,1,1,0,1.57Z"/><path class="cls-8" d="M111.6,68.16h-1a.79.79,0,1,1,0-1.57h1a.79.79,0,1,1,0,1.57Z"/><path class="cls-12" d="M103.17,71.46H67.54a.79.79,0,1,1,0-1.57h35.63a.79.79,0,1,1,0,1.57Z"/><path class="cls-8" d="M108.18,71.46h-2.64a.79.79,0,1,1,0-1.57h2.64a.79.79,0,1,1,0,1.57Z"/><path class="cls-8" d="M111.6,71.46h-1a.79.79,0,1,1,0-1.57h1a.79.79,0,1,1,0,1.57Z"/><path class="cls-12" d="M103.17,74.76H67.54a.79.79,0,1,1,0-1.57h35.63a.79.79,0,1,1,0,1.57Z"/><path class="cls-8" d="M108.18,74.76h-2.64a.79.79,0,1,1,0-1.57h2.64a.79.79,0,1,1,0,1.57Z"/><path class="cls-8" d="M111.6,74.76h-1a.79.79,0,1,1,0-1.57h1a.79.79,0,1,1,0,1.57Z"/><circle class="cls-14" cx="89.44" cy="110.12" r="27.94" transform="translate(-37.73 172.98) rotate(-77.22)"/><rect class="cls-15" x="74.32" y="101.16" width="29.54" height="21.89"/><polygon class="cls-16" points="108.85 97.83 105.7 97.83 89.44 87.32 73.19 97.83 70.04 97.83 89.44 85.29 108.85 97.83"/><polygon class="cls-17" points="105.7 97.83 104.57 97.83 89.44 88.05 74.32 97.83 73.19 97.83 89.44 87.32 105.7 97.83"/><polygon class="cls-14" points="104.57 97.83 74.32 97.83 89.44 88.05 104.57 97.83"/><rect class="cls-16" x="70.04" y="97.83" width="38.81" height="2.03"/><rect class="cls-18" x="70.04" y="123.95" width="38.81" height="2.03"/><rect class="cls-19" x="71.75" y="99.86" width="35.38" height="1.47"/><rect class="cls-20" x="71.75" y="122.49" width="35.38" height="1.47"/><polygon class="cls-16" points="77.46 102.32 77.46 101.33 76.83 101.33 73.22 101.33 72.6 101.33 72.6 102.32 73.22 102.32 73.22 121.5 72.6 121.5 72.6 122.49 73.22 122.49 76.83 122.49 77.46 122.49 77.46 121.5 76.83 121.5 76.83 102.32 77.46 102.32"/><polygon class="cls-16" points="87.07 102.32 87.07 101.33 86.44 101.33 82.83 101.33 82.21 101.33 82.21 102.32 82.83 102.32 82.83 121.5 82.21 121.5 82.21 122.49 82.83 122.49 86.44 122.49 87.07 122.49 87.07 121.5 86.44 121.5 86.44 102.32 87.07 102.32"/><polygon class="cls-16" points="96.68 102.32 96.68 101.33 96.05 101.33 92.45 101.33 91.82 101.33 91.82 102.32 92.45 102.32 92.45 121.5 91.82 121.5 91.82 122.49 92.45 122.49 96.05 122.49 96.68 122.49 96.68 121.5 96.05 121.5 96.05 102.32 96.68 102.32"/><polygon class="cls-16" points="106.29 102.32 106.29 101.33 105.67 101.33 102.06 101.33 101.43 101.33 101.43 102.32 102.06 102.32 102.06 121.5 101.43 121.5 101.43 122.49 102.06 122.49 105.67 122.49 106.29 122.49 106.29 121.5 105.67 121.5 105.67 102.32 106.29 102.32"/><path class="cls-12" d="M92.53,93.54a3.09,3.09,0,1,1-3.09-3.08A3.08,3.08,0,0,1,92.53,93.54Z"/><circle class="cls-17" cx="89.44" cy="93.54" r="2.65"/><path class="cls-21" d="M87.73,63.06l4.74.63s-2.07,12.13-.55,13.39c.14.4,4.65,3.33,4.19,3.64s-9.64-2.46-9.72-2.78c0-.07,1.39-5.2,1.41-5.27Z"/><path class="cls-22" d="M91.84,75.26s1.73,2.08,2,2.41a12.85,12.85,0,0,0,2.81,1.51c1.58.73,1.76,1.57,1.85,1.89h0a.15.15,0,0,1,.11.18l-.06.31a67.31,67.31,0,0,1-6.7-1.13s-1.39-1.38-1.67-.31l-3.91-.65.23-1.19h.21a9.25,9.25,0,0,1,.58-3l.19,0s-.22.54,1.17.91,2.16.33,2.33.09.11-.14.11-.14A1,1,0,0,1,91.84,75.26Z"/><path class="cls-23" d="M86.32,49.12,63.85,50.17,62,40l28,2.14c2.69.14,4.25,1.45,4.1,3.23,0,0-2.43,27.91-2.48,29l-1.2.57-3.29-.62L85.76,57.88a32.59,32.59,0,0,1,.56-8.76Z"/><path class="cls-21" d="M102.93,65.46l1,2.58c.74,1.95,2.15,7.44,3.47,8.72.36.21-2.43,3.15-2.7,3-.07,0-2.31-5.66-2.34-5.73l-1.62-3.38c-.46-1-1-1.93-1.5-2.87l-1-1.86Z"/><path class="cls-22" d="M107.44,76.4s1.28,2.38,1.42,2.75a12.86,12.86,0,0,0,2.45,2c1.41,1,1.41,1.89,1.43,2.22h0a.14.14,0,0,1,.07.2l-.12.29s-4.59-1.53-6.34-2.42c0,0-1.07-1.64-1.57-.64l-3.7-1.41.47-1.11.2,0a9.2,9.2,0,0,1,1.17-2.77h0a2.27,2.27,0,0,0,1.11,1.13c1.23.74,2,.75,2.26.55s.14-.11.14-.11A1,1,0,0,1,107.44,76.4Z"/><path class="cls-9" d="M58,46.57a44.51,44.51,0,0,1,.5-8.73l11.17.3.06,2.52L92.54,43.6c.24,0,2.29.33,2.74,1.52,0,0,10.71,28.26,11.3,29.69l-1.57.76-2.78-.48L93.5,60A24.46,24.46,0,0,1,90.77,53l-.53-2.44S68.85,51.89,63,51.24A5.24,5.24,0,0,1,58,46.57Z"/><polygon class="cls-24" points="69.66 38.03 69.7 39.5 58.25 39.51 58.5 37.84 69.66 38.03"/><polygon class="cls-25" points="88.9 41.3 97.04 41.34 104.19 25.65 95.75 27.43 88.9 41.3"/><path class="cls-13" d="M79.7,42.18H96.16A.88.88,0,0,0,97,41.3H78.83A.88.88,0,0,0,79.7,42.18Z"/><path class="cls-13" d="M97.93,41.2l6.77-14.82a.46.46,0,0,0-.23-.6h0L97.33,41.42h0A.44.44,0,0,0,97.93,41.2Z"/><polygon class="cls-26" points="97.04 41.29 104.19 25.65 104.47 25.78 97.33 41.42 97.04 41.29"/><polygon class="cls-8" points="88.91 41.34 97.09 41.3 104.16 25.71 95.75 27.43 88.91 41.34"/><polygon class="cls-27" points="95.2 28.56 102.12 27.24 102.71 25.96 95.76 27.42 95.2 28.56"/><polygon class="cls-28" points="94.87 29.23 101.78 27.99 102.12 27.24 95.2 28.55 94.87 29.23"/><path class="cls-8" d="M101,27l1.15-.22c.06,0,.09.05.06.15l-.1.29-1.5.29.18-.31A.49.49,0,0,1,101,27Z"/><polygon class="cls-29" points="93.84 31.31 100.73 30.26 101.48 28.63 94.58 29.83 93.84 31.31"/><polygon class="cls-8" points="95.59 30.6 100.68 29.79 100.98 29.15 95.88 30 95.59 30.6"/><polygon class="cls-8" points="94.71 30.74 95.15 30.67 95.44 30.07 95 30.15 94.71 30.74"/><polygon class="cls-29" points="93.83 34.84 95.51 34.67 96.9 31.74 95.21 31.98 93.83 34.84"/><path class="cls-30" d="M94.27,32h0c.21,0,.2.34,0,.9l-.94,1Z"/><path class="cls-31" d="M94.29,32.9a6.78,6.78,0,0,1-.35.86,10.39,10.39,0,0,1-.57,1l0-.86Z"/><path class="cls-32" d="M93.32,33.05c.37-.59.74-1,1-1l-.92,1.9Z"/><path class="cls-33" d="M93.32,33.05l0,.86-.9,1a6.93,6.93,0,0,1,.4-1A9.32,9.32,0,0,1,93.32,33.05Z"/><path class="cls-34" d="M93.33,34.9c-.36.54-.7.91-.89.92h0l.86-1.77Z"/><path class="cls-33" d="M92.48,35.69c-.19,0-.19-.32,0-.83l.9-1Z"/><polygon class="cls-30" points="97.87 31.73 99.11 31.56 99.24 31.27 98.01 31.44 97.87 31.73"/><polygon class="cls-30" points="97.89 32.64 99.47 32.44 99.62 32.13 98.04 32.33 97.89 32.64"/><polygon class="cls-30" points="97.19 33.32 98.95 33.12 99.04 32.93 97.28 33.14 97.19 33.32"/><polygon class="cls-30" points="97.04 33.65 99.02 33.42 99.1 33.23 97.12 33.46 97.04 33.65"/><polygon class="cls-30" points="96.88 33.97 98.86 33.76 98.95 33.57 96.97 33.79 96.88 33.97"/><polygon class="cls-30" points="96.99 34.27 98.71 34.09 98.8 33.9 97.08 34.08 96.99 34.27"/><polygon class="cls-30" points="96.58 34.62 98.34 34.45 98.42 34.26 96.66 34.44 96.58 34.62"/><polygon class="cls-30" points="96.42 34.95 98.4 34.76 98.49 34.57 96.51 34.77 96.42 34.95"/><polygon class="cls-30" points="96.27 35.28 98.24 35.1 98.33 34.91 96.36 35.09 96.27 35.28"/><polygon class="cls-30" points="96.11 35.61 98.08 35.44 98.17 35.25 96.2 35.42 96.11 35.61"/><polygon class="cls-30" points="95.96 35.94 97.93 35.78 98.02 35.59 96.05 35.75 95.96 35.94"/><polygon class="cls-30" points="95.8 36.27 97.77 36.12 97.86 35.93 95.89 36.09 95.8 36.27"/><polygon class="cls-30" points="96.18 36.57 97.61 36.46 97.7 36.27 96.27 36.38 96.18 36.57"/><polygon class="cls-30" points="95.49 36.94 96.21 36.89 96.3 36.7 95.58 36.75 95.49 36.94"/><polygon class="cls-30" points="95.38 37.27 95.92 37.24 96.01 37.05 95.47 37.08 95.38 37.27"/><path class="cls-29" d="M95,38.16l1.76-.09c.06,0,.17-.16.26-.34h0c.08-.18.11-.33,0-.33l-1.77.11s-.16.15-.25.33h0C95,38,95,38.16,95,38.16Z"/><polygon class="cls-35" points="92.77 40.17 92.92 40.17 94.03 37.84 93.88 37.84 92.77 40.17"/><polygon class="cls-35" points="92.58 40.18 92.73 40.17 93.55 38.47 93.39 38.47 92.58 40.18"/><polygon class="cls-35" points="92.55 40.18 93.88 37.39 93.72 37.4 92.39 40.18 92.55 40.18"/><polygon class="cls-35" points="92.21 40.19 92.36 40.18 93.31 38.2 93.15 38.21 92.21 40.19"/><polygon class="cls-35" points="92.02 40.19 92.17 40.19 93.72 36.95 93.57 36.96 92.02 40.19"/><polygon class="cls-35" points="91.84 40.2 91.99 40.19 93.2 37.67 93.05 37.68 91.84 40.2"/><polygon class="cls-35" points="91.66 40.2 91.81 40.2 93.42 36.84 93.27 36.85 91.66 40.2"/><polygon class="cls-35" points="91.47 40.2 91.62 40.2 93.59 36.12 93.44 36.13 91.47 40.2"/><polygon class="cls-35" points="91.29 40.21 91.44 40.2 93.14 36.67 93 36.68 91.29 40.21"/><polygon class="cls-35" points="89.71 40.24 89.85 40.24 91.22 37.44 91.08 37.45 89.71 40.24"/><polygon class="cls-35" points="89.88 40.24 90.02 40.23 90.96 38.32 90.81 38.33 89.88 40.24"/><polygon class="cls-35" points="90.05 40.23 90.19 40.23 91.29 37.99 91.15 38 90.05 40.23"/><polygon class="cls-35" points="90.23 40.23 90.37 40.23 91.06 38.81 90.92 38.81 90.23 40.23"/><polygon class="cls-35" points="90.4 40.23 90.55 40.22 91.92 37.4 91.78 37.4 90.4 40.23"/><polygon class="cls-35" points="90.58 40.22 90.72 40.22 91.92 37.75 91.78 37.75 90.58 40.22"/><polygon class="cls-35" points="90.75 40.22 90.9 40.22 92.5 36.9 92.36 36.91 90.75 40.22"/><polygon class="cls-35" points="90.93 40.22 91.08 40.21 93.04 36.16 92.89 36.18 90.93 40.22"/><polygon class="cls-35" points="91.11 40.21 91.26 40.21 92.58 37.47 92.43 37.48 91.11 40.21"/><polygon class="cls-27" points="97.09 41.3 104.19 25.65 102.71 25.96 95.65 41.31 97.09 41.3"/><polygon class="cls-36" points="101.95 28.46 102.58 28.35 103.35 26.68 102.72 26.8 101.95 28.46"/><polygon class="cls-37" points="102.12 29.56 102.3 29.53 102.6 28.87 102.42 28.9 102.12 29.56"/><polygon class="cls-37" points="101.11 29.72 102.09 29.56 102.39 28.91 101.41 29.07 101.11 29.72"/><polygon class="cls-37" points="100.89 30.21 102.08 30.02 102.14 29.88 100.95 30.06 100.89 30.21"/><polygon class="cls-37" points="100.63 30.76 101.82 30.59 101.89 30.44 100.7 30.62 100.63 30.76"/><path class="cls-37" d="M101.52,31.1c0,.06,0,.1,0,.1s.06-.05.09-.11,0-.1,0-.1A.21.21,0,0,0,101.52,31.1Z"/><path class="cls-37" d="M101.43,31.11c0,.06,0,.11,0,.1s.06-.05.09-.11,0-.1,0-.09S101.45,31.06,101.43,31.11Z"/><path class="cls-37" d="M101.34,31.13c0,.05,0,.1,0,.09a.32.32,0,0,0,.08-.1c0-.06,0-.1,0-.1S101.36,31.07,101.34,31.13Z"/><path class="cls-37" d="M101.25,31.14c0,.06,0,.1,0,.1a.27.27,0,0,0,.08-.11c0-.06,0-.1,0-.1S101.28,31.08,101.25,31.14Z"/><path class="cls-37" d="M101.16,31.15c0,.06,0,.1,0,.1s0-.05.08-.11,0-.1,0-.1A.27.27,0,0,0,101.16,31.15Z"/><path class="cls-37" d="M101.07,31.16c0,.06,0,.1,0,.1s0-.05.08-.11,0-.1,0-.09S101.1,31.11,101.07,31.16Z"/><path class="cls-37" d="M101,31.18c0,.05,0,.1,0,.09s.06-.05.08-.1,0-.1,0-.1A.29.29,0,0,0,101,31.18Z"/><path class="cls-37" d="M100.9,31.19c0,.06,0,.1,0,.1a.21.21,0,0,0,.08-.11c0-.06,0-.1,0-.1S100.92,31.13,100.9,31.19Z"/><path class="cls-37" d="M100.81,31.2c0,.06,0,.1,0,.1s.06-.05.09-.11,0-.1,0-.1A.21.21,0,0,0,100.81,31.2Z"/><path class="cls-37" d="M100.72,31.21c0,.06,0,.1,0,.1s.05,0,.08-.11,0-.1,0-.09S100.75,31.16,100.72,31.21Z"/><path class="cls-37" d="M100.63,31.23c0,.05,0,.1,0,.09s0-.05.08-.1,0-.1,0-.1S100.66,31.17,100.63,31.23Z"/><path class="cls-37" d="M101.34,31.5c0,.06,0,.1,0,.1s.06-.05.08-.11,0-.1,0-.1S101.36,31.44,101.34,31.5Z"/><path class="cls-37" d="M101.25,31.51c0,.06,0,.1,0,.1s.06-.05.09-.11,0-.1,0-.1A.21.21,0,0,0,101.25,31.51Z"/><path class="cls-37" d="M101.16,31.52c0,.06,0,.11,0,.1s.06-.05.09-.11,0-.1,0-.09S101.18,31.47,101.16,31.52Z"/><path class="cls-37" d="M101.07,31.54c0,.05,0,.1,0,.1l.08-.11c0-.06,0-.1,0-.1S101.09,31.48,101.07,31.54Z"/><path class="cls-37" d="M101,31.55c0,.06,0,.1,0,.1a.27.27,0,0,0,.08-.11c0-.06,0-.1,0-.1S101,31.49,101,31.55Z"/><path class="cls-37" d="M100.89,31.56c0,.06,0,.1,0,.1s.05-.05.08-.11,0-.1,0-.1S100.92,31.5,100.89,31.56Z"/><path class="cls-37" d="M100.8,31.57c0,.06,0,.1,0,.1s.06-.05.08-.11,0-.1,0-.1A.43.43,0,0,0,100.8,31.57Z"/><path class="cls-37" d="M100.71,31.58c0,.06,0,.1,0,.1s.06-.05.08-.11,0-.1,0-.09S100.74,31.53,100.71,31.58Z"/><path class="cls-37" d="M100.63,31.6s0,.1,0,.09.06-.05.08-.1,0-.1,0-.1S100.65,31.54,100.63,31.6Z"/><path class="cls-37" d="M100.54,31.61c0,.05,0,.1,0,.1a.43.43,0,0,0,.08-.11c0-.06,0-.1,0-.1S100.57,31.55,100.54,31.61Z"/><path class="cls-37" d="M100.45,31.62c0,.06,0,.1,0,.1a.27.27,0,0,0,.08-.11c0-.06,0-.1,0-.1S100.48,31.56,100.45,31.62Z"/><path class="cls-8" d="M99.58,33.32l.92-.11c.07,0,.21-.19.31-.41h0c.1-.22.12-.39,0-.39l-.92.12c-.07,0-.2.19-.3.41h0C99.54,33.16,99.51,33.33,99.58,33.32Z"/><polygon class="cls-38" points="64.9 18.2 69.25 20.12 72.76 12.82 68.86 11.34 64.9 18.2"/><path class="cls-39" d="M71.56,15.32a8.78,8.78,0,0,1-.93-.72,11.37,11.37,0,0,0-.17,3Z"/><path class="cls-38" d="M77.14,14.32a10.56,10.56,0,0,1-1.5,2.06c-.47.45-1.42.29-2.23-.06a8.84,8.84,0,0,1-3.78-2.82A14.42,14.42,0,0,1,68,10.74a8.27,8.27,0,0,1,.82-7.22C71.16-.13,78.35,2.34,79.6,6.3a5,5,0,0,1-.19,2.22l0,.1a7.12,7.12,0,0,1-1.49,2.72.65.65,0,0,0-.16.67,7.14,7.14,0,0,0,.82,1.45C78.91,13.92,77.14,14.32,77.14,14.32Z"/><path d="M82.4,8.76a2.42,2.42,0,0,1-1.22.3,5.31,5.31,0,0,1-1-.1,3.39,3.39,0,0,0,.9,0,2.2,2.2,0,0,0,1.2-.61l.12-.13a1.47,1.47,0,0,0,.1-.13l.1-.14.09-.15a2.8,2.8,0,0,0,.15-.3v0l0,0,0-.08L83,7.17l-.07.15,0,.08,0,0,0,0a1.64,1.64,0,0,1-.16.29.67.67,0,0,1-.09.14l-.1.13a.69.69,0,0,1-.11.13l-.11.12a2.15,2.15,0,0,1-1.18.55,2.7,2.7,0,0,1-.85,0c3.26-.21,3.72-4.45.15-4.47a.83.83,0,0,1-.8-.63C78.79.67,74.81-1.15,73.28.81a.42.42,0,0,1-.64,0C70.3-1.46,67,1.43,67.84,4a1.33,1.33,0,0,1-.06,1c-.91,1.94-1.29,5.77.47,7.44,0-.08.42-.73.48-.82a1.69,1.69,0,0,0,.18-1.35,1.69,1.69,0,0,1,.9-1.94c1.24-.51,1.88,1,1.66,1.82a.7.7,0,0,0,.94-.45c.11-.38.73-.31,1.2-.68.86-.7.22-2.61,1.28-3.16,1.22-.63,1.93,1.88,3.3,2.54h0l0,0,.08,0a5,5,0,0,0,.89.34l.45.14a5.78,5.78,0,0,0,1.51.21,2.44,2.44,0,0,0,1.23-.33l.06,0,.05,0,.06,0s0,0,.05-.05l.1-.09.08-.1,0-.06a.1.1,0,0,0,0,0L83,8.2l0,0v0l0-.06L83.1,8A1.83,1.83,0,0,1,82.4,8.76Z"/><path class="cls-40" d="M78.62,9.17a1.9,1.9,0,0,0-1.1-.35,2.09,2.09,0,0,0-.56.06,2.2,2.2,0,0,0-.52.22l0,0A1.89,1.89,0,0,1,77,9a2.24,2.24,0,0,1,.52,0c.17,0,.85.19,1,.19Z"/><path class="cls-41" d="M76.31,14.29l-.22-.1-1-.47s-.66,1.16-.14,1.48S76.31,14.29,76.31,14.29Z"/><path class="cls-40" d="M77.41,11.06c-.19.28-.48.4-.67.28s-.18-.45,0-.72.49-.4.67-.27S77.59,10.79,77.41,11.06Z"/><polygon class="cls-42" points="66.03 15.15 71.05 18.92 71.89 16.84 66.7 13.96 66.03 15.15"/><path class="cls-43" d="M73.83,31.58,81.59,38a.43.43,0,0,1,.12.11h0l4.31.63,3.78,2.29-.46.28-4.13-.56L81.9,41a3.38,3.38,0,0,1-1.82-1.49l-8.79-5.37Z"/><path class="cls-18" d="M67.82,17.38c2.14-.28,3.46,1.83,3.47,3.78,0,4,.58,8.79.58,8.79L74.64,32,72.4,35.14l-4.23-2.65s-1.67-7.8-2.07-10.36C65.78,20.05,66.55,17.55,67.82,17.38Z"/><polygon class="cls-44" points="73.28 36.08 71.48 35.05 74 30.82 75.62 32.15 73.28 36.08"/><path class="cls-45" d="M72.07,26.75c-.35,1.91-1,6.17-1.54,9.34-.23,1.44-.42,2.65-.53,3.32a1.53,1.53,0,0,1-.59,1,8.72,8.72,0,0,1-6.14,1.44,29.39,29.39,0,0,1-5.28-1,17.46,17.46,0,0,1,1.09-8l1.31-9.61a10.6,10.6,0,0,1,3.43-6.85A6.78,6.78,0,0,1,66,15c.87-.33,3.42,1.73,5,3.77C71.69,19.57,72.6,23.89,72.07,26.75Z"/><g class="cls-46"><path class="cls-47" d="M70.56,35.63l0,.46c-.23,1.44-.42,2.65-.53,3.32a1.53,1.53,0,0,1-.59,1,8.72,8.72,0,0,1-6.14,1.44c1.42-1.09,4.12-3.41,4.52-3.82s.86-1.39.53-1.57L64.44,35.2c-1-.38-1.21-1.2-1.43-2.25l-1.52-7.44c.26-2.66,0-5.26,2-7C64.38,17.66,66.2,31.92,70.56,35.63Z"/></g><polygon class="cls-44" points="66.03 14.98 71.05 18.75 71.41 16.47 66.7 13.96 66.03 14.98"/><path class="cls-21" d="M70.66,31.58,78.92,38a.43.43,0,0,1,.12.11h0l4.58.63,4,2.29-.48.28-4.39-.56L79.24,41a3.55,3.55,0,0,1-1.93-1.49l-9.65-5.36Z"/><path class="cls-18" d="M64.26,17.38C66.54,17.1,68,19.21,68,21.16a48.75,48.75,0,0,0,1,8.63L71.52,32l-2.39,3.11-1.8-1.06A7.19,7.19,0,0,1,64,29.43c-.55-2.48-1.27-5.79-1.51-7.3C62.09,20.05,62.91,17.55,64.26,17.38Z"/><polygon class="cls-44" points="70.07 36.08 68.16 35.05 70.84 30.82 72.56 32.15 70.07 36.08"/><text class="cls-48" transform="translate(64.06 154.05)"><tspan class="cls-49">T</tspan><tspan class="cls-50" x="3.33" y="0">r</tspan><tspan class="cls-51" x="5.7" y="0">ans</tspan><tspan class="cls-52" x="16.25" y="0">f</tspan><tspan x="18.31" y="0">er </tspan><tspan class="cls-53" x="25.97" y="0">t</tspan><tspan class="cls-51" x="28.36" y="0">o Bank</tspan></text><rect class="cls-54" x="63.14" y="146.88" width="52" height="10"/></g></g></g></svg>