<svg xmlns="http://www.w3.org/2000/svg" viewBox="0 0 364.45 382.31"><defs><style>.cls-1,.cls-26{isolation:isolate;}.cls-2,.cls-6{fill:#fff;}.cls-2{opacity:0.2;mix-blend-mode:screen;}.cls-3{fill:#29abe2;opacity:0.35;}.cls-3,.cls-9{mix-blend-mode:multiply;}.cls-4{fill:#e6e6e6;}.cls-5{fill:gray;}.cls-28,.cls-7{fill:#02275e;}.cls-8{fill:#ffb294;}.cls-9{fill:#3b0709;opacity:0.3;}.cls-10{fill:#3e5063;}.cls-11{fill:#e69a06;}.cls-12{fill:#666;}.cls-13{fill:#ccc;}.cls-14{fill:#999;}.cls-15{fill:#333;}.cls-16{fill:#4d4d4d;}.cls-17{fill:#1a1a1a;}.cls-18{fill:#f1ffc9;}.cls-19{fill:#6d9647;}.cls-20{fill:#c1d680;}.cls-21{fill:#f6f6f6;}.cls-22{fill:#c6c6c6;}.cls-23{fill:#f50d1b;}.cls-24{fill:#c00a15;}.cls-25{fill:#1a2e35;}.cls-26{opacity:0.6;}.cls-27{fill:#007cff;}.cls-28{font-size:12px;font-family:Poppins-Medium, Poppins;font-weight:500;}</style></defs><g class="cls-1"><g id="Layer_2" data-name="Layer 2"><g id="Layer_2-2" data-name="Layer 2"><path class="cls-2" d="M53.48,204.28c71.33-41.18,187-41.18,258.29,0,23.19,13.38,38.81,29.47,46.91,46.5,15.54,34.86-.32,73.42-47.6,100.71-71.17,41.09-186.55,41.09-257.72,0C18.17,331.17.39,304.61,0,278,.38,251.29,18.18,224.65,53.48,204.28Z"/><polygon class="cls-3" points="227.92 245.1 205.73 232.21 218.29 224.96 177.33 201.15 82.09 256.14 123.05 279.94 139.21 270.62 205.62 309.21 227.92 245.1"/><path class="cls-4" d="M225.22,186.91,207,197.52,173.38,217v7.31a10.57,10.57,0,0,1-15.85,9.18l-6.3-3.61-15.3-8.84c-9.93-5.74-18-19.66-18-31.09l.23-94.79,74-40.75L192,147a33.39,33.39,0,0,0,2.78,12.68A41,41,0,0,0,207,176.1a27,27,0,0,0,2.94,2Z"/><path class="cls-4" d="M173.39,216.57v13.65l13.92-14.64,5.86-6.15-7.34-4.21-.24-.13-10,5.81a3.58,3.58,0,0,1,.48-.24C174.43,211.62,173.39,213.65,173.39,216.57Z"/><path class="cls-5" d="M207,197.52v15.59l-38.82,20.62.07-.28a10.47,10.47,0,0,0,5.16-9.1V217Z"/><path class="cls-5" d="M207,152.85v44.67L173.38,217v-1.85s0-39.22,0-39.22c0-2.92,1.05-4.95,2.7-5.91a.25.25,0,0,1,.11-.05l9.64-5.38,8.89-5Z"/><path class="cls-6" d="M175.61,170.3a3.58,3.58,0,0,1,.48-.24c.06,0,.08-.05.11-.05,1.77-.73,4-.46,6.48,1a18.16,18.16,0,0,1,4.63,4c3.15,3.72,5.29,8.78,5.27,13.14l-.06,17.23-.24,77c0,11.42,8,25.34,18,31.09l15.3,8.83,74-43-15.3-8.83c-9.93-5.75-18-19.67-18-31.09l.29-94.22c0-6.29-4.41-14-9.9-17.13-2.75-1.6-5.24-1.73-7.06-.69l-64,37.19Z"/><polygon points="205.85 210.4 203 212.04 203 209.2 205.85 207.55 205.85 210.4"/><polygon points="257.46 180.6 208.95 208.61 208.95 205.76 257.46 177.75 257.46 180.6"/><polygon points="205.85 219.43 203 221.07 203 218.23 205.85 216.59 205.85 219.43"/><polygon points="251.23 190.38 208.95 214.79 208.95 217.64 251.23 193.23 251.23 190.38"/><polygon points="205.85 228.46 203 230.11 203 227.26 205.85 225.62 205.85 228.46"/><polygon points="254.27 197.66 208.95 223.83 208.95 226.67 254.27 200.51 254.27 197.66"/><polygon points="205.85 237.5 203 239.14 203 236.29 205.85 234.65 205.85 237.5"/><polygon points="240.91 214.41 208.95 232.86 208.95 235.7 240.91 217.25 240.91 214.41"/><polygon points="205.85 246.53 203 248.17 203 245.33 205.85 243.69 205.85 246.53"/><polygon points="257.46 216.73 208.95 244.74 208.95 241.89 257.46 213.89 257.46 216.73"/><polygon points="205.85 255.56 203 257.2 203 254.36 205.85 252.72 205.85 255.56"/><polygon points="243.64 230.9 208.95 250.93 208.95 253.77 243.64 233.74 243.64 230.9"/><polygon points="205.85 264.59 203 266.24 203 263.39 205.85 261.75 205.85 264.59"/><polygon points="257.46 234.79 208.95 262.8 208.95 259.96 257.46 231.95 257.46 234.79"/><polygon points="205.85 273.63 203 275.27 203 272.43 205.85 270.78 205.85 273.63"/><polygon points="249.72 245.46 208.95 268.99 208.95 271.83 249.72 248.3 249.72 245.46"/><path class="cls-7" d="M204.48,180.65a59.82,59.82,0,0,1,5.87-3.81c2.77-1.6,4.47-2.31,5.93-2.29s2.42.72,2.42,2.54-1,4.06-3.31,6.2c2.29-.64,4,.11,4,2.7a9.66,9.66,0,0,1-2.09,5.47c-1.46,2-3.9,4.08-7.89,6.38a49.08,49.08,0,0,1-4.92,2.54Zm4.5,5.09,1.49-.86c2.38-1.38,3.66-3.1,3.66-4.59s-1.16-1.65-3.21-.47a21.4,21.4,0,0,0-1.94,1.24Zm0,8.91a18.07,18.07,0,0,0,1.76-1c2-1.19,3.87-3,3.87-5.13s-1.82-1.78-4.08-.47L209,189Z"/><path class="cls-7" d="M227,167.36v20.09l-4.56,2.63V170Z"/><path class="cls-7" d="M231,165.09l4.56-2.64v16.28l8-4.61v3.81L231,185.18Z"/><path class="cls-7" d="M246.2,156.29l4.56-2.63v16.28l8-4.62v3.82l-12.55,7.24Z"/><path class="cls-8" d="M306.16,141.8a1.58,1.58,0,0,1,1.07-1.5l2.25-.24,3.42-.38,2.38.43c1.58.29,3,.6,4,1.84L321,144l1.93,2.23-1.71,3.07Z"/><path class="cls-7" d="M323.07,163.8l2.69-2.65-.27-3.2L319,150.08l-.46-.55c2.16-.82,4.18-1.18,3.22-4.63,0,0,10.17,4,13.34,8.47,3.24,7.31.62,21.77-3.63,29.55l-10.35-17.17Z"/><polygon class="cls-9" points="329.54 162.16 323.81 164.8 320.33 166.47 325.76 161.15 325.49 157.95 318.95 150.08 328.01 157.23 329.54 162.16"/><path d="M305.56,298.72c-5.05,1-5.86,5-3.93,8.4l5.68,8.05c2.14,3.71,5,5.45,8.75,4.83,3.37-1.39,3.83-3.61,2.89-6.23l-.19-5.58-3.4-10.34Z"/><path class="cls-10" d="M319.92,308.93c-1.67,5.71-10.75,5.5-11.48-2.12l-3.13-21.33s-1.68-9.26-1.68-9.26l-6.09-21-1.32-5.49,4.31-26.51,22.57-1s-4.67,46.57-4.69,48.39A177.61,177.61,0,0,1,319.92,308.93Z"/><path class="cls-11" d="M319.92,308.93c-1.67,5.71-10.75,5.5-11.48-2.12l-3.13-21.33s-1.68-9.26-1.68-9.26l-6.09-21-1.32-5.49,4.31-26.51,22.57-1s-4.67,46.57-4.69,48.39A177.61,177.61,0,0,1,319.92,308.93Z"/><path d="M305,317.67c2,3.41,1.1,9.12-.1,11.7-3.53,1.33-6.49,1.6-8.55.19-6.68-.4-10.42.49-13.86-.48-3.65-1-6.15-2.14-8-5.8a4,4,0,0,1,3.25-5.13c5.55-.23,10.54-.69,13.25-2l4.74-8.66,8.61,6.79Z"/><path class="cls-11" d="M303.84,250.43c-.25,2.22-3.14,20.71-3.07,22,4.91,15.15,3.14,31.92,4.41,46.06-4.28,3.22-14.6,3.8-15.59-1.95l-2.29-17.48c0-.11-.05-.35-.05-.35l-.08-.63-.87-6.79-2.64-16.66c-1.88-14.24,1.1-41.44,1.88-53.14l22.25-2.62a.79.79,0,0,0,0,.31l.05.17c.89,2.93,14.2,4,14.35,7.13.29,6.3-1.2,17.13-18.24,23.88Z"/><polygon class="cls-8" points="307.95 178.27 303.8 164.78 315.33 158.6 321.09 170.29 307.95 178.27"/><path class="cls-7" d="M323.46,209.26c-.35,1.78.1,5.06.67,8A10.67,10.67,0,0,1,319,228.58c-8.26,4.73-19.19,7-26.75,3.57a13.92,13.92,0,0,1-5.24-4,10.64,10.64,0,0,1-2.22-6.84c.19-10,1.85-20.44,4.61-28.37a31.48,31.48,0,0,1,5.54-10.45l15.89-10.61c5.61-3.47,7.84-5.54,13-7,7.76-.63,10.51,12,7,22.75C330.8,187.55,324.19,205.46,323.46,209.26Z"/><path class="cls-8" d="M307.2,169.36l-1.44.32a4.16,4.16,0,0,1-4.41-1.9,17.39,17.39,0,0,1-1.67-3.87c-1.07-3.68-4.31-7.77-2.33-12.13,3-6.72,9.94-10.45,16.55-8.06S321,151,319,158.28s-1.87,6.43-1.87,6.43Z"/><path d="M295.3,157.28c1.82-2.35,3.47-3.47,5.88-2.45l2.92,4.51,1.71.75,1.44,3.82c.4,1.87,3.26,2.6,5.17,2.53,2.33-.09,4.66-1.73,5.76-2.07,0,0,1.1-1.13,2.15-7.81s-1.22-11.11-3-12.1-10.63-4.69-16.38-1.2C289.67,150.08,295.3,157.28,295.3,157.28Z"/><path class="cls-8" d="M303.67,154.83a1.26,1.26,0,0,1,.94.4,2.82,2.82,0,0,1,.55.89,8.33,8.33,0,0,1,.65,4,2.55,2.55,0,0,1-.25,1,1.1,1.1,0,0,1-.81.61,1.15,1.15,0,0,1-.91-.38,2.86,2.86,0,0,1-.51-.88C302.87,159.4,301.21,155,303.67,154.83Z"/><path class="cls-9" d="M304.14,194.76c-4.47,11.14-1.86,21.47-.51,38.88-10.58,1.24-15.2-3.7-16.61-5.46a10.75,10.75,0,0,1-2.28-7c.2-10,1.86-20.37,4.61-28.28Z"/><path class="cls-8" d="M271.7,227.9c-.24,0-5.37,4.91-5.37,4.91l-5.08,3-4.91,5.87-1,2.67-.27,2.33c-.19,1.58,1.17,1.52,1.43.42v3c0,1.28,1.14,1.41,1.45.22l.93-3.49.38,4.51c.19,1.18,1.53,1,1.55,0l-.19-2.67,1.73-2.69-.58,2.82.36,2.05c.36,1.21,1.41.67,1.38-.68l-.1-1.75,2.66-3a8.57,8.57,0,0,0,1.69-2.81l.9-2.47,1.9-2.78,2.89-6.25Z"/><path class="cls-7" d="M290.15,188.31l-5,20.33c-5.16,7.75-12.73,15.71-18.84,24.17l5,5.4c7.79-4.39,16.42-12.53,25.17-21.2l8.21-23.84C310.47,178.42,293.38,177.44,290.15,188.31Z"/><path class="cls-8" d="M318.49,143.35l-5,.32c-.91.09-1,1.36.42,1.52,0,0,5.27.94,6.19,2S318.49,143.35,318.49,143.35Z"/><ellipse class="cls-4" cx="151.87" cy="155.74" rx="6.28" ry="3.63"/><ellipse class="cls-4" cx="128.36" cy="156.6" rx="6.28" ry="3.63"/><g class="cls-1"><polygon class="cls-12" points="121.69 192.62 84.89 171.24 84.51 49.4 121.31 70.79 121.69 192.62"/><polygon class="cls-6" points="121.31 70.79 84.51 49.4 170.08 0 206.88 21.39 121.31 70.79"/><polygon class="cls-13" points="206.88 21.39 207.26 143.22 121.69 192.62 121.31 70.79 206.88 21.39"/><polygon class="cls-14" points="126.54 73.8 201.68 30.41 202.03 140.21 126.89 183.59 126.54 73.8"/></g><polygon class="cls-6" points="132.46 156.23 132.54 171.07 196.33 134.24 196.25 119.39 132.46 156.23"/><path class="cls-15" d="M191.85,55.68c3.71,4,5.9,10.25,5.9,18.33,0,21.06-14.78,46.66-33,57.18-7,4.05-13.48,5.27-18.82,4.06l-.38.65-4.14-2.39c-6-3.45-9.67-10.85-9.67-21.38,0-21,14.78-46.65,33-57.18,9.12-5.26,17.37-5.76,23.35-2.31L192.22,55Z"/><ellipse class="cls-16" cx="168.88" cy="95.47" rx="46.69" ry="26.96" transform="translate(1.76 193.99) rotate(-60)"/><path class="cls-15" d="M211.62,74.14,191.72,60.3c-5.42-3.77-13.25-3.58-22,1.44-15.86,9.16-28.77,31-29.57,49.55l39.09,18.86Z"/><path class="cls-17" d="M140.19,111.29c0,.6-.07,1.21-.07,1.8,0,10.06,3.75,16.93,9.73,19.74l21.93,10.31,7.5-13Z"/><ellipse class="cls-12" cx="190.72" cy="108.08" rx="39.88" ry="23.03" transform="translate(1.76 219.21) rotate(-60)"/><ellipse class="cls-6" cx="190.72" cy="108.08" rx="35.04" ry="20.23" transform="matrix(0.5, -0.87, 0.87, 0.5, 1.76, 219.21)"/><polygon class="cls-3" points="218.92 327.29 193.33 312.42 178.37 320.38 189.95 313.69 164.35 298.83 156.69 303.01 161.38 300.3 135.79 285.43 79.38 317.99 104.98 332.86 107.74 331.27 133.55 346.26 136.35 344.64 162.52 359.85 218.92 327.29"/><g class="cls-1"><polygon class="cls-18" points="104.64 319.76 82.88 307.12 82.9 317.31 104.66 329.96 104.64 319.76"/><polygon class="cls-19" points="156 290.11 104.64 319.76 82.88 307.11 116.83 287.52 134.24 277.47 137.13 279.15 139.64 280.61 141.6 281.75 156 290.11"/><polygon class="cls-18" points="149.15 290.1 134.23 281.43 89.73 307.13 104.65 315.8 149.15 290.1"/><polygon class="cls-20" points="104.64 319.76 104.66 329.96 156.01 300.31 156 290.11 104.64 319.76"/></g><path class="cls-19" d="M111.55,292.09c-3.63,2.1-2.28,6.27,3,9.33s12.54,3.84,16.17,1.74,2.28-6.27-3-9.33S115.18,290,111.55,292.09Z"/><g class="cls-1"><path class="cls-21" d="M105.13,294.27l21.76,12.64,7.15-4.12,1-.6,2.08-1.2-21.77-12.65-2.07,1.2-1,.6Z"/><path class="cls-22" d="M126.89,306.91l0,10.2L134,313l1-.6,2.08-1.21V301l-2.07,1.2-1,.6Z"/></g><path class="cls-23" d="M112.91,289.77l21.77,12.65v10.2l1-.6v-10.2L114,289.17Z"/><path class="cls-24" d="M134.68,302.42v10.2l1-.6v-10.2Z"/><path class="cls-23" d="M106.7,293.36,128.46,306v10.2l1-.6v-10.2l-21.77-12.65Z"/><path class="cls-24" d="M128.46,306v10.2l1-.6v-10.2Z"/><path class="cls-19" d="M102.93,302.11a1.34,1.34,0,0,0,0,2.54,4.81,4.81,0,0,0,4.4,0,1.34,1.34,0,0,0,0-2.54A4.87,4.87,0,0,0,102.93,302.11Z"/><path class="cls-19" d="M129.82,288.87a1.34,1.34,0,0,0,0,2.54,4.83,4.83,0,0,0,4.41,0,1.34,1.34,0,0,0,0-2.54A4.89,4.89,0,0,0,129.82,288.87Z"/><polygon class="cls-19" points="114.94 303.14 104.36 309.25 102.72 308.3 113.3 302.19 114.94 303.14"/><polygon class="cls-19" points="116.33 304.88 107.99 309.69 106.7 308.94 115.04 304.13 116.33 304.88"/><g class="cls-1"><polygon class="cls-18" points="133.21 333.16 111.45 320.51 111.46 330.71 133.22 343.35 133.21 333.16"/><polygon class="cls-19" points="184.56 303.51 133.21 333.16 111.45 320.51 145.39 300.92 162.8 290.87 165.7 292.55 168.2 294 170.16 295.14 184.56 303.51"/><polygon class="cls-18" points="177.72 303.5 162.8 294.83 118.29 320.52 133.21 329.19 177.72 303.5"/><polygon class="cls-20" points="133.21 333.16 133.22 343.35 184.58 313.7 184.56 303.51 133.21 333.16"/></g><path class="cls-19" d="M140.11,305.49c-3.63,2.09-2.28,6.27,3,9.33s12.53,3.84,16.16,1.74,2.28-6.27-3-9.33S143.74,303.39,140.11,305.49Z"/><g class="cls-1"><path class="cls-21" d="M133.69,307.66l21.77,12.65,7.14-4.13,1-.59,2.07-1.2L144,301.74l-2.08,1.2-1,.6Z"/><path class="cls-22" d="M155.46,320.31v10.2l7.13-4.12,1-.61,2.09-1.2,0-10.19-2.07,1.2-1,.59Z"/></g><path class="cls-23" d="M141.48,303.17l21.76,12.65V326l1-.6v-10.2l-21.77-12.65Z"/><path class="cls-24" d="M163.24,315.82V326l1-.6v-10.2Z"/><path class="cls-23" d="M135.26,306.76,157,319.4v10.21l1-.61V318.81L136.3,306.16Z"/><path class="cls-24" d="M157,319.4v10.21l1-.61V318.81Z"/><path class="cls-19" d="M131.49,315.51a1.34,1.34,0,0,0,0,2.54,4.89,4.89,0,0,0,4.41,0,1.34,1.34,0,0,0,0-2.54A4.83,4.83,0,0,0,131.49,315.51Z"/><path class="cls-19" d="M158.39,302.27a1.34,1.34,0,0,0,0,2.54,4.87,4.87,0,0,0,4.4,0,1.34,1.34,0,0,0,0-2.54A4.81,4.81,0,0,0,158.39,302.27Z"/><polygon class="cls-19" points="143.5 316.53 132.93 322.64 131.28 321.69 141.86 315.58 143.5 316.53"/><polygon class="cls-19" points="144.9 318.27 136.56 323.09 135.26 322.34 143.6 317.53 144.9 318.27"/><g class="cls-1"><polygon class="cls-18" points="161.77 346.55 140.01 333.91 140.03 344.1 161.79 356.75 161.77 346.55"/><polygon class="cls-19" points="213.12 316.9 161.77 346.56 140.01 333.91 173.96 314.31 191.37 304.26 194.26 305.94 196.76 307.4 198.73 308.54 213.12 316.9"/><polygon class="cls-18" points="206.28 316.89 191.36 308.22 146.86 333.92 161.78 342.59 206.28 316.89"/><polygon class="cls-20" points="161.77 346.55 161.79 356.75 213.14 327.1 213.13 316.9 161.77 346.55"/></g><path class="cls-19" d="M168.68,318.88c-3.63,2.1-2.28,6.28,3,9.34s12.53,3.83,16.17,1.74,2.28-6.28-3-9.34S172.31,316.79,168.68,318.88Z"/><g class="cls-1"><path class="cls-21" d="M162.26,321.06,184,333.7l7.15-4.12,1-.6,2.08-1.2-21.77-12.64-2.07,1.19-1,.6Z"/><path class="cls-22" d="M184,333.7v10.2l7.14-4.12,1-.6,2.08-1.2v-10.2l-2.07,1.2-1,.6Z"/></g><path class="cls-23" d="M170,316.56l21.76,12.65v10.2l1-.6V328.62L171.07,316Z"/><path class="cls-24" d="M191.8,329.21v10.2l1-.6V328.62Z"/><path class="cls-23" d="M163.83,320.15l21.76,12.65V343l1-.6V332.2l-21.77-12.64Z"/><path class="cls-24" d="M185.59,332.8V343l1-.6V332.2Z"/><path class="cls-19" d="M160.05,328.9a1.35,1.35,0,0,0,0,2.55,4.89,4.89,0,0,0,4.41,0,1.35,1.35,0,0,0,0-2.55A4.89,4.89,0,0,0,160.05,328.9Z"/><path class="cls-19" d="M187,315.66a1.35,1.35,0,0,0,0,2.55,4.89,4.89,0,0,0,4.41,0,1.35,1.35,0,0,0,0-2.55A4.89,4.89,0,0,0,187,315.66Z"/><polygon class="cls-19" points="172.07 329.93 161.49 336.04 159.85 335.09 170.43 328.98 172.07 329.93"/><polygon class="cls-19" points="173.46 331.67 165.12 336.49 163.83 335.74 172.17 330.92 173.46 331.67"/><g class="cls-1"><polygon class="cls-18" points="104.64 306.96 82.88 294.32 82.9 304.51 104.66 317.16 104.64 306.96"/><polygon class="cls-19" points="156 277.31 104.64 306.96 82.88 294.31 116.83 274.72 134.24 264.67 137.13 266.35 139.64 267.81 141.6 268.95 156 277.31"/><polygon class="cls-18" points="149.15 277.3 134.23 268.63 89.73 294.33 104.65 303 149.15 277.3"/><polygon class="cls-20" points="104.64 306.96 104.66 317.16 156.01 287.51 156 277.31 104.64 306.96"/></g><path class="cls-19" d="M111.55,279.29c-3.63,2.1-2.28,6.28,3,9.33s12.54,3.84,16.17,1.75,2.28-6.28-3-9.34S115.18,277.2,111.55,279.29Z"/><g class="cls-1"><path class="cls-21" d="M105.13,281.47l21.76,12.64L134,290l1-.6,2.08-1.2-21.77-12.64-2.07,1.19-1,.6Z"/><path class="cls-22" d="M126.89,294.11l0,10.2,7.13-4.12,1-.6,2.08-1.2v-10.2l-2.07,1.2-1,.6Z"/></g><path class="cls-23" d="M112.91,277l21.77,12.65v10.2l1-.6V289L114,276.38Z"/><path class="cls-24" d="M134.68,289.62v10.2l1-.6V289Z"/><path class="cls-23" d="M106.7,280.56l21.76,12.65v10.2l1-.6v-10.2L107.73,280Z"/><path class="cls-24" d="M128.46,293.21v10.2l1-.6v-10.2Z"/><path class="cls-19" d="M102.93,289.31a1.35,1.35,0,0,0,0,2.55,4.87,4.87,0,0,0,4.4,0,1.35,1.35,0,0,0,0-2.55A4.87,4.87,0,0,0,102.93,289.31Z"/><path class="cls-19" d="M129.82,276.07a1.35,1.35,0,0,0,0,2.55,4.89,4.89,0,0,0,4.41,0,1.35,1.35,0,0,0,0-2.55A4.89,4.89,0,0,0,129.82,276.07Z"/><polygon class="cls-19" points="114.94 290.34 104.36 296.45 102.72 295.5 113.3 289.39 114.94 290.34"/><polygon class="cls-19" points="116.33 292.08 107.99 296.89 106.7 296.15 115.04 291.33 116.33 292.08"/><path class="cls-25" d="M192.36,88.52v6.39a.56.56,0,0,0,1.12,0V88.52a.56.56,0,0,0-1.12,0Z"/><g class="cls-26"><path class="cls-6" d="M192.36,88.52v6.39a.56.56,0,0,0,1.12,0V88.52a.56.56,0,0,0-1.12,0Z"/></g><rect class="cls-25" x="189.98" y="93.69" width="5.89" height="8.73" rx="2.94"/><g class="cls-26"><rect class="cls-6" x="189.98" y="93.69" width="5.89" height="8.73" rx="2.94"/></g><path class="cls-25" d="M204.71,111.56,201,111.5a15.74,15.74,0,0,0-.76-4.6,3.07,3.07,0,0,0-.76-1.39,2.35,2.35,0,0,0-1.41-.42H179.55v-4.44H198a5.7,5.7,0,0,1,3.33,1,7.07,7.07,0,0,1,2.3,3.51A21.25,21.25,0,0,1,204.71,111.56Z"/><g class="cls-26"><path class="cls-6" d="M204.71,111.56,201,111.5a15.74,15.74,0,0,0-.76-4.6,3.07,3.07,0,0,0-.76-1.39,2.35,2.35,0,0,0-1.41-.42H179.55v-4.44H198a5.7,5.7,0,0,1,3.33,1,7.07,7.07,0,0,1,2.3,3.51A21.25,21.25,0,0,1,204.71,111.56Z"/></g><ellipse class="cls-25" cx="192.72" cy="103.53" rx="4.84" ry="4.19"/><g class="cls-26"><ellipse class="cls-6" cx="192.72" cy="103.53" rx="4.84" ry="4.19"/></g><path class="cls-25" d="M187,88.67h11.5a.57.57,0,0,0,0-1.13H187a.57.57,0,0,0,0,1.13Z"/><g class="cls-26"><path class="cls-6" d="M187,88.67h11.5a.57.57,0,0,0,0-1.13H187a.57.57,0,0,0,0,1.13Z"/></g><rect class="cls-25" x="178.87" y="98.61" width="4.78" height="8.39"/><g class="cls-26"><rect class="cls-6" x="178.87" y="98.61" width="4.78" height="8.39"/></g><path class="cls-25" d="M188,88.27a1.71,1.71,0,1,1-1.71-1.7A1.71,1.71,0,0,1,188,88.27Z"/><path class="cls-25" d="M201.41,88.27a1.71,1.71,0,1,1-1.7-1.7A1.7,1.7,0,0,1,201.41,88.27Z"/><g class="cls-26"><path class="cls-6" d="M188,88.27a1.71,1.71,0,1,1-1.71-1.7A1.71,1.71,0,0,1,188,88.27Z"/></g><g class="cls-26"><path class="cls-6" d="M201.41,88.27a1.71,1.71,0,1,1-1.7-1.7A1.7,1.7,0,0,1,201.41,88.27Z"/></g><path class="cls-27" d="M202.8,113a12.38,12.38,0,0,0-2.78,3.66,4.23,4.23,0,0,0,.18,3.9,3.24,3.24,0,0,0,5.84-.92,4.36,4.36,0,0,0-.47-3.13A24.42,24.42,0,0,0,202.8,113"/><path class="cls-25" d="M190,88a3.29,3.29,0,0,1,2.94-1.38,2.82,2.82,0,0,1,2.76,1.7l-1.41,2v1.1h-2.94V90.15Z"/><g class="cls-26"><path class="cls-6" d="M190,88a3.29,3.29,0,0,1,2.94-1.38,2.82,2.82,0,0,1,2.76,1.7l-1.41,2v1.1h-2.94V90.15Z"/></g><path d="M183.46,100.65v4.44a.38.38,0,0,0,.75,0v-4.44a.38.38,0,0,0-.75,0Z"/><path d="M192.41,91.87h1.05a.38.38,0,1,0,0-.75h-1.05a.38.38,0,0,0,0,.75Z"/><path d="M188.66,100.64a4.81,4.81,0,0,0-1,4c.1.47.82.27.72-.2a4,4,0,0,1,.77-3.31.38.38,0,1,0-.53-.54Z"/><path d="M196.07,101a5.09,5.09,0,0,1,1,3.68.39.39,0,0,0,.26.46.37.37,0,0,0,.46-.26,5.87,5.87,0,0,0-1-4.26.38.38,0,1,0-.65.38Z"/><text class="cls-28" transform="translate(207.66 169.3) rotate(-29.91)">WATER</text></g></g></g></svg>