<svg xmlns="http://www.w3.org/2000/svg" viewBox="0 0 757.9 468.67"><defs><style>.cls-1{fill:#472851;}.cls-2{fill:#351418;}.cls-3{fill:#ffb200;}.cls-4{fill:#c66757;}.cls-5{fill:#af4c3f;}.cls-6{fill:#000102;}.cls-7{fill:#33190a;}.cls-8{fill:#02275e;}.cls-9{fill:#f79f7f;}.cls-10{fill:#e07b63;}.cls-11{fill:#fff;}.cls-12{fill:#768fdb;}.cls-13{fill:#4f1c29;}.cls-14{fill:#f49173;}.cls-15{fill:#ed785d;}.cls-16{fill:#fcfcfc;}</style></defs><g id="Layer_2" data-name="Layer 2"><g id="Layer_2-2" data-name="Layer 2"><path class="cls-1" d="M709.24,468.67H553l.21-13.91,1-68.87.14-9.17s38.29-27.82,75.38-41.24c27.55-10,54.42-12,64.45,11.19q1.38,3.18,2.59,6.65c1,2.79,1.89,5.71,2.74,8.73,7.48,26.82,9.62,62.19,9.73,92.71C709.33,459.53,709.3,464.19,709.24,468.67Z"/><path class="cls-2" d="M699.59,362.05c-22.5,10.7-60.5,1.59-72.39,6.85-12.79,5.67-34.54,9.92-44.17,7.94s-28.74,9.05-28.74,9.05l.14-9.17s38.29-27.82,75.38-41.24c27.55-10,54.42-12,64.45,11.19q1.38,3.18,2.59,6.65C697.83,356.11,698.74,359,699.59,362.05Z"/><path class="cls-3" d="M688,357.16l-34.2,71.33L603.7,410.31l14.6-44.44s-7.09,8-18.14,8-13.89-5.67-21.83-3.12-18.7,15.59-27.77,15.87-1.84-25.79-6.87-36-16.37-27.21-16.37-27.21,6.23,32.39-10.78,53S469.21,296,469.21,296s1.42-69,14.17-85.09c11.63-14.71,20.9-19.15,25.46-25.26a15.48,15.48,0,0,0,1.19-1.83c4-7.18-8.09-29.49-8.09-29.49l37.84-25s8.81,21.74,23.59,29.89a25.65,25.65,0,0,0,4.19,1.87c17.29,5.89,28.06-5.45,58.67,12.68s75.4,108.84,76.25,129-7.37,33.16-7.37,33.16,9.07.84,9.35,6.37S696.24,355.74,688,357.16Z"/><path class="cls-4" d="M563.37,159.22c-3.42,7.08-10.42,17.9-23.3,24.57-11.26,5.84-23,4.35-31.23,1.83a15.48,15.48,0,0,0,1.19-1.83c4-7.18-8.09-29.49-8.09-29.49l37.84-25S548.59,151.07,563.37,159.22Z"/><path class="cls-5" d="M500.53,155.43l7.41,10.22c25.16-12.12,35.75-39,35.75-39l-7.59,2.22-30.63,22.73S503.33,153.17,500.53,155.43Z"/><path class="cls-4" d="M518.15,68.48s38.72,42.46,22.73,63.51-39.59,28.42-51.41,25.18c-20.23-5.55-27.79-48.49-35.4-65.89S518.15,68.48,518.15,68.48Z"/><path class="cls-6" d="M440,71c3.49-3.2,6.36-2.18,8.36-.37a8.78,8.78,0,0,1,1.41-4.75c4-7,10.79-.3,10.79-.3,6-17.46,23.25-18.84,23.25-18.84,15-10.52,27.92,3.93,27.92,3.93s8.17-7.8,17.82.65c14.1,12.36,9.31,36.81,9.31,36.81s4.11,2-6.06,3.44-9.5-13.28-9.5-13.28-1.67,14.19-12.69,14.66-10.2-12.79-10.2-12.79-2.23,16.66-28.63,21.46S433,77.36,440,71Z"/><ellipse class="cls-7" cx="497.72" cy="113.35" rx="3.37" ry="3.31"/><ellipse class="cls-7" cx="474.65" cy="118.73" rx="3.37" ry="3.31"/><path class="cls-5" d="M490.3,132.23a2.86,2.86,0,0,1-2-.7c-1.3-1.22-1.31-4.59-1.17-10a45.89,45.89,0,0,0-.15-7.24.74.74,0,0,1,.61-.84.73.73,0,0,1,.83.61,48.27,48.27,0,0,1,.16,7.51c-.09,3.58-.21,8,.72,8.9s4.5-.55,6.63-1.94a.72.72,0,1,1,.79,1.21C495.94,130.25,492.77,132.23,490.3,132.23Z"/><path class="cls-5" d="M498.71,142.18a.73.73,0,0,1-.72-.63.72.72,0,0,1,.62-.82c3.31-.45,5.73-1.73,7.2-3.79a10.68,10.68,0,0,0,1.48-7.47.72.72,0,0,1,1.42-.29,11.92,11.92,0,0,1-1.71,8.58c-1.7,2.42-4.46,3.9-8.19,4.41Z"/><path class="cls-6" d="M492,104.63c-.2-3.48,14.45-2.79,14.32,1.77S492.17,107.43,492,104.63Z"/><path class="cls-6" d="M478.9,106.9c-2.22-3.58-15.66,3.83-14.18,6.64S480.25,109.1,478.9,106.9Z"/><path class="cls-4" d="M530.39,91.36s4.28-21.15,15.58-.8-14.29,16.22-14.29,16.22Z"/><path class="cls-5" d="M538.29,98.38a.74.74,0,0,1-.7-.52c-.05-.18-1.31-4.54,1.47-10.86a.71.71,0,0,1,1-.37.73.73,0,0,1,.38,1c-2.55,5.79-1.42,9.81-1.41,9.85a.71.71,0,0,1-.49.9A.45.45,0,0,1,538.29,98.38Z"/><path class="cls-5" d="M538.08,97.22a.74.74,0,0,1-.5-.2.73.73,0,0,1,0-1c.76-.8,4.67-4.73,6.86-3.37a.73.73,0,1,1-.77,1.24c-.76-.48-3.22,1.23-5,3.13A.71.71,0,0,1,538.08,97.22Z"/><path class="cls-6" d="M459.64,97.31h0c-15.64-.49-19.07-19-19.1-19.14a.48.48,0,1,1,1-.17c0,.18,3.33,17.88,18.18,18.34a.49.49,0,0,1,0,1Z"/><path class="cls-2" d="M653.82,428.49c-.59,1.61-6.4,1.09-14.46-1l-.94-.25c-3.43-.93-7.23-2.13-11.2-3.57-3.59-1.3-7-2.67-10-4-.7-.31-1.39-.63-2-.94-7.41-3.51-12.09-6.78-11.51-8.38s5.65-1.15,12.91.63q1.53.38,3.18.84c3.25.9,6.81,2,10.5,3.38,4.52,1.64,8.69,3.38,12.22,5.06l1,.47C650.2,424,654.37,427,653.82,428.49Z"/><path class="cls-4" d="M642.52,420.21c-1.12,1.92-2.73,4.68-4.1,7-.89,1.53-1.69,2.86-2.18,3.65-5.32,8.53-12.57,19.26-16.68,21.58-7,4-18-1.49-27.4-.64s-23.24,3.69-24.25-.07a1.52,1.52,0,0,1,.32-1.39c-9.75,3.37-9.24-.88-9.24-.88s-1.87-.19-1.67-2.59,20.5-7.85,26.53-8.7a116.36,116.36,0,0,0,24.81-7.2c5.47-2.48,7.53-17.62,8-20q1.53.38,3.18.84c3.25.9,6.81,2,10.5,3.38C634.82,416.79,639,418.53,642.52,420.21Z"/><path class="cls-5" d="M567.91,452.46a.75.75,0,0,1-.71-.54,2.26,2.26,0,0,1,.31-1.83c1.63-2.54,8.52-4,14.34-5l1-.18,8.64-1.63.27,1.43s-6.43,1.2-8.63,1.63l-1,.18c-2.93.5-11.87,2-13.35,4.34a.79.79,0,0,0-.13.67.73.73,0,0,1-.52.89Z"/><path class="cls-5" d="M559,450.19h0a.73.73,0,0,1-.71-.75c0-.12,0-.23,0-.35,0-1.81.69-2.84,4.86-3.79,2.34-.53,6.14-1.63,9.5-2.6,3.67-1.06,6.84-2,8-2.13,2.09-.28,8-.94,8.11-.95a.73.73,0,0,1,.16,1.45c-.06,0-6,.66-8.08.94-1,.14-4.28,1.08-7.75,2.09s-7.2,2.08-9.58,2.62c-3.75.85-3.74,1.51-3.73,2.35a2.81,2.81,0,0,1,0,.41A.72.72,0,0,1,559,450.19Z"/><path class="cls-8" d="M522.52,421.66c-5.75,13.95-28.75,24-43.25,29.15l-.08,3.95H285.52c1.73-8.05,7.3-21.53,7.3-21.55l.75-49.37-40.78-12.91S263.68,295.67,289,275s57.74-18.62,70.08-32.12l70.64,5.45c13.22,6,44.52,3.73,63.47,20.69,14.52,13,23.83,37.45,28.42,70.05,1.39,9.91,4.63,29.74,5.18,41.07C527.68,400.17,526.93,412.65,522.52,421.66Z"/><path class="cls-8" d="M420.29,232.19s20.22,4.49,24.32,17.56c5.37,17.16-7.18,37.61-7.18,37.61s5.15-29.83-17.23-30.46Z"/><path class="cls-2" d="M467.06,454.67c-2,.79-5.82-3.76-10-11.3-1-1.76-2-3.69-3-5.75-1.39-2.86-2.76-6-4.08-9.3-4-9.93-6.47-19.07-7-24.78,0-.28-.06-.55-.08-.81-.22-2.94.17-4.82,1.23-5.23s2.67.68,4.58,3l0,0c.39.47.78,1,1.21,1.57,3.42,4.69,7.58,12.56,11.25,21.76a141.85,141.85,0,0,1,5,14.64c.2.72.37,1.41.55,2.1C468.71,448.38,469,453.91,467.06,454.67Z"/><path class="cls-9" d="M423.36,248.75c-8.17,20.32-30.73,66.47-30.73,66.47l-31-62.72c-2.25-4.55-.93-3.54.55-8.4.68-2.25-.55-10.79-.66-12.92-.06-1.34-.2-2.71-.35-4.11a137.66,137.66,0,0,0-5.6-23.66c-.33-1-.53-1.61-.53-1.61l31.2-.84,30.83-.85s0,1.81.06,4.71v0a156,156,0,0,0,1.8,20.41,61.65,61.65,0,0,0,4.18,15.3A10.35,10.35,0,0,1,423.36,248.75Z"/><path class="cls-8" d="M370.91,271.32c-.53-.06-.85-.08-.87-.08-13-14-29.39,9.09-29.39,9.09-3.38-35.63,20.37-44.15,21.25-44.86h0c.31,3.26.65,7.2.22,8.64-1.46,4.84-2.79,3.84-.53,8.39Z"/><path class="cls-9" d="M390.91,395.05c-2-.58-10.48-3-13.78,3.87s-8.86,23.12-5,24.17c2.41.67,7.35,0,9.43-9.09S390.91,395.05,390.91,395.05Z"/><path class="cls-9" d="M380.17,395.47c-1.32-.28-7.93.29-10.65,2.16s-17.11,17.7-13.12,20.77c3.54,2.73,16.36-12.78,18-12.11Z"/><path class="cls-9" d="M466.22,438.47c-3.87-.12-8-.42-12.13-.85-15.36-1.57-31.57-4.94-39.34-7.83a23.7,23.7,0,0,1-4.77-2.41,50.27,50.27,0,0,1-23.68-8c-1.47,1.67-4.1,2.14-4.71,1.79-2-1.18,4.89-29,12.2-26.67s7.93,7,24,10c7.05,1.31,16.62.59,25.2-1,2.43-.43,4.78-.94,7-1.47,3.42,4.69,7.58,12.56,11.25,21.76A141.85,141.85,0,0,1,466.22,438.47Z"/><path class="cls-10" d="M417.1,204.82S409.57,218,409.57,218c-.53.84-13.19,17.94-48.08,13.16-.06-1.34-.2-2.71-.35-4.11a137.66,137.66,0,0,0-5.6-23.66L386.21,201l30.83-.85S417,201.92,417.1,204.82Z"/><path class="cls-6" d="M428.7,167.82s17.57-3.38,12.88-17.93-11.48-11.76-11.48-11.76,4.54-11.53-1.73-18.44-20.63-3.11-20.63-3.11-4.05-8.53-11.92-8.69a11.41,11.41,0,0,0-8.09,2.92s-6.45-5.74-14.78-3.8S359,120,359,120s-19.16-1.38-26.9,6.85-1.44,18.45-1.44,18.45-7.72,14.45.7,25,15,9.68,15,9.68Z"/><path class="cls-9" d="M387.43,228.49h0a40.64,40.64,0,0,1-44.25-36.66l-3.8-40.45,80.91-7.6,3.8,40.46A40.64,40.64,0,0,1,387.43,228.49Z"/><path class="cls-9" d="M413.71,173.53s2.13-8,12.74-8.7,10.23,26-1.57,27.84-12.83-3-12.83-3Z"/><circle class="cls-7" cx="361.56" cy="184.65" r="3.44"/><circle class="cls-7" cx="392.73" cy="181.72" r="3.44"/><path class="cls-10" d="M374.76,200.81a7.87,7.87,0,0,1-2.48-.35,1.72,1.72,0,0,1-1.06-1c-.92-2,.75-6.41,3-12a31,31,0,0,0,1.6-4.36.73.73,0,0,1,1.44.2,29.46,29.46,0,0,1-1.69,4.71c-1.42,3.48-3.79,9.29-3.07,10.84.07.14.13.17.19.19,2.85.92,7-.68,7.09-.7a.73.73,0,0,1,.53,1.36A17.93,17.93,0,0,1,374.76,200.81Z"/><path class="cls-10" d="M383.59,213a12,12,0,0,1-1.67-.09.72.72,0,0,1-.62-.82.74.74,0,0,1,.82-.62c.1,0,9.4,1.22,14.23-6.4a.73.73,0,0,1,1.23.77C393.55,212.16,386.73,213,383.59,213Z"/><path class="cls-2" d="M368.45,172c-2.39-4-21.52,5.77-19.92,8.94S370,174.63,368.45,172Z"/><path class="cls-2" d="M385.91,170.54c.41-3.74,22.54.48,20.86,4.1S385.51,174,385.91,170.54Z"/><path class="cls-6" d="M341.53,174.88s9.18-3.6,8.72-13.07c0,0,13.78-.72,16.23-8.45,0,0,11.67,8.86,17.66-1.66,0,0,11.61,9.3,17.19-.31,0,0,6.22,20.38,18.17,18.43s9.67-24.22,9.67-24.22L415.25,126l-47.86,6.36-32.05,16.57-1.73,15.3Z"/><path class="cls-10" d="M423.85,182.45h0a.73.73,0,0,1-.68-.77c0-.46.76-11.17,6.81-11.34a.73.73,0,1,1,0,1.46c-3.93.1-5.23,7.23-5.4,10A.74.74,0,0,1,423.85,182.45Z"/><path class="cls-10" d="M424.07,181.37a.75.75,0,0,1-.42-.14.72.72,0,0,1-.16-1c.34-.48,3.47-4.67,6.62-4a.73.73,0,0,1,.56.86.72.72,0,0,1-.86.57c-1.9-.39-4.36,2.35-5.15,3.44A.72.72,0,0,1,424.07,181.37Z"/><path class="cls-10" d="M382.84,422.33a2.87,2.87,0,0,1-1.68-.56c-.92-.66-.81-3.49.32-8.42a61.29,61.29,0,0,1,4.46-12.91c2.64-5.26,5.35-7.49,8.07-6.62a.72.72,0,1,1-.44,1.38c-1.18-.37-2.48.28-3.87,2-5.15,6.22-8.35,21.77-7.63,23.47a1.36,1.36,0,0,0,1.14.2c2.67-.63,6.14-7.17,8-10.69,1.15-2.18,1.68-3.16,2.13-3.49a.72.72,0,1,1,.88,1.15,25.57,25.57,0,0,0-1.73,3c-2.25,4.24-5.64,10.65-8.95,11.42A2.94,2.94,0,0,1,382.84,422.33Z"/><path class="cls-10" d="M373.52,424a5.79,5.79,0,0,1-1.61-.21,2.14,2.14,0,0,1-1.42-1.28c-1.9-4.17,3.44-18.59,6-23.9,1.63-3.39,5.49-6.89,14.63-4.26a.77.77,0,0,1,.5.46.76.76,0,0,1-.1.67c-.08.1-7.25,9.89-9.26,18.68-1,4.4-2.79,7.39-5.28,8.87A6.65,6.65,0,0,1,373.52,424Zm11.84-29.1c-3.62,0-6.2,1.46-7.58,4.34-3.33,6.94-7.4,19.52-6,22.67.17.36.36.45.48.48a5,5,0,0,0,3.93-.6c2.1-1.26,3.7-4,4.6-8,1.76-7.65,7.07-15.73,8.89-18.36A18.31,18.31,0,0,0,385.36,394.9Z"/><path class="cls-10" d="M357.41,419.46A2.34,2.34,0,0,1,356,419a2.66,2.66,0,0,1-1-2.32c.16-5.47,11.5-17.83,14.13-19.63,3-2,9.8-2.57,11.21-2.27a.72.72,0,1,1-.29,1.42c-1.07-.22-7.54.29-10.1,2.05-2.3,1.57-13.36,13.76-13.5,18.47a1.25,1.25,0,0,0,.42,1.13c1.71,1.32,7.84-4.61,11.14-7.79,3.73-3.61,5.07-4.84,6.07-4.42a.73.73,0,0,1-.41,1.39c-.67.22-2.87,2.35-4.65,4.07C364.13,415.78,360.08,419.46,357.41,419.46Z"/><path class="cls-11" d="M346,454.76H230.24l-28.86-96.4a6.31,6.31,0,0,1,6.05-8.12H310a6.32,6.32,0,0,1,6,4.5Z"/><path class="cls-12" d="M343,454.76H227.23l-28.87-96.4a6.31,6.31,0,0,1,6-8.12H307a6.31,6.31,0,0,1,6,4.5Z"/><path class="cls-12" d="M424.79,443.85h-85.1L343,454.76h81.84a2.3,2.3,0,0,0,2.3-2.3v-6.31A2.3,2.3,0,0,0,424.79,443.85Z"/><path class="cls-8" d="M263.89,411.73c-.37,0-.75,0-1.13-.05-6.86-.7-13-5.93-13.74-11.67a8.9,8.9,0,0,1,2-6.75,13.3,13.3,0,0,1,9.3-4.58,12.71,12.71,0,0,1,13.87,11.23h0a10.77,10.77,0,0,1-2.89,8.84A10.28,10.28,0,0,1,263.89,411.73Zm-2.34-21.66a10.09,10.09,0,0,0-1.09.06,11.84,11.84,0,0,0-8.3,4.05,7.34,7.34,0,0,0-1.7,5.64c.64,5.11,6.22,9.78,12.44,10.41a9,9,0,0,0,7.37-2.5,9.3,9.3,0,0,0,2.48-7.67h0A11.24,11.24,0,0,0,261.55,390.07Z"/><path class="cls-8" d="M262.82,411.68a.74.74,0,0,1-.37-.1.77.77,0,0,1-.35-.55l-2.43-21.55a.7.7,0,0,1,.27-.64.72.72,0,0,1,.69-.12A13.24,13.24,0,0,1,268.74,400c.94,8.83-5.57,11.63-5.64,11.65A.67.67,0,0,1,262.82,411.68Zm-1.56-21.06,2.16,19.17c1.55-1,4.5-3.79,3.88-9.66A12,12,0,0,0,261.26,390.62Z"/><path class="cls-8" d="M262.82,411.68a.8.8,0,0,1-.33-.08c-.28-.15-7.09-3.69-8-11.5a11.54,11.54,0,0,1,5.57-11.34.74.74,0,0,1,.68,0,.71.71,0,0,1,.38.56l2.44,21.55a.73.73,0,0,1-.73.81Zm-3-21a9.81,9.81,0,0,0-3.88,9.27,14.07,14.07,0,0,0,6,9.6Z"/><path class="cls-8" d="M273.47,400.71h0l-23.73-.07a.73.73,0,0,1,0-1.45h0l23.74.07a.73.73,0,0,1,0,1.45Z"/><path class="cls-8" d="M260.28,395.94a18.77,18.77,0,0,1-8.7-1.9.73.73,0,0,1-.28-1,.72.72,0,0,1,1-.27h0a18,18,0,0,0,8.74,1.69,14.32,14.32,0,0,0,8.16-2.65.72.72,0,1,1,.95,1.09c-.13.12-3.24,2.76-9.05,3Z"/><path class="cls-8" d="M271.28,408.52a.7.7,0,0,1-.43-.15,17.22,17.22,0,0,0-8.72-2.67c-5.33-.26-8.15,1.53-8.18,1.55a.73.73,0,1,1-.79-1.22c.13-.09,3.26-2.07,9-1.78a18.29,18.29,0,0,1,9.51,2.95.73.73,0,0,1-.43,1.32Z"/><path class="cls-6" d="M157.65,167.57s-26,10.39-29.34,0c0,0-8.06-140.11,54.23-138.95,46.73.88,52.91,21.68,52.55,33.23,0,0,1.63,97.9-10.14,110.4S157.65,167.57,157.65,167.57Z"/><path class="cls-13" d="M197,454.76c-.35,5-.74,9.72-1.12,13.91H129.8l-1.92-13.91-4.44-32.17-2,32.17-.87,13.91H47.89c-.2-4.14-.41-8.8-.63-13.91-.56-12.92-1.15-28.69-1.62-46.12a192.36,192.36,0,0,1,12-71.8c.09-.25.18-.49.28-.72,2-5.29,3.48-8.2,3.48-8.2a327.18,327.18,0,0,1,51.46-7.3c23.88-1.35,50.49.46,66.58,11.91a33.42,33.42,0,0,1,13.9,20.81c.45,2.09.86,4.23,1.24,6.39C199.9,390.22,198.89,427.77,197,454.76Z"/><path class="cls-2" d="M194.54,359.73c-10.69-5.41-25.5-4.82-34.4-2.26-10.48,3-35.14,5.77-35.14,5.77s-4.25-11.91-4.54-14.43,30.9-21.53,30.9-21.53l28,5.25a33.42,33.42,0,0,1,13.9,20.81C193.75,355.43,194.16,357.57,194.54,359.73Z"/><path class="cls-3" d="M251.88,305.53C249,317.06,226.37,263,218.62,278.7s-21.54,30.8-23.24,48.56-2.08,26.08-2.08,26.08-6.05-7.75-18-6.62-29.85,12.13-48.56,10.6S58,337.46,58,337.46,45.16,318.19,42,304.21,60.84,178.44,90.13,161c25.65-15.26,43.92-15.8,55.48-20.54a26.77,26.77,0,0,0,4.53-2.33c11-7.22,15.2-24.6,15.2-24.6L206,129.84s-4.39,18.29,4,25.85a68.76,68.76,0,0,0,5.66,4.37c11,7.94,29.49,20.61,33.72,44.57C254.52,233.54,254.71,294,251.88,305.53Z"/><path class="cls-14" d="M215.7,160.06c-1.79,15-9.1,42.39-38.65,35.31-30.1-7.21-32.26-39.22-31.44-54.89a26.77,26.77,0,0,0,4.53-2.33c11-7.22,15.2-24.6,15.2-24.6L206,129.84s-4.39,18.29,4,25.85A68.76,68.76,0,0,0,215.7,160.06Z"/><path class="cls-3" d="M219.85,275.18s-20.59,37.53.52,52.08,49.32-22.15,56.55-41.71,26.34-84.92,26.34-84.92l-32-14.35S226.12,259.81,219.85,275.18Z"/><path class="cls-6" d="M172.11,33.73s-9.48.17-11.76-16S172.5.72,177.7.09s19.87,1.69,19.87,16.61-3.07,18.51-3.07,18.51Z"/><path class="cls-15" d="M208.78,113.31,205,136c-34.61-4.81-43.51-23.12-43.51-23.12l6.56-8.38Z"/><path class="cls-14" d="M160.85,55.86s-12.88,51.89,7.62,64.93c19.58,12.47,40.48,10.53,48.64,5.74,10.9-6.4,15.74-62,9.48-70.8S165.08,45.37,160.85,55.86Z"/><circle class="cls-7" cx="192.42" cy="84.59" r="3.67" transform="matrix(0.99, -0.13, 0.13, 0.99, -9.23, 25.27)"/><path class="cls-7" d="M219.15,85.31a3.67,3.67,0,1,1-3-4.22A3.67,3.67,0,0,1,219.15,85.31Z"/><path class="cls-2" d="M195.1,76c-.27-3.39-15,.37-13.33,3.87S195.26,78,195.1,76Z"/><path class="cls-2" d="M211.41,75.08c.39-1.78,15,2.32,13.37,4.87S210.87,77.6,211.41,75.08Z"/><path class="cls-15" d="M207.27,102.06a36.11,36.11,0,0,1-4.61-.34.72.72,0,0,1-.62-.82.71.71,0,0,1,.81-.62c3.55.48,7.14.4,7.54-.16,0-.79-1.48-4.28-2.65-7.09-1.85-4.45-3-7.24-3-8.42a.73.73,0,0,1,.73-.73h0a.73.73,0,0,1,.73.72c0,1,1.59,4.8,2.87,7.88,1.7,4.07,2.73,6.62,2.75,7.65a1.38,1.38,0,0,1-.49,1.09C210.61,101.87,209,102.06,207.27,102.06Z"/><path class="cls-16" d="M187.25,104.08s-2.84,10.86,5.46,12.84S206.79,109,206.79,109,195.31,109.59,187.25,104.08Z"/><path class="cls-6" d="M231.88,85.06l-2.64-31.5-17-9.79-48.51-1.62L151.38,65.49s2.75,24.7,6.05,18.54c5.57-10.42,19.32-13.08,30-16.27,6.44-1.92,16.42-7.47,16.71-15.26,4.1,9,10.17,11.33,16.26,16.69C229.33,77,231.88,85.06,231.88,85.06Z"/><path class="cls-14" d="M163,83.17s-5.84-8.27-11.18-7.54-5.5,22.59.89,23S160,92.52,160,92.52Z"/><path class="cls-15" d="M158.32,92.37a.74.74,0,0,1-.64-.39c-.72-1.36-3-5-4.76-5.51a1,1,0,0,0-.81.08.72.72,0,1,1-.75-1.24,2.45,2.45,0,0,1,1.95-.24c1.41.4,2.81,1.92,3.86,3.37-.51-2.79-1.49-6.15-3.15-7.17a2.13,2.13,0,0,0-2,0,.72.72,0,1,1-.57-1.33,3.53,3.53,0,0,1,3.36.14c3.52,2.15,4.21,10.6,4.28,11.56a.74.74,0,0,1-.53.75A.64.64,0,0,1,158.32,92.37Z"/><path class="cls-2" d="M303.26,200.62c-.31.69-4.17-.33-9.55-2.39-2.21-.85-4.66-1.88-7.23-3-3.71-1.66-7.06-3.32-9.66-4.77-3.62-2-5.81-3.59-5.56-4.15s2.78,0,6.55,1.3c2.85,1,6.42,2.41,10.24,4.13,2.65,1.19,5.13,2.38,7.28,3.5C300.33,197.8,303.56,200,303.26,200.62Z"/><path class="cls-14" d="M302.43,155.48s7.45-3.93,9.87-7.78,4.68-10.25,8.41-10.79-1.57,14.7-4.65,17.3-10,7.21-10,7.21Z"/><path class="cls-14" d="M312.75,171.8s2.38,4-2.83,7.06c-2.6,1.54-7,6.14-11.14,11.52-1.19,1.56-2.36,3.19-3.45,4.83l-.57.86c-.13.2-.58,1.15-1.05,2.16-2.21-.85-4.66-1.88-7.23-3-3.71-1.66-7.06-3.32-9.66-4.77.32-.94.66-1.89,1-2.85l.9-2.67a83.74,83.74,0,0,0,3.06-10.54c.55-4.25,1.86-15.7,6.26-20.47,3.21-3.47,15-14.51,16.56-14.35s3.3,6.11-6.28,14.1c.26-.18,6.17-4.09,8.57-.91l0,0,.11.16c.9,1.39,2.36,3.34,3.63,5.33l.1.15c2,3.14,3.5,6.34,1.63,7.42C312.37,165.83,315.44,169.66,312.75,171.8Z"/><path class="cls-15" d="M312.37,166.55a.69.69,0,0,1-.5-.2l-8.19-7.88c-3.64,1.45-10.1,4.07-11.15,4.62-.36.19-.74.42-1.15.66-1.27.76-2.57,1.55-3.66,1.48a2.47,2.47,0,0,1-2-1.11,2.55,2.55,0,0,1-.12-2.37c.88-2.18,10.42-7.65,12.32-8.73a.73.73,0,0,1,1,.28.73.73,0,0,1-.28,1c-5.38,3-11.22,6.87-11.68,8a1.11,1.11,0,0,0,0,1,1,1,0,0,0,.84.44,7.54,7.54,0,0,0,2.82-1.27c.43-.26.83-.5,1.22-.7,1.43-.76,11.31-4.7,11.73-4.87a.75.75,0,0,1,.77.15l8.53,8.21a.73.73,0,0,1-.51,1.25Z"/><path class="cls-15" d="M312.75,172.53a.73.73,0,0,1-.42-.14l-9.57-6.86c-1.33.33-6.45,1.67-8.61,2.93a5.93,5.93,0,0,1-4.4.84,2.3,2.3,0,0,1-1.48-1.09c-.42-.79-.93-3,3.48-6.34a.73.73,0,0,1,.88,1.16c-3.08,2.35-3.38,3.93-3.08,4.49a1,1,0,0,0,.59.38,4.48,4.48,0,0,0,3.27-.69c2.67-1.56,9.06-3.11,9.33-3.17a.75.75,0,0,1,.6.11l9.84,7.06a.73.73,0,0,1-.43,1.32Z"/><path class="cls-15" d="M293.93,175.59a2.94,2.94,0,0,1-1.07-.21c-.26-.1-.64-.36-.93-1.46a7.61,7.61,0,0,1,1.29-6.55.73.73,0,0,1,1.12.93,6.17,6.17,0,0,0-.83,5.77c.9.27,1.49-.38,2.2-1.57.09-.15.17-.29.24-.39.71-1,4.53-1.76,5.72-1.44s4.43,2.81,5.07,3.3a.73.73,0,1,1-.89,1.15,28.54,28.54,0,0,0-4.56-3.05,8.35,8.35,0,0,0-4.17.9l-.16.28C296.51,174,295.56,175.59,293.93,175.59Z"/><path class="cls-15" d="M303.05,178.74a.8.8,0,0,1-.3-.06c-2.83-1.28-2.08-6.8-2-7.42a.71.71,0,0,1,.64-.61.72.72,0,0,1,.76.46c.83,2.2,2.28,4.67,3,4.71a.72.72,0,0,1,.69.76.73.73,0,0,1-.76.69c-1.17-.05-2.24-1.41-3-2.82.1,1.28.43,2.53,1.25,2.9a.73.73,0,0,1,.36,1A.72.72,0,0,1,303.05,178.74Z"/><path class="cls-3" d="M112.31,402.09l29.23-19.32S125.14,326,85.6,285.5c0,0-43.93,6.05-43.65,18.71S86.37,382.3,112.31,402.09Z"/><path class="cls-2" d="M138.56,386.12A112.2,112.2,0,0,1,128,394a116.17,116.17,0,0,1-10.86,6.52c-2.71,1.39-4.51,2-4.8,1.61s.83-1.66,2.86-3.41a112.41,112.41,0,0,1,10.67-7.91,113.56,113.56,0,0,1,11.57-6.88c2.31-1.14,3.83-1.64,4.09-1.24S140.64,384.34,138.56,386.12Z"/><path class="cls-14" d="M164.42,418.4c-1.36.77-2.9,0-4.72-2.23a49.63,49.63,0,0,1-4-6.45A19.51,19.51,0,0,0,153.3,406c-1.93-1.45-4.81-3-5.57-2.81-1,.71-5,14.14-.44,22.36,4.86,8.72,8.82,23.87,4.36,26.92l-.33.22-.2-.35c-.08-.12-7.61-12.66-9.69-17.24-.47-1-1.09-2.88-1.89-5.2-2.23-6.56-14.55-21.79-22.43-29.45-.68-.66-1.33-1.27-1.94-1.8a112.41,112.41,0,0,1,10.67-7.91,113.56,113.56,0,0,1,11.57-6.88l1.15,2.23.38.73a2.85,2.85,0,0,0,1.93,1.46,26.32,26.32,0,0,1,5.19,1.73c11.56,5.2,13,6.42,15.2,10.34C162.94,403.36,168.78,416,164.42,418.4Z"/><rect class="cls-8" y="454.76" width="757.9" height="13.91"/></g></g></svg>