<svg xmlns="http://www.w3.org/2000/svg" xmlns:xlink="http://www.w3.org/1999/xlink" viewBox="0 0 1526 478"><defs><style>.cls-1{mask:url(#mask);filter:url(#luminosity-noclip-2);}.cls-2{mix-blend-mode:multiply;fill:url(#Безымянный_градиент_2);}.cls-3,.cls-9{fill:none;}.cls-4{clip-path:url(#clip-path);}.cls-10,.cls-5{fill:#fff;}.cls-6{fill:#001e50;}.cls-7{mask:url(#mask-2);}.cls-8{opacity:0.48;fill:url(#linear-gradient);}.cls-9{stroke:#ffb200;stroke-miterlimit:10;stroke-width:3px;}.cls-10{font-size:123.51px;font-family:MyriadPro-Regular, Myriad Pro;}.cls-11{letter-spacing:0em;}.cls-12{letter-spacing:-0.01em;}.cls-13{letter-spacing:-0.01em;}.cls-14{fill:#19468e;opacity:0.1;}.cls-15{fill:#c3d7f2;}.cls-16{fill:#1a284d;}.cls-17{fill:url(#linear-gradient-2);}.cls-18{fill:#224f88;}.cls-19{fill:#d18807;}.cls-20{fill:#ffb200;}.cls-21{fill:#122a4f;}.cls-22{fill:#ffa6aa;}.cls-23{fill:#ff797d;}.cls-24{fill:#20468f;}.cls-25{fill:url(#linear-gradient-3);}.cls-26{fill:#c62c43;opacity:0.5;}.cls-27{fill:url(#linear-gradient-4);}.cls-28{fill:#2463ed;}.cls-29{fill:#a26604;}.cls-30{fill:#e69a06;}.cls-31{fill:#bc7442;}.cls-32{fill:url(#linear-gradient-5);}.cls-33{fill:#1b85b5;}.cls-34{fill:#063d76;}.cls-35{fill:#02336d;}.cls-36{fill:#355baf;}.cls-37{filter:url(#luminosity-noclip);}</style><filter id="luminosity-noclip" x="-89" y="-8431" width="1117.99" height="32766" filterUnits="userSpaceOnUse" color-interpolation-filters="sRGB"><feFlood flood-color="#fff" result="bg"/><feBlend in="SourceGraphic" in2="bg"/></filter><mask id="mask" x="-89" y="-8431" width="1117.99" height="32766" maskUnits="userSpaceOnUse"><g class="cls-37"/></mask><linearGradient id="Безымянный_градиент_2" x1="1006.22" y1="101.98" x2="-97.42" y2="295.1" gradientUnits="userSpaceOnUse"><stop offset="0" stop-color="#333"/><stop offset="0.21" stop-color="#363636"/><stop offset="0.35" stop-color="#3f3f3f"/><stop offset="0.48" stop-color="#4f4f4f"/><stop offset="0.59" stop-color="#656565"/><stop offset="0.7" stop-color="#818181"/><stop offset="0.8" stop-color="#a4a4a4"/><stop offset="0.9" stop-color="#cdcdcd"/><stop offset="0.99" stop-color="#fcfcfc"/><stop offset="1" stop-color="#fff"/></linearGradient><clipPath id="clip-path"><rect id="SVGID" class="cls-3" width="1526" height="478"/></clipPath><filter id="luminosity-noclip-2" x="-89" y="19.91" width="1117.99" height="438.17" filterUnits="userSpaceOnUse" color-interpolation-filters="sRGB"><feFlood flood-color="#fff" result="bg"/><feBlend in="SourceGraphic" in2="bg"/></filter><mask id="mask-2" x="-89" y="19.91" width="1117.99" height="438.17" maskUnits="userSpaceOnUse"><g class="cls-1"><path class="cls-2" d="M-89,19.91H1029S879.05,55.45,818,235.11c-.72,2.1-1.45,4.19-2.19,6.25C769,371.58,645.07,458.09,506.71,458.09H-89Z"/></g></mask><linearGradient id="linear-gradient" x1="-89" y1="239" x2="1028.99" y2="239" gradientUnits="userSpaceOnUse"><stop offset="0" stop-color="#ffb200"/><stop offset="0.55" stop-color="#fdb000"/><stop offset="0.79" stop-color="#f6a902"/><stop offset="0.97" stop-color="#e99d05"/><stop offset="1" stop-color="#e69a06"/></linearGradient><linearGradient id="linear-gradient-2" x1="1182.22" y1="450.18" x2="1182.22" y2="262.23" gradientUnits="userSpaceOnUse"><stop offset="0" stop-color="#1e2b56"/><stop offset="1" stop-color="#354986"/></linearGradient><linearGradient id="linear-gradient-3" x1="1022.29" y1="342.45" x2="1021.69" y2="243.85" gradientUnits="userSpaceOnUse"><stop offset="0" stop-color="#f6070c"/><stop offset="1" stop-color="#f95d5e"/></linearGradient><linearGradient id="linear-gradient-4" x1="1367.2" y1="234.52" x2="1356.24" y2="331.91" gradientUnits="userSpaceOnUse"><stop offset="0" stop-color="#349cff"/><stop offset="1" stop-color="#2f85fe"/></linearGradient><linearGradient id="linear-gradient-5" x1="1449.77" y1="355.39" x2="1462.39" y2="405.89" gradientTransform="translate(946.28 -1033.57) rotate(55.43)" gradientUnits="userSpaceOnUse"><stop offset="0" stop-color="#fcc35b"/><stop offset="1" stop-color="#fb9b50"/></linearGradient></defs><g id="Layer_2" data-name="Layer 2"><g class="cls-4"><rect class="cls-5" x="-88.94" y="-4.43" width="1703.88" height="486.86"/><path class="cls-6" d="M1614.88,32.82V-4.43H-89V482.43H602.91c110,0,211.16-61.51,260.78-159.74a275.17,275.17,0,0,0,18-44.74C933.08,107.79,1073.78,62,1211.06,56.19S1614.88,32.82,1614.88,32.82Z"/><g class="cls-7"><path class="cls-8" d="M-89,19.91H1029S879.05,55.45,818,235.11c-.72,2.1-1.45,4.19-2.19,6.25C769,371.58,645.07,458.09,506.71,458.09H-89Z"/></g></g><line class="cls-9" x1="156.9" y1="301.14" x2="594.9" y2="301.14"/><text class="cls-10" transform="translate(159.2 267.25)"><tspan class="cls-11">W</tspan><tspan class="cls-12" x="103.87" y="0">h</tspan><tspan x="170.82" y="0">y </tspan><tspan class="cls-13" x="255.17" y="0">U</tspan><tspan x="334.34" y="0">s?</tspan></text><path class="cls-6" d="M1526.77,476.85a1.31,1.31,0,0,1-1.45,1.1H639.45a1.14,1.14,0,1,1,0-2.2h885.87A1.32,1.32,0,0,1,1526.77,476.85Z"/><path class="cls-14" d="M1297,135.88V462.66a19.52,19.52,0,0,1-5,13.09H1093.52a19.52,19.52,0,0,1-5-13.09V135.88a19.59,19.59,0,0,1,19.59-19.59h169.34A19.59,19.59,0,0,1,1297,135.88Z"/><path class="cls-15" d="M1282.44,129.38V456.16a19.59,19.59,0,0,1-19.59,19.59H1101.59A19.59,19.59,0,0,1,1082,456.16V129.38a19.59,19.59,0,0,1,19.59-19.59h161.26A19.59,19.59,0,0,1,1282.44,129.38Z"/><path class="cls-16" d="M1101.59,472a15.87,15.87,0,0,1-15.86-15.86V129.38a15.87,15.87,0,0,1,15.86-15.86h161.26a15.88,15.88,0,0,1,15.87,15.86V456.16A15.88,15.88,0,0,1,1262.85,472Z"/><rect class="cls-17" x="1092.32" y="138.8" width="179.8" height="307.18"/><path class="cls-18" d="M1290.52,129.38V456.16a19.59,19.59,0,0,1-19.59,19.59h-8.08a19.59,19.59,0,0,0,19.59-19.59V129.38a19.59,19.59,0,0,0-19.59-19.59h8.08A19.59,19.59,0,0,1,1290.52,129.38Z"/><path class="cls-19" d="M1183.47,236.05a15.06,15.06,0,0,0-6.17,4.16,21.75,21.75,0,0,0-4.78,10,29.49,29.49,0,0,0-.83,5.28h-9.26a29.33,29.33,0,0,1,.82-5.28,21.78,21.78,0,0,1,4.79-10A14.24,14.24,0,0,1,1183.47,236.05Z"/><path class="cls-19" d="M1241.58,250.23c-.38,12.08-6.14,22.39-13.63,31.49-7.36,8.93-21.86,16.59-21.89,29.51l-.06,17.51h-9.26q0-8.76,0-17.51c0-12.92,14.54-20.58,21.9-29.51,7.48-9.1,13.25-19.41,13.63-31.49A45.52,45.52,0,0,0,1208.5,209a50.66,50.66,0,0,0-5.36-2.44,61.91,61.91,0,0,0-18.09-4,63,63,0,0,1,27.36,4,49.6,49.6,0,0,1,5.35,2.44A45.51,45.51,0,0,1,1241.58,250.23Z"/><path class="cls-20" d="M1232.32,250.23c-.38,12.08-6.15,22.39-13.63,31.49-7.36,8.93-21.86,16.59-21.9,29.51q0,8.76,0,17.51h-38V307.86c0-8.53,3.77-16,9.31-22.28,3.79-4.3,7.69-8.66,11.84-12.62,4-3.77,8.37-7.32,11-12.26,3-5.63,3.17-13.18-.18-18.67a14,14,0,0,0-7.14-6,14.24,14.24,0,0,0-15.43,4.16,21.78,21.78,0,0,0-4.79,10,29.33,29.33,0,0,0-.82,5.28h-39.59a65.58,65.58,0,0,1,3.08-14.74,57.35,57.35,0,0,1,7.91-16.06c11.64-16.18,31.76-23.63,51.22-22.22a61.91,61.91,0,0,1,18.09,4,50.66,50.66,0,0,1,5.36,2.44A45.52,45.52,0,0,1,1232.32,250.23Z"/><path class="cls-19" d="M1209.65,360.49A22,22,0,0,1,1183,382a22,22,0,0,0,0-43,22,22,0,0,1,26.61,21.5Z"/><path class="cls-20" d="M1200.42,360.49A21.94,21.94,0,1,1,1183,339,22,22,0,0,1,1200.42,360.49Z"/><path class="cls-21" d="M1042.51,250.49c0,.49-.11,1-.17,1.47a56.69,56.69,0,0,1-2.88,12A45.45,45.45,0,0,1,1028,282c-5.85,5.43-13.35,8.22-21.14,9.41-16.2,2.48-34.58-1.95-45.49-14.8-2.66-3.12-5.59-6.65-7.08-12.23-1.34-5-1.37-10.63.8-15.38,1.85-4.06,4.9-6.67,8.09-9.68,2.86-2.7,4.53-5.15,4.88-9.15.26-2.95.55-5.86,2.21-8.39,2.15-3.25,5.94-5.05,9.54-6.16,6.39-2,12.32-2.76,16.66-8.35,1.76-2.27,3.43-4.61,5.89-6.18a11.1,11.1,0,0,1,5-2,10.51,10.51,0,0,1,6.25,1.31,10.3,10.3,0,0,1,3,2.48,9.71,9.71,0,0,1,1.06,1.63c3.06-.7,6.61.37,7.8,3.48.87,2.3,0,4.68-.3,7a8.8,8.8,0,0,0,1.57,6.26c2.16,3.16,5.62,4.88,8.26,7.58a27,27,0,0,1,7.58,21.66Z"/><path class="cls-22" d="M1020.44,225.14a8.6,8.6,0,0,1-4.16,4.52,7.48,7.48,0,0,1-1.33.5,8.94,8.94,0,0,1-5.45-.31,9,9,0,0,1-3.35-2.24,9.17,9.17,0,0,0,1.79,3.7,10.29,10.29,0,0,0,7.3,3.45c.21,3.26.41,6.52.62,9.77l-17.17-2.41a57.16,57.16,0,0,0,1.88-6,25.73,25.73,0,0,0,1.17-7.25,20.07,20.07,0,0,0-.53-4.36,3.44,3.44,0,0,1-3.37-1.8,2.87,2.87,0,0,1,0-2.24,3.1,3.1,0,0,1,2.24-1.63c1.43-.22,1.84.85,3.73,1.4s4.64.31,6.13-1.23a5.74,5.74,0,0,0,1.25-2.43c.74-2.13.2-2.8.91-4.87a5.56,5.56,0,0,1,1.74-2.89,5,5,0,0,1,3.66-.83c1,3.52,2,7,3,10.56A9,9,0,0,1,1020.44,225.14Z"/><path class="cls-23" d="M1003.47,220.15a6.26,6.26,0,0,0,1.28.53c2,.58,4.64.31,6.13-1.22a5.92,5.92,0,0,0,1.25-2.43c.74-2.14.2-2.81.9-4.87a5.5,5.5,0,0,1,1.75-2.89,4.61,4.61,0,0,1,2.79-.89c0-.13-.07-.26-.1-.38a5,5,0,0,0-3.66.84,5.5,5.5,0,0,0-1.74,2.88c-.71,2.07-.17,2.74-.91,4.87a5.74,5.74,0,0,1-1.25,2.43c-1.49,1.54-4.15,1.81-6.13,1.23Z"/><path class="cls-23" d="M1015.24,234.76a10.29,10.29,0,0,1-7.3-3.45,9.17,9.17,0,0,1-1.79-3.7,9,9,0,0,0,3.35,2.24,8.94,8.94,0,0,0,5.45.31C1015,231.7,1015.14,233.23,1015.24,234.76Z"/><path class="cls-22" d="M997.55,397.8c-3.08,9.95-5.39,18.13-6.93,23.82-3,11-4.24,16.54-7.29,25.11a177.7,177.7,0,0,1-7.55,18,9.24,9.24,0,0,1-9.5-3.12c.82-8.4,1.79-15.11,2.47-19.39,2.37-14.9,4.56-21.82,7.16-38.13.78-4.91,1.35-9.12,1.74-12.24A84.5,84.5,0,0,0,997.55,397.8Z"/><path class="cls-24" d="M1041,345.22c-1.92,8.68-3.84,23.35-3.87,49.75-.55.18-1.12.36-1.71.53a83.54,83.54,0,0,1-21.89,3.47c-.62,0-1.24,0-1.87,0a82.45,82.45,0,0,1-14.13-1.2,84.5,84.5,0,0,1-19.9-6l-1.58-.71a201.76,201.76,0,0,0,5.22-29.05c1.38-13.38.57-19.07,3-28.9.57-2.34,1.23-4.55,2-6.63a73.24,73.24,0,0,1,3.07-7.47l.21-.09.5-.2-.38-.4c.54-1.1,1.08-2.14,1.62-3.13a142,142,0,0,0,15.83,1.41,144.32,144.32,0,0,0,32.22-2.56,51.53,51.53,0,0,1,2.77,10.73A54.35,54.35,0,0,1,1041,345.22Z"/><path class="cls-21" d="M976.38,475.75H962.44a1.53,1.53,0,0,1-1.53-1.64,19.81,19.81,0,0,1,5.37-12.54,9.24,9.24,0,0,0,9.5,3.12,22.36,22.36,0,0,1,2.13,9.54A1.52,1.52,0,0,1,976.38,475.75Z"/><path class="cls-21" d="M1050.69,475.75h-33.16a1.61,1.61,0,0,1-1.6-1.49,34.26,34.26,0,0,1,0-5.47,35,35,0,0,1,1.22-6.75c6.09,2.22,12.38-.88,12.38-.88,2.08.52,5,1.31,8.41,2.43,5.55,1.83,8.34,2.74,10.28,4.31a13.39,13.39,0,0,1,4,5.67A1.6,1.6,0,0,1,1050.69,475.75Z"/><path class="cls-22" d="M1035.44,395.5q-1.8,17-3.38,34.59-1.41,15.72-2.55,31.07s-6.29,3.1-12.38.88c.24-10.42.09-21.7-.66-33.72-.65-10.42-1.67-20.22-2.92-29.35A83.54,83.54,0,0,0,1035.44,395.5Z"/><path class="cls-25" d="M1081.93,241.94c-2.45,5.09-4.8,9.46-6.86,13.06-2.31,4-4,6.66-6.56,10.65-2.2,3.42-3.77,5.71-5,7.35a24,24,0,0,1-3.77,4.17c-2.42,2.12-4.46,3.85-7.59,4.45-4.07.79-7.45-.82-10.5-2.33a34.54,34.54,0,0,1-5.12-3.13c.43,2.68.84,5.58,1.32,9,.62,4.37,1.24,8.87,1.75,15,.46,5.48.65,10.16.73,13.71l-1,.21a142.75,142.75,0,0,1-48,1.15l-1.33-.19c.55-7.69.81-16.12.59-25.17-.21-8.1-.76-15.66-1.54-22.61A32.68,32.68,0,0,0,978,284a30.62,30.62,0,0,0-.66,12.34c1,5.63,3.4,9.55,6.06,13.78a60.59,60.59,0,0,0,6.19,8.21l.38.4-.5.2a.88.88,0,0,0-.2.09,9.69,9.69,0,0,0-4.85,4.8,9.37,9.37,0,0,0-.58,1.62,58.39,58.39,0,0,1-8.1-7.08c-3.12-3.26-9-9.45-12.11-19-3.17-9.74-1.78-18-.88-23.13s3-16.2,12.33-26.27a45.42,45.42,0,0,1,21.14-13.28,15,15,0,0,0,6.26,5.79c1.43.69,7.29,3.5,11.7.15a9.37,9.37,0,0,0,3.44-6.23l.5.15c11.83,3.67,20.91,13.19,27.16,23.53,1.67,2.75,4,6.39,7.61,3.85,2.51-1.78,4.42-4.44,6.45-6.71q3.6-4,6.93-8.26c3.14-4,5.9-7.89,8.32-11.61a13.41,13.41,0,0,1,1.33.43,14.19,14.19,0,0,1,2.83,1.4,13.43,13.43,0,0,1,1.73,1.3A14.36,14.36,0,0,1,1081.93,241.94Z"/><path class="cls-22" d="M1097,226.31c-2.13,3.58-2,4.07-3.21,5.1s-1.94,1-5.1,2.48a26.14,26.14,0,0,0-5.35,3.07,11.53,11.53,0,0,0-2.86,3.58,13.43,13.43,0,0,0-1.73-1.3,14.19,14.19,0,0,0-2.83-1.4,23.12,23.12,0,0,0,.2-2.87c0-2.32-.34-3.22.15-4.6a7,7,0,0,1,2.27-2.87,60.21,60.21,0,0,1,6.39-4.95c.81-.8,1.59-1.21,1.93-1s0,1.77-.1,1.93a7.89,7.89,0,0,1-1.93,2.67c-1.2,1.31-1.76,1.78-2.13,2.83-.17.46-.34,1-.1,1.28.54.72,2.71-.11,3.07-.24,1.7-.65,2.73-1.57,5.44-4.26,2.86-2.84,3.7-3.79,5.5-4.6.34-.16,2.89-1.31,3.46-.6S1099.34,222.46,1097,226.31Z"/><path class="cls-22" d="M1001.14,327.51c-.18.46-1.31.43-1.67.41a9.77,9.77,0,0,1-4.31-1.67c-.56-.32-.73-.44-.84-.36s-.33.53,2.33,6.05c1.46,3,1.93,3.74,1.56,4.61-.67,1.55-3.3,1.67-3.41,1.67a5.84,5.84,0,0,1-4.08-1.73c-1.87-1.75-2.19-3.92-2.69-5.69a18.83,18.83,0,0,0-1.8-4.28,23.17,23.17,0,0,0-1.77-2.67,9.73,9.73,0,0,1,4.84-4.8l.21-.09c.92.69,2,1.47,3.31,2.26,1.82,1.13,2.72,1.51,4.55,2.75C999.05,325.12,1001.44,326.74,1001.14,327.51Z"/><path class="cls-26" d="M1063.52,273a24,24,0,0,1-3.77,4.17c-2.42,2.12-4.46,3.85-7.59,4.45-4.07.79-7.45-.82-10.5-2.33a33.92,33.92,0,0,1-5.11-3.13c-.61-3.87-1.25-7.28-2.19-11.24a146.89,146.89,0,0,0-4.67-15.76,44.41,44.41,0,0,1,4.89,10.73c1.63,5.43,1.29,8.29,4,11.3a14.88,14.88,0,0,0,6.71,3.94,24.31,24.31,0,0,0,10.8.66A21.91,21.91,0,0,0,1063.52,273Z"/><path class="cls-26" d="M992.41,290.65A228,228,0,0,1,989.93,315c.55-7.69.81-16.12.59-25.17-.2-8.1-.76-15.66-1.54-22.62A32.76,32.76,0,0,0,978,284a30.57,30.57,0,0,0-.66,12.33c1,5.64,3.4,9.56,6.06,13.79.58.92,1.15,1.78,1.72,2.59-4.53-4.33-11.13-12.38-11-22.67.07-7.89,4-14.93,6.81-19.85a61.31,61.31,0,0,1,8.37-11.48,81.05,81.05,0,0,1,2.33,9.93C992.22,272.11,993,278.1,992.41,290.65Z"/><path class="cls-22" d="M1017.66,236.46a9.37,9.37,0,0,1-3.44,6.23c-4.41,3.35-10.27.54-11.7-.15a15,15,0,0,1-6.26-5.79c.85-.24,1.74-.46,2.65-.65A37.77,37.77,0,0,1,1017.66,236.46Z"/><path class="cls-22" d="M1367.69,212.28c0,2.18-.11,4-.2,5.3a43.42,43.42,0,0,0-.28,6.66c.23,2.59.37,4.3,1.57,5.95a7.82,7.82,0,0,0,3.38,2.58,11.54,11.54,0,0,0,3.38.8,10.91,10.91,0,0,0,7.66-2.47,14.49,14.49,0,0,1-8.62,7.29,13.54,13.54,0,0,1-4.6.51,111.5,111.5,0,0,1-4.68,10.41l21.84,1q-.41-10.35-.82-20.69c-.08-1.88-.15-3.76-.23-5.64a3.15,3.15,0,0,0,2.78-2.4,2.93,2.93,0,0,0-1.85-3.48,2.9,2.9,0,0,0-3,1.2,5.71,5.71,0,0,1-2.3-1.84,6.68,6.68,0,0,1-.65-5.79,13.59,13.59,0,0,0-2.7-.08,15.36,15.36,0,0,0-3,.57,15.87,15.87,0,0,1-7,.23Z"/><path class="cls-21" d="M1367.66,377.13c.33,8-.3,11.25-.48,17.43a114.21,114.21,0,0,0,1.36,20.86c.68-6.82,1.58-14.38,2.74-25.64.53-5.14,1.26-12.57,2.06-21.7-2.54-7.23-5.53-16.34-8.57-27.05.13,3.53.41,9.29,1.06,16.44C1366.66,366.77,1367.38,370.22,1367.66,377.13Z"/><path class="cls-24" d="M1417.81,455l-1.16.37c-.63.2-1.29.39-2,.55a29.66,29.66,0,0,1-7.39.79l-.74,0c-4.64-11.82-8.26-21.52-10.7-28.17-5.14-14-6.41-18.26-11.43-31.5-4.79-12.67-5.45-13.61-8.64-22.24-.74-2-1.56-4.24-2.41-6.69-2.55-7.23-5.54-16.34-8.58-27.05.13,3.53.41,9.29,1.06,16.44.83,9.3,1.55,12.75,1.83,19.66.33,8-.3,11.25-.48,17.43a114.21,114.21,0,0,0,1.36,20.86c-.55,5.61-.94,10.73-1.18,17-.38,9.88-.19,17.86,0,22.66l-1.09.2a24.44,24.44,0,0,1-3.52.34,25.05,25.05,0,0,1-6-.54q-.81-.17-1.5-.36c-2.06-12.65-3.54-23.66-4.61-32.55-1.16-9.63-3-24.78-4.09-44.78-.78-13.68-.93-24.09-1-31.65-.09-6.81-.09-13.19,0-19.07,0-5,.13-9.65.25-13.9h0c.35-1.49.68-2.91,1-4.27l49,9.62c1.07,4,2,7.78,2.78,11.37.12.52.23,1,.34,1.55.32,1.46.61,2.89.89,4.27,1.48,7.48,2.41,13.86,3,18.94,1,8.14.93,11,2.34,22.4,1.39,11.08,2.81,19.24,4.47,28.71,3.1,17.65,4.67,23.36,6.89,39C1417.05,448.83,1417.52,452.54,1417.81,455Z"/><path class="cls-22" d="M1407.27,456.7l.6,4.31a3.82,3.82,0,0,0,1.21-.47c.65-.41.73-.74,1.61-1.47a5.37,5.37,0,0,1,2.07-1.29,4.49,4.49,0,0,1,2.9.35,6.27,6.27,0,0,1,1.49.83c-.17-1.2-.33-2.4-.5-3.59-.63.19-1.29.38-2,.54A29.66,29.66,0,0,1,1407.27,456.7Z"/><path class="cls-21" d="M1408,475.75h21.31a1.63,1.63,0,0,0,1.58-1.68,5.07,5.07,0,0,0-.72-2.61c-.45-.71-1.9-1.55-4.79-3.2a33.59,33.59,0,0,1-4.25-2.63,8.37,8.37,0,0,1-2.54-2.6,6.92,6.92,0,0,1-.82-3.08,1.13,1.13,0,0,0-.38-.81l-.24-.18a6.27,6.27,0,0,0-1.49-.83,4.49,4.49,0,0,0-2.9-.35,5.37,5.37,0,0,0-2.07,1.29c-.88.73-1,1.06-1.61,1.47a3.82,3.82,0,0,1-1.21.47h0a1.16,1.16,0,0,0-.88,1.17,67.48,67.48,0,0,1-.26,8.93c-.09.92-.2,1.81-.32,2.67A1.68,1.68,0,0,0,1408,475.75Z"/><path class="cls-21" d="M1334.89,475.75h33.7a1.16,1.16,0,0,0,1.11-1.35q-.9-6.9-1.81-13.8a.85.85,0,0,0-1.14-.72l-.15.06a9.29,9.29,0,0,1-3.3.61,10.19,10.19,0,0,1-4.59-1.2A9.05,9.05,0,0,1,1357,458a1.39,1.39,0,0,0-.64-.22c-1-.09-1.68.51-3.17,1.78-1.81,1.51-3.63,3-4.4,3.64a20.92,20.92,0,0,1-4.6,3.06c-.9.41-2.59.94-6,2-1.65.52-2.42.73-3.11,1.54s-.87,1.85-1.18,3.47c-.05.28-.11.59-.18.91A1.26,1.26,0,0,0,1334.89,475.75Z"/><path class="cls-22" d="M1356.74,455.06c.06,1,.14,2,.21,3a9.05,9.05,0,0,0,1.76,1.31,10.19,10.19,0,0,0,4.59,1.2,9.29,9.29,0,0,0,3.3-.61l-.33-4.68a24.44,24.44,0,0,1-3.52.34A25.05,25.05,0,0,1,1356.74,455.06Z"/><path class="cls-27" d="M1430.89,294.38c-.05,14.65-8.58,25.92-18.2,36.12-1.07,1.13-2.16,2.25-3.25,3.36-3,3.05-4.62,4.21-6.56,6.31-.86-1.48-1.84-3-3-4.58l-.22-.3c-.74-1-1.48-1.93-2.21-2.8.46-.5.91-1,1.32-1.47a64.1,64.1,0,0,0,5.12-6.63,59.7,59.7,0,0,0,4.28-7.4,32.26,32.26,0,0,0,2.69-8.78,26.71,26.71,0,0,0-.41-12,23.6,23.6,0,0,0-7.32-11.78,23,23,0,0,0-5.55-3.51,109.91,109.91,0,0,0-.61,11.83c0,6.59.64,13.9,1.08,19.05.6,7.07,1.32,13,1.89,17.16l-1.51.5a75.42,75.42,0,0,1-53-2.82c-1.07-.47-2-.92-2.94-1.36,1.23-4.54,2.29-8.74,3.19-12.54h0c.35-1.49.68-2.91,1-4.27.38-1.69.73-3.28,1-4.76.77-3.66,1.49-7,2.13-10.42-2.52,1.86-5.6,4-9.21,6.27a125,125,0,0,1-18,9.53,89.34,89.34,0,0,1-19.54,5.6,101.46,101.46,0,0,1-11.52,1.29,14.18,14.18,0,0,1-3.34-7.06c0-.17-.06-.34-.08-.5.93-.33,2-.71,3.12-1.17a71.09,71.09,0,0,0,12-6.42c11-6.93,16.46-10.42,17.26-11,6.69-5.07,10-7.61,13.18-12.1,1.28-1.83,3.26-6.08,7.19-14.5,5.07-10.89,4.89-10.89,5.81-12.16,5.83-8.06,15.06-10.7,18.69-11.74.56-.17,1.12-.31,1.68-.44a6.39,6.39,0,0,0,.4,4.3c2.14,4.13,9.7,4.23,14.54,2.1a14.33,14.33,0,0,0,6.06-5.16c12.4,4.29,23.24,14.22,31.16,24.52C1426,273.24,1430.93,283.33,1430.89,294.38Z"/><path class="cls-22" d="M1291.65,316l-.77,0a24.16,24.16,0,0,1-6,4c-2.2,1-3.7,1.69-5.63,1.38a8.22,8.22,0,0,1-4.14-2.22,10.65,10.65,0,0,1-2.81-4,44.91,44.91,0,0,1-6,1.86c-2.73.65-5.11,1.22-5.52.48s1.29-2.61,2.94-3.77c2.37-1.67,4.33-1.64,7.55-2.46,3.92-1,4-2.17,7.31-2.82a19.83,19.83,0,0,1,8.86.24l.86.24a14.18,14.18,0,0,0,3.34,7.06Z"/><path class="cls-22" d="M1402.88,340.17c-.63.68-1.3,1.46-2.07,2.43-3.19,4-4.07,6.34-7.49,8.21a17.29,17.29,0,0,1-7.78,1.93c-.9.05-3.11.18-3.3-.47s1.37-1.53,2.72-2.36c2.63-1.61,3.26-1.34,4.76-2.62a7.33,7.33,0,0,0,2.36-3.55c0-.13.52-1.94,0-2.23s-1.26.95-2.76,1.73c-1.72.89-3.81,1.18-4.09.65-.16-.3.3-.84.72-1.32a8.85,8.85,0,0,1,2.58-2c.32-.19,1.24-.95,3.08-2.47a61.53,61.53,0,0,0,5.89-5.63c.81.95,1.62,2,2.43,3.1C1401,337.16,1402,338.69,1402.88,340.17Z"/><path class="cls-28" d="M1411.65,309.92a35.23,35.23,0,0,1-3.45,7.07,32.26,32.26,0,0,0,2.69-8.78,26.71,26.71,0,0,0-.41-12,23.6,23.6,0,0,0-7.32-11.78,22.64,22.64,0,0,0-5.55-3.5c.16-1.53.35-3.12.59-4.77a39.92,39.92,0,0,1,10,9.58c2.12,2.9,4.34,5.93,5.21,10.51C1414.52,301.91,1412.89,306.46,1411.65,309.92Z"/><path class="cls-28" d="M1352.87,269.25c-.15,2.64-.38,5.58-.71,8.77-.59,5.66-1.36,10.48-2.27,15.28-2.52,1.86-5.6,4-9.21,6.27a125.86,125.86,0,0,1-18,9.54,90,90,0,0,1-19.54,5.59,95.65,95.65,0,0,0,22.39-12.32A90.28,90.28,0,0,0,1344.92,283,83.28,83.28,0,0,0,1352.87,269.25Z"/><path class="cls-21" d="M1363.07,209.32a7,7,0,0,0,4.62,3l.62.15a15.87,15.87,0,0,0,7-.23,15.36,15.36,0,0,1,3-.57,13.59,13.59,0,0,1,2.7.08,6.68,6.68,0,0,0,.65,5.79,5.71,5.71,0,0,0,2.3,1.84,2.9,2.9,0,0,1,3-1.2,2.93,2.93,0,0,1,1.85,3.48,3.15,3.15,0,0,1-2.78,2.4c.08,1.88.15,3.76.23,5.64a11,11,0,0,0,2-1.34c1.76-1.53,2.51-3.2,3.53-5.58a24,24,0,0,0,2.22-7.69c.22-2.29.41-4.24-.51-6.55a11.57,11.57,0,0,0-3.83-4.83,11.74,11.74,0,0,0-5-2.39,11,11,0,0,0-3.26-.17l-.21-.18c-2.15-1.71-5.84-2.75-8.44-.93a5.46,5.46,0,0,0-1.45,1.52c-1-.62-3.77-2.08-6.18-.81a5.62,5.62,0,0,0-2.52,3.31A6.66,6.66,0,0,0,1363.07,209.32Z"/><path class="cls-22" d="M1388.2,240.12a14.33,14.33,0,0,1-6.06,5.16c-4.84,2.13-12.4,2-14.54-2.1a6.39,6.39,0,0,1-.4-4.3A37.14,37.14,0,0,1,1388.2,240.12Z"/><path class="cls-23" d="M1370,238.9a13.54,13.54,0,0,0,4.6-.51,14.49,14.49,0,0,0,8.62-7.29,10.91,10.91,0,0,1-7.66,2.47,11.54,11.54,0,0,1-3.38-.8q-.75,2.32-1.66,4.77C1370.33,238,1370.16,238.45,1370,238.9Z"/><path class="cls-29" d="M1272.48,424.28a28.32,28.32,0,1,0-30.91,25.47A28.33,28.33,0,0,0,1272.48,424.28Z"/><circle class="cls-30" cx="1242.29" cy="417.07" r="28.32" transform="translate(566.71 1539.93) rotate(-77.52)"/><path class="cls-5" d="M1246.51,413.12c1-2.14-.19-4.41-3-5.78a8.21,8.21,0,0,0-7.9.18l-3.8-5.66c4.09-2.45,9.3-2.74,15.21.11,6.56,3.16,9.7,8.29,7.21,13.45-3.38,7-11.11,4.24-13.35,8.88l-6.6-3.19C1237.19,415,1244.67,416.93,1246.51,413.12Z"/><path class="cls-5" d="M1230,427.69a4.68,4.68,0,0,1,8.4,4.05,4.67,4.67,0,0,1-8.4-4.05Z"/><circle class="cls-5" cx="1100.06" cy="162.31" r="36.97" transform="translate(-7.67 259.32) rotate(-13.4)"/><circle class="cls-19" cx="1096.78" cy="155.6" r="36.97" transform="translate(-8.67 227.19) rotate(-11.78)"/><path class="cls-5" d="M1103.29,146.42c0-3-2.65-4.94-6.66-4.94a10.45,10.45,0,0,0-8.94,4.57l-7.46-4.38c3.33-5.06,9.13-8.26,17.45-8.26,9.24,0,15.65,4.13,15.65,11.4,0,9.87-10.35,11-10.35,17.51h-9.31C1093.67,153.69,1103.29,151.78,1103.29,146.42Z"/><path class="cls-5" d="M1092.44,172.18c0-3.14,2.46-5.49,5.92-5.49s5.91,2.35,5.91,5.49a5.92,5.92,0,0,1-11.83,0Z"/><circle class="cls-31" cx="1455.66" cy="388.96" r="25.86" transform="translate(550.3 1593.35) rotate(-68.03)"/><circle class="cls-32" cx="1456.89" cy="383.88" r="25.86" transform="translate(314.09 1365.67) rotate(-55.43)"/><path class="cls-5" d="M1464.49,381.84c1.35-1.63.78-3.84-1.38-5.63a7.3,7.3,0,0,0-6.85-1.53l-2.07-5.69c4-1.23,8.6-.37,13.09,3.34,5,4.13,6.59,9.21,3.34,13.13-4.4,5.31-10.48,1.29-13.39,4.81l-5-4.16C1456.07,381.46,1462.1,384.73,1464.49,381.84Z"/><path class="cls-5" d="M1447.15,390.87a4.15,4.15,0,0,1,6.37,5.29,4.15,4.15,0,0,1-6.37-5.29Z"/><circle class="cls-33" cx="920.59" cy="404.11" r="24.34" transform="translate(-16.11 769.31) rotate(-45)"/><circle class="cls-6" cx="924.34" cy="405.37" r="24.34" transform="translate(-61.04 186.85) rotate(-11.18)"/><path class="cls-5" d="M925,397.74c-1-1.78-3.25-2-5.61-.63a7.14,7.14,0,0,0-3.7,5.75l-5.89,0c.23-4.12,2.54-8,7.44-10.84,5.45-3.17,10.64-2.93,13.13,1.35,3.38,5.81-2.34,10-.1,13.86l-5.49,3.19C921.85,405.31,926.86,400.9,925,397.74Z"/><path class="cls-5" d="M927.46,416.63a4,4,0,0,1,7-4.06,4,4,0,0,1-7,4.06Z"/><circle class="cls-6" cx="1350.94" cy="146.57" r="37.83" transform="translate(292.04 998.19) rotate(-45)"/><circle class="cls-34" cx="1352.46" cy="141.84" r="37.83" transform="translate(-7.05 110.43) rotate(-4.66)"/><path class="cls-5" d="M1356.23,132.65c-1.48-2.54-4.64-2.85-8-.89a10.15,10.15,0,0,0-5.28,8.2l-8.41,0c.33-5.88,3.63-11.4,10.63-15.47,7.77-4.52,15.17-4.18,18.73,1.93,4.82,8.29-3.34,14.29-.15,19.78l-7.82,4.55C1351.7,143.46,1358.85,137.16,1356.23,132.65Z"/><path class="cls-5" d="M1359.7,159.61c-1.53-2.64-.6-5.82,2.3-7.5s6.12-.93,7.65,1.71a5.76,5.76,0,0,1-10,5.79Z"/><path class="cls-29" d="M1436.6,230.41h42.19a7.34,7.34,0,0,0,7.34-7.34v-.76a5.16,5.16,0,0,1-3.29,4.81,5.21,5.21,0,0,1-1.86.35h-41.43Z"/><path class="cls-35" d="M1421.58,189.9v49a2.71,2.71,0,0,0,4.61,1.93h0l10.39-10.4,3-2.94H1481a5.21,5.21,0,0,0,1.86-.35,5.16,5.16,0,0,0,3.29-4.81V189.9a5.15,5.15,0,0,0-5.15-5.15h-54.25a5.13,5.13,0,0,0-4.8,3.29A5,5,0,0,0,1421.58,189.9Z"/><path class="cls-29" d="M1426.73,184.75a8.1,8.1,0,0,0-8.1,8.09v49a2.71,2.71,0,0,0,4.63,1.92l2.93-2.94a2.71,2.71,0,0,1-4.61-1.93v-49a5,5,0,0,1,.35-1.86,5.13,5.13,0,0,1,4.8-3.29Z"/><circle class="cls-5" cx="1438.39" cy="205.47" r="3.89"/><circle class="cls-5" cx="1452.38" cy="205.47" r="3.89"/><circle class="cls-5" cx="1466.38" cy="205.47" r="3.89"/><path class="cls-36" d="M958.92,178.05H916.73a7.35,7.35,0,0,1-7.34-7.35V170a5.15,5.15,0,0,0,3.29,4.8,5,5,0,0,0,1.86.35H956Z"/><path class="cls-20" d="M973.94,137.53v49a2.71,2.71,0,0,1-4.61,1.93h0l-10.4-10.4-2.94-3H914.54a5,5,0,0,1-1.86-.35,5.15,5.15,0,0,1-3.29-4.8V137.53a5.16,5.16,0,0,1,5.15-5.15h54.25a5.17,5.17,0,0,1,4.81,3.29A5.25,5.25,0,0,1,973.94,137.53Z"/><path class="cls-36" d="M968.79,132.38a8.1,8.1,0,0,1,8.1,8.1v49a2.71,2.71,0,0,1-4.63,1.92l-2.93-2.93a2.71,2.71,0,0,0,4.61-1.93v-49a5.25,5.25,0,0,0-.34-1.86,5.17,5.17,0,0,0-4.81-3.29Z"/><circle class="cls-5" cx="957.13" cy="153.11" r="3.89"/><circle class="cls-5" cx="943.14" cy="153.11" r="3.89"/><circle class="cls-5" cx="929.15" cy="153.11" r="3.89"/></g></svg>