<svg xmlns="http://www.w3.org/2000/svg" viewBox="0 0 681.13 708.85"><defs><style>.cls-1,.cls-20,.cls-9{isolation:isolate;}.cls-2{fill:#e7e7e7;}.cls-3{fill:#ececec;}.cls-4{fill:#f0f0f0;}.cls-5{fill:#e1e1e1;}.cls-11,.cls-14,.cls-6{fill:#fff;}.cls-10,.cls-20,.cls-21,.cls-6,.cls-9{opacity:0.2;}.cls-6{mix-blend-mode:screen;}.cls-7{fill:#001e50;}.cls-16,.cls-21,.cls-8{fill:none;}.cls-12{fill:#007cff;}.cls-13{fill:#ffb200;}.cls-14{opacity:0.5;}.cls-15{fill:#cd7a63;}.cls-16{stroke:#fff;}.cls-16,.cls-21{stroke-linecap:round;stroke-linejoin:round;stroke-width:0.5px;}.cls-17{fill:#1a2e35;}.cls-18{fill:#063d76;}.cls-19{opacity:0.3;}.cls-21{stroke:#000;}.cls-22{fill:#b94d3c;}.cls-23{fill:#fe5652;}</style></defs><g class="cls-1"><g id="Layer_2" data-name="Layer 2"><g id="Layer_2-2" data-name="Layer 2"><path class="cls-2" d="M360.76,601,347.07,390.63l.46,0,15.55,210.19Zm-42.48-.15-2-.15,16.81-210.09.76.05Zm87.59-6.3-46-205.68,1-.23,46.71,205.52Zm-132.07-.33-2-.46,47.9-205.25.73.17Zm174.94-12.59L373,384.88l.55-.21,77.2,196.11Zm-218-.66-1.89-.75L306.87,384.4l.71.28Zm258.9-18.72L385,379.21l.7-.4L491.3,561.22ZM190,561.32l-1.87-1.09L295,378.55l.54.32Zm336.66-24.08L396.46,371.52l.4-.32L528.45,535.83C527.86,536.31,527.27,536.78,526.67,537.24ZM153,536l-2-1.57L284,371l.22.17Zm407-29.25L406.34,362.48l.49-.53L561.36,505.27Zm-440-1.34L118.62,504,273.75,361.35l.57.62Zm468.14-33.4L415,351.73l.26-.37L589.41,470.13ZM91.91,470.39c-.42-.6-.83-1.22-1.24-1.83L265.5,350.86l.32.48Zm519.17-37.47L421.71,340.41l.43-.88,189.73,91.76ZM69.33,431.44q-.48-1-1-2L258.84,339.2l.24.49Zm558.42-40.11L426.83,327.66l.16-.5,201.44,62C628.2,389.87,628,390.6,627.75,391.33Zm-575-1.9c-.21-.68-.41-1.36-.62-2L254,326.65l.19.62Zm585.32-42.26L429.85,314.84l.11-.77,208.46,31.12ZM42.77,345.54c-.11-.71-.21-1.43-.31-2.14l208.63-29.89.09.62Zm599-42.75L431,300.92v-.87H641.73v.41C641.73,301.23,641.73,302,641.72,302.79Zm-391.55-2.13H39.41v-1.94l210.76,1.09ZM430,287.18l-.06-.44L638.31,255c.12.77.23,1.54.34,2.31Zm-178.84-.31L42.66,256.11l.33-2.19L251.25,286.3Zm176-12.42-.29-1,201.35-62.25.53,1.71Zm-173.1-.55L52.63,212l.62-2,201.06,63.2Zm168.26-12-.36-.75,189.68-91.88.85,1.76ZM259,261.45,69.11,169.93l.85-1.75,189.38,92.51ZM415.74,250.2l-.54-.79L589.11,130.35l1,1.51Zm-150-.55L91.56,131l1.23-1.79,173.33,119.9ZM407,239.17l-.27-.29L561,95.23,562.6,97ZM274.24,239,119.56,95.87,121,94.29,274.66,238.58Zm123-9-.46-.38L528,64.74l1.71,1.38Zm-113-.23L152.43,65.28l1.78-1.41,130.4,165.58Zm102-7.41-.61-.35L490.83,39.42l1.81,1Zm-90.82-.22L189.54,39.86l1.88-1.08L295.88,221.83ZM374,216.4l-.55-.22L450.2,19.9l2.05.81Zm-66.48-.13L230,20.26l2.08-.81L308,216.07Zm53.74-3.87-.55-.12L407,6.66l2.16.5Zm-41-.06L273.2,6.88l2.2-.49,45.33,205.83Zm27.65-2-.59,0L362.5.09l2.18.16Zm-14.29,0L317.69.16,319.87,0l14.29,210.28Z"/><path class="cls-3" d="M92.94,556.89a11,11,0,0,1-7.39-2.72,9.55,9.55,0,0,1-3.15-7.62,9.8,9.8,0,0,1,3-7.31,10.35,10.35,0,0,1,7.49-3,10,10,0,0,1,7.34,3,9.89,9.89,0,0,1,3,7.31,9.58,9.58,0,0,1-3.12,7.58A10.53,10.53,0,0,1,92.94,556.89Z"/><path class="cls-3" d="M60.47,476.44a24.21,24.21,0,0,1,4.12-12.92,31.67,31.67,0,0,1,12-10.85A38,38,0,0,1,95,448.38,39.42,39.42,0,0,1,112.31,452a27.9,27.9,0,0,1,11.58,9.77A23.88,23.88,0,0,1,128,475.17a20.68,20.68,0,0,1-2.32,10,30.65,30.65,0,0,1-5.54,7.42q-3.21,3.12-11.51,10.51a48.91,48.91,0,0,0-3.68,3.66,14.72,14.72,0,0,0-2.06,2.89,14,14,0,0,0-1,2.62c-.25.87-.62,2.4-1.12,4.59q-1.28,7-8,7a8.21,8.21,0,0,1-5.9-2.28q-2.4-2.3-2.4-6.79a23.69,23.69,0,0,1,6.41-17q2.91-3.12,7.83-7.42,4.32-3.76,6.25-5.67a19.48,19.48,0,0,0,3.24-4.27,10.3,10.3,0,0,0,1.31-5.1,11.85,11.85,0,0,0-4-9.06A14.75,14.75,0,0,0,95,462.54q-7.43,0-10.93,3.73t-5.94,11q-2.3,7.59-8.71,7.59a8.6,8.6,0,0,1-6.38-2.66A8.09,8.09,0,0,1,60.47,476.44Z"/><path class="cls-4" d="M592.78,433.86a10.9,10.9,0,0,1-7.15-3.28,9.51,9.51,0,0,1-2.57-7.83,9.8,9.8,0,0,1,3.6-7.06,10.37,10.37,0,0,1,7.69-2.39,10.08,10.08,0,0,1,7.1,3.52,9.9,9.9,0,0,1,2.41,7.51,9.58,9.58,0,0,1-3.69,7.33A10.54,10.54,0,0,1,592.78,433.86Z"/><path class="cls-4" d="M566.53,351.18a24.12,24.12,0,0,1,5.09-12.58,31.68,31.68,0,0,1,12.8-9.9,38,38,0,0,1,18.7-2.88,39.54,39.54,0,0,1,17,4.89,28,28,0,0,1,10.8,10.63,23.86,23.86,0,0,1,3,13.7,20.7,20.7,0,0,1-3.08,9.79,30.67,30.67,0,0,1-6.09,7q-3.43,2.88-12.27,9.61a47.45,47.45,0,0,0-4,3.36,15,15,0,0,0-2.27,2.73A14.08,14.08,0,0,0,605,390c-.32.85-.8,2.35-1.46,4.5q-1.82,6.87-8.54,6.35a8.24,8.24,0,0,1-5.72-2.72q-2.22-2.46-1.87-6.95a23.66,23.66,0,0,1,7.69-16.48,104.14,104.14,0,0,1,8.37-6.81c3.06-2.28,5.28-4,6.66-5.18a19.29,19.29,0,0,0,3.55-4,10.34,10.34,0,0,0,1.7-5,11.87,11.87,0,0,0-3.31-9.35,14.81,14.81,0,0,0-10.05-4.47q-7.41-.56-11.19,2.89t-6.76,10.49q-2.86,7.4-9.26,6.91a8.62,8.62,0,0,1-6.16-3.13A8.09,8.09,0,0,1,566.53,351.18Z"/><path class="cls-2" d="M85.77,168.92a9.69,9.69,0,0,1-6.41-2.75,8.43,8.43,0,0,1-2.44-6.89A8.65,8.65,0,0,1,80,153a9.11,9.11,0,0,1,6.76-2.28,9,9,0,0,1,8.68,9.57,8.5,8.5,0,0,1-3.12,6.57A9.28,9.28,0,0,1,85.77,168.92Z"/><path class="cls-2" d="M60.73,96.18A21.43,21.43,0,0,1,65,84.92a28,28,0,0,1,11.14-9,33.73,33.73,0,0,1,16.51-3,35.19,35.19,0,0,1,15.14,4,24.78,24.78,0,0,1,9.8,9.19,21,21,0,0,1,3,12.08,18.21,18.21,0,0,1-2.52,8.75,27.07,27.07,0,0,1-5.25,6.32q-3,2.63-10.67,8.78a40.48,40.48,0,0,0-3.43,3.07,11.63,11.63,0,0,0-3,4.73q-.39,1.14-1.2,4c-1,4.09-3.45,6-7.44,5.82a7.31,7.31,0,0,1-5.12-2.3q-2-2.13-1.81-6.11a21,21,0,0,1,6.46-14.78,92.5,92.5,0,0,1,7.28-6.21q4-3.14,5.79-4.74a17.19,17.19,0,0,0,3.07-3.63,9.23,9.23,0,0,0,1.4-4.46A10.5,10.5,0,0,0,101,89.21a13.09,13.09,0,0,0-9-3.75q-6.57-.34-9.85,2.8a26.26,26.26,0,0,0-5.77,9.45Q74,104.33,68.3,104a7.62,7.62,0,0,1-5.53-2.65A7.2,7.2,0,0,1,60.73,96.18Z"/><path class="cls-3" d="M154.4,409.81a6.21,6.21,0,0,1-4-1.85,5.35,5.35,0,0,1-1.45-4.42,5.53,5.53,0,0,1,2-4,5.86,5.86,0,0,1,4.34-1.35,5.71,5.71,0,0,1,4,2,5.63,5.63,0,0,1,1.37,4.24,5.41,5.41,0,0,1-2.08,4.14A6,6,0,0,1,154.4,409.81Z"/><path class="cls-3" d="M139.54,363.14a13.58,13.58,0,0,1,2.87-7.11,17.82,17.82,0,0,1,7.22-5.59,21.43,21.43,0,0,1,10.56-1.64,22.35,22.35,0,0,1,9.57,2.76,15.72,15.72,0,0,1,6.11,6,13.49,13.49,0,0,1,1.73,7.73,11.66,11.66,0,0,1-1.74,5.54,17.31,17.31,0,0,1-3.43,3.94q-1.94,1.62-6.93,5.43a25.08,25.08,0,0,0-2.22,1.9,8.11,8.11,0,0,0-1.28,1.54,7.55,7.55,0,0,0-.7,1.43c-.18.48-.45,1.33-.83,2.54-.67,2.59-2.28,3.78-4.81,3.59a4.65,4.65,0,0,1-3.23-1.53,5,5,0,0,1-1.06-3.92,14,14,0,0,1,1.4-5.43,13.83,13.83,0,0,1,2.93-3.88,59.74,59.74,0,0,1,4.72-3.85q2.6-1.93,3.76-2.93a11,11,0,0,0,2-2.26,5.87,5.87,0,0,0,1-2.82,6.66,6.66,0,0,0-1.88-5.27,8.29,8.29,0,0,0-5.67-2.52q-4.18-.31-6.32,1.63a16.87,16.87,0,0,0-3.81,5.93c-1.07,2.78-2.82,4.08-5.22,3.9a4.81,4.81,0,0,1-3.48-1.76A4.56,4.56,0,0,1,139.54,363.14Z"/><path class="cls-3" d="M476.49,433.21a6.19,6.19,0,0,1-4-1.85,5.35,5.35,0,0,1-1.45-4.42,5.56,5.56,0,0,1,2-4,5.85,5.85,0,0,1,4.34-1.35,5.66,5.66,0,0,1,4,2,5.58,5.58,0,0,1,1.36,4.24,5.43,5.43,0,0,1-2.07,4.14A6,6,0,0,1,476.49,433.21Z"/><path class="cls-3" d="M461.63,386.53a13.65,13.65,0,0,1,2.86-7.1,17.77,17.77,0,0,1,7.23-5.59,21.39,21.39,0,0,1,10.56-1.64,22.2,22.2,0,0,1,9.57,2.75,15.81,15.81,0,0,1,6.11,6,13.57,13.57,0,0,1,1.73,7.73,11.69,11.69,0,0,1-1.74,5.53,17.4,17.4,0,0,1-3.43,4q-1.93,1.62-6.93,5.42a26.75,26.75,0,0,0-2.22,1.91,7.46,7.46,0,0,0-2,3c-.17.48-.45,1.33-.82,2.54-.68,2.59-2.28,3.78-4.82,3.59a4.69,4.69,0,0,1-3.23-1.53,5.13,5.13,0,0,1-1.06-3.93,13.47,13.47,0,0,1,4.34-9.31,58.12,58.12,0,0,1,4.72-3.84q2.6-1.94,3.76-2.93a11.3,11.3,0,0,0,2-2.26,5.87,5.87,0,0,0,1-2.82,6.71,6.71,0,0,0-1.88-5.28,8.29,8.29,0,0,0-5.68-2.52c-2.78-.21-4.89.34-6.31,1.64a16.78,16.78,0,0,0-3.81,5.93q-1.62,4.17-5.23,3.9a4.85,4.85,0,0,1-3.47-1.76A4.58,4.58,0,0,1,461.63,386.53Z"/><path class="cls-3" d="M592.6,179.5a6.17,6.17,0,0,1-4.16-1.54,5.38,5.38,0,0,1-1.78-4.3,5.52,5.52,0,0,1,1.72-4.13,5.8,5.8,0,0,1,4.22-1.67,5.74,5.74,0,0,1,5.84,5.8,5.42,5.42,0,0,1-1.77,4.28A6,6,0,0,1,592.6,179.5Z"/><path class="cls-3" d="M574.28,134.07a13.67,13.67,0,0,1,2.32-7.3,17.92,17.92,0,0,1,6.78-6.12,21.46,21.46,0,0,1,10.41-2.43,22.37,22.37,0,0,1,9.76,2,15.76,15.76,0,0,1,6.53,5.52,13.44,13.44,0,0,1,2.31,7.58,11.64,11.64,0,0,1-1.32,5.65,17.34,17.34,0,0,1-3.12,4.19q-1.82,1.76-6.5,5.93a29,29,0,0,0-2.08,2.07,8.2,8.2,0,0,0-1.16,1.63,8.3,8.3,0,0,0-.59,1.48c-.14.49-.35,1.36-.63,2.6-.48,2.62-2,3.94-4.53,3.94a4.64,4.64,0,0,1-3.34-1.29,5.06,5.06,0,0,1-1.35-3.83,13.38,13.38,0,0,1,3.62-9.61,58.14,58.14,0,0,1,4.42-4.19c1.63-1.42,2.8-2.48,3.52-3.2a10.66,10.66,0,0,0,1.83-2.41,5.78,5.78,0,0,0,.75-2.88,6.68,6.68,0,0,0-2.27-5.12,8.3,8.3,0,0,0-5.85-2.09c-2.8,0-4.85.7-6.18,2.11a16.83,16.83,0,0,0-3.35,6.2q-1.29,4.28-4.92,4.28a4.85,4.85,0,0,1-3.6-1.5A4.56,4.56,0,0,1,574.28,134.07Z"/><rect class="cls-5" x="24.71" y="598.69" width="25.72" height="0.4"/><rect class="cls-5" x="214.81" y="594.35" width="85.74" height="0.4"/><rect class="cls-5" x="52.04" y="613.57" width="58.06" height="0.4"/><rect class="cls-5" x="547.98" y="594.14" width="69.18" height="0.4"/><rect class="cls-5" x="631.43" y="594.14" width="10.14" height="0.4"/><rect class="cls-5" x="448.45" y="604.12" width="86.32" height="0.4"/><path class="cls-6" d="M681.13,698.85c0,5.52-152.47,10-340.56,10S0,704.37,0,698.85s152.48-10,340.57-10S681.13,693.33,681.13,698.85Z"/><path class="cls-7" d="M151,222.25q0-37.78,23.26-76.58T242.1,81.43Q286.73,56,346.21,56q55.29,0,97.63,21.28t65.4,57.88a146.4,146.4,0,0,1,23.07,79.56q0,33.81-13.16,59.27a180.79,180.79,0,0,1-31.27,44q-18.11,18.49-65,62.25a274.64,274.64,0,0,0-20.78,21.68A88.44,88.44,0,0,0,390.45,419a85.62,85.62,0,0,0-5.91,15.51q-2.1,7.77-6.3,27.25-7.25,41.38-45.38,41.37-19.83,0-33.36-13.52T286,449.39q0-33.42,9.91-57.88a147.64,147.64,0,0,1,26.32-43q16.4-18.49,44.23-44,24.4-22.27,35.28-33.61A113.88,113.88,0,0,0,420,245.72a63.11,63.11,0,0,0,7.44-30.23q0-31.83-22.69-53.71T346.21,139.9q-42,0-61.78,22.08t-33.56,65q-13,45-49.19,45-21.36,0-36-15.71T151,222.25Z"/><path class="cls-8" d="M260.89,153l.15,0-.27,0Z"/><path class="cls-8" d="M259.22,120.45l-.14,0-.14,0Z"/><g class="cls-9"><path d="M418,337.82c-6.74-37.69-13.72-52.85-22.76-60.33q-10.67,10.53-28.83,27.1Q343,326,327.69,342.49c3.88,49.46,9.39,119.66,9.46,120.27l3.34,39.87q21.22-2.62,31-20.55c-1.21-14.83-3.93-20.61-3.93-20.61S371,411,374.31,371.59c4.63,15.66,9.06,33.2,15,49.77.37-.8.72-1.6,1.12-2.4a88.44,88.44,0,0,1,11.63-17.11,274.64,274.64,0,0,1,20.78-21.68c.85-.78,1.65-1.54,2.48-2.31C422.21,361.91,419.46,346.85,418,337.82Z"/></g><g class="cls-9"><path d="M436.43,284.37l-14.92-41.69c-.48,1-1,2-1.51,3A113.8,113.8,0,0,1,410,261.33l14.67,27.59a10.39,10.39,0,0,0-1.79,6.05c.31,3.91-.49,7.12-.06,10s2.54-.44,3.31-2.44,1.65-4.26,3.06-3.44,8.43,12.95,10.51,13.86,1.56-1.4,1.56-1.4,1.79,2.9,3.13,2.51c.35-.1,1-.91.39-2.36-1.37-3.26-4.58-10-4.58-10,.18.39,4.73,8.38,5.57,9.48,1.1,1.45,2.35,1.57,3.17.91,1.16-.94-4.15-11-4.07-11.61,0,0,2.86,5.91,4.79,6s.33-3.72-1.72-6.82c-1.88-2.84-4.82-8.91-7-11.61A11.79,11.79,0,0,0,436.43,284.37Z"/></g><g class="cls-9"><path d="M266,181.14l.28-.14c2.16-1.17.31-10.07.31-10.07s2.23-2.4,1.37-4.65c-.45-1.19-1-1.39-1-1.39a4.25,4.25,0,0,0-.59-6.25l-.29-.21c.74-1-.06-4.06-2-3.18a20.38,20.38,0,0,0-2.42,1.54v-3.7l.55,0c6.64-.41,11.58-8.08,11-17.14s-6.39-16.06-13-15.66a9.3,9.3,0,0,0-1.18.16l.14,0h-.28l.14,0a7.87,7.87,0,0,0-1.19,0c-6.64.4-11.58,8.07-11,17.13.51,8.34,5.51,14.94,11.49,15.61v6.12c-3.63,2.79-7.51,6.14-7.4,7.1.21,1.63,4.71,16.47,4.71,16.47h.12c.39,3.77,1.39,12.87,2.92,22.6A199,199,0,0,1,267.86,186ZM260.89,153h-.12l.27,0Z"/></g><g class="cls-9"><path d="M330.12,102.49H330a17.23,17.23,0,0,0-3-.13c-3.69-.26-6.85-.58-15.64,2.66-10.42,4.31-14.92,12.56-16.17,18.93-.73,8.8.92,15.46,1.42,24.25l.69-.95c0,.89,0,1.76.06,2.59,0,.48.09.93.15,1.39q18.69-11.29,48.67-11.32c1.09,0,2.15,0,3.22.07a4.09,4.09,0,0,0-.78-.83c.66-2.32,1.18-4.73,1.67-7a26,26,0,0,0,.38-6.69c3.17,1.14,6.2,3.37,7.37,6.09a102.06,102.06,0,0,0,4.8,9.65,77.64,77.64,0,0,1,33.89,13.88,28.31,28.31,0,0,0,11.9-4.91c5.2-3.88,8.72-11.44,6.53-18a9.17,9.17,0,0,1-7.6,2.5,10.8,10.8,0,0,0,2.42-9.79c-9,3.57-19.74,8-28.37,3.44-3.95-2.1-6.5-6.63-9.66-10s-6.61-6.71-10.82-8c-3.44-1.09-10.18,1-13.78,4.1a24.89,24.89,0,0,0-1.95-3C342.1,108.07,336.81,103.4,330.12,102.49Z"/></g><path class="cls-7" d="M334.36,698.85a60.19,60.19,0,0,1-41.71-16.13q-17.81-16.14-17.81-45.14,0-25.73,17.23-43.29t42.29-17.57q24.66,0,41.5,17.57t16.84,43.29q0,28.6-17.62,44.93T334.36,698.85Z"/><g class="cls-10"><path class="cls-11" d="M337.57,592.18c-1.56-1.56-3.95-1.89-6.15-2a52.37,52.37,0,0,0-17.76,2.22,39.06,39.06,0,0,0-23.94,46c1,4.16,3.8,8.85,8.08,8.66,2.83-.13,5-2.4,6.92-4.52l13.5-15.12c6.74-7.55,13.53-15.17,18.61-23.92C338.87,599.93,340.46,595,337.57,592.18Z"/></g><path class="cls-12" d="M425.17,43.7a36.28,36.28,0,0,0-52.1,48.78L370.14,103l11.45-1.25c.16.13.31.27.47.39A36.31,36.31,0,0,0,425.17,43.7Z"/><path class="cls-13" d="M425.17,43.7a36.28,36.28,0,0,0-52.1,48.78L370.14,103l11.45-1.25c.16.13.31.27.47.39A36.31,36.31,0,0,0,425.17,43.7Z"/><path class="cls-7" d="M401.26,74.69a20.43,20.43,0,0,1,2.67-3.43,17,17,0,0,0,1.89-2.32,3.77,3.77,0,0,0,.61-2.13,3.34,3.34,0,0,0-1.15-2.68,4.54,4.54,0,0,0-3.06-1A6,6,0,0,0,399,64a7.45,7.45,0,0,0-2.4,2.49l-4.72-3.25a11.72,11.72,0,0,1,4.43-4.54,13,13,0,0,1,6.61-1.6,11,11,0,0,1,7.2,2.24,7.69,7.69,0,0,1,2.71,6.24,9.52,9.52,0,0,1-.53,3.3,8.78,8.78,0,0,1-1.29,2.4,27.29,27.29,0,0,1-2,2.27,18.1,18.1,0,0,0-2.1,2.55,4.53,4.53,0,0,0-.67,2.5h-5.89A7.72,7.72,0,0,1,401.26,74.69Zm-.62,13.9a3.63,3.63,0,0,1-1.08-2.65,3.51,3.51,0,0,1,1.06-2.61,4,4,0,0,1,5.38,0,3.54,3.54,0,0,1,1.05,2.61,3.77,3.77,0,0,1-6.41,2.65Z"/><path class="cls-13" d="M239.3,131.62c-.52-8.51,3.81-15.8,9.85-17a9.43,9.43,0,0,0-1.19,0c-6.64.41-11.58,8.08-11,17.13s6.39,16.07,13,15.67a9.3,9.3,0,0,0,1.18-.16C245,146.83,239.82,140.13,239.3,131.62Z"/><ellipse class="cls-14" cx="249.89" cy="130.96" rx="11.68" ry="16.34"/><path class="cls-14" d="M257.13,119.38,238.7,135.62a21.42,21.42,0,0,0,1.41,4.27l19.05-17.12A13.37,13.37,0,0,0,257.13,119.38Z"/><path class="cls-14" d="M254.63,116.65l-16.4,15.49.15,1.37,17.41-15.65C255.35,116.69,255.41,117.09,254.63,116.65Z"/><path class="cls-13" d="M263.36,130.15c-.55-9.06-6.39-16.07-13-15.66a7.77,7.77,0,0,0-1.18.15c6.14.44,11.32,7.14,11.84,15.65s-4.18,15.82-10.22,17c.39,0,1.17,0,1.57,0C259,146.87,263.92,139.2,263.36,130.15Z"/><path class="cls-13" d="M248.42,147.3h3.37a0,0,0,0,1,0,0v24.43a1,1,0,0,1-1,1h-1.3a1,1,0,0,1-1-1V147.3A0,0,0,0,1,248.42,147.3Z"/><path class="cls-15" d="M283.11,191.08l-13.37,21L255.24,173l-9.57,2.21s4.53,48.35,12.06,55.82a14.43,14.43,0,0,0,19.4,1.36c5.69-4.48,24.59-28.16,24.59-28.16Z"/><path class="cls-15" d="M245.73,177.07s-4.5-14.84-4.71-16.48,11.26-10.24,13.19-11.13,2.73,2.21,2,3.18l.29.21a4.27,4.27,0,0,1,.59,6.26h0s.54.2,1,1.38c.86,2.25-1.37,4.65-1.37,4.65s1.85,8.9-.32,10.07-4.14,2.15-4.17,1.9Z"/><path class="cls-13" d="M249.15,169.39l3.07-2.29v5.26a1.71,1.71,0,0,1-1.53,1.86h0a1.72,1.72,0,0,1-1.54-1.86Z"/><polygon class="cls-15" points="335.3 541.71 337.39 563.55 353.81 565.35 355.48 541.86 335.3 541.71"/><path d="M333.83,560.06a1.5,1.5,0,0,1,1.56-1.51l5,.19c1.27,0,2.55,2.37,3.28,3.41,3.16,4.53,5.6,2.87,9.15-1.29,2.23-.24,2.79,2.37,3,3.07l4,15.52a2.45,2.45,0,0,1-1.68,3,2.35,2.35,0,0,1-.7.08l-18.4-.26-25.77-.35c-7-.1-8.38-7.34-5.48-8,13.05-2.75,22.32-6.53,26.39-10.33C334.67,563.11,333.89,561.64,333.83,560.06Z"/><path class="cls-16" d="M331.42,564.85a6.75,6.75,0,0,1,4.69,3.18"/><path class="cls-16" d="M327.72,567a6.75,6.75,0,0,1,4.69,3.18"/><path class="cls-16" d="M323.17,569.17a6.78,6.78,0,0,1,4.69,3.18"/><polygon class="cls-15" points="468.73 507.67 486.4 520.34 498.65 509.12 482.19 492.48 468.73 507.67"/><path d="M481.26,520.9a1.52,1.52,0,0,1-.11-2.19l3.38-3.73c.83-1,3.42-.41,4.68-.29,5.43.52,5.77-2.44,5-7.9,1.27-1.87,3.59-.6,4.23-.27l14.16,7.09a2.46,2.46,0,0,1,1.15,3.24,2.42,2.42,0,0,1-.39.59l-12.13,14-17,19.62c-4.63,5.35-10.92,1.67-9.51-1,6.41-11.86,9.6-21.47,9.4-27.09C484.09,522.24,482.49,521.88,481.26,520.9Z"/><path class="cls-16" d="M483.5,525.79a6.65,6.65,0,0,1,5.42-1.55"/><path class="cls-16" d="M482.71,530a6.67,6.67,0,0,1,5.42-1.54"/><path class="cls-16" d="M481.38,535a6.66,6.66,0,0,1,5.41-1.54"/><path class="cls-13" d="M314,289S327.11,456,327.22,457l8.18,97.79h21.26a117.77,117.77,0,0,1,1.25-13c9.7-65-.25-86-.25-86s8.54-125.52,11.53-135C369.49,319.71,359.32,247.78,314,289Z"/><path class="cls-13" d="M313.7,288.76l.58,1c8.77,11.85,25.37,24.48,34,35.31l3,6.83s63.16-49,22.11-69.15c-1.71-.83-14.27-7.55-14.27-7.55C348.3,252.51,313.7,288.76,313.7,288.76Z"/><path class="cls-13" d="M408.08,332c3.44,21.38,14.12,76.63,20.17,97.41,0,0,18.61,10.65,29.13,22.57L491,499.3l-15,13.46L414.73,468c-13.85-10.43-19.46-18.16-24.9-28.33-13.29-24.83-19.85-56.46-27.78-81.46-3.68-11.59-17.79-48.93-16.59-60.93,1.61-16.25,2.18-42.53,21.93-33.59C386.27,269.18,397.47,272.71,408.08,332Z"/><polygon class="cls-13" points="361.11 363.76 345.57 306.38 327.86 300.47 341.69 313.37 361.11 363.76"/><path class="cls-17" d="M290.36,182.17c-5.74,4.76-15.91,21-15.91,21l22.88,13s11.7-17,10.5-24.58C306.57,183.67,299,178.38,290.36,182.17Z"/><path class="cls-18" d="M290.36,182.17c-5.74,4.76-15.91,21-15.91,21l22.88,13s11.7-17,10.5-24.58C306.57,183.67,299,178.38,290.36,182.17Z"/><path class="cls-19" d="M289.13,211V194.75s-6.65,19.43-5.13,22.92,2.14,5.31,2.14,5.31l2.56-3Z"/><path class="cls-17" d="M372.88,252.7a39.42,39.42,0,0,1-9.27-20c-1.74-11.28-4.11-27.05-3.84-28.28l.77-30.42c-6.73-6.73-31.69-6.79-31.69-6.79l-16.74,4.26s-6.22,2.74-11.43,5.66c-7,3.89-10.61,4.1-11.57,8.57,0,0-1.37,14.67-1.74,29.53-.14,5.31,24.48,54.06,24.79,63.24v14.95c35.69,18,73.17-26.47,73.17-26.47Z"/><path class="cls-18" d="M372.88,252.7a39.42,39.42,0,0,1-9.27-20c-1.74-11.28-4.11-27.05-3.84-28.28l.77-30.42c-6.73-6.73-31.69-6.79-31.69-6.79l-16.74,4.26s-6.22,2.74-11.43,5.66c-7,3.89-10.61,4.1-11.57,8.57,0,0-1.37,14.67-1.74,29.53-.14,5.31,24.48,54.06,24.79,63.24v14.95c35.69,18,73.17-26.47,73.17-26.47Z"/><path class="cls-19" d="M361.14,216.3s-15.64-14.13-14.85-20.74l13.31,7.15.89,8.95Z"/><path class="cls-15" d="M372.61,187.31c.37.54,23,26,32.13,35.7a21,21,0,0,1,4.44,7.18l18.68,52.2-11.7,3.5L389.31,235.4l-33.75-28.55Z"/><path class="cls-15" d="M415.72,281.7s-3.12,3.57-2.82,7.49-.49,7.11-.06,10,2.54-.44,3.31-2.44,1.65-4.26,3.06-3.44,8.43,13,10.51,13.87,1.56-1.41,1.56-1.41,1.78,2.9,3.13,2.51c.34-.1,1-.9.38-2.35-1.36-3.26-4.57-10-4.57-10,.18.39,4.73,8.37,5.57,9.48,1.09,1.44,2.35,1.57,3.17.9,1.16-.94-4.15-11-4.07-11.61,0,0,2.86,5.91,4.79,6S440,297,438,293.92c-1.88-2.84-4.82-8.9-7-11.61-2.69-3.33-5.25-5-9.15-3.95A13.62,13.62,0,0,0,415.72,281.7Z"/><path class="cls-17" d="M356.24,171.75c7.59.48,21.36,19.46,21.36,19.46l-17.83,20.15s-16.73-14.6-17-24.38C342.53,178.72,346.61,171.11,356.24,171.75Z"/><path class="cls-18" d="M356.24,171.75c7.59.48,21.36,19.46,21.36,19.46l-17.83,20.15s-16.73-14.6-17-24.38C342.53,178.72,346.61,171.11,356.24,171.75Z"/><path d="M301.45,99.23c-10.41,4.3-14.91,12.56-16.16,18.93-.73,8.8.92,15.45,1.42,24.24l33.48-45.7C314.68,96.7,312.53,95.14,301.45,99.23Z"/><path d="M313.76,97c9.76-2.39,17.4,4.22,21.74,8.62a25.82,25.82,0,0,1,4.89,20.71c-1.48,6.84-3.27,15.12-8.16,17.87a11.36,11.36,0,0,1-9.05,1.06l-26.89-37.85A41.27,41.27,0,0,1,313.76,97Z"/><path class="cls-15" d="M326.78,153.41a5.12,5.12,0,0,0-.06-.78A5.84,5.84,0,0,0,317,149.1h0l-9.31,4.13,0,.43,1.68,13.71c.26,4.07-4.35,7.43-6.94,9.22-1.55,1.2-4.65,12.35,5.73,20.59,3.06,2.45,7.78-1.54,10.85-4.21,12.64-12.16,12.37-23.38,12.37-23.38C326.7,165.33,326.37,162.46,326.78,153.41Z"/><path class="cls-20" d="M304.31,152.44a1.65,1.65,0,0,0,.18-.41h0l10.09-.93a5.76,5.76,0,0,1,7.59,3.16c.47.83,1.64-5,.41,2.63V157l-13.34,9.37s-1.62-11.12-1.7-11.16S304.31,152.44,304.31,152.44Z"/><path class="cls-15" d="M334.92,127.37c-3.77,15.74-5,22.45-14.34,29.55-14,10.66-32.14,3.49-33.12-12.87-.77-14.71,5.44-37.94,21.83-42.25S338.68,111.62,334.92,127.37Z"/><path class="cls-15" d="M339,142.29a13.36,13.36,0,0,1-8.61,5.22c-4.39.6-5.7-6.5-3.69-10.62A8.78,8.78,0,0,1,337,132.4C341,133.68,341.62,138.75,339,142.29Z"/><path class="cls-21" d="M330.08,140.43a6.12,6.12,0,0,1,2.49-3.79,6,6,0,0,1,4.41-1"/><path class="cls-17" d="M313,130.12c-.3,1.7-1.4,3-2.46,2.9s-1.68-1.55-1.38-3.24,1.4-3,2.46-2.9S313.26,128.42,313,130.12Z"/><path class="cls-17" d="M297.11,128.32c-.29,1.64-1.39,2.9-2.45,2.8s-1.67-1.5-1.38-3.15,1.4-2.9,2.45-2.8S297.41,126.67,297.11,128.32Z"/><path class="cls-17" d="M317.09,124.55a.7.7,0,0,1-.55-.25,5.79,5.79,0,0,0-5.11-2.07.71.71,0,0,1-.85-.64.88.88,0,0,1,.71-.92,7.16,7.16,0,0,1,6.49,2.54.81.81,0,0,1-.13,1.12A.85.85,0,0,1,317.09,124.55Z"/><path class="cls-17" d="M292.83,119.63a.6.6,0,0,1-.32-.39.88.88,0,0,1,.53-1c3.95-1.67,6.47.21,6.57.29a.74.74,0,0,1,0,1,.76.76,0,0,1-1,.21,5.38,5.38,0,0,0-5.22-.17A.71.71,0,0,1,292.83,119.63Z"/><path class="cls-22" d="M301.53,128a56.61,56.61,0,0,1-6.63,9.2,1.25,1.25,0,0,0,.34,2,8,8,0,0,0,4.3.55Z"/><path class="cls-17" d="M312.18,127l-3.57-1.28S310.26,128.71,312.18,127Z"/><path class="cls-17" d="M296.11,125.25,292.53,124S294.19,127,296.11,125.25Z"/><path class="cls-17" d="M299.62,144.27a37.1,37.1,0,0,1,2.1,5c.32-.05.64-.1,1-.17,4.32-.82,6.09-2.63,6.73-4.38a5.8,5.8,0,0,0,.26-2.67,5.67,5.67,0,0,0-.38-1.48c-2.06,1.8-6.05,2.87-8.19,3.36C300.2,144.18,299.62,144.27,299.62,144.27Z"/><path class="cls-11" d="M301.1,144l.65,1.47c4.08-.79,6.85-1.88,7.92-3.35a5.67,5.67,0,0,0-.38-1.48C307.23,142.41,303.24,143.48,301.1,144Z"/><path class="cls-23" d="M302.68,149.14c4.32-.82,6.09-2.63,6.73-4.38a14.25,14.25,0,0,0-4.64,1.86A5.35,5.35,0,0,0,302.68,149.14Z"/><path d="M328.64,130.15s-6.75-12.09-5.12-21c0,0-30.6-13.53-33.67,14.93,0,0-1.73-25.48,25.39-24.22s25.08,36.8,10.57,46.46C325.79,146.21,332.8,137.71,328.64,130.15Z"/><path d="M302.55,101a23.8,23.8,0,0,0-9.29,11.12c-.74,3.44,3.38,6.85,3.38,6.85l7.31-6.37-1.42,6.58c9.54.82,16-3.08,20.74-9.63l-3.18-10.35S306.22,98.9,302.55,101Z"/><path d="M405.26,126.42a9.18,9.18,0,0,1-7.6,2.51,10.82,10.82,0,0,0,2.42-9.8c-9,3.58-19.74,8-28.37,3.45-3.95-2.11-6.5-6.63-9.66-10s-6.61-6.7-10.82-8-13.36,2.13-15.65,6.28L335,119c4.36-.83,11.21,2.34,13.12,6.77a107.53,107.53,0,0,0,6,11.77c3,5.24,6,8.54,11.13,10.83,2.34,1,7.66,2.19,15.56,1.68,6.26-.4,12.69-1.77,17.9-5.65S407.45,133,405.26,126.42Z"/></g></g></g></svg>